<svg id="Layer_1" data-name="Layer 1" xmlns="http://www.w3.org/2000/svg" viewBox="0 0 280.6951 119.9998"><defs><style>.cls-1,.cls-2,.cls-3,.cls-4,.cls-6{fill:none;}.cls-1,.cls-2,.cls-3,.cls-4{stroke:#b8b8b8;stroke-width:0.25px;}.cls-1,.cls-2,.cls-3,.cls-4,.cls-6,.cls-7,.cls-8{stroke-miterlimit:10;}.cls-2{stroke-dasharray:2.037 2.037;}.cls-3{stroke-dasharray:1.9865 1.9865;}.cls-4{stroke-dasharray:2.0147 2.0147;}.cls-5{fill:#b8b8b8;}.cls-6,.cls-7,.cls-8{stroke:#0a0;stroke-width:0.5px;}.cls-7{fill:#fff;}.cls-8,.cls-9{fill:#0a0;}</style></defs><title>designspace</title><line class="cls-1" x1="40.0336" y1="33.5109" x2="40.0336" y2="34.5109"/><line class="cls-2" x1="40.0336" y1="36.5479" x2="40.0336" y2="88.4924"/><line class="cls-1" x1="40.0336" y1="89.5109" x2="40.0336" y2="90.5109"/><line class="cls-1" x1="64.0336" y1="33.5109" x2="64.0336" y2="34.5109"/><line class="cls-2" x1="64.0336" y1="36.5479" x2="64.0336" y2="88.4924"/><line class="cls-1" x1="64.0336" y1="89.5109" x2="64.0336" y2="90.5109"/><line class="cls-1" x1="89.0336" y1="33.5109" x2="89.0336" y2="34.5109"/><line class="cls-2" x1="89.0336" y1="36.5479" x2="89.0336" y2="88.4924"/><line class="cls-1" x1="89.0336" y1="89.5109" x2="89.0336" y2="90.5109"/><line class="cls-1" x1="114.0336" y1="33.5109" x2="114.0336" y2="34.5109"/><line class="cls-2" x1="114.0336" y1="36.5479" x2="114.0336" y2="88.4924"/><line class="cls-1" x1="114.0336" y1="89.5109" x2="114.0336" y2="90.5109"/><line class="cls-1" x1="138.0336" y1="33.5109" x2="138.0336" y2="34.5109"/><line class="cls-2" x1="138.0336" y1="36.5479" x2="138.0336" y2="88.4924"/><line class="cls-1" x1="138.0336" y1="89.5109" x2="138.0336" y2="90.5109"/><line class="cls-1" x1="163.0336" y1="33.5109" x2="163.0336" y2="34.5109"/><line class="cls-2" x1="163.0336" y1="36.5479" x2="163.0336" y2="88.4924"/><line class="cls-1" x1="163.0336" y1="89.5109" x2="163.0336" y2="90.5109"/><line class="cls-1" x1="188.0336" y1="33.5109" x2="188.0336" y2="34.5109"/><line class="cls-2" x1="188.0336" y1="36.5479" x2="188.0336" y2="88.4924"/><line class="cls-1" x1="188.0336" y1="89.5109" x2="188.0336" y2="90.5109"/><line class="cls-1" x1="212.0336" y1="33.5109" x2="212.0336" y2="34.5109"/><line class="cls-2" x1="212.0336" y1="36.5479" x2="212.0336" y2="88.4924"/><line class="cls-1" x1="212.0336" y1="89.5109" x2="212.0336" y2="90.5109"/><line class="cls-1" x1="237.0336" y1="33.5109" x2="237.0336" y2="34.5109"/><line class="cls-2" x1="237.0336" y1="36.5479" x2="237.0336" y2="88.4924"/><line class="cls-1" x1="237.0336" y1="89.5109" x2="237.0336" y2="90.5109"/><line class="cls-1" x1="262.0336" y1="33.5109" x2="262.0336" y2="34.5109"/><line class="cls-2" x1="262.0336" y1="36.5479" x2="262.0336" y2="88.4924"/><line class="cls-1" x1="262.0336" y1="89.5109" x2="262.0336" y2="90.5109"/><line class="cls-1" x1="39.5336" y1="64.0109" x2="40.5336" y2="64.0109"/><line class="cls-3" x1="42.5201" y1="64.0109" x2="260.0403" y2="64.0109"/><line class="cls-1" x1="261.0336" y1="64.0109" x2="262.0336" y2="64.0109"/><line class="cls-1" x1="39.5336" y1="34.0109" x2="40.5336" y2="34.0109"/><line class="cls-3" x1="42.5201" y1="34.0109" x2="260.0403" y2="34.0109"/><line class="cls-1" x1="261.0336" y1="34.0109" x2="262.0336" y2="34.0109"/><line class="cls-1" x1="39.984" y1="90.0109" x2="40.984" y2="90.0109"/><line class="cls-4" x1="42.9987" y1="90.0109" x2="259.5758" y2="90.0109"/><line class="cls-1" x1="260.5832" y1="90.0109" x2="261.5832" y2="90.0109"/><path class="cls-5" d="M38.6655,101.5113h-2.622l-.0327-.2715c.9824-.8643,2.0781-1.56,2.0781-2.3506,0-.4238-.3081-.7119-.8848-.7119a2.7756,2.7756,0,0,0-1.0635.2558l-.0971-.2881a2.7781,2.7781,0,0,1,1.1933-.2793c.82,0,1.2417.3917,1.2417.9913,0,.9189-1.039,1.5908-1.8994,2.3427h2.0864Z"/><path class="cls-5" d="M39.4507,99.7447a1.6773,1.6773,0,0,1,1.77-1.9034,1.6331,1.6331,0,0,1,1.73,1.8311,1.6969,1.6969,0,0,1-1.7778,1.9346A1.641,1.641,0,0,1,39.4507,99.7447Zm.39-.0323c0,1.0069.5035,1.583,1.3638,1.583.8526,0,1.3477-.5839,1.3477-1.5908,0-.9834-.4951-1.5517-1.356-1.5517S39.84,98.7124,39.84,99.7124Z"/><path class="cls-5" d="M21.63,33.5747l-.1382-.2636,1.2666-.8h.3164v3.63h-.373v-3.166Z"/><path class="cls-5" d="M24.3311,34.3745a1.677,1.677,0,0,1,1.77-1.9033,1.6327,1.6327,0,0,1,1.729,1.8311,1.6967,1.6967,0,0,1-1.7773,1.9345A1.641,1.641,0,0,1,24.3311,34.3745Zm.39-.0322c0,1.0068.5034,1.583,1.3638,1.583.8525,0,1.3476-.584,1.3476-1.5908,0-.9834-.4951-1.5518-1.3554-1.5518S24.7207,33.3423,24.7207,34.3423Z"/><path class="cls-5" d="M28.8169,34.3745a1.6772,1.6772,0,0,1,1.77-1.9033,1.6331,1.6331,0,0,1,1.7295,1.8311,1.6968,1.6968,0,0,1-1.7778,1.9345A1.641,1.641,0,0,1,28.8169,34.3745Zm.39-.0322c0,1.0068.5034,1.583,1.3637,1.583.8526,0,1.3477-.584,1.3477-1.5908,0-.9834-.4951-1.5518-1.356-1.5518S29.2066,33.3423,29.2066,34.3423Z"/><path class="cls-5" d="M28.5025,65.7984v-1.64h.3486v1.64h.6494V66.11h-.6494v1.4072h-.3652V66.11H26.3428l-.0405-.2715,1.5669-3.3027h.3813l-1.5181,3.2627Z"/><path class="cls-5" d="M29.7905,62.68a3.0868,3.0868,0,0,1,1.1612-.2246c.86,0,1.3149.3682,1.3149,1.0478a1.109,1.109,0,0,1-.7793,1.087,1.1754,1.1754,0,0,1,1.023,1.248c0,1.0469-.7876,1.6865-2.1919,1.6865a5.0255,5.0255,0,0,1-.5279-.0322v-.3193c.1382.0156.39.0234.5279.0234,1.1528,0,1.7939-.5117,1.7939-1.335,0-.6953-.479-1.039-1.3393-1.039-.1543,0-.4058.0078-.5684.0234l-.0244-.3037.4224-.0312c.8115-.0645,1.2661-.4161,1.2661-.9756,0-.4883-.3326-.7676-.9576-.7676a2.9659,2.9659,0,0,0-1.0312.1992Z"/><path class="cls-5" d="M8.9649,65.4146a2.6126,2.6126,0,0,0,1.4287.4394.974.974,0,0,0,1.0717-.72c.1705-.6553-.3085-1.0391-.8686-1.4707-.56-.4238-1.0962-.9121-.8853-1.6875a1.232,1.232,0,0,1,1.3233-.8555,2.78,2.78,0,0,1,1.3315.3594l-.1382.2959a2.4259,2.4259,0,0,0-1.1767-.335.8674.8674,0,0,0-.95.5909c-.1782.6162.2764.9834.7632,1.3672.5927.456,1.2016.96.9985,1.8a1.3528,1.3528,0,0,1-1.4609.9834,2.9308,2.9308,0,0,1-1.6075-.4639Z"/><path class="cls-5" d="M13.7437,62.5357c0,.04.0083.1123.0083.24a4.15,4.15,0,0,1-.1216.9356L13.062,66.11h-.3735l.5928-2.4629a4.9929,4.9929,0,0,0,.1215-1.1113Zm.0571-.8633a.2959.2959,0,1,1,.3-.2959A.2946.2946,0,0,1,13.8008,61.6724Z"/><path class="cls-5" d="M14.5864,65.6782c.9659.0958,1.396.6719,2.419.4874v.2959c-1.25.2236-1.4937-.4717-2.8818-.504l-.0489-.2158,2.7036-2.9023H14.8218l.0649-.3037h2.3462l.0244.2724Z"/><path class="cls-5" d="M19.5039,65.8218A1.972,1.972,0,0,1,18.4,66.19c-.6494,0-1.0224-.3282-1.0224-1.167,0-1.4082.998-2.5752,1.9072-2.5752.5683,0,.82.3037.82.68,0,.7041-.8037,1.1279-2.3379,1.5507-.0083.1045-.0166.2081-.0166.3125,0,.6475.2437.8877.7065.8877a1.7215,1.7215,0,0,0,.9253-.3437Zm-1.68-1.4707c1.2828-.376,1.9161-.68,1.9161-1.1836,0-.2715-.2193-.3994-.479-.3994C18.6841,62.7681,18.043,63.4556,17.8237,64.3511Z"/><path class="cls-5" d="M28.8174,90.2105a1.677,1.677,0,0,1,1.77-1.9033,1.6326,1.6326,0,0,1,1.729,1.831,1.6968,1.6968,0,0,1-1.7773,1.9346A1.641,1.641,0,0,1,28.8174,90.2105Zm.39-.0323c0,1.0069.5035,1.5831,1.3638,1.5831.8526,0,1.3477-.584,1.3477-1.5909,0-.9834-.4951-1.5517-1.3555-1.5517S29.207,89.1782,29.207,90.1782Z"/><path class="cls-5" d="M63.31,101.2V99.56h.3486v1.64h.6494v.3116h-.6494v1.4072h-.3652v-1.4072H61.15l-.04-.2715,1.5669-3.3028h.3813L61.54,101.2Z"/><path class="cls-5" d="M64.9068,99.7447a1.6773,1.6773,0,0,1,1.7695-1.9034,1.6331,1.6331,0,0,1,1.73,1.8311,1.6969,1.6969,0,0,1-1.7779,1.9346A1.641,1.641,0,0,1,64.9068,99.7447Zm.39-.0323c0,1.0069.5034,1.583,1.3638,1.583.8525,0,1.3476-.5839,1.3476-1.5908,0-.9834-.4951-1.5517-1.3559-1.5517S65.2964,98.7124,65.2964,99.7124Z"/><path class="cls-5" d="M89.35,96.8814c-.13-.0157-.3486-.0235-.4785-.0235-1.2178,0-1.7778.8233-1.9,2.0147a2.808,2.808,0,0,1,1.2583-.3194,1.3,1.3,0,0,1,1.4043,1.4786,1.41,1.41,0,0,1-1.5181,1.5673c-1.0551,0-1.5664-.72-1.5664-2.1669,0-1.6866.69-2.9024,2.3052-2.9024.1382,0,.3574.0078.5117.0244Zm-.1216,3.1582c0-.7588-.3569-1.1826-1.0717-1.1826a2.5509,2.5509,0,0,0-1.21.3515v.2158c0,1.2393.3979,1.8555,1.1855,1.8555C88.8145,101.28,89.2285,100.8394,89.2285,100.04Z"/><path class="cls-5" d="M90.565,99.7447a1.6773,1.6773,0,0,1,1.77-1.9034,1.6331,1.6331,0,0,1,1.7295,1.8311,1.6969,1.6969,0,0,1-1.7779,1.9346A1.641,1.641,0,0,1,90.565,99.7447Zm.39-.0323c0,1.0069.5034,1.583,1.3638,1.583.8525,0,1.3476-.5839,1.3476-1.5908,0-.9834-.4951-1.5517-1.3559-1.5517S90.9546,98.7124,90.9546,99.7124Z"/><path class="cls-5" d="M115.0093,100.3443c0,.791-.5845,1.2627-1.5991,1.2627-.9986,0-1.5747-.4639-1.5747-1.2227a1.8531,1.8531,0,0,1,1.1606-1.5117,1.4311,1.4311,0,0,1-.9253-1.2315c0-.7031.4868-1.1269,1.3721-1.1269.8682,0,1.3633.3916,1.3633,1.0713a1.6494,1.6494,0,0,1-.95,1.3427C114.4492,99.2241,115.0093,99.5845,115.0093,100.3443Zm-.3975.0156c0-.68-.666-.9834-1.3154-1.3193-.5439.3115-1.0635.72-1.0635,1.3115s.4385.9433,1.2017.9433C114.19,101.2954,114.6118,100.9439,114.6118,100.36Zm-1.08-1.6a1.4632,1.4632,0,0,0,.8769-1.1426c0-.5039-.3574-.792-.99-.792-.6089,0-.958.2959-.958.8C112.4605,98.2007,112.9717,98.4888,113.5318,98.76Z"/><path class="cls-5" d="M115.8506,99.7447a1.677,1.677,0,0,1,1.7695-1.9034,1.6327,1.6327,0,0,1,1.729,1.8311,1.6968,1.6968,0,0,1-1.7773,1.9346A1.641,1.641,0,0,1,115.8506,99.7447Zm.39-.0323c0,1.0069.5034,1.583,1.3637,1.583.8526,0,1.3477-.5839,1.3477-1.5908,0-.9834-.4951-1.5517-1.3555-1.5517S116.24,98.7124,116.24,99.7124Z"/><path class="cls-5" d="M131.54,98.9449l-.1377-.2637,1.2661-.8h.3164v3.63h-.3731V98.3452Z"/><path class="cls-5" d="M134.2407,99.7447a1.677,1.677,0,0,1,1.7691-1.9034,1.6331,1.6331,0,0,1,1.7295,1.8311,1.6968,1.6968,0,0,1-1.7774,1.9346A1.641,1.641,0,0,1,134.2407,99.7447Zm.39-.0323c0,1.0069.5034,1.583,1.3638,1.583.8525,0,1.3476-.5839,1.3476-1.5908,0-.9834-.4951-1.5517-1.3564-1.5517S134.63,98.7124,134.63,99.7124Z"/><path class="cls-5" d="M138.7266,99.7447a1.6773,1.6773,0,0,1,1.77-1.9034,1.6331,1.6331,0,0,1,1.7295,1.8311,1.6968,1.6968,0,0,1-1.7773,1.9346A1.6413,1.6413,0,0,1,138.7266,99.7447Zm.39-.0323c0,1.0069.5039,1.583,1.3643,1.583.8525,0,1.3476-.5839,1.3476-1.5908,0-.9834-.4951-1.5517-1.3564-1.5517S139.1162,98.7124,139.1162,99.7124Z"/><path class="cls-5" d="M143.1436,109.3765c-.2032,1.8623-1.3311,3.1182-2.1836,4.917h-.3164l-.52-4.1738c-.5273,1.7109-1.8027,2.8789-2.4033,4.1738h-.3v-4.917h.3731l-.0733,4.2529c.6494-1.207,1.8594-2.4385,2.3379-4.2529h.35l.4951,4.27c.7139-1.4717,1.7207-2.6943,1.875-4.27Z"/><path class="cls-5" d="M145.4522,114.0054a1.9694,1.9694,0,0,1-1.1036.3682c-.6494,0-1.0224-.3282-1.0224-1.167,0-1.4082.998-2.5752,1.9072-2.5752.5684,0,.82.3037.82.68,0,.7041-.8037,1.1279-2.3379,1.5507-.0088.1045-.0166.2081-.0166.3125,0,.6475.2432.8877.7061.8877a1.7219,1.7219,0,0,0,.9258-.3437Zm-1.68-1.4707c1.2822-.376,1.916-.68,1.916-1.1836,0-.2715-.22-.3994-.48-.3994C144.6328,110.9517,143.9912,111.6392,143.7725,112.5347Z"/><path class="cls-5" d="M147.5694,110.7193c0,.04.0078.1123.0078.24a4.1706,4.1706,0,0,1-.1211.9355l-.5684,2.3985h-.374l.5928-2.4629a4.9655,4.9655,0,0,0,.122-1.1113Zm.0566-.8633a.2959.2959,0,1,1,.3008-.2959A.2946.2946,0,0,1,147.626,109.856Z"/><path class="cls-5" d="M151.7559,110.3677a1.9492,1.9492,0,0,0-.9092.5752.75.75,0,0,1,.1064.4,2.2276,2.2276,0,0,1-1.6,1.9424c-.1465.1523-.26.2558-.26.4082,0,.376,1.38.8476,1.38,1.583,0,.6719-1.0146.8076-1.5585.8076-.8438,0-1.5176-.16-1.5176-.7754,0-.5918.7949-.9434,1.5742-1.1514a.5835.5835,0,0,1-.2432-.416.6987.6987,0,0,1,.3-.4795.6519.6519,0,0,1-.4463-.7119,1.9621,1.9621,0,0,1,1.5918-1.9111.9833.9833,0,0,1,.4463.0967,2.125,2.125,0,0,1,1.03-.7285Zm-2.54,3.9736c-.625.16-1.4453.48-1.4453.9434,0,.416.6172.5117,1.1524.5117.4629,0,1.1611-.1113,1.1611-.5039C150.084,114.8931,149.6055,114.6216,149.2158,114.3413Zm-.2929-1.7754c0,.2647.13.4327.39.4327.5195,0,1.2832-.9922,1.2832-1.6319a.4014.4014,0,0,0-.4551-.4394C149.5479,110.9273,148.8985,111.9663,148.9229,112.5659Z"/><path class="cls-5" d="M152.4766,111.5913a1.7193,1.7193,0,0,1,1.3965-.9521c.56,0,.7548.3525.7548.96a6.9041,6.9041,0,0,1-.8115,2.7979l-.3164-.1436a6.7653,6.7653,0,0,0,.7461-2.622c0-.4082-.1055-.6563-.4541-.6563-.5283,0-1.2666.5918-1.583,1.8555l.0078-.0566-.333,1.5195h-.3652l.9824-4.4932a2.9673,2.9673,0,0,0,.09-.9121l.3321-.0156a2.7239,2.7239,0,0,1-.0645.9756Z"/><path class="cls-5" d="M156.127,113.1177a2.8219,2.8219,0,0,0-.1055.584c0,.2324.1465.36.3975.36a1.329,1.329,0,0,0,.7636-.3359l.1543.2715a1.7032,1.7032,0,0,1-.999.3916c-.4385,0-.6982-.2236-.6982-.64a2.7888,2.7888,0,0,1,.122-.68l.5362-2.0547H155.73l.0645-.2959h.5761l.3174-1.2149.4053-.0722-.3408,1.2871h.9258l-.0733.2959h-.9258Z"/><path class="cls-5" d="M157.5342,98.9449l-.1377-.2637,1.2666-.8h.3164v3.63h-.374V98.3452Z"/><path class="cls-5" d="M162.6465,101.5113h-2.6221l-.0322-.2715c.9814-.8643,2.0781-1.56,2.0781-2.3506,0-.4238-.3086-.7119-.8847-.7119a2.769,2.769,0,0,0-1.0635.2558l-.0977-.2881a2.7785,2.7785,0,0,1,1.1934-.2793c.8193,0,1.2422.3917,1.2422.9913,0,.9189-1.0391,1.5908-1.8994,2.3427h2.0859Z"/><path class="cls-5" d="M163.4317,99.7447a1.6773,1.6773,0,0,1,1.7695-1.9034,1.6331,1.6331,0,0,1,1.73,1.8311,1.697,1.697,0,0,1-1.7783,1.9346A1.6406,1.6406,0,0,1,163.4317,99.7447Zm.39-.0323c0,1.0069.5029,1.583,1.3643,1.583.8515,0,1.3466-.5839,1.3466-1.5908,0-.9834-.4951-1.5517-1.3554-1.5517S163.8213,98.7124,163.8213,99.7124Z"/><path class="cls-5" d="M182.7793,98.9449l-.1377-.2637,1.2656-.8h.3174v3.63h-.374V98.3452Z"/><path class="cls-5" d="M187.291,101.2V99.56h.3487v1.64h.6494v.3116H187.64v1.4072h-.3653v-1.4072h-2.1425l-.0411-.2715,1.5664-3.3028h.3819L185.5215,101.2Z"/><path class="cls-5" d="M188.8877,99.7447a1.6773,1.6773,0,0,1,1.7695-1.9034,1.6331,1.6331,0,0,1,1.73,1.8311,1.697,1.697,0,0,1-1.7783,1.9346A1.6406,1.6406,0,0,1,188.8877,99.7447Zm.39-.0323c0,1.0069.5029,1.583,1.3642,1.583.8516,0,1.3467-.5839,1.3467-1.5908,0-.9834-.4951-1.5517-1.3555-1.5517S189.2774,98.7124,189.2774,99.7124Z"/><path class="cls-5" d="M206.8076,98.9449l-.1377-.2637,1.2666-.8h.3164v3.63h-.374V98.3452Z"/><path class="cls-5" d="M212.3174,96.8814c-.13-.0157-.3486-.0235-.4785-.0235-1.2178,0-1.7783.8233-1.8994,2.0147a2.8058,2.8058,0,0,1,1.2578-.3194,1.3,1.3,0,0,1,1.4043,1.4786,1.41,1.41,0,0,1-1.5176,1.5673c-1.0557,0-1.5674-.72-1.5674-2.1669,0-1.6866.69-2.9024,2.3057-2.9024.1377,0,.3574.0078.5117.0244Zm-.1211,3.1582c0-.7588-.3574-1.1826-1.0723-1.1826a2.5459,2.5459,0,0,0-1.2089.3515v.2158c0,1.2393.3974,1.8555,1.1845,1.8555C211.7822,101.28,212.1963,100.8394,212.1963,100.04Z"/><path class="cls-5" d="M213.5322,99.7447a1.6773,1.6773,0,0,1,1.77-1.9034,1.6331,1.6331,0,0,1,1.73,1.8311,1.697,1.697,0,0,1-1.7784,1.9346A1.6407,1.6407,0,0,1,213.5322,99.7447Zm.39-.0323c0,1.0069.5029,1.583,1.3642,1.583.8516,0,1.3467-.5839,1.3467-1.5908,0-.9834-.4951-1.5517-1.3554-1.5517S213.9219,98.7124,213.9219,99.7124Z"/><path class="cls-5" d="M232.2227,98.9449l-.1377-.2637,1.2656-.8h.3174v3.63h-.374V98.3452Z"/><path class="cls-5" d="M237.9766,100.3443c0,.791-.585,1.2627-1.6,1.2627-.9981,0-1.5752-.4639-1.5752-1.2227a1.8527,1.8527,0,0,1,1.1611-1.5117,1.4324,1.4324,0,0,1-.9258-1.2315c0-.7031.4873-1.1269,1.3721-1.1269.8691,0,1.3643.3916,1.3643,1.0713a1.6489,1.6489,0,0,1-.95,1.3427C237.416,99.2241,237.9766,99.5845,237.9766,100.3443Zm-.3985.0156c0-.68-.665-.9834-1.3144-1.3193-.544.3115-1.0635.72-1.0635,1.3115s.4385.9433,1.2012.9433C237.1563,101.2954,237.5781,100.9439,237.5781,100.36Zm-1.0791-1.6a1.463,1.463,0,0,0,.876-1.1426c0-.5039-.3564-.792-.99-.792-.6084,0-.958.2959-.958.8C235.4268,98.2007,235.9385,98.4888,236.499,98.76Z"/><path class="cls-5" d="M238.8174,99.7447a1.6773,1.6773,0,0,1,1.77-1.9034,1.6331,1.6331,0,0,1,1.7295,1.8311,1.697,1.697,0,0,1-1.7783,1.9346A1.6406,1.6406,0,0,1,238.8174,99.7447Zm.39-.0323c0,1.0069.503,1.583,1.3643,1.583.8516,0,1.3467-.5839,1.3467-1.5908,0-.9834-.4951-1.5517-1.3555-1.5517S239.207,98.7124,239.207,99.7124Z"/><path class="cls-5" d="M259.5049,101.5113h-2.6221l-.0322-.2715c.9824-.8643,2.0781-1.56,2.0781-2.3506,0-.4238-.3086-.7119-.8847-.7119a2.769,2.769,0,0,0-1.0635.2558l-.0977-.2881a2.7785,2.7785,0,0,1,1.1934-.2793c.8193,0,1.2422.3917,1.2422.9913,0,.9189-1.0391,1.5908-1.8994,2.3427h2.0859Z"/><path class="cls-5" d="M260.29,99.7447a1.6773,1.6773,0,0,1,1.7695-1.9034,1.6331,1.6331,0,0,1,1.73,1.8311,1.697,1.697,0,0,1-1.7783,1.9346A1.6406,1.6406,0,0,1,260.29,99.7447Zm.39-.0323c0,1.0069.5029,1.583,1.3643,1.583.8515,0,1.3466-.5839,1.3466-1.5908,0-.9834-.4951-1.5517-1.3554-1.5517S260.68,98.7124,260.68,99.7124Z"/><path class="cls-5" d="M264.7754,99.7447a1.6773,1.6773,0,0,1,1.7695-1.9034,1.6331,1.6331,0,0,1,1.73,1.8311,1.697,1.697,0,0,1-1.7783,1.9346A1.6406,1.6406,0,0,1,264.7754,99.7447Zm.39-.0323c0,1.0069.5029,1.583,1.3642,1.583.8516,0,1.3467-.5839,1.3467-1.5908,0-.9834-.4951-1.5517-1.3555-1.5517S265.1651,98.7124,265.1651,99.7124Z"/><polyline class="cls-6" points="45.722 33.511 43.253 64.011 42.019 90.466"/><polyline class="cls-6" points="63.001 33.511 60.533 64.32 56.83 90.511"/><polyline class="cls-6" points="96.326 33.511 89.034 64.32 81.515 90.466"/><polyline class="cls-6" points="122.246 33.511 112.372 64.32 101.263 90.466"/><polyline class="cls-6" points="146.931 33.511 134.588 64.011 122.246 90.466"/><polyline class="cls-6" points="167.913 33.615 153.102 64.32 136.946 90.466"/><polyline class="cls-6" points="192.598 33.511 175.319 64.32 158.039 90.466"/><polyline class="cls-6" points="230.86 33.615 209.581 64.32 186.427 90.466"/><polyline class="cls-6" points="264.185 33.615 235.797 64.32 213.581 90.466"/><circle class="cls-7" cx="42.0191" cy="90.4659" r="2.4"/><circle class="cls-8" cx="42.0191" cy="90.4659" r="2.4"/><circle class="cls-7" cx="56.8301" cy="90.4659" r="2.4"/><circle class="cls-6" cx="56.8301" cy="90.4659" r="2.4"/><circle class="cls-7" cx="81.5153" cy="90.4659" r="2.4"/><circle class="cls-6" cx="81.5153" cy="90.4659" r="2.4"/><circle class="cls-7" cx="101.2633" cy="90.4659" r="2.4"/><circle class="cls-6" cx="101.2633" cy="90.4659" r="2.4"/><circle class="cls-7" cx="122.2457" cy="90.4659" r="2.4"/><circle class="cls-6" cx="122.2457" cy="90.4659" r="2.4"/><circle class="cls-7" cx="137.0567" cy="90.4659" r="2.4"/><circle class="cls-6" cx="137.0567" cy="90.4659" r="2.4"/><circle class="cls-7" cx="158.0391" cy="90.4659" r="2.4"/><circle class="cls-6" cx="158.0391" cy="90.4659" r="2.4"/><circle class="cls-7" cx="186.4269" cy="90.4659" r="2.4"/><circle class="cls-6" cx="186.4269" cy="90.4659" r="2.4"/><circle class="cls-7" cx="213.5806" cy="90.4659" r="2.4"/><circle class="cls-8" cx="213.5806" cy="90.4659" r="2.4"/><circle class="cls-7" cx="43.2533" cy="64.32" r="2.4"/><circle class="cls-6" cx="43.2533" cy="64.32" r="2.4"/><circle class="cls-7" cx="60.5329" cy="64.32" r="2.4"/><circle class="cls-6" cx="60.5329" cy="64.32" r="2.4"/><circle class="cls-7" cx="88.9208" cy="64.32" r="2.4"/><circle class="cls-6" cx="88.9208" cy="64.32" r="2.4"/><circle class="cls-7" cx="112.3716" cy="64.32" r="2.4"/><circle class="cls-6" cx="112.3716" cy="64.32" r="2.4"/><circle class="cls-7" cx="134.5882" cy="64.32" r="2.4"/><circle class="cls-6" cx="134.5882" cy="64.32" r="2.4"/><circle class="cls-7" cx="153.102" cy="64.32" r="2.4"/><circle class="cls-6" cx="153.102" cy="64.32" r="2.4"/><circle class="cls-7" cx="175.3186" cy="64.32" r="2.4"/><circle class="cls-6" cx="175.3186" cy="64.32" r="2.4"/><circle class="cls-7" cx="209.8778" cy="64.32" r="2.4"/><circle class="cls-6" cx="209.8778" cy="64.32" r="2.4"/><circle class="cls-7" cx="235.7971" cy="64.32" r="2.4"/><circle class="cls-6" cx="235.7971" cy="64.32" r="2.4"/><circle class="cls-7" cx="45.7218" cy="33.6149" r="2.4"/><circle class="cls-8" cx="45.7218" cy="33.6149" r="2.4"/><circle class="cls-7" cx="63.0014" cy="33.6149" r="2.4"/><circle class="cls-6" cx="63.0014" cy="33.6149" r="2.4"/><path class="cls-7" d="M98.6972,33.2355a2.4011,2.4011,0,1,1-1.9913-1.9915A2.4026,2.4026,0,0,1,98.6972,33.2355Z"/><path class="cls-6" d="M98.6972,33.2355a2.4011,2.4011,0,1,1-1.9913-1.9915A2.4026,2.4026,0,0,1,98.6972,33.2355Z"/><path class="cls-7" d="M124.6165,33.2353a2.401,2.401,0,1,1-1.9916-1.9913A2.4025,2.4025,0,0,1,124.6165,33.2353Z"/><path class="cls-6" d="M124.6165,33.2353a2.401,2.401,0,1,1-1.9916-1.9913A2.4025,2.4025,0,0,1,124.6165,33.2353Z"/><path class="cls-7" d="M149.3016,33.2353A2.401,2.401,0,1,1,147.31,31.244,2.4025,2.4025,0,0,1,149.3016,33.2353Z"/><path class="cls-6" d="M149.3016,33.2353A2.401,2.401,0,1,1,147.31,31.244,2.4025,2.4025,0,0,1,149.3016,33.2353Z"/><path class="cls-7" d="M170.284,33.2355a2.4011,2.4011,0,1,1-1.9914-1.9915A2.4026,2.4026,0,0,1,170.284,33.2355Z"/><path class="cls-6" d="M170.284,33.2355a2.4011,2.4011,0,1,1-1.9914-1.9915A2.4026,2.4026,0,0,1,170.284,33.2355Z"/><path class="cls-7" d="M194.9691,33.2355a2.4011,2.4011,0,1,1-1.9913-1.9915A2.4026,2.4026,0,0,1,194.9691,33.2355Z"/><path class="cls-6" d="M194.9691,33.2355a2.4011,2.4011,0,1,1-1.9913-1.9915A2.4026,2.4026,0,0,1,194.9691,33.2355Z"/><path class="cls-7" d="M233.231,33.2355A2.4011,2.4011,0,1,1,231.24,31.244,2.4026,2.4026,0,0,1,233.231,33.2355Z"/><path class="cls-6" d="M233.231,33.2355A2.4011,2.4011,0,1,1,231.24,31.244,2.4026,2.4026,0,0,1,233.231,33.2355Z"/><path class="cls-7" d="M266.5559,33.2355a2.4011,2.4011,0,1,1-1.9913-1.9915A2.4026,2.4026,0,0,1,266.5559,33.2355Z"/><path class="cls-8" d="M266.5559,33.2355a2.4011,2.4011,0,1,1-1.9913-1.9915A2.4026,2.4026,0,0,1,266.5559,33.2355Z"/><path class="cls-9" d="M47.55,24.3545a1.654,1.654,0,0,1-.0351,2.61,1.6057,1.6057,0,0,1-2.5391.0307L42.6914,24.711l.4092-.4087,2.2754,2.2759a1.1561,1.1561,0,0,0,1.8232.0273,1.1291,1.1291,0,0,0-.0166-1.79l-2.2978-2.2983.4092-.4087,2.25,2.251Z"/><path class="cls-9" d="M46.3731,20.333l3.8291,3.8286-.4.4-3.8291-3.8286Z"/><path class="cls-9" d="M52.544,21.7744a2.4069,2.4069,0,0,1-.4414.6138.977.977,0,0,1-1.5782-.0586l-1.48-1.48-.3887.39-.3047-.3037.3906-.39-.8379-.8369.3008-.5.94.9395.7324-.732.3037.3038-.7314.7319,1.4609,1.4609c.3174.3179.6152.3843.92.08a1.9238,1.9238,0,0,0,.3281-.4663l.3838.251Z"/><path class="cls-9" d="M52.3867,17.6289c-.53.3369-.5664.9366-.39,1.71l1.5156,1.5161-.4.4-2.541-2.541.3984-.398.5606.5606c-.124-.6875-.082-1.3364.5273-1.6763l.3233.4224Z"/><path class="cls-9" d="M56.4551,17.9024c-.1074-.0694-.207-.1358-.3447-.2349a1.9472,1.9472,0,0,1-.4756,1.1763.92.92,0,0,1-1.3916-.0054c-.6221-.6216-.3184-1.3779.6269-2.3447l-.2715-.2705-.0048,0a.6176.6176,0,0,0-.9952-.0054,2.9932,2.9932,0,0,0-.5742.9116l-.3838-.207a3.5077,3.5077,0,0,1,.6934-1.0693,1.0338,1.0338,0,0,1,1.6514-.0386l1.0468,1.0469a9.9321,9.9321,0,0,0,.7764.688Zm-1.292-1.1158c-.6973.7012-.9453,1.2037-.5527,1.5962a.5363.5363,0,0,0,.7988.0415,1.6669,1.6669,0,0,0,.35-1.0415Zm.0332-.0332-.0059.0054.002.0025Z"/><path class="cls-9" d="M54.3584,12.3477l3.8281,3.8286-.4.4L53.958,12.7481Z"/><path class="cls-9" d="M55.8008,11.8448a.3889.3889,0,0,1,.55-.5494.363.363,0,0,1-.0078.544A.3594.3594,0,0,1,55.8008,11.8448Zm1.29.3452,2.5411,2.5415-.4.4L56.69,12.59Z"/><path class="cls-9" d="M60.62,12.0576a1.9506,1.9506,0,0,1-.2949.2456.6.6,0,0,0,.1709.3707c.583.5825,1.7764-1.2847,2.7158-.3453.6094.61.1289,1.3887-.415,1.9331-.624.6241-1.31.8511-1.7842.376a1.6708,1.6708,0,0,1-.3262-1.3149.7127.7127,0,0,1-.4941-.229.99.99,0,0,1-.2578-.6109,1.1121,1.1121,0,0,1-1.1094-.3481,1.1881,1.1881,0,0,1,.0274-1.834,1.7109,1.7109,0,0,1,.4863-.3476A2.1659,2.1659,0,0,1,59.48,8.6241l.4336.2407a1.4672,1.4672,0,0,0-.1709.9887,1.2182,1.2182,0,0,1,.9443.4141A1.163,1.163,0,0,1,60.62,12.0576ZM59.1807,11.74a.7933.7933,0,0,0,1.125-1.1187.7426.7426,0,0,0-1.1494-.0166A.7336.7336,0,0,0,59.1807,11.74Zm3.66,1.0136c-.4355-.4365-1.09.2461-1.7314.4888a1.2413,1.2413,0,0,0,.2178.9917c.2851.2847.71.1909,1.1914-.29C62.9209,13.5406,63.1729,13.085,62.8408,12.7534Z"/><path class="cls-9" d="M61.4492,8.461a2.219,2.219,0,0,1,.5694-1.2979c.4863-.4858,1.0185-.4668,1.5849.1l1.7451,1.7456-.4.4L63.2451,7.7046c-.3457-.3452-.6748-.3813-.99-.0664a2.012,2.012,0,0,0-.4434,1.1846L63.6787,10.69l-.3984.3979-.002-.0024-.0039.0029L59.4463,7.26l.4-.4009Z"/><path class="cls-9" d="M67.6807,6.6382a2.3986,2.3986,0,0,1-.4414.6133.977.977,0,0,1-1.5782-.0581l-1.48-1.48-.3887.3892-.3047-.3037.39-.3892L63.04,4.5723l.3007-.5.9395.9394.7324-.7319.3027.3037-.7314.732,1.4609,1.4609c.3174.3179.6162.3838.92.08A1.92,1.92,0,0,0,67.294,6.39l.3838.251Z"/><path class="cls-9" d="M64.5581,27.1031l-.4121.4116-3.1484-3.149-1.166,1.1656L59.5,25.2l2.7432-2.7426.331.3315-1.165,1.1655Z"/><path class="cls-9" d="M64.4527,22.7554a2.2227,2.2227,0,0,1,.5683-1.2979c.4863-.4863,1.0195-.4672,1.5859.0992l1.7461,1.7456-.4.4-1.7051-1.7041c-.3448-.3453-.6739-.3814-.9883-.0664a2.0174,2.0174,0,0,0-.4453,1.185l1.8672,1.8672-.3975.3975-.0029-.0025-.002.003L62.45,21.5537l.4-.4Z"/><path class="cls-9" d="M65.9546,18.9878a.3894.3894,0,0,1,.5508-.55.3635.3635,0,0,1-.0088.5444A.36.36,0,0,1,65.9546,18.9878Zm1.29.3452,2.542,2.5415-.4.4-2.5419-2.5415Z"/><path class="cls-9" d="M69.0044,18.2256A2.2241,2.2241,0,0,1,69.58,16.9c.4863-.4863,1.0186-.4673,1.585.0992L72.91,18.7447l-.4.4-1.7031-1.7041c-.3457-.3452-.6748-.3813-.99-.0664a2.0228,2.0228,0,0,0-.4472,1.188L71.2359,20.43l-.3975.3975-2.541-2.541.3838-.3838Z"/><path class="cls-9" d="M93.4063,24.67l.4052-.4058,3.15,3.1489,1.6845-1.685.3311.3315-2.09,2.0908Z"/><path class="cls-9" d="M96.1319,22.1866a.3891.3891,0,0,1,.55-.55.3889.3889,0,0,1-.55.55Zm1.29.3447,2.541,2.5415-.4.4009-2.541-2.5415Z"/><path class="cls-9" d="M100.9512,22.399a1.8905,1.8905,0,0,1-.2949.2456.601.601,0,0,0,.1718.3706c.5821.5825,1.7754-1.2847,2.7149-.3453.61.61.1289,1.3892-.4141,1.9332-.625.6245-1.3095.851-1.7851.3759a1.67,1.67,0,0,1-.3252-1.3149.7166.7166,0,0,1-.4951-.229.9887.9887,0,0,1-.2569-.6109,1.1133,1.1133,0,0,1-1.11-.3476,1.1886,1.1886,0,0,1,.0273-1.8345,1.7248,1.7248,0,0,1,.4863-.3476,2.1737,2.1737,0,0,1,.1407-1.3291l.4345.2407a1.468,1.468,0,0,0-.1709.9888,1.2173,1.2173,0,0,1,.9434.414A1.1618,1.1618,0,0,1,100.9512,22.399Zm-1.4385-.3179a.7929.7929,0,0,0,1.124-1.1187.7415.7415,0,0,0-1.1484-.0166A.7329.7329,0,0,0,99.5127,22.0811Zm3.6592,1.0141c-.4356-.4365-1.09.2461-1.7315.4888a1.2457,1.2457,0,0,0,.2178.9917c.2852.2847.711.19,1.1914-.29C103.252,23.8824,103.5039,23.4268,103.1719,23.0952Z"/><path class="cls-9" d="M101.78,18.8028a2.2168,2.2168,0,0,1,.5693-1.2979c.4864-.4863,1.02-.4673,1.586.0991l1.7451,1.7456-.4.4-1.7041-1.7041c-.3457-.3452-.6738-.3813-.9893-.0664a2.0183,2.0183,0,0,0-.4443,1.1851l1.8672,1.8672-.3985.3974-.0019-.0024-.0029.0029-3.8291-3.8286.4-.4Z"/><path class="cls-9" d="M108.0117,16.98a2.3937,2.3937,0,0,1-.4414.6133.9766.9766,0,0,1-1.5781-.0581l-1.48-1.48-.3886.39-.3047-.3037.3906-.39-.8379-.8369.3008-.5.9394.9395.7325-.732.3037.3037-.7315.732,1.461,1.4609c.3174.3179.6152.3838.92.08a1.9349,1.9349,0,0,0,.3281-.4668l.3838.2514Z"/><path class="cls-9" d="M124.6314,26.3184l-2.169-.7153a5.752,5.752,0,0,1-.66.7207l1.415,1.4145-.4092.4087-3.4824-3.4834.9053-.9058.0088.003c.8867-.8867,1.6464-.9781,2.2812-.3428a1.3625,1.3625,0,0,1,.23,1.7266l2.375.68Zm-3.1465-.3233c.9619-.8784,1.1826-1.5908.6328-2.1406-.4287-.4282-.9443-.3647-1.5693.26l-.4727.4722Z"/><path class="cls-9" d="M127.3628,23.3438a2.7093,2.7093,0,0,1-.6435,1.03c-.7491.7485-1.6407.6738-2.5079-.1934-.8349-.8345-.9111-1.7183-.2021-2.4282a1.3048,1.3048,0,0,1,2.0166.144,2.5141,2.5141,0,0,1,.2353.2842l-1.6464,1.6465c.6572.6347,1.2812.7348,1.8173.1992a2.5609,2.5609,0,0,0,.55-.8872Zm-1.7236-1.127c-.4805-.47-.95-.5083-1.3194-.1382a1,1,0,0,0,.0157,1.4419Z"/><path class="cls-9" d="M128.2935,20.9766a1.9611,1.9611,0,0,1-.2959.2456.6065.6065,0,0,0,.1718.3706c.5821.5825,1.7754-1.2847,2.7149-.3452.6113.61.1309,1.3887-.4141,1.9331-.624.624-1.3086.8511-1.7841.376a1.6662,1.6662,0,0,1-.3252-1.315.713.713,0,0,1-.4952-.229.9832.9832,0,0,1-.2568-.6108,1.1129,1.1129,0,0,1-1.11-.3482,1.1873,1.1873,0,0,1,.0273-1.8339,1.7253,1.7253,0,0,1,.4863-.3477,2.1735,2.1735,0,0,1,.1406-1.3291l.4346.2407a1.4737,1.4737,0,0,0-.1719.9888,1.22,1.22,0,0,1,.9444.4141A1.1624,1.1624,0,0,1,128.2935,20.9766Zm-1.4385-.3179a.7929.7929,0,0,0,1.124-1.1186.7425.7425,0,0,0-1.1494-.0166A.7335.7335,0,0,0,126.855,20.6587Zm3.66,1.0137c-.4375-.4365-1.0918.2461-1.7325.4888a1.2337,1.2337,0,0,0,.2188.9917c.2842.2846.709.1909,1.1894-.29C130.5952,22.46,130.8462,22.0039,130.5152,21.6724Z"/><path class="cls-9" d="M133.0064,17.9492l-.3819.3814-.3222-.3232a2.2312,2.2312,0,0,1-.5752,1.3256c-.4864.4864-1.02.4668-1.585-.0991l-1.7461-1.7456.4-.4009,1.7051,1.7041c.3447.3452.6728.3814.9883.0664a2.0229,2.0229,0,0,0,.4472-1.188l-1.8642-1.8642.3955-.395Z"/><path class="cls-9" d="M130.6284,12.67l3.8282,3.8287-.4.4008-3.8291-3.8286Z"/><path class="cls-9" d="M136.8008,14.1485c-.1074-.0689-.207-.1353-.3438-.2349a1.9424,1.9424,0,0,1-.4765,1.1768.921.921,0,0,1-1.3921-.0054c-.6221-.6216-.3174-1.3784.6284-2.3452l-.2715-.2705H134.94a.6174.6174,0,0,0-.9947-.0059,2.9932,2.9932,0,0,0-.5742.9116l-.3838-.207a3.5216,3.5216,0,0,1,.6924-1.0689,1.035,1.035,0,0,1,1.6528-.0385l1.0469,1.0468a10.0421,10.0421,0,0,0,.7754.6875Zm-1.291-1.1158c-.6973.7012-.9458,1.2041-.5528,1.5967a.5346.5346,0,0,0,.7969.0415,1.6592,1.6592,0,0,0,.3516-1.042ZM135.543,13l-.0059.0059.002.0024Z"/><path class="cls-9" d="M137.4141,9.1934c-.5293.3369-.5664.9365-.3887,1.71L138.541,12.42l-.4.4L135.6,10.2788l.3985-.3979.5605.56c-.125-.6875-.082-1.3364.5274-1.6762l.3222.4223Z"/><path class="cls-9" d="M150.5352,25.1114l-2.8828-2.5357,1.5976,3.82-.2793.2793L145.18,25.07l2.5137,2.878-.3711.37-3.2363-3.729.3945-.395,4.041,1.7265-1.6953-4.0718.3828-.3837,3.7266,3.2456Z"/><path class="cls-9" d="M153.502,21.8907a2.6961,2.6961,0,0,1-.6446,1.03c-.748.7486-1.6406.6739-2.5078-.1933-.834-.8345-.9121-1.7178-.2011-2.4278a1.3034,1.3034,0,0,1,2.0156.1436,2.4164,2.4164,0,0,1,.2363.2847l-1.6465,1.646c.6563.6352,1.2813.7348,1.8164.1992a2.5508,2.5508,0,0,0,.5508-.8872Zm-1.7246-1.127c-.4805-.47-.9493-.5078-1.32-.1377a.998.998,0,0,0,.0176,1.4414Z"/><path class="cls-9" d="M156.2832,19.1924a4.35,4.35,0,0,1-.7383,1.0352,1.6059,1.6059,0,0,1-2.5293-.1045,1.6591,1.6591,0,0,1-.1621-2.5493,1.7869,1.7869,0,0,1,.6-.4063L152.1348,15.85l.4-.4Zm-2.4648-1.6631a1.4345,1.4345,0,0,0-.6133.37c-.5039.5054-.416,1.1631.2168,1.7955.65.6518,1.2793.7265,1.82.185a1.9842,1.9842,0,0,0,.3809-.5469Z"/><path class="cls-9" d="M153.9805,14.9439a.3885.3885,0,0,1,.5488-.5493.3622.3622,0,0,1-.0078.5439A.3582.3582,0,0,1,153.9805,14.9439Zm1.289.3452,2.5411,2.5415-.4.4-2.541-2.5415Z"/><path class="cls-9" d="M160.916,14.7261l-.3808.3809-.3242-.3233a2.2293,2.2293,0,0,1-.5743,1.3257c-.4863.4863-1.0195.4668-1.5859-.0991l-1.7461-1.7456.4-.4,1.7051,1.7041c.3457.3452.6738.3808.9883.0659a2.01,2.01,0,0,0,.4472-1.1875l-1.8633-1.8643.3946-.395Z"/><path class="cls-9" d="M160.15,11.0825a2.2069,2.2069,0,0,1,.5606-1.3286.8786.8786,0,0,1,1.0761-.2431,2.2691,2.2691,0,0,1,.5821-1.4087c.43-.4307.93-.5054,1.5683.1328l1.7305,1.7319-.4024.4033L163.584,8.688c-.3594-.3589-.6738-.4258-1-.1a1.8608,1.8608,0,0,0-.418,1.1792c.041.0361.08.0747.1211.1162l1.7364,1.7349-.4043.4033L161.9375,10.34c-.3594-.3594-.6836-.4229-1.0078-.0972a1.9181,1.9181,0,0,0-.4141,1.166l1.8555,1.856-.4.4-2.541-2.541.3789-.3785Z"/><path class="cls-9" d="M167.0156,23.523a3.09,3.09,0,0,0-.9687.6274c-.4356.4365-.4668.8643-.1563,1.1738.3829.3838.9043.2095,1.4493.0025.6152-.2344,1.3964-.541,2.0664.1274.6.6.4863,1.3535-.24,2.08a3.857,3.857,0,0,1-1.2382.8179l-.2188-.4614a3.3663,3.3663,0,0,0,1.125-.6934c.4609-.4614.5391-.9307.1777-1.2925-.4238-.4228-.9843-.2265-1.5625-.0141-.6621.2436-1.3535.4863-1.9511-.1128-.5528-.5528-.4746-1.26.1992-1.9336a3.608,3.608,0,0,1,1.0976-.7456Z"/><path class="cls-9" d="M172.6094,23.7637a2.7216,2.7216,0,0,1-.6426,1.03c-.75.7485-1.6406.6738-2.5078-.1934-.8359-.8345-.9121-1.7182-.2031-2.4282a1.3059,1.3059,0,0,1,2.0176.1435,2.6286,2.6286,0,0,1,.2343.2847l-1.6465,1.6465c.6582.6348,1.2813.7349,1.8184.1987a2.5659,2.5659,0,0,0,.5488-.8867Zm-1.7227-1.1274c-.48-.4693-.9511-.5079-1.32-.1377a1,1,0,0,0,.0156,1.4419Z"/><path class="cls-9" d="M171.7813,20.4322a2.2088,2.2088,0,0,1,.5605-1.3287A.8808.8808,0,0,1,173.42,18.86a2.2682,2.2682,0,0,1,.58-1.4082c.43-.4312.93-.5059,1.5684.1323l1.7324,1.7319-.4043.4034-1.6816-1.6822c-.3594-.3589-.6739-.4253-1-.1a1.8624,1.8624,0,0,0-.418,1.18c.043.0356.08.0742.123.1157l1.7344,1.7349-.4043.4033L173.5684,19.69c-.3594-.3594-.6817-.4229-1.0078-.0967a1.9152,1.9152,0,0,0-.4141,1.1655l1.8555,1.856-.4.4009-2.541-2.5411.3789-.3784Z"/><path class="cls-9" d="M174.9024,15.002a.3577.3577,0,0,1,.0078-.5386.3773.3773,0,1,1,.5332.5332A.3582.3582,0,0,1,174.9024,15.002Zm1.289.3452,2.543,2.5415-.4.4-2.543-2.5415Z"/><path class="cls-9" d="M177.7149,13.9912a1.69,1.69,0,0,1,.4492-.7485c.7187-.7183,1.539-.6548,2.3769.1821.91.9112.9668,1.8174.1621,2.6216a2.7793,2.7793,0,0,1-1.0839.6572l-3.6778-3.6792.4024-.4033Zm2.09,2.0855a1.671,1.671,0,0,0,.5859-.3755c.5215-.522.4395-1.1577-.2382-1.8345-.6368-.6377-1.2344-.7153-1.7227-.2265a1.2669,1.2669,0,0,0-.373.688Z"/><path class="cls-9" d="M183.4922,10.5327a1.6383,1.6383,0,0,1,.1992,2.5083,1.62,1.62,0,0,1-2.4824-.18,1.6289,1.6289,0,0,1-.15-2.5025A1.5876,1.5876,0,0,1,183.4922,10.5327Zm-.3887.4336c-.6347-.6352-1.2734-.7314-1.74-.2646-.4727.4722-.3848,1.1074.2422,1.7344.6523.6518,1.3066.7485,1.7871.2675C183.8516,12.2451,183.7461,11.61,183.1035,10.9663Z"/><path class="cls-9" d="M182.1836,6.7818l3.8281,3.8286-.4.4-3.8281-3.8286Z"/><path class="cls-9" d="M188.8516,7.605a4.41,4.41,0,0,1-.7383,1.0357,1.6059,1.6059,0,0,1-2.5293-.105,1.6588,1.6588,0,0,1-.1641-2.5489,1.8279,1.8279,0,0,1,.6-.4062l-1.3164-1.3179.4-.4Zm-2.4649-1.6631a1.4348,1.4348,0,0,0-.6132.37c-.504.5054-.4161,1.1631.2168,1.7954.65.6519,1.2792.7266,1.82.1856a2.0272,2.0272,0,0,0,.3808-.5474Z"/><path class="cls-9" d="M190.6367,23.7276c.7373-.7373,1.3955-.8257,1.9522-.2681a1.09,1.09,0,0,1,.2734,1.2461,1.1832,1.1832,0,0,1,1.5586.1987c.66.66.5664,1.417-.2949,2.2788l-.957.9776-3.4825-3.4829Zm.958,2.0415.5284-.5279a.84.84,0,0,0,.0908-1.3007c-.3731-.3731-.8008-.3374-1.251.1074l-.5439.5444ZM193.81,26.857c.5693-.5689.6269-1.0743.1855-1.5162s-.9668-.3754-1.5468.1988l-.5411.5415,1.34,1.3393Z"/><path class="cls-9" d="M196.9834,21.7281a1.6377,1.6377,0,0,1,.1992,2.5078,1.62,1.62,0,0,1-2.4824-.18,1.6288,1.6288,0,0,1-.1494-2.5025A1.5866,1.5866,0,0,1,196.9834,21.7281Zm-.3887.4331c-.6347-.6353-1.2734-.7315-1.74-.2647-.4726.4722-.3838,1.1074.2432,1.7344.6513.6518,1.3056.7485,1.7861.2681C197.3428,23.4405,197.2383,22.8047,196.5947,22.1612Z"/><path class="cls-9" d="M195.6748,17.9766l3.8281,3.8286-.4.4009-3.8282-3.8286Z"/><path class="cls-9" d="M202.3428,18.8a4.3709,4.3709,0,0,1-.7383,1.0357,1.6059,1.6059,0,0,1-2.5293-.1045,1.6591,1.6591,0,0,1-.1631-2.5493,1.8066,1.8066,0,0,1,.6-.4063l-1.3173-1.3179.4-.4Zm-2.4649-1.6626a1.4257,1.4257,0,0,0-.6123.37c-.5058.5058-.417,1.163.2159,1.7954.6513.6518,1.2783.727,1.82.1855a2.0109,2.0109,0,0,0,.3808-.5469Z"/><path class="cls-9" d="M234.02,25.5508l-.4091.4087-1.6211-1.6216-1.7735,1.7735,1.6211,1.6215-.4082.4087-3.4834-3.4834.4092-.4087,1.5274,1.5279,1.7734-1.7735-1.5274-1.5278.4082-.4087Z"/><path class="cls-9" d="M236.7539,22.5674a2.7173,2.7173,0,0,1-.6435,1.03c-.7481.7485-1.6407.6738-2.5078-.1934-.834-.8344-.9122-1.7182-.2022-2.4277a1.3045,1.3045,0,0,1,2.0166.1435,2.5169,2.5169,0,0,1,.2344.2847l-1.6455,1.646c.6572.6353,1.2822.7349,1.8174.1992a2.5147,2.5147,0,0,0,.5488-.8872ZM235.03,21.4405c-.4805-.47-.95-.5079-1.32-.1377a.9986.9986,0,0,0,.0166,1.4414Z"/><path class="cls-9" d="M239.0166,20.5484c-.1084-.0689-.208-.1353-.3457-.2349a1.9479,1.9479,0,0,1-.4756,1.1768.92.92,0,0,1-1.3916-.0059c-.6211-.6216-.3174-1.3779.627-2.3447l-.27-.2705h-.0059a.6165.6165,0,0,0-.9941-.0059,2.9734,2.9734,0,0,0-.5752.9116l-.3828-.207a3.4918,3.4918,0,0,1,.6933-1.0693,1.0338,1.0338,0,0,1,1.6514-.0386l1.0469,1.0469a9.7359,9.7359,0,0,0,.7763.688Zm-1.293-1.1158c-.6962.7012-.9453,1.2041-.5527,1.5967a.5367.5367,0,0,0,.7988.0415,1.6641,1.6641,0,0,0,.35-1.042Zm.0333-.0332-.0059.0059.0019.0024Z"/><path class="cls-9" d="M241.1924,18.3775l-.3867.3867-3.5713-1.5112.4473-.4473,2.8916,1.312-1.3418-2.8618.4365-.4365Z"/><path class="cls-9" d="M243.93,16.0655a1.8485,1.8485,0,0,1-.3779,2.3452l-.37-.271a1.4319,1.4319,0,0,0,.3017-1.8091l-.039-.0938-3.669-1.5249.4531-.4531,2.92,1.29L241.78,12.7066l.415-.4146,1.7373,3.7764Z"/><path class="cls-9" d="M262.2227,23.7276c.7373-.7373,1.3955-.8257,1.9521-.2681a1.09,1.09,0,0,1,.2735,1.2461,1.1832,1.1832,0,0,1,1.5586.1987c.66.66.5664,1.417-.295,2.2788l-.957.9776-3.4824-3.4829Zm.958,2.0415.5283-.5279a.84.84,0,0,0,.0908-1.3007c-.373-.3731-.8008-.3374-1.251.1074l-.5439.5444Zm2.2148,1.0879c.5694-.5689.627-1.0743.1856-1.5162s-.9668-.3754-1.5469.1988l-.541.5415,1.34,1.3393Z"/><path class="cls-9" d="M264.3574,20.88l3.8291,3.8286-.4.4L263.957,21.28Z"/><path class="cls-9" d="M270.5313,22.3574c-.1084-.0688-.208-.1352-.3448-.2348a1.9419,1.9419,0,0,1-.4765,1.1767.92.92,0,0,1-1.3916-.0053c-.6221-.6216-.3174-1.378.6279-2.3452l-.2715-.2706h-.0058a.6166.6166,0,0,0-.9942-.0053,2.9714,2.9714,0,0,0-.5742.9111l-.3838-.207a3.5185,3.5185,0,0,1,.6924-1.0689,1.0345,1.0345,0,0,1,1.6523-.0385l1.0469,1.0468a9.8783,9.8783,0,0,0,.7764.6875Zm-1.292-1.1157c-.6973.7017-.9453,1.2041-.5528,1.5967a.5358.5358,0,0,0,.7979.0415,1.6646,1.6646,0,0,0,.3506-1.042Zm.0332-.0332-.0059.0059.002.0024Z"/><path class="cls-9" d="M273.3731,19.333a2.6514,2.6514,0,0,1-.5713.8536,1.5612,1.5612,0,0,1-2.4317-.1714,1.6059,1.6059,0,0,1-.165-2.4966,2.5792,2.5792,0,0,1,.7871-.5391l.2324.3867a2.116,2.116,0,0,0-.6709.4449c-.5176.5166-.4394,1.124.1983,1.7622.6494.6494,1.2783.7378,1.7646.2514a2.6267,2.6267,0,0,0,.4893-.7153l.37.2207Z"/><path class="cls-9" d="M273.7217,16.8032l.041.7979.7656.7651-.4.4009-3.8291-3.8286.4014-.4009L273.252,17.09l-.1524-2.378.4912-.4917.1036,2.0528,2.5292.3921-.48.48Z"/></svg>