<svg id="Layer_1" data-name="Layer 1" xmlns="http://www.w3.org/2000/svg" viewBox="0 0 500 500"><defs><style>.cls-1,.cls-3{fill:#99dac8;}.cls-1,.cls-2{stroke:#00a375;stroke-linecap:round;stroke-linejoin:round;}.cls-2{fill:none;}.cls-4{fill:#00a375;}.cls-5{fill:#fff;}</style></defs><rect class="cls-1" x="423.9875" y="13.4812" width="42.5413" height="78.7553"/><polygon class="cls-1" points="381.446 13.481 338.905 13.481 338.905 92.236 381.446 92.236 423.987 92.236 423.987 13.481 381.446 13.481"/><polygon class="cls-1" points="296.364 13.481 253.822 13.481 253.822 92.236 296.364 92.236 338.905 92.236 338.905 13.481 296.364 13.481"/><rect class="cls-1" x="168.7396" y="13.4812" width="85.0826" height="78.7553"/><polygon class="cls-1" points="126.198 13.481 83.657 13.481 83.657 92.236 126.198 92.236 168.74 92.236 168.74 13.481 126.198 13.481"/><rect class="cls-1" x="41.1156" y="13.4812" width="42.5413" height="78.7553"/><rect class="cls-1" x="423.9875" y="92.2364" width="42.5413" height="90.7553"/><polygon class="cls-1" points="381.446 92.236 338.905 92.236 338.905 182.992 381.446 182.992 423.987 182.992 423.987 92.236 381.446 92.236"/><polygon class="cls-1" points="296.364 92.236 253.822 92.236 253.822 182.992 296.364 182.992 338.905 182.992 338.905 92.236 296.364 92.236"/><rect class="cls-1" x="168.7396" y="92.2364" width="85.0826" height="90.7553"/><polygon class="cls-1" points="126.198 92.236 83.657 92.236 83.657 182.992 126.198 182.992 168.74 182.992 168.74 92.236 126.198 92.236"/><rect class="cls-1" x="41.1156" y="92.2364" width="42.5413" height="90.7553"/><rect class="cls-1" x="423.9875" y="182.9917" width="42.5413" height="90.7553"/><polygon class="cls-1" points="381.446 182.992 338.905 182.992 338.905 273.747 381.446 273.747 423.987 273.747 423.987 182.992 381.446 182.992"/><polygon class="cls-1" points="296.364 182.992 253.822 182.992 253.822 273.747 296.364 273.747 338.905 273.747 338.905 182.992 296.364 182.992"/><rect class="cls-1" x="168.7396" y="182.9917" width="85.0826" height="90.7553"/><polygon class="cls-1" points="126.198 182.992 83.657 182.992 83.657 273.747 126.198 273.747 168.74 273.747 168.74 182.992 126.198 182.992"/><rect class="cls-1" x="41.1156" y="182.9917" width="42.5413" height="90.7553"/><rect class="cls-2" x="423.9875" y="273.747" width="42.5413" height="90.7553"/><polygon class="cls-2" points="381.446 273.747 338.905 273.747 338.905 364.502 381.446 364.502 423.987 364.502 423.987 273.747 381.446 273.747"/><polygon class="cls-2" points="296.364 273.747 253.822 273.747 253.822 364.502 296.364 364.502 338.905 364.502 338.905 273.747 296.364 273.747"/><rect class="cls-2" x="168.7396" y="273.747" width="85.0826" height="90.7553"/><polygon class="cls-1" points="126.198 273.747 83.657 273.747 83.657 364.502 126.198 364.502 168.74 364.502 168.74 273.747 126.198 273.747"/><rect class="cls-3" x="41.1156" y="273.747" width="42.5413" height="90.7553"/><rect class="cls-2" x="41.1156" y="273.747" width="42.5413" height="90.7553"/><rect class="cls-2" x="41.1156" y="273.747" width="42.5413" height="90.7553"/><rect class="cls-2" x="423.9875" y="364.5022" width="42.5413" height="92.7553"/><polygon class="cls-2" points="381.446 364.502 338.905 364.502 338.905 457.257 381.446 457.257 423.987 457.257 423.987 364.502 381.446 364.502"/><polygon class="cls-2" points="296.364 364.502 253.822 364.502 253.822 457.257 296.364 457.257 338.905 457.257 338.905 364.502 296.364 364.502"/><rect class="cls-2" x="168.7396" y="364.5022" width="85.0826" height="92.7553"/><polygon class="cls-2" points="126.198 364.502 83.657 364.502 83.657 457.257 126.198 457.257 168.74 457.257 168.74 364.502 126.198 364.502"/><rect class="cls-2" x="41.1156" y="364.5022" width="42.5413" height="92.7553"/><rect class="cls-2" x="41.1156" y="364.5022" width="42.5413" height="92.7553"/><path class="cls-4" d="M452.5666,491.8269l1.5146-5.85h1.86l1.455,5.85h-.375l1.05-4.1992c.04-.15.0772-.293.1123-.4277s.0674-.2627.0977-.3828c.04-.1495.0771-.295.1123-.4346s.0674-.2754.0977-.4053h1.83c-.05.17-.1006.3379-.15.5029s-.1.3418-.1494.5323-.11.4-.1806.63l-1.6192,5.46h-1.9209l-1.59-6.15h.54l-1.68,6.15h-1.9345l-1.5606-5.46q-.0894-.3-.1572-.5625c-.0449-.1748-.0928-.3379-.1426-.4873-.03-.1-.06-.2032-.09-.3077s-.0606-.208-.09-.3076h1.9942c.02.11.0459.2246.0752.3447s.06.2452.09.375c.04.15.0781.3028.1133.4581s.0723.3173.1123.4873l.9443,4.1845Z"/><path class="cls-4" d="M464.2365,493.3123a2.8765,2.8765,0,0,1-1.62-.4873,3.3279,3.3279,0,0,1-1.1553-1.3506,4.6276,4.6276,0,0,1,.0078-3.8692,3.3416,3.3416,0,0,1,1.1777-1.3505,2.97,2.97,0,0,1,1.6494-.4873,2.6515,2.6515,0,0,1,1.1026.24,2.4749,2.4749,0,0,1,.915.7119,2.6,2.6,0,0,1,.5176,1.1328l-.33-.21v-5.19h1.92v10.65h-1.92v-1.0195a2.5727,2.5727,0,0,1-.9668.8994A2.6826,2.6826,0,0,1,464.2365,493.3123Zm.5547-1.4551a1.5641,1.5641,0,0,0,.9228-.292,1.9374,1.9374,0,0,0,.6445-.8252,2.9879,2.9879,0,0,0,.2325-1.208v-.0293a2.8949,2.8949,0,0,0-.2325-1.1855,1.9039,1.9039,0,0,0-.6367-.81,1.6105,1.6105,0,0,0-1.83,0,1.8914,1.8914,0,0,0-.6376.81,2.9716,2.9716,0,0,0-.2325,1.2148,2.6863,2.6863,0,0,0,.4951,1.6807A1.5375,1.5375,0,0,0,464.7912,491.8572Z"/><path class="cls-4" d="M473.5812,493.3123a2.73,2.73,0,0,1-1.2227-.2774,2.1124,2.1124,0,0,1-.8925-.8252,2.56,2.56,0,0,1-.33-1.3427v-3.39h-1.47v-1.35a2.9224,2.9224,0,0,0,1.14-.165.866.866,0,0,0,.4805-.57,4.7331,4.7331,0,0,0,.12-1.2452h1.62v1.83h1.9795v1.5h-1.9795v3.2246a1.0763,1.0763,0,0,0,.3.8408,1.1447,1.1447,0,0,0,.7949.27,2.7439,2.7439,0,0,0,.4571-.0371,2.5085,2.5085,0,0,0,.4277-.1133v1.3349A3.128,3.128,0,0,1,473.5812,493.3123Z"/><path class="cls-4" d="M476.3859,484.1023v-1.65h1.92v4.5449a2.4983,2.4983,0,0,1,.87-.8994,2.26,2.26,0,0,1,1.2-.33,2.388,2.388,0,0,1,1.2969.3525,2.3113,2.3113,0,0,1,.87,1.0127,3.6992,3.6992,0,0,1,.3076,1.5752v4.3945h-1.92v-4.2451a1.9707,1.9707,0,0,0-.3-1.1846,1.0309,1.0309,0,0,0-.8848-.4052,1.3513,1.3513,0,0,0-.7129.1953,1.39,1.39,0,0,0-.5253.6523,3.0205,3.0205,0,0,0-.2022,1.207v3.78h-1.92v-9Z"/><path class="cls-4" d="M263.4074,382.27v-9.7725h3.75a5.2268,5.2268,0,0,1,2.0322.3672,3.1231,3.1231,0,0,1,1.3574,1.0274,2.5326,2.5326,0,0,1,.48,1.53,2.6247,2.6247,0,0,1-.4727,1.545,3.0109,3.0109,0,0,1-1.372,1.0429,5.5762,5.5762,0,0,1-2.1153.3672v-.09l1.2149-.4356,3.8847,5.07h-2.46l-3.2852-4.47h-1.0351v4.47h-1.98Zm3.63-5.4229a2.66,2.66,0,0,0,1.02-.18,1.5091,1.5091,0,0,0,.667-.5029,1.2336,1.2336,0,0,0,.2324-.7422,1.1084,1.1084,0,0,0-.51-.9746,2.489,2.489,0,0,0-1.41-.3457h-1.65v2.7451Z"/><path class="cls-4" d="M276.6515,383.1326a4.27,4.27,0,0,1-2.0322-.4727,3.4168,3.4168,0,0,1-1.3945-1.35,4.0389,4.0389,0,0,1-.503-2.0478,3.8755,3.8755,0,0,1,.45-1.8594,3.4192,3.4192,0,0,1,1.2451-1.3281,3.2955,3.2955,0,0,1,1.7549-.4873,3.1236,3.1236,0,0,1,1.5977.3974,2.6726,2.6726,0,0,1,1.0576,1.1553,4.1206,4.1206,0,0,1,.375,1.8369v.7354h-5.1758v-1.2305h4.335l-.9746.2559a2.8544,2.8544,0,0,0-.1573-1.02,1.2281,1.2281,0,0,0-.45-.6,1.2583,1.2583,0,0,0-.7128-.1953,1.3015,1.3015,0,0,0-.7344.2178,1.4544,1.4544,0,0,0-.5254.6826,2.9925,2.9925,0,0,0-.1953,1.1543,3.23,3.23,0,0,0,.3232,1.5528,1.9015,1.9015,0,0,0,.8623.8476,2.8094,2.8094,0,0,0,1.2149.2549,3.8312,3.8312,0,0,0,.997-.1348,4.0845,4.0845,0,0,0,1.0127-.4355v1.3955a3.89,3.89,0,0,1-1.1318.51A4.6963,4.6963,0,0,1,276.6515,383.1326Z"/><path class="cls-4" d="M283.6876,386.1775a5.6175,5.6175,0,0,1-1.8154-.2627,2.6945,2.6945,0,0,1-1.17-.72,1.5482,1.5482,0,0,1-.4043-1.0576,1.2183,1.2183,0,0,1,.3144-.8252,2.6265,2.6265,0,0,1,.84-.6143v-.5556l1.29.81a1.513,1.513,0,0,0-.622.3447.7086.7086,0,0,0-.2325.5254.8381.8381,0,0,0,.4795.7647,2.826,2.826,0,0,0,1.3653.2695,4.9655,4.9655,0,0,0,1.125-.1191,2.0451,2.0451,0,0,0,.8173-.3682.7525.7525,0,0,0,.3077-.6074.5694.5694,0,0,0-.2246-.502,1.2453,1.2453,0,0,0-.7051-.1582h-2.58a2.1716,2.1716,0,0,1-.9082-.1875,1.5945,1.5945,0,0,1-.6592-.54,1.36,1.36,0,0,1-.248-.8018,1.5657,1.5657,0,0,1,.3222-.9375,2.22,2.22,0,0,1,.9678-.7129v-.4648l1.0947.915a1.5672,1.5672,0,0,0-.6445.3145.6144.6144,0,0,0-.24.4658.4339.4339,0,0,0,.2256.3818,1.1322,1.1322,0,0,0,.6142.1426h2.0108a3.8156,3.8156,0,0,1,2.0849.4873,1.5741,1.5741,0,0,1,.75,1.4024,2.01,2.01,0,0,1-.5254,1.373,3.3725,3.3725,0,0,1-1.47.915A6.68,6.68,0,0,1,283.6876,386.1775Zm.2247-5.5195a3.5731,3.5731,0,0,1-1.56-.33,2.6957,2.6957,0,0,1-1.0879-.9082,2.2108,2.2108,0,0,1-.3975-1.2822,2.4008,2.4008,0,0,1,.3907-1.3653,2.48,2.48,0,0,1,1.0722-.8925,3.7949,3.7949,0,0,1,1.5674-.3067,3.7078,3.7078,0,0,1,1.0879.1572,3.4543,3.4543,0,0,1,.9375.4424v.3448a2.05,2.05,0,0,1,.6523.6523,1.7684,1.7684,0,0,1,.2471.9531,2.3735,2.3735,0,0,1-.36,1.2823,2.52,2.52,0,0,1-1.02.915A3.323,3.323,0,0,1,283.9123,380.658Zm-.0147-1.29a1.3471,1.3471,0,0,0,.6523-.15,1.0865,1.0865,0,0,0,.4356-.4278,1.3031,1.3031,0,0,0,.1572-.6523,1.2709,1.2709,0,0,0-.3379-.93,1.2082,1.2082,0,0,0-.9072-.3447,1.3362,1.3362,0,0,0-.66.1572,1.1021,1.1021,0,0,0-.4423.4424,1.37,1.37,0,0,0-.1573.6748,1.1854,1.1854,0,0,0,.3448.9A1.2691,1.2691,0,0,0,283.8976,379.3679Zm1.7549-2.205-.72-1.3506h3.06v1.3506Z"/><path class="cls-4" d="M291.2765,383.1326a2.1674,2.1674,0,0,1-1.2-.3379,2.2573,2.2573,0,0,1-.8242-.9824,3.6715,3.6715,0,0,1-.3008-1.56v-4.4551h1.92v4.5752a1.362,1.362,0,0,0,.2852.96,1.0248,1.0248,0,0,0,.78.3,1.203,1.203,0,0,0,.7353-.2324,1.4811,1.4811,0,0,0,.4873-.6826,3.0835,3.0835,0,0,0,.1729-1.0948v-3.8252h1.92v7.125h-1.92v-1.0654a2.3552,2.3552,0,0,1-.8633.9531A2.2549,2.2549,0,0,1,291.2765,383.1326Z"/><path class="cls-4" d="M297.3673,382.7429V372.2722h1.92v10.65h-1.92Z"/><path class="cls-4" d="M303.2013,383.1326a2.1014,2.1014,0,0,1-1.4844-.54,1.882,1.882,0,0,1-.5849-1.4551,1.638,1.638,0,0,1,.3672-1.0948,2.5186,2.5186,0,0,1,.9375-.6826,7.75,7.75,0,0,1,1.3652-.4277l1.9346-.4346.09,1.1094-1.6943.45a3.2379,3.2379,0,0,0-.6006.2324.9915.9915,0,0,0-.3594.3008.7528.7528,0,0,0,.09.93.8469.8469,0,0,0,.5849.1875,1.3479,1.3479,0,0,0,.66-.1953,1.5185,1.5185,0,0,0,.5771-.63,2.3033,2.3033,0,0,0,.2325-1.0947v-1.4551a1.0255,1.0255,0,0,0-.5176-.96,2.36,2.36,0,0,0-1.2071-.3,3.5622,3.5622,0,0,0-1.0351.1494,5.983,5.983,0,0,0-1.08.4649v-1.3946a4.2835,4.2835,0,0,1,1.14-.51,4.8008,4.8008,0,0,1,1.3652-.1953,4.6061,4.6061,0,0,1,1.5225.247,2.5032,2.5032,0,0,1,1.1923.8858,2.8133,2.8133,0,0,1,.4805,1.7324v4.47h-1.86v-1.05a2.2246,2.2246,0,0,1-.87.9375A2.4337,2.4337,0,0,1,303.2013,383.1326Z"/><path class="cls-4" d="M309.1417,377.448v-1.65h1.92v1.7246a3.8373,3.8373,0,0,1,.4726-1.0195,2.1292,2.1292,0,0,1,.7119-.6748,1.9008,1.9008,0,0,1,.96-.24,3.2372,3.2372,0,0,1,.54.0449v1.9951a2.755,2.755,0,0,0-.705-.09,2.1452,2.1452,0,0,0-.9825.2246,1.6929,1.6929,0,0,0-.72.75,2.9518,2.9518,0,0,0-.2773,1.38v3.03h-1.92V377.448Z"/><path class="cls-5" d="M350.17,247.9461a3.9677,3.9677,0,0,1-1.9532-.4619,3.2759,3.2759,0,0,1-1.288-1.2676,3.6222,3.6222,0,0,1-.4551-1.8125,3.46,3.46,0,0,1,.47-1.792,3.2859,3.2859,0,0,1,1.3223-1.2529,4.0988,4.0988,0,0,1,1.96-.4551,3.6374,3.6374,0,0,1,.9737.126,3.4691,3.4691,0,0,1,.8183.3359v1.3017a3.4214,3.4214,0,0,0-.6992-.2734,2.9512,2.9512,0,0,0-.7422-.0908,2.7435,2.7435,0,0,0-1.1972.2451,1.7656,1.7656,0,0,0-.7842.7207,2.4837,2.4837,0,0,0,.0068,2.2754,1.874,1.874,0,0,0,.791.7422,2.6505,2.6505,0,0,0,1.2119.2588,2.8424,2.8424,0,0,0,.7764-.1123,3.5819,3.5819,0,0,0,.7773-.3213v1.3017a3.5366,3.5366,0,0,1-.9238.3995A4.0929,4.0929,0,0,1,350.17,247.9461Z"/><path class="cls-5" d="M356.5119,247.9461a3.521,3.521,0,0,1-1.7852-.4551,3.2556,3.2556,0,0,1-1.2393-1.26,3.891,3.891,0,0,1,0-3.626,3.2024,3.2024,0,0,1,1.2393-1.2539,3.7866,3.7866,0,0,1,3.57,0,3.2052,3.2052,0,0,1,1.2383,1.2539,3.891,3.891,0,0,1,0,3.626,3.2585,3.2585,0,0,1-1.2383,1.26A3.523,3.523,0,0,1,356.5119,247.9461Zm0-1.4a1.4363,1.4363,0,0,0,.8681-.2656,1.6953,1.6953,0,0,0,.56-.7491,3.2549,3.2549,0,0,0,0-2.2265,1.6378,1.6378,0,0,0-.56-.7412,1.58,1.58,0,0,0-1.7363,0,1.6318,1.6318,0,0,0-.5605.7412,3.269,3.269,0,0,0,0,2.2265,1.6888,1.6888,0,0,0,.5605.7491A1.4345,1.4345,0,0,0,356.5119,246.5457Z"/><path class="cls-5" d="M361.5236,242.6394v-1.54h1.792v.9521a2.37,2.37,0,0,1,.8261-.8466,2.1229,2.1229,0,0,1,1.1065-.3008,2.2776,2.2776,0,0,1,1.2109.3213,2.114,2.114,0,0,1,.8116.9384,3.4556,3.4556,0,0,1,.2871,1.47V247.75h-1.792v-4.0039a2.202,2.202,0,0,0-.126-.7979.9882.9882,0,0,0-.3711-.4834,1.0851,1.0851,0,0,0-.6094-.1611,1.2292,1.2292,0,0,0-.665.1894,1.3363,1.3363,0,0,0-.4893.6163,2.7728,2.7728,0,0,0-.1894,1.1123V247.75h-1.792v-5.11Z"/><path class="cls-5" d="M371.94,247.9461a2.6811,2.6811,0,0,1-1.5117-.4551,3.0991,3.0991,0,0,1-1.0781-1.26,4.317,4.317,0,0,1,.0068-3.6123,3.1025,3.1025,0,0,1,1.0986-1.26,2.766,2.766,0,0,1,1.54-.4551,2.478,2.478,0,0,1,1.0293.2236,2.3176,2.3176,0,0,1,.8545.665,2.43,2.43,0,0,1,.4824,1.0567l-.3076-.1953v-4.8448h1.7919v9.94h-1.7919v-.9522a2.4123,2.4123,0,0,1-.9034.84A2.503,2.503,0,0,1,371.94,247.9461Zm.5176-1.3584a1.457,1.457,0,0,0,.8613-.2725,1.8112,1.8112,0,0,0,.6025-.77,2.7905,2.7905,0,0,0,.2168-1.127v-.0283a2.7021,2.7021,0,0,0-.2168-1.1054,1.7773,1.7773,0,0,0-.5957-.7559,1.5011,1.5011,0,0,0-1.708,0,1.7687,1.7687,0,0,0-.5947.7559,2.779,2.779,0,0,0-.2168,1.1337,2.5031,2.5031,0,0,0,.4619,1.5684A1.4329,1.4329,0,0,0,372.4572,246.5877Z"/><path class="cls-5" d="M378.6593,240.0916a1.1236,1.1236,0,0,1-1.12-1.12,1.064,1.064,0,0,1,.3291-.7764,1.0784,1.0784,0,0,1,.791-.3291,1.1241,1.1241,0,0,1,1.1065,1.1055,1.0792,1.0792,0,0,1-.3291.791A1.0625,1.0625,0,0,1,378.6593,240.0916ZM379.5,246.28v1.47h-1.7919v-6.65H379.5Z"/><path class="cls-5" d="M384.2453,247.9461a2.54,2.54,0,0,1-1.1407-.26,1.9715,1.9715,0,0,1-.833-.7695,2.3886,2.3886,0,0,1-.3076-1.253V242.5h-1.3721v-1.26a2.714,2.714,0,0,0,1.0635-.1543.8059.8059,0,0,0,.4483-.5322,4.4355,4.4355,0,0,0,.1123-1.1621h1.5117v1.708h1.8476v1.4h-1.8476v3.01a1,1,0,0,0,.28.7842,1.0655,1.0655,0,0,0,.7412.252,2.5047,2.5047,0,0,0,.4277-.0352,2.2927,2.2927,0,0,0,.3984-.1045v1.2461A2.94,2.94,0,0,1,384.2453,247.9461Z"/><path class="cls-5" d="M387.7033,240.0916a1.1236,1.1236,0,0,1-1.12-1.12,1.0636,1.0636,0,0,1,.3291-.7764,1.0784,1.0784,0,0,1,.791-.3291,1.1241,1.1241,0,0,1,1.1064,1.1055,1.0788,1.0788,0,0,1-.3291.791A1.0622,1.0622,0,0,1,387.7033,240.0916Zm.8408,6.1885v1.47h-1.792v-6.65h1.792Z"/><path class="cls-5" d="M393.43,247.9461a3.52,3.52,0,0,1-1.7851-.4551,3.2542,3.2542,0,0,1-1.2393-1.26,3.891,3.891,0,0,1,0-3.626,3.2011,3.2011,0,0,1,1.2393-1.2539,3.7866,3.7866,0,0,1,3.57,0,3.2059,3.2059,0,0,1,1.2383,1.2539,3.891,3.891,0,0,1,0,3.626,3.2592,3.2592,0,0,1-1.2383,1.26A3.5236,3.5236,0,0,1,393.43,247.9461Zm0-1.4a1.4366,1.4366,0,0,0,.8682-.2656,1.6953,1.6953,0,0,0,.56-.7491,3.2549,3.2549,0,0,0,0-2.2265,1.6378,1.6378,0,0,0-.56-.7412,1.58,1.58,0,0,0-1.7363,0,1.6326,1.6326,0,0,0-.5606.7412,3.2705,3.2705,0,0,0,0,2.2265,1.69,1.69,0,0,0,.5606.7491A1.4344,1.4344,0,0,0,393.43,246.5457Z"/><path class="cls-5" d="M398.4416,242.6394v-1.54h1.7919v.9521a2.371,2.371,0,0,1,.8262-.8466,2.1229,2.1229,0,0,1,1.1065-.3008,2.2776,2.2776,0,0,1,1.2109.3213,2.1132,2.1132,0,0,1,.8115.9384,3.4556,3.4556,0,0,1,.2871,1.47V247.75h-1.792v-4.0039a2.2043,2.2043,0,0,0-.1259-.7979.9882.9882,0,0,0-.3711-.4834,1.0851,1.0851,0,0,0-.6094-.1611,1.229,1.229,0,0,0-.665.1894,1.3363,1.3363,0,0,0-.4893.6163,2.7709,2.7709,0,0,0-.19,1.1123V247.75h-1.7919v-5.11Z"/><path class="cls-5" d="M349.1906,262.75v-7.42l-2.7862,1.9316v-2.0439l3.0235-1.9874h1.582v9.52Z"/><path class="cls-5" d="M359.2,262.75h-6.0761v-1.708l1.414-1.1758q.98-.8262,1.4981-1.3164a4.8446,4.8446,0,0,0,.833-1.0147,2.1085,2.1085,0,0,0,.3144-1.1,1.8307,1.8307,0,0,0-.2519-.9726,1.67,1.67,0,0,0-.707-.6367,2.36,2.36,0,0,0-1.0567-.2247,3.5264,3.5264,0,0,0-1.0576.1612,3.4271,3.4271,0,0,0-.9023.4277v-1.5127a3.8139,3.8139,0,0,1,1.0429-.4619,4.6508,4.6508,0,0,1,1.3086-.1816,4.1245,4.1245,0,0,1,1.918.413,2.89,2.89,0,0,1,1.2109,1.127,3.1829,3.1829,0,0,1,.4131,1.624,3.0214,3.0214,0,0,1-.35,1.4141,5.6338,5.6338,0,0,1-.9238,1.2734,15.616,15.616,0,0,1-1.4561,1.3164l-1.3437,1.1055-1.2881-.21h5.46Z"/><path class="cls-5" d="M360.4318,254.9383V253.23h6.5937v1.7637L362.798,262.75h-2.0166l4.5088-7.8115Z"/><path class="cls-5" d="M375.2716,262.9881l-6.6924-2.8565v-1.3994l6.6924-2.8564v1.61l-4.7177,1.96,4.7177,1.96Z"/><path class="cls-5" d="M379.64,261.5593l1.4141-5.46h1.7353l1.3584,5.46h-.3506l.98-3.92c.0371-.14.0723-.2724.1045-.3984s.0635-.2451.0918-.3574q.0557-.21.1045-.4063c.0322-.13.0634-.2558.0908-.3779h1.708c-.0469.1592-.0928.3154-.14.47s-.0937.3194-.14.4971-.1035.373-.168.5879l-1.5127,5.0957h-1.792l-1.4834-5.74h.504l-1.5684,5.74h-1.8057l-1.456-5.0957c-.0567-.1865-.1055-.3623-.1475-.5254s-.0859-.3145-.1328-.4551c-.0283-.0928-.0557-.1885-.084-.2871s-.0556-.1934-.084-.2871H378.73c.0186.1035.042.21.0694.3223s.0566.2285.084.3505c.038.14.0722.2823.1054.4268s.0674.2959.1045.4551l.8828,3.9052Z"/><path class="cls-5" d="M390.588,265.7879a5.24,5.24,0,0,1-1.6943-.2452,2.5134,2.5134,0,0,1-1.0918-.6718,1.4466,1.4466,0,0,1-.3779-.9873,1.1331,1.1331,0,0,1,.2939-.77,2.4384,2.4384,0,0,1,.7842-.5742v-.5176l1.2041.7559a1.4138,1.4138,0,0,0-.5811.3213.6606.6606,0,0,0-.2177.49.7832.7832,0,0,0,.4482.7139,2.6334,2.6334,0,0,0,1.2744.2519,4.6176,4.6176,0,0,0,1.05-.1113,1.8963,1.8963,0,0,0,.7627-.3437.7014.7014,0,0,0,.2871-.5664.5322.5322,0,0,0-.21-.4688,1.1577,1.1577,0,0,0-.6582-.1475h-2.4082a2.0288,2.0288,0,0,1-.8467-.1748,1.4973,1.4973,0,0,1-.6162-.5039,1.2785,1.2785,0,0,1-.2305-.749,1.456,1.456,0,0,1,.3008-.875,2.0675,2.0675,0,0,1,.9033-.665v-.4346l1.0215.8545a1.452,1.452,0,0,0-.6016.2939.5723.5723,0,0,0-.2246.4336.4072.4072,0,0,0,.21.3575,1.0685,1.0685,0,0,0,.5742.1328h1.876a3.5581,3.5581,0,0,1,1.9463.455,1.4683,1.4683,0,0,1,.7,1.3086,1.8753,1.8753,0,0,1-.49,1.2813,3.147,3.147,0,0,1-1.372.8545A6.24,6.24,0,0,1,390.588,265.7879Zm.21-5.1524a3.3331,3.3331,0,0,1-1.4561-.3076,2.5254,2.5254,0,0,1-1.0156-.8467,2.0664,2.0664,0,0,1-.37-1.1972,2.2481,2.2481,0,0,1,.3633-1.2745,2.3227,2.3227,0,0,1,1.001-.833,3.5263,3.5263,0,0,1,1.4628-.2871,3.4842,3.4842,0,0,1,1.0157.1475,3.2033,3.2033,0,0,1,.875.4131v.3222a1.887,1.887,0,0,1,.6084.6084,1.6458,1.6458,0,0,1,.2314.8887,2.22,2.22,0,0,1-.3359,1.1973,2.3632,2.3632,0,0,1-.9522.8545A3.0969,3.0969,0,0,1,390.798,260.6355Zm-.0147-1.2041a1.26,1.26,0,0,0,.6094-.14,1.0125,1.0125,0,0,0,.4063-.3994,1.2127,1.2127,0,0,0,.1465-.6084,1.1877,1.1877,0,0,0-.3145-.8682,1.1323,1.1323,0,0,0-.8477-.3223,1.2418,1.2418,0,0,0-.6152.1475,1.0256,1.0256,0,0,0-.4131.4131,1.2729,1.2729,0,0,0-.1474.63,1.1065,1.1065,0,0,0,.3222.84A1.1843,1.1843,0,0,0,390.7833,259.4314Zm1.6387-2.0576-.6719-1.26h2.8555v1.26Z"/><path class="cls-5" d="M395.6,254.3494v-1.54h1.7919v4.2422a2.3369,2.3369,0,0,1,.8125-.84,2.1069,2.1069,0,0,1,1.12-.3076,2.2312,2.2312,0,0,1,1.2109.3291,2.1561,2.1561,0,0,1,.8115.9443,3.46,3.46,0,0,1,.2871,1.4707V262.75h-1.792v-3.9619a1.8443,1.8443,0,0,0-.28-1.1065.9631.9631,0,0,0-.8262-.3779,1.2656,1.2656,0,0,0-.665.1826,1.2924,1.2924,0,0,0-.4893.6084,2.8224,2.8224,0,0,0-.19,1.127V262.75H395.6v-8.4Z"/><path class="cls-5" d="M406.4074,262.9461a2.54,2.54,0,0,1-1.1407-.26,1.9715,1.9715,0,0,1-.833-.7695,2.3886,2.3886,0,0,1-.3076-1.253V257.5h-1.372v-1.26a2.7138,2.7138,0,0,0,1.0634-.1543.8059.8059,0,0,0,.4483-.5322,4.4355,4.4355,0,0,0,.1123-1.1621H405.89v1.708h1.8476v1.4H405.89v3.01a1,1,0,0,0,.28.7842,1.0655,1.0655,0,0,0,.7412.252,2.5047,2.5047,0,0,0,.4277-.0352,2.2927,2.2927,0,0,0,.3984-.1045v1.2461A2.94,2.94,0,0,1,406.4074,262.9461Z"/><path class="cls-5" d="M409.5441,265.1717l1.5264-2.7442.2519.4619c-.0752.0186-.1543.0352-.2383.05a1.48,1.48,0,0,1-.2383.02,1.2347,1.2347,0,0,1-.8681-.3222,1.0859,1.0859,0,0,1-.35-.84,1.1033,1.1033,0,0,1,.3359-.8193,1.12,1.12,0,0,1,.8125-.3281,1.2455,1.2455,0,0,1,.9375.3779,1.3507,1.3507,0,0,1,.3643.98,1.7906,1.7906,0,0,1-.126.6582c-.084.2148-.2061.4756-.3643.7842-.01.0088-.0136.0156-.0136.0205s-.0049.0117-.0147.0215l-.8818,1.68Zm1.2324-6.9717a1.1473,1.1473,0,0,1-1.1621-1.1621,1.0982,1.0982,0,0,1,.3359-.8194,1.2,1.2,0,0,1,1.6514,0,1.0982,1.0982,0,0,1,.3359.8194,1.1473,1.1473,0,0,1-1.1611,1.1621Z"/><path class="cls-5" d="M93.84,324.2957a3.9651,3.9651,0,0,1-1.9526-.4619,3.2658,3.2658,0,0,1-1.2881-1.2676,3.6127,3.6127,0,0,1-.4551-1.8125,3.4684,3.4684,0,0,1,.4687-1.792,3.2918,3.2918,0,0,1,1.3233-1.2529,4.1,4.1,0,0,1,1.96-.4551,3.6358,3.6358,0,0,1,.9732.126,3.4713,3.4713,0,0,1,.8188.3359v1.3018a3.4018,3.4018,0,0,0-.7-.2735,2.9444,2.9444,0,0,0-.7417-.0908,2.745,2.745,0,0,0-1.1972.2451,1.76,1.76,0,0,0-.7837.7207,2.48,2.48,0,0,0,.0068,2.2754,1.8682,1.8682,0,0,0,.791.7422,2.6455,2.6455,0,0,0,1.211.2588,2.8457,2.8457,0,0,0,.7768-.1123,3.595,3.595,0,0,0,.7774-.3213v1.3018a3.5313,3.5313,0,0,1-.9243.3994A4.0833,4.0833,0,0,1,93.84,324.2957Z"/><path class="cls-5" d="M100.1823,324.2957a3.521,3.521,0,0,1-1.7852-.4551,3.2546,3.2546,0,0,1-1.2392-1.26,3.8938,3.8938,0,0,1,0-3.6259,3.2,3.2,0,0,1,1.2392-1.2539,3.7849,3.7849,0,0,1,3.57,0,3.2,3.2,0,0,1,1.2393,1.2539,3.8938,3.8938,0,0,1,0,3.6259,3.2542,3.2542,0,0,1-1.2393,1.26A3.52,3.52,0,0,1,100.1823,324.2957Zm0-1.4a1.4337,1.4337,0,0,0,.8676-.2656,1.6925,1.6925,0,0,0,.56-.7491,3.2627,3.2627,0,0,0,0-2.2265,1.6352,1.6352,0,0,0-.56-.7412,1.58,1.58,0,0,0-1.7358,0,1.6309,1.6309,0,0,0-.56.7412,3.2627,3.2627,0,0,0,0,2.2265,1.6879,1.6879,0,0,0,.56.7491A1.4345,1.4345,0,0,0,100.1823,322.8953Z"/><path class="cls-5" d="M105.1935,318.989v-1.54h1.792v.9521a2.3693,2.3693,0,0,1,.8262-.8466,2.1208,2.1208,0,0,1,1.1059-.3008,2.2764,2.2764,0,0,1,1.211.3213,2.1109,2.1109,0,0,1,.812.9385,3.4548,3.4548,0,0,1,.2871,1.47v4.1162h-1.792v-4.0039a2.202,2.202,0,0,0-.126-.7979.9887.9887,0,0,0-.3711-.4834,1.0857,1.0857,0,0,0-.6089-.1611,1.2262,1.2262,0,0,0-.665.19,1.3362,1.3362,0,0,0-.49.6162,2.7716,2.7716,0,0,0-.189,1.1123v3.5283h-1.792v-5.11Z"/><path class="cls-5" d="M115.61,324.2957a2.6839,2.6839,0,0,1-1.5122-.4551,3.1093,3.1093,0,0,1-1.0776-1.26,4.322,4.322,0,0,1,.0068-3.6123,3.1072,3.1072,0,0,1,1.0991-1.26,2.7644,2.7644,0,0,1,1.54-.4551,2.4774,2.4774,0,0,1,1.0288.2236,2.3112,2.3112,0,0,1,.854.6651,2.4236,2.4236,0,0,1,.4829,1.0566l-.3081-.1953V314.159h1.792v9.94h-1.792v-.9522a2.4031,2.4031,0,0,1-.9028.84A2.5023,2.5023,0,0,1,115.61,324.2957Zm.5181-1.3584a1.4559,1.4559,0,0,0,.8608-.2725,1.8059,1.8059,0,0,0,.6021-.7705,2.7917,2.7917,0,0,0,.2168-1.1269v-.0284a2.7038,2.7038,0,0,0-.2168-1.1054,1.7724,1.7724,0,0,0-.5947-.7559,1.5013,1.5013,0,0,0-1.7081,0,1.7666,1.7666,0,0,0-.5952.7559,2.7709,2.7709,0,0,0-.2168,1.1338,2.5061,2.5061,0,0,0,.4619,1.5683A1.4346,1.4346,0,0,0,116.1276,322.9373Z"/><path class="cls-5" d="M122.33,316.4412a1.1236,1.1236,0,0,1-1.12-1.12,1.06,1.06,0,0,1,.3291-.7764,1.077,1.077,0,0,1,.791-.3291,1.1241,1.1241,0,0,1,1.106,1.1055,1.0773,1.0773,0,0,1-.3291.791A1.0612,1.0612,0,0,1,122.33,316.4412Zm.84,6.1885v1.47h-1.792v-6.65h1.792Z"/><path class="cls-5" d="M127.9157,324.2957a2.54,2.54,0,0,1-1.1411-.26,1.9681,1.9681,0,0,1-.833-.77,2.3829,2.3829,0,0,1-.3082-1.2529v-3.1641h-1.372v-1.26a2.7167,2.7167,0,0,0,1.0639-.1543.8054.8054,0,0,0,.4483-.5322,4.4182,4.4182,0,0,0,.1118-1.1621h1.5122v1.708h1.8482v1.4h-1.8482v3.01a1.0035,1.0035,0,0,0,.28.7841,1.0681,1.0681,0,0,0,.7422.252,2.4886,2.4886,0,0,0,.4267-.0352,2.2951,2.2951,0,0,0,.3995-.1045v1.2461A2.9434,2.9434,0,0,1,127.9157,324.2957Z"/><path class="cls-5" d="M131.3737,316.4412a1.1236,1.1236,0,0,1-1.12-1.12,1.06,1.06,0,0,1,.3291-.7764,1.0768,1.0768,0,0,1,.791-.3291,1.1241,1.1241,0,0,1,1.1059,1.1055,1.0769,1.0769,0,0,1-.3291.791A1.0611,1.0611,0,0,1,131.3737,316.4412Zm.84,6.1885v1.47h-1.792v-6.65h1.792Z"/><path class="cls-5" d="M137.1,324.2957a3.5207,3.5207,0,0,1-1.7852-.4551,3.2556,3.2556,0,0,1-1.2393-1.26,3.8946,3.8946,0,0,1,0-3.6259,3.2011,3.2011,0,0,1,1.2393-1.2539,3.7849,3.7849,0,0,1,3.57,0,3.2,3.2,0,0,1,1.2393,1.2539,3.8946,3.8946,0,0,1,0,3.6259,3.2542,3.2542,0,0,1-1.2393,1.26A3.52,3.52,0,0,1,137.1,324.2957Zm0-1.4a1.4337,1.4337,0,0,0,.8676-.2656,1.6925,1.6925,0,0,0,.56-.7491,3.2627,3.2627,0,0,0,0-2.2265,1.6352,1.6352,0,0,0-.56-.7412,1.58,1.58,0,0,0-1.7358,0,1.6318,1.6318,0,0,0-.56.7412,3.2627,3.2627,0,0,0,0,2.2265,1.6888,1.6888,0,0,0,.56.7491A1.4345,1.4345,0,0,0,137.1,322.8953Z"/><path class="cls-5" d="M142.1115,318.989v-1.54h1.792v.9521a2.37,2.37,0,0,1,.8261-.8466,2.1212,2.1212,0,0,1,1.106-.3008,2.2763,2.2763,0,0,1,1.2109.3213,2.1109,2.1109,0,0,1,.812.9385,3.4548,3.4548,0,0,1,.2872,1.47v4.1162h-1.792v-4.0039a2.202,2.202,0,0,0-.126-.7979.9887.9887,0,0,0-.3711-.4834,1.0857,1.0857,0,0,0-.6089-.1611,1.2258,1.2258,0,0,0-.665.19,1.3369,1.3369,0,0,0-.49.6162,2.7735,2.7735,0,0,0-.1889,1.1123v3.5283h-1.792v-5.11Z"/><path class="cls-5" d="M92.86,339.0994v-7.42l-2.7861,1.9316v-2.0439l3.0244-1.9873H94.68v9.5195Z"/><path class="cls-5" d="M100.5041,339.2957a3.1077,3.1077,0,0,1-1.9112-.6231,4.0291,4.0291,0,0,1-1.2949-1.75,7.4532,7.4532,0,0,1,0-5.166,4.03,4.03,0,0,1,1.2949-1.75,3.2421,3.2421,0,0,1,3.8218,0,4.0336,4.0336,0,0,1,1.2954,1.75,7.4532,7.4532,0,0,1,0,5.166,4.0331,4.0331,0,0,1-1.2954,1.75A3.1072,3.1072,0,0,1,100.5041,339.2957Zm0-1.5684a1.2972,1.2972,0,0,0,.9516-.3916,2.5192,2.5192,0,0,0,.5952-1.1484,8.5063,8.5063,0,0,0,0-3.6963,2.5156,2.5156,0,0,0-.5952-1.1475,1.3505,1.3505,0,0,0-1.9038,0,2.5156,2.5156,0,0,0-.5952,1.1475,8.5309,8.5309,0,0,0,0,3.6963,2.5192,2.5192,0,0,0,.5952,1.1484A1.2976,1.2976,0,0,0,100.5041,337.7273Z"/><path class="cls-5" d="M108.568,339.2957a4.9721,4.9721,0,0,1-1.498-.2246,4.3459,4.3459,0,0,1-1.274-.63V336.93a4.84,4.84,0,0,0,1.26.6015,4.5367,4.5367,0,0,0,1.33.1963,2.4463,2.4463,0,0,0,1.0571-.21,1.5642,1.5642,0,0,0,.6719-.5743,1.5291,1.5291,0,0,0,.2309-.84,1.3612,1.3612,0,0,0-.2309-.8047,1.4338,1.4338,0,0,0-.686-.5039,3.1446,3.1446,0,0,0-1.127-.1758,5.0929,5.0929,0,0,0-1.0986.1192,6.6058,6.6058,0,0,0-1.0015.3017l.6582-5.46h5.4038v1.6513h-4.0459l-.2519,2.0166a3.143,3.143,0,0,1,.518-.0986,5.5262,5.5262,0,0,1,.5743-.0274,3.7,3.7,0,0,1,1.56.336,2.8906,2.8906,0,0,1,1.19.9863,2.6348,2.6348,0,0,1,.4546,1.5469,3.1361,3.1361,0,0,1-1.7778,2.8848A4.2409,4.2409,0,0,1,108.568,339.2957Z"/><path class="cls-5" d="M121.07,339.3377l-6.6924-2.8565v-1.3994l6.6924-2.8564v1.61l-4.7183,1.96,4.7183,1.96Z"/><path class="cls-5" d="M125.9977,337.909l1.4141-5.46h1.7358l1.3584,5.46h-.35l.98-3.92q.0557-.2094.105-.3984t.0908-.3574q.0556-.21.105-.4063.049-.1949.0913-.3779h1.708c-.0469.1592-.0938.3154-.14.47s-.0932.3194-.14.4971-.1025.373-.168.5879l-1.5117,5.0957h-1.7925L128,333.3592h.5039l-1.5679,5.74H125.13l-1.456-5.0957c-.0562-.1865-.105-.3623-.147-.5254s-.0864-.3145-.1333-.4551c-.0278-.0928-.0562-.1885-.084-.2871s-.0561-.1934-.084-.2871h1.8618c.0191.1035.0425.21.07.3223s.0561.2285.0839.3505c.0372.14.0723.2823.105.4268s.0674.2959.105.4551l.8818,3.9053Z"/><path class="cls-5" d="M136.9459,342.1375a5.2417,5.2417,0,0,1-1.6938-.2451,2.5115,2.5115,0,0,1-1.0918-.6719,1.4466,1.4466,0,0,1-.3779-.9873,1.1331,1.1331,0,0,1,.2939-.77,2.4361,2.4361,0,0,1,.7837-.5742v-.5176l1.2041.7559a1.416,1.416,0,0,0-.581.3213.663.663,0,0,0-.2168.49.7827.7827,0,0,0,.4477.7139,2.6314,2.6314,0,0,0,1.2739.252,4.6156,4.6156,0,0,0,1.05-.1114,1.9,1.9,0,0,0,.7627-.3437.7012.7012,0,0,0,.2871-.5664.531.531,0,0,0-.21-.4688,1.1582,1.1582,0,0,0-.6577-.1474h-2.4082a2.0311,2.0311,0,0,1-.8472-.1748,1.4936,1.4936,0,0,1-.6157-.504,1.2718,1.2718,0,0,1-.231-.749,1.4592,1.4592,0,0,1,.3008-.875,2.07,2.07,0,0,1,.9028-.665v-.4346l1.022.8545a1.4484,1.4484,0,0,0-.6016.294.5713.5713,0,0,0-.2241.4335.4061.4061,0,0,0,.21.3575,1.0642,1.0642,0,0,0,.5737.1328h1.8765a3.5565,3.5565,0,0,1,1.9458.4551,1.4681,1.4681,0,0,1,.7,1.3086,1.8729,1.8729,0,0,1-.49,1.2812,3.1447,3.1447,0,0,1-1.372.8545A6.2413,6.2413,0,0,1,136.9459,342.1375Zm.21-5.1524a3.3352,3.3352,0,0,1-1.4556-.3076,2.5172,2.5172,0,0,1-1.0151-.8467,2.0635,2.0635,0,0,1-.3711-1.1972,2.2405,2.2405,0,0,1,.3643-1.2744,2.3175,2.3175,0,0,1,1.0009-.8331,3.5254,3.5254,0,0,1,1.4629-.2871,3.4809,3.4809,0,0,1,1.0152.1475,3.2006,3.2006,0,0,1,.875.4131v.3222a1.8994,1.8994,0,0,1,.6089.6084,1.65,1.65,0,0,1,.2309.8887,2.22,2.22,0,0,1-.3359,1.1973,2.3567,2.3567,0,0,1-.9522.8545A3.0961,3.0961,0,0,1,137.1559,336.9851Zm-.0137-1.2041a1.2589,1.2589,0,0,0,.6089-.14,1.0125,1.0125,0,0,0,.4063-.3994,1.2128,1.2128,0,0,0,.1469-.6084,1.1861,1.1861,0,0,0-.3154-.8682,1.13,1.13,0,0,0-.8467-.3223,1.247,1.247,0,0,0-.6162.1475,1.033,1.033,0,0,0-.4131.4131,1.2836,1.2836,0,0,0-.1469.63,1.1065,1.1065,0,0,0,.3222.84A1.1839,1.1839,0,0,0,137.1422,335.781Zm1.6377-2.0576-.6718-1.26h2.8559v1.26Z"/><path class="cls-5" d="M141.9577,330.699v-1.54h1.792v4.2421a2.3388,2.3388,0,0,1,.812-.84,2.1088,2.1088,0,0,1,1.12-.3076,2.23,2.23,0,0,1,1.2109.3291,2.1539,2.1539,0,0,1,.812.9443,3.46,3.46,0,0,1,.2871,1.4707v4.1016H146.2v-3.9619a1.8444,1.8444,0,0,0-.28-1.1065.9642.9642,0,0,0-.8262-.3779,1.2631,1.2631,0,0,0-.665.1826,1.2938,1.2938,0,0,0-.49.6084,2.8233,2.8233,0,0,0-.1889,1.127v3.5283h-1.792v-8.4Z"/><path class="cls-5" d="M152.7658,339.2957a2.54,2.54,0,0,1-1.1411-.26,1.9689,1.9689,0,0,1-.8331-.77,2.3838,2.3838,0,0,1-.3081-1.2529v-3.1641h-1.372v-1.26a2.7167,2.7167,0,0,0,1.0639-.1543.8054.8054,0,0,0,.4483-.5322,4.4182,4.4182,0,0,0,.1118-1.1621h1.5122v1.708h1.8481v1.4h-1.8481v3.01a1.0035,1.0035,0,0,0,.28.7841,1.0681,1.0681,0,0,0,.7422.252,2.4886,2.4886,0,0,0,.4267-.0352,2.2917,2.2917,0,0,0,.3994-.1045v1.2461A2.9427,2.9427,0,0,1,152.7658,339.2957Z"/><path class="cls-5" d="M155.7755,341.5213l1.5264-2.7442.252.4619q-.1122.0279-.2383.05a1.4786,1.4786,0,0,1-.2378.0205,1.2341,1.2341,0,0,1-.8682-.3222,1.0863,1.0863,0,0,1-.35-.84,1.1018,1.1018,0,0,1,.3364-.8193A1.12,1.12,0,0,1,157.008,337a1.2459,1.2459,0,0,1,.9379.3779,1.3545,1.3545,0,0,1,.3638.9795,1.7906,1.7906,0,0,1-.126.6582q-.1259.3222-.3637.7842c-.01.0088-.0142.0156-.0142.0205s-.0049.0117-.0142.0215l-.8818,1.68Z"/><path class="cls-5" d="M92.734,352.909l1.4141-5.46h1.7358l1.3584,5.46h-.35l.98-3.92q.0556-.2094.105-.3984t.0908-.3574q.0556-.21.105-.4063.049-.1949.0913-.3779h1.708c-.0469.1592-.0937.3154-.14.47s-.0933.3194-.14.4971-.1025.373-.1679.5879l-1.5117,5.0957H96.22l-1.4839-5.74H95.24l-1.5679,5.74H91.8664L90.41,349.0037c-.0562-.1865-.105-.3623-.147-.5254s-.0864-.3145-.1333-.4551c-.0278-.0928-.0561-.1885-.084-.2871s-.0561-.1934-.0839-.2871h1.8618c.019.1035.0425.21.07.3223s.0561.2285.084.3505c.0371.14.0722.2823.105.4268s.0673.2959.1049.4551l.8819,3.9053Z"/><path class="cls-5" d="M103.6261,354.2957a2.6839,2.6839,0,0,1-1.5122-.4551,3.1093,3.1093,0,0,1-1.0776-1.26,4.322,4.322,0,0,1,.0068-3.6123,3.1072,3.1072,0,0,1,1.0991-1.26,2.7644,2.7644,0,0,1,1.54-.4551,2.4774,2.4774,0,0,1,1.0288.2236,2.3112,2.3112,0,0,1,.854.6651,2.4236,2.4236,0,0,1,.4829,1.0566l-.3081-.1953V344.159h1.792v9.94H105.74v-.9522a2.4031,2.4031,0,0,1-.9028.84A2.5023,2.5023,0,0,1,103.6261,354.2957Zm.5181-1.3584a1.4559,1.4559,0,0,0,.8608-.2725,1.8059,1.8059,0,0,0,.6021-.7705,2.7917,2.7917,0,0,0,.2168-1.1269v-.0284a2.7038,2.7038,0,0,0-.2168-1.1054,1.7724,1.7724,0,0,0-.5947-.7559,1.5013,1.5013,0,0,0-1.7081,0,1.7666,1.7666,0,0,0-.5952.7559,2.7709,2.7709,0,0,0-.2168,1.1338,2.5061,2.5061,0,0,0,.4619,1.5683A1.4346,1.4346,0,0,0,104.1442,352.9373Z"/><path class="cls-5" d="M112.3478,354.2957a2.54,2.54,0,0,1-1.1411-.26,1.9687,1.9687,0,0,1-.833-.77,2.3829,2.3829,0,0,1-.3081-1.2529v-3.1641h-1.3721v-1.26a2.7172,2.7172,0,0,0,1.064-.1543.8056.8056,0,0,0,.4482-.5322,4.4182,4.4182,0,0,0,.1118-1.1621H111.83v1.708h1.8482v1.4H111.83v3.01a1.0035,1.0035,0,0,0,.28.7841,1.0681,1.0681,0,0,0,.7422.252,2.4906,2.4906,0,0,0,.4268-.0352,2.2964,2.2964,0,0,0,.3994-.1045v1.2461A2.9434,2.9434,0,0,1,112.3478,354.2957Z"/><path class="cls-5" d="M114.966,345.699v-1.54h1.792v4.2421a2.3388,2.3388,0,0,1,.812-.84,2.1088,2.1088,0,0,1,1.12-.3076,2.23,2.23,0,0,1,1.2109.3291,2.1539,2.1539,0,0,1,.812.9443A3.46,3.46,0,0,1,121,349.9978v4.1016h-1.7919v-3.9619a1.8444,1.8444,0,0,0-.28-1.1065.9642.9642,0,0,0-.8262-.3779,1.2631,1.2631,0,0,0-.665.1826,1.2938,1.2938,0,0,0-.49.6084,2.8233,2.8233,0,0,0-.1889,1.127v3.5283h-1.792v-8.4Z"/><path class="cls-5" d="M130.4357,354.3377l-6.6924-2.8565v-1.3994l6.6924-2.8564v1.61l-4.7183,1.96,4.7183,1.96Z"/><path class="cls-5" d="M135.4054,354.2254a4.2853,4.2853,0,0,1-1.2251-.168,3.6925,3.6925,0,0,1-.9726-.4336v-1.54a4.146,4.146,0,0,0,1.0078.4267,3.844,3.844,0,0,0,1.0219.1465,3.2966,3.2966,0,0,0,1.68-.4131,2.6086,2.6086,0,0,0,1.085-1.2529,4.7224,4.7224,0,0,0,.3291-2.0713h.2378l.07-.0146a2.3232,2.3232,0,0,1-.959,1.2392,2.907,2.907,0,0,1-1.645.4688,2.9891,2.9891,0,0,1-1.47-.3633,2.72,2.72,0,0,1-1.05-1.043,3.1547,3.1547,0,0,1-.3916-1.6035,3.19,3.19,0,0,1,.4409-1.6729,3.0283,3.0283,0,0,1,1.2109-1.1406,3.5947,3.5947,0,0,1,1.708-.4062,3.4753,3.4753,0,0,1,1.8272.4756,3.4139,3.4139,0,0,1,1.2529,1.33,5.1782,5.1782,0,0,1,.5669,1.8135,6.9356,6.9356,0,0,1-.0351,2.0371,5.6836,5.6836,0,0,1-.6158,1.834,4.3983,4.3983,0,0,1-1.666,1.7285A4.68,4.68,0,0,1,135.4054,354.2254Zm1.232-5.0684a1.5566,1.5566,0,0,0,.812-.2168,1.58,1.58,0,0,0,.5742-.5879,1.66,1.66,0,0,0,.21-.833v-.0283a1.6629,1.6629,0,0,0-.21-.833,1.5346,1.5346,0,0,0-.5742-.5811,1.6267,1.6267,0,0,0-.8257-.21,1.5571,1.5571,0,0,0-.812.2177,1.5231,1.5231,0,0,0-.5674.5879,1.7338,1.7338,0,0,0-.2027.8467,1.61,1.61,0,0,0,.4551,1.169A1.523,1.523,0,0,0,136.6374,349.157Z"/><path class="cls-5" d="M145.4015,354.2957a3.1076,3.1076,0,0,1-1.9111-.6231,4.0283,4.0283,0,0,1-1.2949-1.75,7.4517,7.4517,0,0,1,0-5.166,4.0289,4.0289,0,0,1,1.2949-1.75,3.2421,3.2421,0,0,1,3.8218,0,4.0344,4.0344,0,0,1,1.2954,1.75,7.4532,7.4532,0,0,1,0,5.166,4.0338,4.0338,0,0,1-1.2954,1.75A3.1072,3.1072,0,0,1,145.4015,354.2957Zm0-1.5684a1.2975,1.2975,0,0,0,.9517-.3916,2.52,2.52,0,0,0,.5952-1.1484,8.51,8.51,0,0,0,0-3.6963,2.5165,2.5165,0,0,0-.5952-1.1475,1.3505,1.3505,0,0,0-1.9038,0,2.5156,2.5156,0,0,0-.5953,1.1475,8.5309,8.5309,0,0,0,0,3.6963,2.5192,2.5192,0,0,0,.5953,1.1484A1.2976,1.2976,0,0,0,145.4015,352.7273Z"/><path class="cls-5" d="M150.5255,356.5213l1.5259-2.7442.252.4619c-.0747.0186-.1538.0352-.2378.05a1.4833,1.4833,0,0,1-.2378.0205,1.2324,1.2324,0,0,1-.8682-.3222,1.0863,1.0863,0,0,1-.35-.84,1.1011,1.1011,0,0,1,.336-.8193,1.12,1.12,0,0,1,.812-.3281,1.2447,1.2447,0,0,1,.938.3779,1.3531,1.3531,0,0,1,.3642.9795,1.7906,1.7906,0,0,1-.126.6582q-.1259.3222-.3642.7842c-.0093.0088-.0142.0156-.0142.0205s-.0044.0117-.0137.0215l-.8823,1.68Zm1.232-6.9717a1.1482,1.1482,0,0,1-1.1621-1.1621,1.1005,1.1005,0,0,1,.3364-.8194,1.2009,1.2009,0,0,1,1.6518,0,1.1,1.1,0,0,1,.336.8194,1.1475,1.1475,0,0,1-1.1621,1.1621Z"/><path class="cls-4" d="M4.3546,30.4026l1.5147-5.85H7.73l1.4551,5.85H8.81l1.05-4.2c.04-.15.0772-.2925.1123-.4272s.0679-.2627.0977-.3828c.04-.15.0771-.295.1123-.4351s.0679-.2749.0976-.4048h1.83q-.0755.2549-.15.5025t-.15.5327q-.0755.2848-.18.63l-1.62,5.46h-1.92l-1.59-6.15h.54l-1.68,6.15H3.4245l-1.56-5.46q-.09-.3-.1572-.5625t-.1426-.4874c-.03-.1-.06-.2026-.09-.3076s-.06-.2075-.09-.3076H3.38c.02.11.045.2251.0747.3452s.06.2451.09.375q.0592.2248.1123.4575t.1128.4874l.9448,4.185Z"/><path class="cls-4" d="M16.0846,34.9324A5.61,5.61,0,0,1,14.27,34.67a2.692,2.692,0,0,1-1.17-.72,1.55,1.55,0,0,1-.4048-1.0576,1.2162,1.2162,0,0,1,.3149-.8248,2.6168,2.6168,0,0,1,.84-.6152v-.5547l1.29.81a1.5223,1.5223,0,0,0-.6221.3452.7075.7075,0,0,0-.2329.5249.8407.8407,0,0,0,.48.7652,2.8193,2.8193,0,0,0,1.3652.27,4.9176,4.9176,0,0,0,1.125-.12,2.0317,2.0317,0,0,0,.8174-.3677.7519.7519,0,0,0,.3076-.6074.5706.5706,0,0,0-.2251-.5025,1.2469,1.2469,0,0,0-.705-.1572h-2.58a2.1747,2.1747,0,0,1-.9072-.1875,1.5938,1.5938,0,0,1-.66-.54,1.362,1.362,0,0,1-.2476-.8027,1.5643,1.5643,0,0,1,.3228-.9375,2.2179,2.2179,0,0,1,.9673-.7124v-.4648l1.0952.915a1.552,1.552,0,0,0-.645.3149.6122.6122,0,0,0-.24.4649.4342.4342,0,0,0,.2251.3823,1.1408,1.1408,0,0,0,.6153.1426h2.01a3.8033,3.8033,0,0,1,2.085.4878,1.573,1.573,0,0,1,.75,1.4023,2.0064,2.0064,0,0,1-.5249,1.3726,3.3685,3.3685,0,0,1-1.47.915A6.6744,6.6744,0,0,1,16.0846,34.9324Zm.2251-5.52a3.5663,3.5663,0,0,1-1.56-.33,2.6975,2.6975,0,0,1-1.0879-.9072,2.2135,2.2135,0,0,1-.3975-1.2827,2.402,2.402,0,0,1,.39-1.3648,2.4769,2.4769,0,0,1,1.0728-.8926,3.7768,3.7768,0,0,1,1.5674-.3076,3.7155,3.7155,0,0,1,1.0874.1577,3.4473,3.4473,0,0,1,.9375.4424v.3452a2.03,2.03,0,0,1,.6523.6524,1.7656,1.7656,0,0,1,.2476.9526,2.3763,2.3763,0,0,1-.36,1.2822,2.5241,2.5241,0,0,1-1.02.9151A3.3146,3.3146,0,0,1,16.31,29.4124Zm-.0151-1.29a1.35,1.35,0,0,0,.6523-.15,1.0807,1.0807,0,0,0,.4351-.4272,1.3013,1.3013,0,0,0,.1577-.6528,1.272,1.272,0,0,0-.3379-.93,1.21,1.21,0,0,0-.9072-.3452,1.3431,1.3431,0,0,0-.66.1577,1.108,1.108,0,0,0-.4424.4424,1.3751,1.3751,0,0,0-.1577.6748,1.1876,1.1876,0,0,0,.3452.9A1.2687,1.2687,0,0,0,16.2946,28.1223ZM18.05,25.9177l-.72-1.35h3.06v1.35Z"/><path class="cls-4" d="M21.4547,22.6775v-1.65h1.92v4.5449a2.4982,2.4982,0,0,1,.87-.9,2.2573,2.2573,0,0,1,1.2-.33,2.3932,2.3932,0,0,1,1.2978.3525,2.31,2.31,0,0,1,.87,1.0122,3.7054,3.7054,0,0,1,.3076,1.5752v4.395H26V27.4324a1.9769,1.9769,0,0,0-.3-1.1851,1.0323,1.0323,0,0,0-.8853-.4047,1.35,1.35,0,0,0-.7124.1948,1.3819,1.3819,0,0,0-.5249.6528,3.0154,3.0154,0,0,0-.2026,1.2075v3.78h-1.92v-9Z"/><path class="cls-4" d="M33.0343,31.8875a2.7311,2.7311,0,0,1-1.2226-.2774,2.1186,2.1186,0,0,1-.8926-.8252,2.5587,2.5587,0,0,1-.33-1.3423v-3.39h-1.47v-1.35a2.908,2.908,0,0,0,1.14-.165.8632.8632,0,0,0,.48-.57,4.7331,4.7331,0,0,0,.12-1.2452h1.62v1.83h1.98v1.5h-1.98v3.2251a1.0752,1.0752,0,0,0,.3.84,1.1422,1.1422,0,0,0,.795.27,2.6534,2.6534,0,0,0,.4575-.0376,2.5245,2.5245,0,0,0,.4272-.1123v1.3349A3.1423,3.1423,0,0,1,33.0343,31.8875Z"/><path class="cls-4" d="M14.0592,14.5388v-7.95l-2.9848,2.07V6.469l3.24-2.13h1.6953v10.2Z"/><path class="cls-4" d="M17.9743,6.1687v-1.83h7.0649v1.89l-4.53,8.31h-2.16l4.83-8.37Z"/><path class="cls-4" d="M29.5387,14.7488a5.3443,5.3443,0,0,1-1.605-.24,4.7118,4.7118,0,0,1-1.3647-.6753v-1.62a5.17,5.17,0,0,0,1.35.6451,4.8588,4.8588,0,0,0,1.4248.21,2.615,2.615,0,0,0,1.1323-.2246,1.6828,1.6828,0,0,0,.72-.6152,1.6423,1.6423,0,0,0,.2476-.9,1.4617,1.4617,0,0,0-.2476-.8623,1.5441,1.5441,0,0,0-.7348-.54,3.3853,3.3853,0,0,0-1.2075-.1875,5.4442,5.4442,0,0,0-1.1778.1275,7.1186,7.1186,0,0,0-1.0722.3222l.705-5.85h5.79v1.77H29.1637l-.2695,2.16a3.422,3.422,0,0,1,.5547-.105,5.895,5.895,0,0,1,.6152-.03,3.9719,3.9719,0,0,1,1.6724.36,3.0944,3.0944,0,0,1,1.2749,1.0576,2.8218,2.8218,0,0,1,.4878,1.6573,3.36,3.36,0,0,1-1.9053,3.09A4.5314,4.5314,0,0,1,29.5387,14.7488Z"/><path class="cls-4" d="M12.11,93.6819v-7.95l-2.9848,2.07v-2.19l3.24-2.13H14.06v10.2Z"/><path class="cls-4" d="M20.3292,93.8919a3.8837,3.8837,0,0,1-1.53-.2925,3.5151,3.5151,0,0,1-1.1851-.81,4.13,4.13,0,0,1-.7949-1.1924,5.7977,5.7977,0,0,1-.4424-1.8823,7.5284,7.5284,0,0,1,.1348-2.1152,5.9693,5.9693,0,0,1,.7124-1.8823,4.79,4.79,0,0,1,1.8-1.7325,4.9532,4.9532,0,0,1,2.46-.6377,5.0185,5.0185,0,0,1,1.3125.1724,3.2874,3.2874,0,0,1,1.0576.4727v1.65a4.31,4.31,0,0,0-1.0424-.4576,4.0828,4.0828,0,0,0-1.1329-.1572,3.49,3.49,0,0,0-1.8447.4722,2.9576,2.9576,0,0,0-1.1777,1.3574,4.49,4.49,0,0,0-.3374,2.085h-.24l-.0747.0151a2.81,2.81,0,0,1,1.08-1.3276,3.1086,3.1086,0,0,1,1.7847-.5171,3.2148,3.2148,0,0,1,1.5679.39,2.9365,2.9365,0,0,1,1.14,1.125,3.3688,3.3688,0,0,1,.4277,1.7251,3.4943,3.4943,0,0,1-.4878,1.8526A3.3492,3.3492,0,0,1,22.19,93.45,3.9323,3.9323,0,0,1,20.3292,93.8919Zm-.1347-1.59a1.7641,1.7641,0,0,0,.9072-.2324,1.6592,1.6592,0,0,0,.6226-.6377,1.8791,1.8791,0,0,0,.2251-.93,1.9659,1.9659,0,0,0-.2251-.9448,1.6141,1.6141,0,0,0-.63-.6523,1.8021,1.8021,0,0,0-.9151-.2325,1.76,1.76,0,0,0-.9072.2325,1.6286,1.6286,0,0,0-.6225.6523,1.9716,1.9716,0,0,0-.2251.9448v.03a1.8536,1.8536,0,0,0,.2251.915,1.5883,1.5883,0,0,0,.63.63A1.8526,1.8526,0,0,0,20.1945,92.302Z"/><path class="cls-4" d="M29.6593,93.8919a3.3249,3.3249,0,0,1-2.0473-.6675,4.3141,4.3141,0,0,1-1.3877-1.875,7.9815,7.9815,0,0,1,0-5.5352,4.32,4.32,0,0,1,1.3877-1.875,3.474,3.474,0,0,1,4.0947,0,4.3254,4.3254,0,0,1,1.3877,1.875,7.983,7.983,0,0,1,0,5.5352,4.32,4.32,0,0,1-1.3877,1.875A3.3252,3.3252,0,0,1,29.6593,93.8919Zm0-1.68a1.3883,1.3883,0,0,0,1.02-.42,2.7,2.7,0,0,0,.6377-1.23,9.1294,9.1294,0,0,0,0-3.96,2.703,2.703,0,0,0-.6377-1.23,1.4488,1.4488,0,0,0-2.04,0,2.6935,2.6935,0,0,0-.6377,1.23,9.1294,9.1294,0,0,0,0,3.96,2.6909,2.6909,0,0,0,.6377,1.23A1.3877,1.3877,0,0,0,29.6593,92.2117Z"/><path class="cls-4" d="M12.0353,185.5105v-7.95l-2.9849,2.07v-2.19l3.24-2.13h1.6953v10.2Z"/><path class="cls-4" d="M20.78,185.5105v-2.5351H15.89v-1.77l4.5449-5.895H22.61v5.9551H24.8v1.71H22.61v2.5351ZM17,182.18l-.69-.915h4.47V175.91h1.0347Z"/><path class="cls-4" d="M30.26,185.5105v-2.5351H25.37v-1.77l4.5449-5.895H32.09v5.9551h2.19v1.71H32.09v2.5351Zm-3.78-3.33-.69-.915h4.47V175.91h1.0347Z"/><path class="cls-4" d="M14.69,276.4168v-7.95l-2.9849,2.07v-2.19l3.24-2.13H16.64v10.2Z"/><path class="cls-4" d="M25.4147,276.4168h-6.51v-1.83l1.5152-1.26q1.05-.8847,1.605-1.41a5.18,5.18,0,0,0,.8925-1.0879,2.2514,2.2514,0,0,0,.3374-1.1768,1.96,1.96,0,0,0-.27-1.0429,1.7968,1.7968,0,0,0-.7573-.6827,2.5476,2.5476,0,0,0-1.1328-.24,3.7672,3.7672,0,0,0-1.1323.1729,3.6755,3.6755,0,0,0-.9678.458v-1.62a4.0619,4.0619,0,0,1,1.1177-.4951,4.9794,4.9794,0,0,1,1.4023-.1953,4.4228,4.4228,0,0,1,2.0552.4424,3.1025,3.1025,0,0,1,1.2973,1.208,3.4107,3.4107,0,0,1,.4429,1.74,3.244,3.244,0,0,1-.375,1.5147,6.03,6.03,0,0,1-.99,1.3652,16.6912,16.6912,0,0,1-1.56,1.4092l-1.44,1.1855-1.38-.2246h5.85Z"/><path class="cls-4" d="M26.7345,268.0467v-1.83H33.8v1.8906l-4.53,8.31H27.11l4.83-8.37Z"/><path class="cls-4" d="M12.7091,367.784v-7.95l-2.9848,2.07v-2.1905l3.24-2.13h1.6953v10.2Z"/><path class="cls-4" d="M20.8991,367.9939a3.33,3.33,0,0,1-2.0474-.667,4.3215,4.3215,0,0,1-1.3877-1.875,7.9827,7.9827,0,0,1,0-5.5351,4.3157,4.3157,0,0,1,1.3877-1.875,3.4715,3.4715,0,0,1,4.0947,0,4.318,4.318,0,0,1,1.3877,1.875,7.9827,7.9827,0,0,1,0,5.5351,4.3239,4.3239,0,0,1-1.3877,1.875A3.33,3.33,0,0,1,20.8991,367.9939Zm0-1.68a1.3919,1.3919,0,0,0,1.02-.42,2.7045,2.7045,0,0,0,.6377-1.2305,9.1289,9.1289,0,0,0,0-3.96,2.6952,2.6952,0,0,0-.6377-1.2295,1.4464,1.4464,0,0,0-2.04,0,2.6857,2.6857,0,0,0-.6377,1.2295,9.1289,9.1289,0,0,0,0,3.96,2.695,2.695,0,0,0,.6377,1.2305A1.391,1.391,0,0,0,20.8991,366.3142Z"/><path class="cls-4" d="M29.5387,367.9939a5.3287,5.3287,0,0,1-1.605-.24,4.6857,4.6857,0,0,1-1.3647-.6748v-1.62a5.2232,5.2232,0,0,0,1.35.6455,4.8755,4.8755,0,0,0,1.4248.21,2.6074,2.6074,0,0,0,1.1323-.2256,1.6768,1.6768,0,0,0,.72-.6142,1.6464,1.6464,0,0,0,.2476-.9,1.461,1.461,0,0,0-.2476-.8623,1.5407,1.5407,0,0,0-.7348-.54,3.3853,3.3853,0,0,0-1.2075-.1875,5.4438,5.4438,0,0,0-1.1778.1269,7.13,7.13,0,0,0-1.0722.3232l.705-5.8505h5.79v1.7705H29.1637l-.2695,2.16a3.3591,3.3591,0,0,1,.5547-.1054,5.9993,5.9993,0,0,1,.6152-.03,3.9723,3.9723,0,0,1,1.6724.36,3.1015,3.1015,0,0,1,1.2749,1.0577,2.8213,2.8213,0,0,1,.4878,1.6572,3.36,3.36,0,0,1-1.9053,3.09A4.5379,4.5379,0,0,1,29.5387,367.9939Z"/><path class="cls-4" d="M20.9293,459.3611a5.47,5.47,0,0,1-2.0927-.3672,3.0678,3.0678,0,0,1-1.38-1.0576,2.71,2.71,0,0,1-.4873-1.6055,2.3373,2.3373,0,0,1,.3222-1.207,2.6294,2.6294,0,0,1,.93-.915,3.9757,3.9757,0,0,1,1.4326-.503l-.0151.2549a3.3505,3.3505,0,0,1-1.23-.4795,2.4038,2.4038,0,0,1-.8027-.8476,2.212,2.212,0,0,1-.2774-1.0879,2.5251,2.5251,0,0,1,.4424-1.4766,2.82,2.82,0,0,1,1.26-.9834,5.3947,5.3947,0,0,1,3.7949,0,2.821,2.821,0,0,1,1.26.9834,2.5254,2.5254,0,0,1,.4428,1.4766,2.2124,2.2124,0,0,1-.2778,1.0879,2.4067,2.4067,0,0,1-.8022.8476,3.3575,3.3575,0,0,1-1.23.4795l-.0152-.2549a3.9824,3.9824,0,0,1,1.4327.503,2.6319,2.6319,0,0,1,.93.915,2.333,2.333,0,0,1,.3227,1.207,2.71,2.71,0,0,1-.4878,1.6055,3.0678,3.0678,0,0,1-1.38,1.0576A5.4679,5.4679,0,0,1,20.9293,459.3611Zm0-1.62a2.4672,2.4672,0,0,0,.9976-.1875,1.5469,1.5469,0,0,0,.6675-.5322,1.3612,1.3612,0,0,0,.24-.795,1.4321,1.4321,0,0,0-.24-.81,1.612,1.612,0,0,0-.6753-.5625,2.5247,2.5247,0,0,0-1.98,0,1.6075,1.6075,0,0,0-.6748.5625,1.4287,1.4287,0,0,0-.24.81,1.358,1.358,0,0,0,.24.795,1.5411,1.5411,0,0,0,.6675.5322A2.465,2.465,0,0,0,20.9293,457.741Zm0-4.6348a1.8357,1.8357,0,0,0,.8174-.1728,1.2734,1.2734,0,0,0,.5474-.4951,1.3782,1.3782,0,0,0,.1953-.7276,1.2754,1.2754,0,0,0-.1953-.6972,1.3154,1.3154,0,0,0-.5474-.48,2.0184,2.0184,0,0,0-1.6347,0,1.3138,1.3138,0,0,0-.5479.48,1.2751,1.2751,0,0,0-.1948.6972,1.3024,1.3024,0,0,0,.4272,1.0059A1.6172,1.6172,0,0,0,20.9293,453.1062Z"/><path class="cls-4" d="M29.5387,459.3611a5.3287,5.3287,0,0,1-1.605-.24,4.6857,4.6857,0,0,1-1.3647-.6748v-1.62a5.2232,5.2232,0,0,0,1.35.6455,4.8755,4.8755,0,0,0,1.4248.21,2.6074,2.6074,0,0,0,1.1323-.2256,1.6775,1.6775,0,0,0,.72-.6142,1.6464,1.6464,0,0,0,.2476-.9,1.4608,1.4608,0,0,0-.2476-.8623,1.5409,1.5409,0,0,0-.7348-.54,3.3853,3.3853,0,0,0-1.2075-.1875,5.4439,5.4439,0,0,0-1.1778.127,7.13,7.13,0,0,0-1.0722.3232l.705-5.85h5.79v1.77H29.1637l-.2695,2.16a3.37,3.37,0,0,1,.5547-.1055,6.0291,6.0291,0,0,1,.6152-.03,3.9723,3.9723,0,0,1,1.6724.36,3.1021,3.1021,0,0,1,1.2749,1.0576,2.8218,2.8218,0,0,1,.4878,1.6573,3.36,3.36,0,0,1-1.9053,3.09A4.5379,4.5379,0,0,1,29.5387,459.3611Z"/><path class="cls-4" d="M41.03,467.5926v-1.83h7.065v1.8906l-4.53,8.31h-2.16l4.83-8.37Z"/><path class="cls-4" d="M52.5949,476.1726a5.3247,5.3247,0,0,1-1.605-.24,4.6851,4.6851,0,0,1-1.3648-.6748v-1.62a5.223,5.223,0,0,0,1.35.6455,4.8755,4.8755,0,0,0,1.4248.21,2.6094,2.6094,0,0,0,1.1324-.2255,1.6782,1.6782,0,0,0,.72-.6143,1.6467,1.6467,0,0,0,.2475-.9,1.4617,1.4617,0,0,0-.2475-.8623,1.5422,1.5422,0,0,0-.7349-.54,3.3849,3.3849,0,0,0-1.2075-.1875,5.4485,5.4485,0,0,0-1.1777.1269,7.12,7.12,0,0,0-1.0723.3233l.7051-5.8506h5.79v1.7705H52.22l-.27,2.16a3.3715,3.3715,0,0,1,.5547-.1054,6.0013,6.0013,0,0,1,.6153-.03,3.9722,3.9722,0,0,1,1.6723.36,3.1015,3.1015,0,0,1,1.2749,1.0577,2.8213,2.8213,0,0,1,.4878,1.6572,3.3593,3.3593,0,0,1-1.9053,3.09A4.5375,4.5375,0,0,1,52.5949,476.1726Z"/><path class="cls-4" d="M88.1081,476.1726a5.4687,5.4687,0,0,1-2.0928-.3672,3.0683,3.0683,0,0,1-1.38-1.0576,2.7093,2.7093,0,0,1-.4873-1.6054,2.3368,2.3368,0,0,1,.3223-1.2071,2.6282,2.6282,0,0,1,.93-.915,3.9762,3.9762,0,0,1,1.4327-.5029l-.0152.2548a3.3505,3.3505,0,0,1-1.23-.4795,2.4039,2.4039,0,0,1-.8027-.8476,2.2119,2.2119,0,0,1-.2773-1.0879,2.525,2.525,0,0,1,.4423-1.4766,2.82,2.82,0,0,1,1.26-.9834,5.3947,5.3947,0,0,1,3.7949,0,2.8212,2.8212,0,0,1,1.26.9834,2.5254,2.5254,0,0,1,.4429,1.4766,2.2125,2.2125,0,0,1-.2779,1.0879,2.4059,2.4059,0,0,1-.8022.8476,3.3575,3.3575,0,0,1-1.23.4795l-.0151-.2548a3.9825,3.9825,0,0,1,1.4326.5029,2.6311,2.6311,0,0,1,.93.915,2.3333,2.3333,0,0,1,.3227,1.2071,2.71,2.71,0,0,1-.4878,1.6054,3.0678,3.0678,0,0,1-1.38,1.0576A5.4655,5.4655,0,0,1,88.1081,476.1726Zm0-1.62a2.4667,2.4667,0,0,0,.9975-.1875,1.5462,1.5462,0,0,0,.6675-.5322,1.3609,1.3609,0,0,0,.24-.7949,1.4326,1.4326,0,0,0-.24-.8106,1.6135,1.6135,0,0,0-.6753-.5625,2.5258,2.5258,0,0,0-1.98,0,1.6089,1.6089,0,0,0-.6748.5625,1.43,1.43,0,0,0-.24.8106,1.3584,1.3584,0,0,0,.24.7949,1.54,1.54,0,0,0,.6675.5322A2.4655,2.4655,0,0,0,88.1081,474.5525Zm0-4.6348a1.8356,1.8356,0,0,0,.8173-.1728,1.2734,1.2734,0,0,0,.5474-.4951,1.3782,1.3782,0,0,0,.1953-.7276,1.2757,1.2757,0,0,0-.1953-.6972,1.3154,1.3154,0,0,0-.5474-.4795,2.0184,2.0184,0,0,0-1.6347,0,1.3138,1.3138,0,0,0-.5479.4795,1.2753,1.2753,0,0,0-.1948.6972,1.3023,1.3023,0,0,0,.4272,1.0059A1.6168,1.6168,0,0,0,88.1081,469.9177Z"/><path class="cls-4" d="M97.6027,476.1726a3.33,3.33,0,0,1-2.0474-.667,4.3215,4.3215,0,0,1-1.3877-1.875,7.9827,7.9827,0,0,1,0-5.5351,4.3157,4.3157,0,0,1,1.3877-1.875,3.4715,3.4715,0,0,1,4.0947,0,4.318,4.318,0,0,1,1.3877,1.875,7.9812,7.9812,0,0,1,0,5.5351,4.3239,4.3239,0,0,1-1.3877,1.875A3.33,3.33,0,0,1,97.6027,476.1726Zm0-1.68a1.3919,1.3919,0,0,0,1.02-.42,2.7046,2.7046,0,0,0,.6377-1.23,9.1294,9.1294,0,0,0,0-3.96,2.6958,2.6958,0,0,0-.6377-1.23,1.4464,1.4464,0,0,0-2.04,0,2.6863,2.6863,0,0,0-.6377,1.23,9.1294,9.1294,0,0,0,0,3.96,2.6951,2.6951,0,0,0,.6377,1.23A1.391,1.391,0,0,0,97.6027,474.4929Z"/><path class="cls-4" d="M163.01,476.0974a4.5922,4.5922,0,0,1-1.3125-.18,3.9481,3.9481,0,0,1-1.0425-.4648v-1.65a4.47,4.47,0,0,0,1.08.458,4.1246,4.1246,0,0,0,1.0947.1572,3.5348,3.5348,0,0,0,1.8-.4423,2.8021,2.8021,0,0,0,1.1621-1.3428,5.05,5.05,0,0,0,.3526-2.22h.2553l.0747-.0157a2.4865,2.4865,0,0,1-1.0273,1.3282,3.1163,3.1163,0,0,1-1.7627.5019,3.1992,3.1992,0,0,1-1.5747-.39,2.9093,2.9093,0,0,1-1.125-1.1172,3.3748,3.3748,0,0,1-.42-1.7178,3.42,3.42,0,0,1,.4726-1.793,3.2541,3.2541,0,0,1,1.2974-1.2216,3.8632,3.8632,0,0,1,1.83-.4356,3.7221,3.7221,0,0,1,1.9575.51,3.66,3.66,0,0,1,1.3428,1.4258,5.5384,5.5384,0,0,1,.6074,1.9423,7.44,7.44,0,0,1-.0376,2.1827,6.0709,6.0709,0,0,1-.66,1.9648,4.7142,4.7142,0,0,1-1.7846,1.8525A5.0169,5.0169,0,0,1,163.01,476.0974Zm1.32-5.43a1.6651,1.6651,0,0,0,.87-.2324,1.6938,1.6938,0,0,0,.6148-.63,1.7747,1.7747,0,0,0,.2251-.8925v-.03a1.7774,1.7774,0,0,0-.2251-.8926,1.6328,1.6328,0,0,0-.6148-.6221,1.7369,1.7369,0,0,0-.8852-.2255,1.6714,1.6714,0,0,0-.87.2324,1.6293,1.6293,0,0,0-.6075.6308,1.8529,1.8529,0,0,0-.2177.9073,1.7253,1.7253,0,0,0,.4878,1.2519A1.6283,1.6283,0,0,0,164.33,470.6677Z"/><path class="cls-4" d="M173.72,476.1726a3.33,3.33,0,0,1-2.0474-.667,4.3215,4.3215,0,0,1-1.3877-1.875,7.9827,7.9827,0,0,1,0-5.5351,4.3157,4.3157,0,0,1,1.3877-1.875,3.4715,3.4715,0,0,1,4.0947,0,4.32,4.32,0,0,1,1.3877,1.875,7.9827,7.9827,0,0,1,0,5.5351,4.3254,4.3254,0,0,1-1.3877,1.875A3.33,3.33,0,0,1,173.72,476.1726Zm0-1.68a1.3919,1.3919,0,0,0,1.02-.42,2.7046,2.7046,0,0,0,.6377-1.23,9.1294,9.1294,0,0,0,0-3.96,2.6958,2.6958,0,0,0-.6377-1.23,1.4465,1.4465,0,0,0-2.04,0,2.6882,2.6882,0,0,0-.6377,1.23,9.1335,9.1335,0,0,0,0,3.96,2.697,2.697,0,0,0,.6377,1.23A1.3914,1.3914,0,0,0,173.72,474.4929Z"/><path class="cls-4" d="M245.2472,475.9627v-7.95l-2.9853,2.07v-2.19l3.24-2.13h1.6953v10.2Z"/><path class="cls-4" d="M253.4367,476.1726a3.33,3.33,0,0,1-2.0469-.667,4.3177,4.3177,0,0,1-1.3877-1.875,7.9827,7.9827,0,0,1,0-5.5351,4.3118,4.3118,0,0,1,1.3877-1.875,3.4715,3.4715,0,0,1,4.0947,0,4.32,4.32,0,0,1,1.3877,1.875,7.9827,7.9827,0,0,1,0,5.5351,4.3254,4.3254,0,0,1-1.3877,1.875A3.33,3.33,0,0,1,253.4367,476.1726Zm0-1.68a1.3923,1.3923,0,0,0,1.02-.42,2.7008,2.7008,0,0,0,.6377-1.23,9.15,9.15,0,0,0,0-3.96,2.692,2.692,0,0,0-.6377-1.23,1.4465,1.4465,0,0,0-2.04,0,2.692,2.692,0,0,0-.6377,1.23,9.113,9.113,0,0,0,0,3.96,2.7008,2.7008,0,0,0,.6377,1.23A1.3919,1.3919,0,0,0,253.4367,474.4929Z"/><path class="cls-4" d="M262.9621,476.1726a3.33,3.33,0,0,1-2.0469-.667,4.3177,4.3177,0,0,1-1.3877-1.875,7.9827,7.9827,0,0,1,0-5.5351,4.3118,4.3118,0,0,1,1.3877-1.875,3.4715,3.4715,0,0,1,4.0947,0,4.32,4.32,0,0,1,1.3877,1.875,7.9827,7.9827,0,0,1,0,5.5351,4.3254,4.3254,0,0,1-1.3877,1.875A3.33,3.33,0,0,1,262.9621,476.1726Zm0-1.68a1.3924,1.3924,0,0,0,1.02-.42,2.7008,2.7008,0,0,0,.6377-1.23,9.15,9.15,0,0,0,0-3.96,2.692,2.692,0,0,0-.6377-1.23,1.4465,1.4465,0,0,0-2.04,0,2.692,2.692,0,0,0-.6377,1.23,9.113,9.113,0,0,0,0,3.96,2.7008,2.7008,0,0,0,.6377,1.23A1.3917,1.3917,0,0,0,262.9621,474.4929Z"/><path class="cls-4" d="M332.2843,475.9627v-7.95l-2.9853,2.07v-2.19l3.24-2.13h1.6953v10.2Z"/><path class="cls-4" d="M339.1242,475.9627v-7.95l-2.9854,2.07v-2.19l3.24-2.13h1.6953v10.2Z"/><path class="cls-4" d="M347.3136,476.1726a3.33,3.33,0,0,1-2.0469-.667,4.3167,4.3167,0,0,1-1.3876-1.875,7.9812,7.9812,0,0,1,0-5.5351,4.3108,4.3108,0,0,1,1.3876-1.875,3.4716,3.4716,0,0,1,4.0948,0,4.32,4.32,0,0,1,1.3877,1.875,7.9827,7.9827,0,0,1,0,5.5351,4.3254,4.3254,0,0,1-1.3877,1.875A3.331,3.331,0,0,1,347.3136,476.1726Zm0-1.68a1.3921,1.3921,0,0,0,1.02-.42,2.7,2.7,0,0,0,.6377-1.23,9.15,9.15,0,0,0,0-3.96,2.691,2.691,0,0,0-.6377-1.23,1.4464,1.4464,0,0,0-2.04,0,2.691,2.691,0,0,0-.6377,1.23,9.1089,9.1089,0,0,0,0,3.96,2.7,2.7,0,0,0,.6377,1.23A1.3916,1.3916,0,0,0,347.3136,474.4929Z"/><path class="cls-4" d="M416.3341,475.9627v-7.95l-2.9853,2.07v-2.19l3.24-2.13h1.6953v10.2Z"/><path class="cls-4" d="M427.0587,475.9627h-6.51v-1.83l1.5146-1.26q1.05-.8847,1.6055-1.41a5.1805,5.1805,0,0,0,.8926-1.0879,2.2554,2.2554,0,0,0,.3369-1.1768,1.9657,1.9657,0,0,0-.2695-1.0429,1.7925,1.7925,0,0,0-.7579-.6827,2.5447,2.5447,0,0,0-1.1318-.24,3.7686,3.7686,0,0,0-1.1328.1729,3.677,3.677,0,0,0-.9678.458v-1.62a4.0533,4.0533,0,0,1,1.1182-.4951,4.9742,4.9742,0,0,1,1.4023-.1953,4.4235,4.4235,0,0,1,2.0547.4424,3.1017,3.1017,0,0,1,1.2979,1.208,3.4114,3.4114,0,0,1,.4423,1.74,3.238,3.238,0,0,1-.375,1.5147,6.012,6.012,0,0,1-.99,1.3652,16.666,16.666,0,0,1-1.56,1.4092l-1.44,1.1855-1.38-.2246h5.85Z"/><path class="cls-4" d="M432.6535,476.1726a3.33,3.33,0,0,1-2.0469-.667,4.3177,4.3177,0,0,1-1.3877-1.875,7.9827,7.9827,0,0,1,0-5.5351,4.3118,4.3118,0,0,1,1.3877-1.875,3.4715,3.4715,0,0,1,4.0947,0,4.32,4.32,0,0,1,1.3877,1.875,7.9827,7.9827,0,0,1,0,5.5351,4.3254,4.3254,0,0,1-1.3877,1.875A3.33,3.33,0,0,1,432.6535,476.1726Zm0-1.68a1.3923,1.3923,0,0,0,1.02-.42,2.7008,2.7008,0,0,0,.6377-1.23,9.15,9.15,0,0,0,0-3.96,2.692,2.692,0,0,0-.6377-1.23,1.4465,1.4465,0,0,0-2.04,0,2.692,2.692,0,0,0-.6377,1.23,9.113,9.113,0,0,0,0,3.96,2.7008,2.7008,0,0,0,.6377,1.23A1.3919,1.3919,0,0,0,432.6535,474.4929Z"/><path class="cls-4" d="M458.1154,475.9627v-7.95l-2.9854,2.07v-2.19l3.24-2.13h1.6953v10.2Z"/><path class="cls-4" d="M468.84,475.9627h-6.51v-1.83l1.5147-1.26q1.05-.8847,1.6054-1.41a5.1774,5.1774,0,0,0,.8926-1.0879,2.2554,2.2554,0,0,0,.3369-1.1768,1.9647,1.9647,0,0,0-.2695-1.0429,1.7922,1.7922,0,0,0-.7578-.6827,2.545,2.545,0,0,0-1.1318-.24,3.7692,3.7692,0,0,0-1.1329.1729,3.6749,3.6749,0,0,0-.9677.458v-1.62a4.0526,4.0526,0,0,1,1.1181-.4951,4.9749,4.9749,0,0,1,1.4024-.1953,4.4238,4.4238,0,0,1,2.0547.4424,3.1009,3.1009,0,0,1,1.2978,1.208,3.4114,3.4114,0,0,1,.4424,1.74,3.238,3.238,0,0,1-.375,1.5147,6.015,6.015,0,0,1-.99,1.3652,16.6787,16.6787,0,0,1-1.56,1.4092l-1.44,1.1855-1.38-.2246h5.85Z"/><path class="cls-4" d="M473.55,476.1726a5.3212,5.3212,0,0,1-1.6044-.24,4.6694,4.6694,0,0,1-1.3653-.6748v-1.62a5.22,5.22,0,0,0,1.35.6455,4.8847,4.8847,0,0,0,1.4258.21,2.6063,2.6063,0,0,0,1.1318-.2255,1.6794,1.6794,0,0,0,.7208-.6143,1.6548,1.6548,0,0,0,.247-.9,1.4686,1.4686,0,0,0-.247-.8623,1.5412,1.5412,0,0,0-.7354-.54,3.3859,3.3859,0,0,0-1.208-.1875,5.4477,5.4477,0,0,0-1.1768.1269,7.1,7.1,0,0,0-1.0732.3233l.7051-5.8506h5.79v1.7705h-4.335l-.2695,2.16a3.3616,3.3616,0,0,1,.5547-.1054,5.9862,5.9862,0,0,1,.6152-.03,3.9684,3.9684,0,0,1,1.6719.36,3.1,3.1,0,0,1,1.2754,1.0577,2.8175,2.8175,0,0,1,.4873,1.6572,3.3562,3.3562,0,0,1-1.9043,3.09A4.54,4.54,0,0,1,473.55,476.1726Z"/><circle class="cls-4" cx="253.5161" cy="365.1143" r="8.5695"/><path d="M399.7357,418.5751a44.5309,44.5309,0,0,1-27.556-9.2325V395.1617a64.6389,64.6389,0,0,0,9.0257,5.4873,43.8085,43.8085,0,0,0,8.5575,3.2118,34.4028,34.4028,0,0,0,8.503,1.0669q8.1492,0,13.5766-3.0757a10.078,10.078,0,0,0,5.422-9.3631,9.1427,9.1427,0,0,0-1.2739-4.883,13.2656,13.2656,0,0,0-3.7452-3.8161,40.2268,40.2268,0,0,0-6.7611-3.6092l-12.575-5.6179q-9.7659-4.4175-14.5129-10.0382A20.7907,20.7907,0,0,1,373.65,350.61a24.3518,24.3518,0,0,1,3.8759-13.2445,27.6107,27.6107,0,0,1,11.1052-9.8313,36.3791,36.3791,0,0,1,16.723-3.68,45.9082,45.9082,0,0,1,12.9125,1.742A38.187,38.187,0,0,1,428.5,330.1421v13.5167a37.6027,37.6027,0,0,0-21.1434-6.2929,24.531,24.531,0,0,0-8.83,1.5406,15.0613,15.0613,0,0,0-6.3473,4.3495,10.0818,10.0818,0,0,0-2.3408,6.69,10.7179,10.7179,0,0,0,2.7327,7.6212q2.7436,2.9478,8.9059,5.6233l12.3028,5.3512a50.8018,50.8018,0,0,1,10.833,6.0861,23.0489,23.0489,0,0,1,6.4889,7.4252,19.51,19.51,0,0,1,2.21,9.3632,23.9633,23.9633,0,0,1-4.3441,14.1808,28.478,28.478,0,0,1-12.0414,9.5646A41.96,41.96,0,0,1,399.7357,418.5751Zm-1.742,10.1688V313.6858h10.4411V428.7439Z"/><path class="cls-5" d="M161.4074,20.7117h-2a1,1,0,0,0,0,2h2a1,1,0,0,0,0-2Zm-6,0h-2a1,1,0,0,0,0,2h2a1,1,0,0,0,0-2Zm-6,0h-2a1,1,0,0,0,0,2h2a1,1,0,0,0,0-2Zm-6,0h-2a1,1,0,0,0,0,2h2a1,1,0,0,0,0-2Zm-6,0h-2a1,1,0,0,0,0,2h2a1,1,0,0,0,0-2Zm-6,0h-2a1,1,0,0,0,0,2h2a1,1,0,0,0,0-2Zm-6,0h-2a1,1,0,0,0,0,2h2a1,1,0,0,0,0-2Zm-6,0h-2a1,1,0,0,0,0,2h2a1,1,0,0,0,0-2Zm-6,0h-2a1,1,0,0,0,0,2h2a1,1,0,0,0,0-2Zm-6,0h-2a1,1,0,0,0,0,2h2a1,1,0,0,0,0-2Zm-6,0h-2a1,1,0,0,0,0,2h2a1,1,0,0,0,0-2Zm-6,0h-2a1,1,0,0,0,0,2h2a1,1,0,0,0,0-2Zm-6,0h-2a1,1,0,0,0,0,2h2a1,1,0,0,0,0-2Zm-6,0h-2a1,1,0,0,0,0,2h2a1,1,0,0,0,0-2Zm-6,0h-2a1,1,0,0,0,0,2h2a1,1,0,0,0,0-2Zm-6,0h-2a1,1,0,0,0,0,2h2a1,1,0,0,0,0-2Zm-6,0h-2a1,1,0,0,0,0,2h2a1,1,0,0,0,0-2Zm-6,0h-2a1,1,0,0,0,0,2h2a1,1,0,0,0,0-2Zm-6,0h-2a1,1,0,0,0,0,2h2a1,1,0,0,0,0-2Zm-6,0h-2a1,1,0,0,0-1,1h0a1,1,0,0,0-1,1v2a1,1,0,0,0,2,0v-2h2a1,1,0,0,0,0-2Zm-3,7a1,1,0,0,0-1,1v2a1,1,0,0,0,2,0v-2a1,1,0,0,0-1-1Zm0,6a1,1,0,0,0-1,1v2a1,1,0,0,0,2,0v-2a1,1,0,0,0-1-1Zm0,6a1,1,0,0,0-1,1v2a1,1,0,0,0,2,0v-2a1,1,0,0,0-1-1Zm0,6a1,1,0,0,0-1,1v2a1,1,0,0,0,2,0v-2a1,1,0,0,0-1-1Zm0,6a1,1,0,0,0-1,1v2a1,1,0,0,0,2,0v-2a1,1,0,0,0-1-1Zm0,6a1,1,0,0,0-1,1v2a1,1,0,0,0,2,0v-2a1,1,0,0,0-1-1Zm0,6a1,1,0,0,0-1,1v2a1,1,0,0,0,2,0v-2a1,1,0,0,0-1-1Zm0,6a1,1,0,0,0-1,1v2a1,1,0,0,0,2,0v-2a1,1,0,0,0-1-1Zm0,6a1,1,0,0,0-1,1v2a1,1,0,0,0,2,0v-2a1,1,0,0,0-1-1Zm0,6a1,1,0,0,0-1,1v2a1,1,0,0,0,2,0v-2a1,1,0,0,0-1-1Zm0,6a1,1,0,0,0-1,1v2a1,1,0,0,0,2,0v-2a1,1,0,0,0-1-1Zm0,6a1,1,0,0,0-1,1v2a1,1,0,0,0,2,0v-2a1,1,0,0,0-1-1Zm0,6a1,1,0,0,0-1,1v2a1,1,0,0,0,2,0v-2a1,1,0,0,0-1-1Zm0,6a1,1,0,0,0-1,1v2a1,1,0,0,0,2,0v-2a1,1,0,0,0-1-1Zm0,6a1,1,0,0,0-1,1v2a1,1,0,0,0,2,0v-2a1,1,0,0,0-1-1Zm0,6a1,1,0,0,0-1,1v2a1,1,0,0,0,2,0v-2a1,1,0,0,0-1-1Zm0,6a1,1,0,0,0-1,1v2a1,1,0,0,0,2,0v-2a1,1,0,0,0-1-1Zm0,6a1,1,0,0,0-1,1v2a1,1,0,0,0,2,0v-2a1,1,0,0,0-1-1Zm0,6a1,1,0,0,0-1,1v2a1,1,0,0,0,2,0v-2a1,1,0,0,0-1-1Zm0,6a1,1,0,0,0-1,1v2a1,1,0,0,0,2,0v-2a1,1,0,0,0-1-1Zm0,6a1,1,0,0,0-1,1v2a1,1,0,0,0,2,0v-2a1,1,0,0,0-1-1Zm0,6a1,1,0,0,0-1,1v2a1,1,0,0,0,2,0v-2a1,1,0,0,0-1-1Zm0,6a1,1,0,0,0-1,1v2a1,1,0,0,0,2,0v-2a1,1,0,0,0-1-1Zm0,6a1,1,0,0,0-1,1v2a1,1,0,0,0,2,0v-2a1,1,0,0,0-1-1Zm0,6a1,1,0,0,0-1,1v2a1,1,0,0,0,2,0v-2a1,1,0,0,0-1-1Zm0,6a1,1,0,0,0-1,1v2a1,1,0,0,0,2,0v-2a1,1,0,0,0-1-1Zm0,6a1,1,0,0,0-1,1v2a1,1,0,0,0,2,0v-2a1,1,0,0,0-1-1Zm0,6a1,1,0,0,0-1,1v2a1,1,0,0,0,2,0v-2a1,1,0,0,0-1-1Zm0,6a1,1,0,0,0-1,1v2a1,1,0,0,0,2,0v-2a1,1,0,0,0-1-1Zm0,6a1,1,0,0,0-1,1v2a1,1,0,0,0,2,0v-2a1,1,0,0,0-1-1Zm0,6a1,1,0,0,0-1,1v2a1,1,0,0,0,2,0v-2a1,1,0,0,0-1-1Zm0,6a1,1,0,0,0-1,1v2a1,1,0,0,0,2,0v-2a1,1,0,0,0-1-1Zm0,6a1,1,0,0,0-1,1v2a1,1,0,0,0,2,0v-2a1,1,0,0,0-1-1Zm0,6a1,1,0,0,0-1,1v2a1,1,0,0,0,2,0v-2a1,1,0,0,0-1-1Zm0,6a1,1,0,0,0-1,1v2a1,1,0,0,0,2,0v-2a1,1,0,0,0-1-1Zm0,6a1,1,0,0,0-1,1v2a1,1,0,0,0,2,0v-2a1,1,0,0,0-1-1Zm0,6a1,1,0,0,0-1,1v2a1,1,0,0,0,2,0v-2a1,1,0,0,0-1-1Zm0,6a1,1,0,0,0-1,1v2a1,1,0,0,0,2,0v-2a1,1,0,0,0-1-1Zm0,6a1,1,0,0,0-1,1v2a1,1,0,0,0,2,0v-2a1,1,0,0,0-1-1Zm0,6a1,1,0,0,0-1,1v2a1,1,0,0,0,2,0v-2a1,1,0,0,0-1-1Zm0,6a1,1,0,0,0-1,1v2a1,1,0,0,0,2,0v-2a1,1,0,0,0-1-1Zm0,6a1,1,0,0,0-1,1v2a1,1,0,0,0,2,0v-2a1,1,0,0,0-1-1Zm0,6a1,1,0,0,0-1,1v2a1,1,0,0,0,2,0v-2a1,1,0,0,0-1-1Zm0,6a1,1,0,0,0-1,1v2a1,1,0,0,0,2,0v-2a1,1,0,0,0-1-1Zm0,6a1,1,0,0,0-1,1v2a1,1,0,0,0,2,0v-2a1,1,0,0,0-1-1Zm0,6a1,1,0,0,0-1,1v2a1,1,0,0,0,2,0v-2a1,1,0,0,0-1-1Zm0,6a1,1,0,0,0-1,1v2a1,1,0,0,0,2,0v-2a1,1,0,0,0-1-1Zm0,6a1,1,0,0,0-1,1v2a1,1,0,0,0,2,0v-2a1,1,0,0,0-1-1Zm0,6a1,1,0,0,0-1,1v2a1,1,0,0,0,2,0v-2a1,1,0,0,0-1-1Zm0,6a1,1,0,0,0-1,1v2a1,1,0,0,0,2,0v-2a1,1,0,0,0-1-1Zm0,6a1,1,0,0,0-1,1v2a1,1,0,0,0,2,0v-2a1,1,0,0,0-1-1Zm0,6a1,1,0,0,0-1,1v2a1,1,0,0,0,2,0v-2a1,1,0,0,0-1-1Zm0,6a1,1,0,0,0-1,1v2a1,1,0,0,0,2,0v-2a1,1,0,0,0-1-1Zm0,6a1,1,0,0,0-1,1v2a1,1,0,0,0,2,0v-2a1,1,0,0,0-1-1Zm0,6a1,1,0,0,0-1,1v2a1,1,0,0,0,2,0v-2a1,1,0,0,0-1-1Zm0,6a1,1,0,0,0-1,1v2a1,1,0,0,0,1,1h0a1,1,0,0,0,1,1h2a1,1,0,0,0,0-2h-2v-2a1,1,0,0,0-1-1Zm9,3h-2a1,1,0,1,0,0,2h2a1,1,0,0,0,0-2Zm6,0h-2a1,1,0,1,0,0,2h2a1,1,0,0,0,0-2Zm6,0h-2a1,1,0,1,0,0,2h2a1,1,0,0,0,0-2Zm6,0h-2a1,1,0,0,0,0,2h2a1,1,0,0,0,0-2Zm6,0h-2a1,1,0,0,0,0,2h2a1,1,0,0,0,0-2Zm6,0h-2a1,1,0,0,0,0,2h2a1,1,0,0,0,0-2Zm6,0h-2a1,1,0,0,0,0,2h2a1,1,0,0,0,0-2Zm6,0h-2a1,1,0,0,0,0,2h2a1,1,0,0,0,0-2Zm6,0h-2a1,1,0,0,0,0,2h2a1,1,0,0,0,0-2Zm6,0h-2a1,1,0,0,0,0,2h2a1,1,0,0,0,0-2Zm6,0h-2a1,1,0,0,0,0,2h2a1,1,0,0,0,0-2Zm6,0h-2a1,1,0,0,0,0,2h2a1,1,0,0,0,0-2Zm6,0h-2a1,1,0,0,0,0,2h2a1,1,0,0,0,0-2Zm6,0h-2a1,1,0,0,0,0,2h2a1,1,0,0,0,0-2Zm6,0h-2a1,1,0,0,0,0,2h2a1,1,0,0,0,0-2Zm6,0h-2a1,1,0,0,0,0,2h2a1,1,0,0,0,0-2Zm6,0h-2a1,1,0,0,0,0,2h2a1,1,0,0,0,0-2Zm6,0h-2a1,1,0,0,0,0,2h2a1,1,0,0,0,0-2Zm6,0h-2a1,1,0,0,0,0,2h2a1,1,0,0,0,0-2Zm6,0h-2a1,1,0,0,0,0,2h2v-2Zm-1-5a1,1,0,0,0-1,1v2a1,1,0,0,0,2,0v-2a1,1,0,0,0-1-1Zm0-6a1,1,0,0,0-1,1v2a1,1,0,0,0,2,0v-2a1,1,0,0,0-1-1Zm0-6a1,1,0,0,0-1,1v2a1,1,0,0,0,2,0v-2a1,1,0,0,0-1-1Zm0-6a1,1,0,0,0-1,1v2a1,1,0,0,0,2,0v-2a1,1,0,0,0-1-1Zm0-6a1,1,0,0,0-1,1v2a1,1,0,0,0,2,0v-2a1,1,0,0,0-1-1Zm0-6a1,1,0,0,0-1,1v2a1,1,0,0,0,2,0v-2a1,1,0,0,0-1-1Zm0-6a1,1,0,0,0-1,1v2a1,1,0,0,0,2,0v-2a1,1,0,0,0-1-1Zm0-6a1,1,0,0,0-1,1v2a1,1,0,0,0,2,0v-2a1,1,0,0,0-1-1Zm0-6a1,1,0,0,0-1,1v2a1,1,0,0,0,2,0v-2a1,1,0,0,0-1-1Zm0-6a1,1,0,0,0-1,1v2a1,1,0,0,0,2,0v-2a1,1,0,0,0-1-1Zm0-6a1,1,0,0,0-1,1v2a1,1,0,0,0,2,0v-2a1,1,0,0,0-1-1Zm0-6a1,1,0,0,0-1,1v2a1,1,0,0,0,2,0v-2a1,1,0,0,0-1-1Zm0-6a1,1,0,0,0-1,1v2a1,1,0,0,0,2,0v-2a1,1,0,0,0-1-1Zm0-6a1,1,0,0,0-1,1v2a1,1,0,0,0,2,0v-2a1,1,0,0,0-1-1Zm0-6a1,1,0,0,0-1,1v2a1,1,0,0,0,2,0v-2a1,1,0,0,0-1-1Zm0-6a1,1,0,0,0-1,1v2a1,1,0,0,0,2,0v-2a1,1,0,0,0-1-1Zm0-6a1,1,0,0,0-1,1v2a1,1,0,0,0,2,0v-2a1,1,0,0,0-1-1Zm0-6a1,1,0,0,0-1,1v2a1,1,0,0,0,2,0v-2a1,1,0,0,0-1-1Zm0-6a1,1,0,0,0-1,1v2a1,1,0,0,0,2,0v-2a1,1,0,0,0-1-1Zm0-6a1,1,0,0,0-1,1v2a1,1,0,0,0,2,0v-2a1,1,0,0,0-1-1Zm0-6a1,1,0,0,0-1,1v2a1,1,0,0,0,2,0v-2a1,1,0,0,0-1-1Zm0-6a1,1,0,0,0-1,1v2a1,1,0,0,0,2,0v-2a1,1,0,0,0-1-1Zm0-6a1,1,0,0,0-1,1v2a1,1,0,0,0,2,0v-2a1,1,0,0,0-1-1Zm0-6a1,1,0,0,0-1,1v2a1,1,0,0,0,2,0v-2a1,1,0,0,0-1-1Zm0-6a1,1,0,0,0-1,1v2a1,1,0,0,0,2,0v-2a1,1,0,0,0-1-1Zm0-6a1,1,0,0,0-1,1v2a1,1,0,0,0,2,0v-2a1,1,0,0,0-1-1Zm0-6a1,1,0,0,0-1,1v2a1,1,0,0,0,2,0v-2a1,1,0,0,0-1-1Zm0-6a1,1,0,0,0-1,1v2a1,1,0,0,0,2,0v-2a1,1,0,0,0-1-1Zm0-6a1,1,0,0,0-1,1v2a1,1,0,0,0,2,0v-2a1,1,0,0,0-1-1Zm0-6a1,1,0,0,0-1,1v2a1,1,0,0,0,2,0v-2a1,1,0,0,0-1-1Zm0-6a1,1,0,0,0-1,1v2a1,1,0,0,0,2,0v-2a1,1,0,0,0-1-1Zm0-6a1,1,0,0,0-1,1v2a1,1,0,0,0,2,0v-2a1,1,0,0,0-1-1Zm0-6a1,1,0,0,0-1,1v2a1,1,0,0,0,2,0v-2a1,1,0,0,0-1-1Zm0-6a1,1,0,0,0-1,1v2a1,1,0,0,0,2,0v-2a1,1,0,0,0-1-1Zm0-6a1,1,0,0,0-1,1v2a1,1,0,0,0,2,0v-2a1,1,0,0,0-1-1Zm0-6a1,1,0,0,0-1,1v2a1,1,0,0,0,2,0v-2a1,1,0,0,0-1-1Zm0-6a1,1,0,0,0-1,1v2a1,1,0,0,0,2,0v-2a1,1,0,0,0-1-1Zm0-6a1,1,0,0,0-1,1v2a1,1,0,0,0,2,0v-2a1,1,0,0,0-1-1Zm0-6a1,1,0,0,0-1,1v2a1,1,0,0,0,2,0v-2a1,1,0,0,0-1-1Zm0-6a1,1,0,0,0-1,1v2a1,1,0,1,0,2,0v-2a1,1,0,0,0-1-1Zm0-6a1,1,0,0,0-1,1v2a1,1,0,1,0,2,0v-2a1,1,0,0,0-1-1Zm0-6a1,1,0,0,0-1,1v2a1,1,0,1,0,2,0v-2a1,1,0,0,0-1-1Zm0-6a1,1,0,0,0-1,1v2a1,1,0,1,0,2,0v-2a1,1,0,0,0-1-1Zm0-6a1,1,0,0,0-1,1v2a1,1,0,1,0,2,0v-2a1,1,0,0,0-1-1Zm0-6a1,1,0,0,0-1,1v2a1,1,0,1,0,2,0v-2a1,1,0,0,0-1-1Zm0-6a1,1,0,0,0-1,1v2a1,1,0,1,0,2,0v-2a1,1,0,0,0-1-1Zm0-6a1,1,0,0,0-1,1v2a1,1,0,1,0,2,0v-2a1,1,0,0,0-1-1Zm0-6a1,1,0,0,0-1,1v2a1,1,0,1,0,2,0v-2a1,1,0,0,0-1-1Zm0-6a1,1,0,0,0-1,1v2a1,1,0,1,0,2,0v-2a1,1,0,0,0-1-1Zm0-6a1,1,0,0,0-1,1v2a1,1,0,1,0,2,0v-2a1,1,0,0,0-1-1Zm0-6a1,1,0,0,0-1,1v2a1,1,0,1,0,2,0v-2a1,1,0,0,0-1-1Zm0-6a1,1,0,0,0-1,1v2a1,1,0,1,0,2,0v-2a1,1,0,0,0-1-1Zm0-6a1,1,0,0,0-1,1v2a1,1,0,1,0,2,0v-2a1,1,0,0,0-1-1Zm0-6a1,1,0,0,0-1,1v2a1,1,0,1,0,2,0v-2a1,1,0,0,0-1-1Zm0-6a1,1,0,0,0-1,1v2a1,1,0,1,0,2,0v-2a1,1,0,0,0-1-1Zm0-6a1,1,0,0,0-1,1v2a1,1,0,1,0,2,0v-2a1,1,0,0,0-1-1Zm1-5h-2a1,1,0,0,0,0,2h0a1,1,0,1,0,2,0h0v-2Z"/><path class="cls-5" d="M464.4074,15.7117h-2a1,1,0,0,0,0,2h.0024q-.0024.0343-.0024.0691v2a1,1,0,0,0,2,0v-2q0-.0348-.0023-.0691h.0023v-2Zm-6,0h-2a1,1,0,0,0,0,2h2a1,1,0,0,0,0-2Zm-6,0h-2a1,1,0,0,0,0,2h2a1,1,0,0,0,0-2Zm-6,0h-2a1,1,0,0,0,0,2h2a1,1,0,0,0,0-2Zm-6,0h-2a1,1,0,0,0,0,2h2a1,1,0,0,0,0-2Zm-6,0h-2a1,1,0,0,0,0,2h2a1,1,0,0,0,0-2Zm-6,0h-2a1,1,0,0,0,0,2h2a1,1,0,0,0,0-2Zm-6,0h-2a1,1,0,0,0,0,2h2a1,1,0,0,0,0-2Zm-6,0h-2a1,1,0,0,0,0,2h2a1,1,0,0,0,0-2Zm-6,0h-2a1,1,0,0,0,0,2h2a1,1,0,0,0,0-2Zm-6,0h-2a1,1,0,0,0,0,2h2a1,1,0,0,0,0-2Zm-6,0h-2a1,1,0,0,0,0,2h2a1,1,0,0,0,0-2Zm-6,0h-2a1,1,0,0,0,0,2h2a1,1,0,0,0,0-2Zm-6,0h-2a1,1,0,0,0,0,2h2a1,1,0,0,0,0-2Zm-6,0h-2a1,1,0,0,0,0,2h2a1,1,0,0,0,0-2Zm-6,0h-2a1,1,0,0,0,0,2h2a1,1,0,0,0,0-2Zm-6,0h-2a1,1,0,0,0,0,2h2a1,1,0,0,0,0-2Zm-6,0h-2a1,1,0,0,0,0,2h2a1,1,0,0,0,0-2Zm-6,0h-2a1,1,0,0,0,0,2h2a1,1,0,0,0,0-2Zm-6,0h-2a1,1,0,0,0,0,2h2a1,1,0,0,0,0-2Zm-6,0h-2a1,1,0,0,0,0,2h2a1,1,0,0,0,0-2Zm-6,0h-2a1,1,0,0,0,0,2h2a1,1,0,0,0,0-2Zm-6,0h-2a1,1,0,0,0,0,2h2a1,1,0,0,0,0-2Zm-6,0h-2a1,1,0,0,0,0,2h2a1,1,0,0,0,0-2Zm-6,0h-2a1,1,0,0,0,0,2h2a1,1,0,0,0,0-2Zm-6,0h-2a1,1,0,0,0,0,2h2a1,1,0,0,0,0-2Zm-6,0h-2a1,1,0,0,0,0,2h2a1,1,0,0,0,0-2Zm-6,0h-2a1,1,0,0,0,0,2h2a1,1,0,0,0,0-2Zm-6,0h-2a1,1,0,0,0,0,2h2a1,1,0,0,0,0-2Zm-6,0h-2a1,1,0,0,0,0,2h2a1,1,0,0,0,0-2Zm-6,0h-2a1,1,0,0,0,0,2h2a1,1,0,0,0,0-2Zm-6,0h-2a1,1,0,0,0,0,2h2a1,1,0,0,0,0-2Zm-6,0h-2a1,1,0,0,0,0,2h2a1,1,0,0,0,0-2Zm-6,0h-2a1,1,0,0,0,0,2h2a1,1,0,0,0,0-2Zm-6,0h-2a1,1,0,0,0,0,2h2a1,1,0,0,0,0-2Zm-6,0h-2a1,1,0,0,0,0,2h2a1,1,0,0,0,0-2Zm-6,0h-2a1,1,0,0,0,0,2h2a1,1,0,0,0,0-2Zm-6,0h-2a1,1,0,0,0,0,2h2a1,1,0,0,0,0-2Zm-6,0h-2a1,1,0,0,0,0,2h2a1,1,0,0,0,0-2Zm-6,0h-2a1,1,0,0,0,0,2h2a1,1,0,0,0,0-2Zm-6,0h-2a1,1,0,0,0,0,2h2a1,1,0,0,0,0-2Zm-6,0h-2a1,1,0,0,0,0,2h2a1,1,0,0,0,0-2Zm-6,0h-2a1,1,0,0,0,0,2h2a1,1,0,0,0,0-2Zm-6,0h-2a1,1,0,0,0,0,2h2a1,1,0,0,0,0-2Zm-6,0h-2a1,1,0,0,0,0,2h2a1,1,0,0,0,0-2Zm-6,0h-2a1,1,0,0,0,0,2h2a1,1,0,0,0,0-2Zm-6,0h-2a1,1,0,0,0,0,2h2a1,1,0,0,0,0-2Zm-6,0h-2a1,1,0,0,0,0,2h2a1,1,0,0,0,0-2Zm-6,0h-2a1,1,0,0,0,0,2h2a1,1,0,0,0,0-2Zm-6,0h-2a1,1,0,0,0,0,2h2a1,1,0,0,0,0-2Zm-6,0h-2a1,1,0,0,0,0,2h2a1,1,0,0,0,0-2Zm-6,0h-2a1,1,0,0,0,0,2h2a1,1,0,0,0,0-2Zm-6,0h-2a1,1,0,0,0,0,2h2a1,1,0,0,0,0-2Zm-6,0h-2a1,1,0,0,0,0,2h2a1,1,0,0,0,0-2Zm-6,0h-2a1,1,0,0,0,0,2h2a1,1,0,0,0,0-2Zm-6,0h-2a1,1,0,0,0,0,2h2a1,1,0,0,0,0-2Zm-6,0h-2a1,1,0,0,0,0,2h2a1,1,0,0,0,0-2Zm-6,0h-2a1,1,0,0,0,0,2h2a1,1,0,0,0,0-2Zm-6,0h-2a1,1,0,0,0,0,2h2a1,1,0,0,0,0-2Zm-6,0h-2a1,1,0,0,0,0,2h2a1,1,0,0,0,0-2Zm-6,0h-2a1,1,0,0,0,0,2h2a1,1,0,0,0,0-2Zm-6,0h-2a1,1,0,0,0,0,2h2a1,1,0,0,0,0-2Zm-6,0h-2a1,1,0,0,0,0,2h2a1,1,0,0,0,0-2Zm-6,0h-2a1,1,0,0,0,0,2h2a1,1,0,0,0,0-2Zm-6,0h-2a1,1,0,0,0,0,2h2a1,1,0,0,0,0-2Zm-6,0h-2a1,1,0,0,0,0,2h2a1,1,0,0,0,0-2Zm-6,0h-2a1,1,0,0,0,0,2h2a1,1,0,0,0,0-2Zm-6,0h-2a1,1,0,0,0,0,2h2a1,1,0,0,0,0-2Zm-6,0h-2a1,1,0,0,0,0,2h2a1,1,0,0,0,0-2Zm-5.0548,0h-2v2h1.0548a1.0006,1.0006,0,0,0,.9452-1.3272v-.6728Zm-1,3.9452a1,1,0,0,0-1,1v2a1,1,0,0,0,2,0v-2a1,1,0,0,0-1-1Zm0,6a1,1,0,0,0-1,1v2a1,1,0,0,0,2,0v-2a1,1,0,0,0-1-1Zm0,6a1,1,0,0,0-1,1v2a1,1,0,0,0,2,0v-2a1,1,0,0,0-1-1Zm0,6a1,1,0,0,0-1,1v2a1,1,0,0,0,2,0v-2a1,1,0,0,0-1-1Zm0,6a1,1,0,0,0-1,1v2a1,1,0,0,0,2,0v-2a1,1,0,0,0-1-1Zm0,6a1,1,0,0,0-1,1v2a1,1,0,0,0,2,0v-2a1,1,0,0,0-1-1Zm0,6a1,1,0,0,0-1,1v2a1,1,0,0,0,2,0v-2a1,1,0,0,0-1-1Zm0,6a1,1,0,0,0-1,1v2a1,1,0,0,0,2,0v-2a1,1,0,0,0-1-1Zm0,6a1,1,0,0,0-1,1v2a1,1,0,0,0,2,0v-2a1,1,0,0,0-1-1Zm0,6a1,1,0,0,0-1,1v2a1,1,0,0,0,2,0v-2a1,1,0,0,0-1-1Zm0,6a1,1,0,0,0-1,1v2a1,1,0,0,0,2,0v-2a1,1,0,0,0-1-1Zm0,6a1,1,0,0,0-1,1v2a1,1,0,0,0,2,0v-2a1,1,0,0,0-1-1Zm0,6a1,1,0,0,0-1,1v2a1,1,0,0,0,2,0v-2a1,1,0,0,0-1-1Zm0,6a1,1,0,0,0-1,1v2a1,1,0,0,0,2,0v-2a1,1,0,0,0-1-1Zm0,6a1,1,0,0,0-1,1v2a1,1,0,0,0,2,0v-2a1,1,0,0,0-1-1Zm0,6a1,1,0,0,0-1,1v2a1,1,0,0,0,2,0v-2a1,1,0,0,0-1-1Zm0,6a1,1,0,0,0-1,1v2a1,1,0,0,0,2,0v-2a1,1,0,0,0-1-1Zm0,6a1,1,0,0,0-1,1v2a1,1,0,0,0,2,0v-2a1,1,0,0,0-1-1Zm0,6a1,1,0,0,0-1,1v2a1,1,0,0,0,2,0v-2a1,1,0,0,0-1-1Zm0,6a1,1,0,0,0-1,1v2a1,1,0,0,0,2,0v-2a1,1,0,0,0-1-1Zm0,6a1,1,0,0,0-1,1v2a1,1,0,0,0,2,0v-2a1,1,0,0,0-1-1Zm0,6a1,1,0,0,0-1,1v2a1,1,0,0,0,2,0v-2a1,1,0,0,0-1-1Zm0,6a1,1,0,0,0-1,1v2a1,1,0,0,0,2,0v-2a1,1,0,0,0-1-1Zm0,6a1,1,0,0,0-1,1v2a1,1,0,0,0,2,0v-2a1,1,0,0,0-1-1Zm0,6a1,1,0,0,0-1,1v2a1,1,0,0,0,2,0v-2a1,1,0,0,0-1-1Zm0,6a1,1,0,0,0-1,1v2a1,1,0,0,0,2,0v-2a1,1,0,0,0-1-1Zm0,6a1,1,0,0,0-1,1v2a1,1,0,0,0,2,0v-2a1,1,0,0,0-1-1Zm0,6a1,1,0,0,0-1,1v2a1,1,0,0,0,2,0v-2a1,1,0,0,0-1-1Zm0,6a1,1,0,0,0-1,1v2a1,1,0,0,0,2,0v-2a1,1,0,0,0-1-1Zm0,6a1,1,0,0,0-1,1v2a1,1,0,0,0,2,0v-2a1,1,0,0,0-1-1Zm0,6a1,1,0,0,0-1,1v2a1,1,0,0,0,2,0v-2a1,1,0,0,0-1-1Zm0,6a1,1,0,0,0-1,1v2a1,1,0,0,0,2,0v-2a1,1,0,0,0-1-1Zm0,6a1,1,0,0,0-1,1v2a1,1,0,0,0,2,0v-2a1,1,0,0,0-1-1Zm0,6a1,1,0,0,0-1,1v2a1,1,0,0,0,2,0v-2a1,1,0,0,0-1-1Zm0,6a1,1,0,0,0-1,1v2a1,1,0,0,0,2,0v-2a1,1,0,0,0-1-1Zm0,6a1,1,0,0,0-1,1v2a1,1,0,0,0,2,0v-2a1,1,0,0,0-1-1Zm0,6a1,1,0,0,0-1,1v2a1,1,0,0,0,2,0v-2a1,1,0,0,0-1-1Zm0,6a1,1,0,0,0-1,1v2a1,1,0,0,0,2,0v-2a1,1,0,0,0-1-1Zm0,6a1,1,0,0,0-1,1v2a1,1,0,0,0,2,0v-2a1,1,0,0,0-1-1Zm0,6a1,1,0,0,0-1,1v2a1,1,0,0,0,2,0v-2a1,1,0,0,0-1-1Zm0,6a1,1,0,0,0-1,1v2a1,1,0,0,0,2,0v-2a1,1,0,0,0-1-1Zm0,6a1,1,0,0,0-1,1v2a1,1,0,0,0,2,0v-2a1,1,0,0,0-1-1Zm1.9654,4.0346h-2a1,1,0,0,0-.9654.7385v.5231a1,1,0,0,0,.9654.7384h2a1,1,0,0,0,0-2Zm6,0h-2a1,1,0,1,0,0,2h2a1,1,0,0,0,0-2Zm6,0h-2a1,1,0,1,0,0,2h2a1,1,0,0,0,0-2Zm6,0h-2a1,1,0,1,0,0,2h2a1,1,0,0,0,0-2Zm6,0h-2a1,1,0,1,0,0,2h2a1,1,0,0,0,0-2Zm6,0h-2a1,1,0,1,0,0,2h2a1,1,0,0,0,0-2Zm6,0h-2a1,1,0,1,0,0,2h2a1,1,0,0,0,0-2Zm6,0h-2a1,1,0,1,0,0,2h2a1,1,0,0,0,0-2Zm6,0h-2a1,1,0,1,0,0,2h2a1,1,0,0,0,0-2Zm6,0h-2a1,1,0,1,0,0,2h2a1,1,0,0,0,0-2Zm6,0h-2a1,1,0,1,0,0,2h2a1,1,0,0,0,0-2Zm6,0h-2a1,1,0,1,0,0,2h2a1,1,0,0,0,0-2Zm6,0h-2a1,1,0,1,0,0,2h2a1,1,0,0,0,0-2Zm6,0h-2a1,1,0,1,0,0,2h2a1,1,0,0,0,0-2Zm6,0h-2a1,1,0,1,0,0,2h2a1,1,0,0,0,0-2Zm6,0h-2a1,1,0,1,0,0,2h2a1,1,0,0,0,0-2Zm6,0h-2a1,1,0,1,0,0,2h2a1,1,0,0,0,0-2Zm6,0h-2a1,1,0,1,0,0,2h2a1,1,0,0,0,0-2Zm6,0h-2a1,1,0,1,0,0,2h2a1,1,0,0,0,0-2Zm6,0h-2a1,1,0,1,0,0,2h2a1,1,0,0,0,0-2Zm6,0h-2a1,1,0,1,0,0,2h2a1,1,0,0,0,0-2Zm6,0h-2a1,1,0,1,0,0,2h2a1,1,0,0,0,0-2Zm6,0h-2a1,1,0,1,0,0,2h2a1,1,0,0,0,0-2Zm6,0h-2a1,1,0,1,0,0,2h2a1,1,0,0,0,0-2Zm6,0h-2a1,1,0,1,0,0,2h2a1,1,0,0,0,0-2Zm6,0h-2a1,1,0,1,0,0,2h2a1,1,0,0,0,0-2Zm6,0h-2a1,1,0,1,0,0,2h2a1,1,0,0,0,0-2Zm6,0h-2a1,1,0,1,0,0,2h2a1,1,0,0,0,0-2Zm6,0h-2a1,1,0,1,0,0,2h2a1,1,0,0,0,0-2Zm6,0h-2a1,1,0,1,0,0,2h2a1,1,0,0,0,0-2Zm6,0h-2a1,1,0,1,0,0,2h2a1,1,0,0,0,0-2Zm6,0h-2a1,1,0,1,0,0,2h2a1,1,0,0,0,0-2Zm6,0h-2a1,1,0,1,0,0,2h2a1,1,0,0,0,0-2Zm6,0h-2a1,1,0,1,0,0,2h2a1,1,0,0,0,0-2Zm6,0h-2a1,1,0,1,0,0,2h2a1,1,0,0,0,0-2Zm6,0h-2a1,1,0,0,0,0,2h2a1,1,0,0,0,0-2Zm6,0h-2a1,1,0,0,0,0,2h2a1,1,0,0,0,0-2Zm6,0h-2a1,1,0,0,0,0,2h2a1,1,0,0,0,0-2Zm6,0h-2a1,1,0,0,0,0,2h2a1,1,0,0,0,0-2Zm6,0h-2a1,1,0,0,0,0,2h2a1,1,0,0,0,0-2Zm6,0h-2a1,1,0,0,0,0,2h2a1,1,0,0,0,0-2Zm6,0h-2a1,1,0,0,0,0,2h2a1,1,0,0,0,0-2Zm6,0h-2a1,1,0,0,0,0,2h2a1,1,0,0,0,0-2Zm6,0h-2a1,1,0,0,0,0,2h2a1,1,0,0,0,0-2Zm6,0h-2a1,1,0,0,0,0,2h2a1,1,0,0,0,0-2Zm6,0h-2a1,1,0,0,0,0,2h2a1,1,0,0,0,0-2Zm6,0h-2a1,1,0,0,0,0,2h2a1,1,0,0,0,0-2Zm6,0h-2a1,1,0,0,0,0,2h2a1,1,0,0,0,0-2Zm6,0h-2a1,1,0,0,0,0,2h2a1,1,0,0,0,0-2Zm6,0h-2a1,1,0,0,0,0,2h2a1,1,0,0,0,0-2Zm6,0h-2a1,1,0,0,0,0,2h2a1,1,0,0,0,0-2Zm6,0h-2a1,1,0,0,0,0,2h2a1,1,0,0,0,0-2Zm6,0h-2a1,1,0,0,0,0,2h2a1,1,0,0,0,0-2Zm6,0h-2a1,1,0,0,0,0,2h2a1,1,0,0,0,0-2Zm6,0h-2a1,1,0,0,0,0,2h2a1,1,0,0,0,0-2Zm6,0h-2a1,1,0,0,0,0,2h2a1,1,0,0,0,0-2Zm6,0h-2a1,1,0,0,0,0,2h2a1,1,0,0,0,0-2Zm6,0h-2a1,1,0,0,0,0,2h2a1,1,0,0,0,0-2Zm6,0h-2a1,1,0,0,0,0,2h2a1,1,0,0,0,0-2Zm6,0h-2a1,1,0,0,0,0,2h2a1,1,0,0,0,0-2Zm6,0h-2a1,1,0,0,0,0,2h2a1,1,0,0,0,0-2Zm6,0h-2a1,1,0,0,0,0,2h2a1,1,0,0,0,0-2Zm6,0h-2a1,1,0,0,0,0,2h2a1,1,0,0,0,0-2Zm6,0h-2a1,1,0,0,0,0,2h2a1,1,0,1,0,0-2Zm6,0h-2a1,1,0,0,0,0,2h2a1,1,0,1,0,0-2Zm6,0h-2a1,1,0,0,0,0,2h2a1,1,0,1,0,0-2Zm6,0h-2a1,1,0,0,0,0,2h2a1,1,0,1,0,0-2Zm6,0h-2a1,1,0,0,0,0,2h2a1,1,0,1,0,0-2Zm6,0h-2a1,1,0,0,0,0,2h2a1,1,0,1,0,0-2Zm3.0893-.9107a1,1,0,0,0-1,1v1.9107h2v-2h-.0039a1,1,0,0,0-.9961-.9107Zm0-6a1,1,0,0,0-1,1v2a1,1,0,0,0,2,0v-2a1,1,0,0,0-1-1Zm0-6a1,1,0,0,0-1,1v2a1,1,0,0,0,2,0v-2a1,1,0,0,0-1-1Zm0-6a1,1,0,0,0-1,1v2a1,1,0,1,0,2,0v-2a1,1,0,0,0-1-1Zm0-6a1,1,0,0,0-1,1v2a1,1,0,1,0,2,0v-2a1,1,0,0,0-1-1Zm0-6a1,1,0,0,0-1,1v2a1,1,0,1,0,2,0v-2a1,1,0,0,0-1-1Zm0-6a1,1,0,0,0-1,1v2a1,1,0,1,0,2,0v-2a1,1,0,0,0-1-1Zm0-6a1,1,0,0,0-1,1v2a1,1,0,1,0,2,0v-2a1,1,0,0,0-1-1Zm0-6a1,1,0,0,0-1,1v2a1,1,0,1,0,2,0v-2a1,1,0,0,0-1-1Zm0-6a1,1,0,0,0-1,1v2a1,1,0,1,0,2,0v-2a1,1,0,0,0-1-1Zm0-6a1,1,0,0,0-1,1v2a1,1,0,1,0,2,0v-2a1,1,0,0,0-1-1Zm0-6a1,1,0,0,0-1,1v2a1,1,0,1,0,2,0v-2a1,1,0,0,0-1-1Zm0-6a1,1,0,0,0-1,1v2a1,1,0,1,0,2,0v-2a1,1,0,0,0-1-1Zm0-6a1,1,0,0,0-1,1v2a1,1,0,1,0,2,0v-2a1,1,0,0,0-1-1Zm0-6a1,1,0,0,0-1,1v2a1,1,0,1,0,2,0v-2a1,1,0,0,0-1-1Zm0-6a1,1,0,0,0-1,1v2a1,1,0,1,0,2,0v-2a1,1,0,0,0-1-1Zm0-6a1,1,0,0,0-1,1v2a1,1,0,1,0,2,0v-2a1,1,0,0,0-1-1Zm0-6a1,1,0,0,0-1,1v2a1,1,0,1,0,2,0v-2a1,1,0,0,0-1-1Zm0-6a1,1,0,0,0-1,1v2a1,1,0,1,0,2,0v-2a1,1,0,0,0-1-1Zm0-6a1,1,0,0,0-1,1v2a1,1,0,1,0,2,0v-2a1,1,0,0,0-1-1Zm0-6a1,1,0,0,0-1,1v2a1,1,0,1,0,2,0v-2a1,1,0,0,0-1-1Zm0-6a1,1,0,0,0-1,1v2a1,1,0,1,0,2,0v-2a1,1,0,0,0-1-1Zm0-6a1,1,0,0,0-1,1v2a1,1,0,1,0,2,0v-2a1,1,0,0,0-1-1Zm0-6a1,1,0,0,0-1,1v2a1,1,0,1,0,2,0v-2a1,1,0,0,0-1-1Zm0-6a1,1,0,0,0-1,1v2a1,1,0,1,0,2,0v-2a1,1,0,0,0-1-1Zm0-6a1,1,0,0,0-1,1v2a1,1,0,1,0,2,0v-2a1,1,0,0,0-1-1Zm0-6a1,1,0,0,0-1,1v2a1,1,0,1,0,2,0v-2a1,1,0,0,0-1-1Zm0-6a1,1,0,0,0-1,1v2a1,1,0,1,0,2,0v-2a1,1,0,0,0-1-1Zm0-6a1,1,0,0,0-1,1v2a1,1,0,1,0,2,0v-2a1,1,0,0,0-1-1Zm0-6a1,1,0,0,0-1,1v2a1,1,0,1,0,2,0v-2a1,1,0,0,0-1-1Zm0-6a1,1,0,0,0-1,1v2a1,1,0,1,0,2,0v-2a1,1,0,0,0-1-1Zm0-6a1,1,0,0,0-1,1v2a1,1,0,1,0,2,0v-2a1,1,0,0,0-1-1Zm0-6a1,1,0,0,0-1,1v2a1,1,0,1,0,2,0v-2a1,1,0,0,0-1-1Zm0-6a1,1,0,0,0-1,1v2a1,1,0,1,0,2,0v-2a1,1,0,0,0-1-1Zm0-6a1,1,0,0,0-1,1v2a1,1,0,1,0,2,0v-2a1,1,0,0,0-1-1Zm0-6a1,1,0,0,0-1,1v2a1,1,0,1,0,2,0v-2a1,1,0,0,0-1-1Zm0-6a1,1,0,0,0-1,1v2a1,1,0,1,0,2,0v-2a1,1,0,0,0-1-1Zm0-6a1,1,0,0,0-1,1v2a1,1,0,1,0,2,0v-2a1,1,0,0,0-1-1Zm0-6a1,1,0,0,0-1,1v2a1,1,0,0,0,2,0v-2a1,1,0,0,0-1-1Zm0-6a1,1,0,0,0-1,1v2a1,1,0,0,0,2,0v-2a1,1,0,0,0-1-1Zm0-6a1,1,0,0,0-1,1v2a1,1,0,0,0,2,0v-2a1,1,0,0,0-1-1Zm0-6a1,1,0,0,0-1,1v2a1,1,0,0,0,2,0v-2a1,1,0,0,0-1-1Z"/><path d="M181.2116,162.423a44.5309,44.5309,0,0,1-27.5561-9.2325V139.01a64.6389,64.6389,0,0,0,9.0257,5.4873,43.8085,43.8085,0,0,0,8.5575,3.2118,34.4036,34.4036,0,0,0,8.5031,1.0669q8.1492,0,13.5766-3.0757a10.0781,10.0781,0,0,0,5.4219-9.3631,9.1435,9.1435,0,0,0-1.2738-4.883,13.2673,13.2673,0,0,0-3.7453-3.8161,40.2268,40.2268,0,0,0-6.7611-3.6092l-12.575-5.6179q-9.7659-4.4175-14.5129-10.0382a20.7907,20.7907,0,0,1-4.7469-13.9141,24.3516,24.3516,0,0,1,3.8759-13.2445,27.6113,27.6113,0,0,1,11.1052-9.8313,36.3792,36.3792,0,0,1,16.7231-3.68,45.908,45.908,0,0,1,12.9124,1.742A38.187,38.187,0,0,1,209.9761,73.99V87.5067a37.602,37.602,0,0,0-21.1434-6.2929,24.5309,24.5309,0,0,0-8.83,1.5406,15.061,15.061,0,0,0-6.3474,4.3495,10.0818,10.0818,0,0,0-2.3408,6.69,10.7184,10.7184,0,0,0,2.7327,7.6212q2.7437,2.9478,8.9059,5.6233l12.3028,5.3512a50.7993,50.7993,0,0,1,10.833,6.0861,23.0489,23.0489,0,0,1,6.4889,7.4252,19.51,19.51,0,0,1,2.21,9.3632,23.9639,23.9639,0,0,1-4.344,14.1808,28.4789,28.4789,0,0,1-12.0415,9.5646A41.96,41.96,0,0,1,181.2116,162.423Z"/><rect x="179.4696" y="57.5337" width="10.441" height="17.4171"/><rect x="179.4696" y="153.8957" width="10.441" height="18.6961"/></svg>