<svg height="2200" width="3300" xmlns="http://www.w3.org/2000/svg"><path d="m0 0h3300v2200h-3300z" fill="#fff"/><path d="m263 292h2773" fill="none" stroke="#000" stroke-width=".5"/><g font-family="-apple-system,&quot;SF Pro Display&quot;,&quot;SF Pro Text&quot;,Helvetica,sans-serif"><text font-weight="bold" transform="translate(263 322)">Weight/Scale Variations</text><text text-anchor="middle" transform="translate(559.711 322)">Ultralight</text><text text-anchor="middle" transform="translate(856.422 322)">Thin</text><text text-anchor="middle" transform="translate(1153.13 322)">Light</text><text text-anchor="middle" transform="translate(1449.84 322)">Regular</text><text text-anchor="middle" transform="translate(1746.56 322)">Medium</text><text text-anchor="middle" transform="translate(2043.27 322)">Semibold</text><text text-anchor="middle" transform="translate(2339.98 322)">Bold</text><text text-anchor="middle" transform="translate(2636.69 322)">Heavy</text><text text-anchor="middle" transform="translate(2933.4 322)">Black</text></g><path d="m263 1903h2773" fill="none" stroke="#000" stroke-width=".5"/><path d="m9.24805.830078c4.30665 0 7.89065-3.574218 7.89065-7.880858 0-4.30662-3.5938-7.88082-7.90042-7.88082-4.29687 0-7.87109 3.5742-7.87109 7.88082 0 4.30664 3.58398 7.880858 7.88086 7.880858zm0-1.484375c-3.54493 0-6.37696-2.841793-6.37696-6.396483 0-3.55472 2.82227-6.39652 6.36719-6.39652 3.55472 0 6.39652 2.8418 6.40622 6.39652.0098 3.55469-2.8418 6.396483-6.39645 6.396483zm-.01953-2.773433c.46875 0 .74218-.3125.74218-.83008v-2.06055h2.2266c.498 0 .8398-.25391.8398-.72266 0-.47851-.3223-.74218-.8398-.74218h-2.2266v-2.2266c0-.5175-.27343-.8398-.74218-.8398s-.72266.3418-.72266.8398v2.2266h-2.20703c-.51758 0-.84961.26367-.84961.74218 0 .46875.35156.72266.84961.72266h2.20703v2.06055c0 .49804.25391.83008.72266.83008z" transform="translate(263 1933)"/><path d="m11.709 2.91016c5.4394 0 9.9609-4.51172 9.9609-9.96094 0-5.43942-4.5312-9.96092-9.9707-9.96092-5.4492 0-9.95115 4.5215-9.95115 9.96092 0 5.44922 4.51172 9.96094 9.96095 9.96094zm0-1.66016c-4.60939 0-8.29103-3.69141-8.29103-8.30078 0-4.59962 3.67187-8.30082 8.28123-8.30082 4.5996 0 8.3008 3.7012 8.3106 8.30082.0097 4.60937-3.7012 8.30078-8.3008 8.30078zm-.0293-3.66211c.5273 0 .8398-.36133.8398-.92773v-2.89063h3.0567c.5468 0 .9277-.2832.9277-.80078 0-.52734-.3613-.83008-.9277-.83008h-3.0567v-3.06637c0-.5762-.3125-.9278-.8398-.9278-.5176 0-.8008.3711-.8008.9278v3.06637h-3.04687c-.57617 0-.9375.30274-.9375.83008 0 .51758.39063.80078.9375.80078h3.04687v2.89063c0 .54687.2832.92773.8008.92773z" transform="translate(281.506 1933)"/><path d="m14.9707 5.67383c6.9629 0 12.7148-5.751955 12.7148-12.71485 0-6.96288-5.7617-12.71488-12.7246-12.71488-6.96285 0-12.70504 5.752-12.70504 12.71488 0 6.962895 5.75195 12.71485 12.71484 12.71485zm0-1.81641c-6.04492 0-10.88867-4.86328-10.88867-10.89844 0-6.03518 4.83399-10.89848 10.87887-10.89848 6.0352 0 10.8985 4.8633 10.9082 10.89848.0098 6.03516-4.8632 10.89844-10.8984 10.89844zm-.0293-4.92187c.5762 0 .918-.39063.918-.9961v-4.07226h4.2383c.5957 0 1.0156-.33203 1.0156-.88867 0-.57618-.3906-.91797-1.0156-.91797h-4.2383v-4.24805c0-.6152-.3418-1.0059-.918-1.0059-.5566 0-.8789.4102-.8789 1.0059v4.24805h-4.23828c-.61524 0-1.01563.34179-1.01563.91797 0 .55664.42969.88867 1.01563.88867h4.23828v4.07226c0 .58594.3223.9961.8789.9961z" transform="translate(304.914 1933)"/><text font-family="-apple-system,&quot;SF Pro Display&quot;,&quot;SF Pro Text&quot;,Helvetica,sans-serif" font-weight="bold" transform="translate(263 1953)">Design Variations</text><text font-family="-apple-system,&quot;SF Pro Display&quot;,&quot;SF Pro Text&quot;,Helvetica,sans-serif" transform="translate(263 1971)">Symbols are supported in up to nine weights and three scales.</text><text font-family="-apple-system,&quot;SF Pro Display&quot;,&quot;SF Pro Text&quot;,Helvetica,sans-serif" transform="translate(263 1989)">For optimal layout with text and other symbols, vertically align</text><text font-family="-apple-system,&quot;SF Pro Display&quot;,&quot;SF Pro Text&quot;,Helvetica,sans-serif" transform="translate(263 2007)">symbols with the adjacent text.</text><path d="m776 1919h3v14h-3z" fill="#00aeef" opacity=".4"/><path d="m10.5273 0h1.8457l-5.19527-14.0918h-1.73828l-5.195309 14.0918h1.845699l1.41602-4.0332h5.60547zm-4.248-11.9531h.05859l2.25586 6.42576h-4.57031z" transform="translate(779 1933)"/><path d="m791.617 1919h3v14h-3z" fill="#00aeef" opacity=".4"/><text font-family="-apple-system,&quot;SF Pro Display&quot;,&quot;SF Pro Text&quot;,Helvetica,sans-serif" font-weight="bold" transform="translate(776 1953)">Side Bearings</text><text font-family="-apple-system,&quot;SF Pro Display&quot;,&quot;SF Pro Text&quot;,Helvetica,sans-serif" transform="translate(776 1971)">Horizontal padding on the left and right side of each symbol</text><text font-family="-apple-system,&quot;SF Pro Display&quot;,&quot;SF Pro Text&quot;,Helvetica,sans-serif" transform="translate(776 1989)">can be adjusted by modifying the width of the blue rectangles.</text><text font-family="-apple-system,&quot;SF Pro Display&quot;,&quot;SF Pro Text&quot;,Helvetica,sans-serif" transform="translate(776 2007)">Modifications are automatically applied proportionally to all</text><text font-family="-apple-system,&quot;SF Pro Display&quot;,&quot;SF Pro Text&quot;,Helvetica,sans-serif" transform="translate(776 2025)">scales and weights.</text><path d="m2.96875 2.35352.83984.83984c1.03516 1.03516 2.31446.95703 3.38868-.21484l8.96483-9.80469c.3906.07812.8008-.01953 1.3281-.19531.6836-.23438.7813-.23438.8985-.11719.1465.12695.0976.24414-.1465.88867-.3613.91797-.4297 1.45508.3125 2.22656l.8691.88867c.8496.88868 1.9043.86915 2.793-.00976l2.8418-2.83203c.8887-.88867.8984-1.95313.0195-2.80274l-.8984-.86914c-.7715-.75196-1.3086-.70316-2.2168-.33203-.6445.25391-.7617.29297-.8984.16602-.127-.11719-.1172-.22465.1171-.89845.3516-.9766.3907-1.5723-.4296-2.3828l-1.4161-1.416c-4.1406-4.1016-8.1054-4.2285-11.67965-.9278-.57617.5372-.66406 1.2891-.11719 1.8262l.25391.2539c.42969.4297 1.07422.5176 1.62109.2442 1.65044-.8301 2.84184-.9082 4.04294.1367l-.4297 1.5625c-.1757.6152-.2343 1.0742-.1074 1.48436l-9.73631 8.88672c-1.16211 1.0742169-1.25 2.37304-.21484 3.39844zm5.99609-16.84572c-.06836-.0781-.09765-.166.0293-.2637 2.71486-2.5293 6.04496-2.0898 9.35546 1.2305l1.3477 1.3574c.3906.3907.4004.586.1855 1.2989-.2246.7421-.3808 1.33785.2637 1.98238.664.66406 1.1426.46875 2.0605.25391.6934-.16602.8594-.16602 1.2403.21484l.6445.64453c.3125.29297.3223.44922-.0195.80078l-2.8516 2.8418c-.332.33203-.498.33203-.791.0293l-.6445-.6543c-.3711-.38086-.3711-.54687-.2051-1.25976.2051-.86915.4004-1.36719-.2539-2.03126-.6543-.67382-1.25-.52734-1.9824-.2832-.7813.26367-1.0157.26367-1.4454-.16601l-1.289-1.28907c-.4395-.43944-.4785-.65434-.3418-1.12304l.7617-2.4902c-1.6406-1.8848-3.5352-2.1582-5.82032-1.045-.09765.0489-.16601.0293-.24414-.0488zm-5 15.85939c-.43945-.439456-.41992-.830081.17578-1.37695562l9.59958-8.80859438 1.2598 1.25977-8.82812 9.58007c-.54688.58594-.92774.625-1.37696.17579z" transform="translate(1289 1933)"/><text font-family="-apple-system,&quot;SF Pro Display&quot;,&quot;SF Pro Text&quot;,Helvetica,sans-serif" font-weight="bold" transform="translate(1289 1953)">Exporting</text><text font-family="-apple-system,&quot;SF Pro Display&quot;,&quot;SF Pro Text&quot;,Helvetica,sans-serif" transform="translate(1289 1971)">Symbols should be outlined when exporting to ensure the</text><text font-family="-apple-system,&quot;SF Pro Display&quot;,&quot;SF Pro Text&quot;,Helvetica,sans-serif" transform="translate(1289 1989)">design is preserved when submitting to Xcode.</text><text font-family="-apple-system,&quot;SF Pro Display&quot;,&quot;SF Pro Text&quot;,Helvetica,sans-serif" transform="translate(263 726)">Small</text><text font-family="-apple-system,&quot;SF Pro Display&quot;,&quot;SF Pro Text&quot;,Helvetica,sans-serif" transform="translate(263 1156)">Medium</text><text font-family="-apple-system,&quot;SF Pro Display&quot;,&quot;SF Pro Text&quot;,Helvetica,sans-serif" transform="translate(263 1586)">Large</text><path d="m54.9316 0h2.7344l-27.0996-70.459h-2.4902l-27.099638 70.459h2.685548l9.27739-24.4629h32.7636zm-25.7324-67.0898h.2442l15.3808 40.3808h-31.0058z" fill="#27aae1" transform="translate(339 696)"/><path d="m263 696h2773" fill="none" stroke="#27aae1" stroke-width=".577"/><path d="m263 625.541h2773" fill="none" stroke="#27aae1" stroke-width=".577"/><path d="m54.9316 0h2.7344l-27.0996-70.459h-2.4902l-27.099638 70.459h2.685548l9.27739-24.4629h32.7636zm-25.7324-67.0898h.2442l15.3808 40.3808h-31.0058z" fill="#27aae1" transform="translate(339 1126)"/><path d="m263 1126h2773" fill="none" stroke="#27aae1" stroke-width=".577"/><path d="m263 1055.54h2773" fill="none" stroke="#27aae1" stroke-width=".577"/><path d="m54.9316 0h2.7344l-27.0996-70.459h-2.4902l-27.099638 70.459h2.685548l9.27739-24.4629h32.7636zm-25.7324-67.0898h.2442l15.3808 40.3808h-31.0058z" fill="#27aae1" transform="translate(339 1556)"/><path d="m263 1556h2773" fill="none" stroke="#27aae1" stroke-width=".577"/><path d="m263 1485.54h2773" fill="none" stroke="#27aae1" stroke-width=".577"/><path d="m1391 1030.79h8.8v119.336h-8.8z" fill="#00aeef" opacity=".4"/><path d="m1496.8442 1030.79h8.7v119.336h-8.7z" fill="#00aeef" opacity=".4"/><path d="m44.775-1.953c.684 0 1.514-.342 2.197-.732 20.605-12.695 33.789-28.516 33.789-42.92 0-12.305-8.691-21.631-20.117-21.631-6.25 0-12.451 3.516-15.869 10.059-3.418-6.592-9.619-10.059-15.918-10.059-11.426 0-20.117 9.326-20.117 21.631 0 14.404 13.232 30.225 33.789 42.92.684.391 1.514.732 2.246.732zm0-2.246c-.391 0-.781-.195-1.074-.391-19.824-12.354-32.764-27.441-32.764-41.016 0-11.133 7.715-19.385 17.92-19.385 6.934 0 11.719 4.248 14.697 9.619.439.83.732 1.123 1.221 1.123.439 0 .781-.244 1.221-1.074 2.588-5.42 7.617-9.668 14.648-9.668 10.205 0 17.92 8.252 17.92 19.385 0 13.574-12.939 28.662-32.764 41.016-.293.195-.684.391-1.025.391zm12.325-38.501c1.7 0 3.1-1.4 3.1-3.2 0-1.7-1.4-3.1-3.1-3.1-1.8 0-3.2 1.4-3.2 3.1 0 1.8 1.4 3.2 3.2 3.2zm-24.6.3c1.7 0 3.1-1.4 3.1-3.2 0-1.7-1.4-3.1-3.1-3.1-1.8 0-3.2 1.4-3.2 3.1 0 1.8 1.4 3.2 3.2 3.2zm12.9 21c5.6 0 9.7-2.4 11.9-7.2.4-.8-.3-1.8-1.2-1.8-.5 0-.9.2-1.1.7-1.8 3.8-4.9 5.7-9.6 5.7-4.6 0-7.7-1.8-9.7-5.7-.2-.5-.6-.7-1.1-.7-1.1 0-1.6 1.1-1.2 1.9 2.4 4.7 6.5 7.1 12 7.1z" transform="translate(515 696)"/><path d="m45.359-1.346c.848 0 1.817-.405 2.716-.947 20.584-12.767 33.861-28.693 33.861-43.291 0-12.747-8.936-22.242-20.543-22.242-6.49 0-12.653 3.566-16.033 9.995-3.38-6.474-9.543-9.995-16.078-9.995-11.607 0-20.543 9.495-20.543 22.242 0 14.598 13.317 30.524 33.861 43.291.899.542 1.868.947 2.76.947zm-.003-3.63c-.365 0-.731-.187-.999-.365-19.477-12.288-32.093-27.075-32.093-40.263 0-10.733 7.403-18.678 17.227-18.678 6.775 0 11.398 4.08 14.37 9.393.505.914.876 1.277 1.504 1.277.583 0 1.016-.327 1.512-1.232 2.623-5.358 7.434-9.438 14.307-9.438 9.816 0 17.228 7.945 17.228 18.678 0 13.188-12.617 27.975-32.093 40.263-.276.178-.633.365-.963.365zm12.297-37.474c1.76 0 3.212-1.452 3.212-3.312 0-1.752-1.452-3.204-3.212-3.204-1.86 0-3.304 1.452-3.304 3.204 0 1.86 1.443 3.312 3.304 3.312zm-24.497.309c1.752 0 3.204-1.452 3.204-3.312 0-1.752-1.452-3.204-3.204-3.204-1.86 0-3.312 1.452-3.312 3.204 0 1.86 1.452 3.312 3.312 3.312zm12.796 20.603c5.591 0 9.735-2.435 11.978-7.252.443-.895-.291-2.085-1.364-2.085-.578 0-1.038.243-1.273.804-1.774 3.714-4.788 5.553-9.341 5.553-4.462 0-7.484-1.757-9.45-5.571-.235-.543-.695-.795-1.264-.795-1.195 0-1.824 1.178-1.355 2.159 2.426 4.743 6.578 7.186 12.069 7.186z" transform="translate(811 696)"/><path d="m46.332-.334c1.122 0 2.323-.51 3.58-1.306 20.549-12.887 33.98-28.988 33.98-43.909 0-13.485-9.343-23.261-21.253-23.261-6.891 0-12.991 3.651-16.308 9.89-3.317-6.277-9.417-9.89-16.345-9.89-11.909 0-21.253 9.776-21.253 23.261 0 14.921 13.457 31.023 33.98 43.909 1.257.795 2.458 1.306 3.617 1.306zm-.009-5.937c-.324 0-.647-.173-.873-.324-18.898-12.18-30.976-26.465-30.976-39.009 0-10.066 6.883-17.501 16.074-17.501 6.512 0 10.863 3.8 13.823 9.016.614 1.053 1.116 1.532 1.976 1.532.822 0 1.407-.464 1.999-1.495 2.683-5.254 7.13-9.054 13.739-9.054 9.168 0 16.074 7.434 16.074 17.501 0 12.544-12.079 26.829-30.976 39.009-.249.15-.549.324-.858.324zm12.25-35.761c1.861 0 3.399-1.538 3.399-3.499 0-1.838-1.538-3.376-3.399-3.376-1.961 0-3.476 1.538-3.476 3.376 0 1.961 1.515 3.499 3.476 3.499zm-24.323.323c1.838 0 3.376-1.538 3.376-3.499 0-1.838-1.538-3.376-3.376-3.376-1.961 0-3.499 1.538-3.499 3.376 0 1.961 1.538 3.499 3.499 3.499zm12.623 19.941c5.577 0 9.792-2.492 12.107-7.338.515-1.053-.277-2.56-1.637-2.56-.707 0-1.268.315-1.56.976-1.731 3.57-4.601 5.309-8.909 5.309-4.232 0-7.124-1.685-9.032-5.355-.292-.615-.853-.953-1.537-.953-1.353 0-2.199 1.307-1.614 2.591 2.469 4.815 6.707 7.33 12.184 7.33z" transform="translate(1107 696)"/><path d="m47.111.475c1.341 0 2.728-.595 4.271-1.592 20.521-12.982 34.076-29.224 34.076-44.404 0-14.075-9.669-24.076-21.82-24.076-7.211 0-13.261 3.718-16.527 9.806-3.266-6.12-9.316-9.806-16.559-9.806-12.151 0-21.82 10.001-21.82 24.076 0 15.18 13.57 31.422 34.076 44.404 1.543.998 2.93 1.592 4.303 1.592zm-.013-7.782c-.29 0-.58-.162-.772-.29-18.435-12.093-30.083-25.977-30.083-38.006 0-9.533 6.466-16.558 15.15-16.558 6.301 0 10.435 3.575 13.386 8.715.702 1.165 1.308 1.737 2.353 1.737 1.013 0 1.72-.574 2.388-1.705 2.73-5.171 6.886-8.747 13.285-8.747 8.649 0 15.151 7.025 15.151 16.558 0 12.029-11.648 25.913-30.083 38.006-.226.128-.482.29-.775.29zm12.212-34.392c1.942 0 3.549-1.607 3.549-3.649 0-1.907-1.607-3.514-3.549-3.514-2.042 0-3.614 1.607-3.614 3.514 0 2.042 1.573 3.649 3.614 3.649zm-24.186.335c1.907 0 3.514-1.607 3.514-3.649 0-1.907-1.607-3.514-3.514-3.514-2.042 0-3.649 1.607-3.649 3.514 0 2.042 1.607 3.649 3.649 3.649zm12.486 19.412c5.565 0 9.838-2.538 12.211-7.407.573-1.18-.265-2.94-1.856-2.94-.811 0-1.452.373-1.791 1.114-1.696 3.455-4.451 5.113-8.564 5.113-4.048 0-6.837-1.627-8.699-5.182-.338-.673-.98-1.08-1.756-1.08-1.48 0-2.498 1.411-1.822 2.936 2.504 4.873 6.811 7.445 12.276 7.445z" transform="translate(1403 696)"/><path d="m47.938 1.335c1.574 0 3.158-.684 5.006-1.897 20.491-13.083 34.177-29.475 34.177-44.929 0-14.702-10.016-24.942-22.423-24.942-7.551 0-13.547 3.79-16.76 9.716-3.212-5.952-9.208-9.716-16.786-9.716-12.408 0-22.423 10.24-22.423 24.942 0 15.455 13.689 31.846 34.177 44.929 1.848 1.213 3.432 1.897 5.032 1.897zm-.018-9.743c-.255 0-.51-.151-.665-.255-17.942-12.001-29.133-25.458-29.133-36.94 0-8.966 6.024-15.557 14.17-15.557 6.076 0 9.98 3.337 12.921 8.394.795 1.284 1.512 1.954 2.754 1.954 1.216 0 2.053-.691 2.801-1.928 2.781-5.083 6.627-8.42 12.802-8.42 8.098 0 14.17 6.591 14.17 15.557 0 11.482-11.191 24.939-29.133 36.94-.203.104-.411.255-.686.255zm12.173-32.936c2.027 0 3.708-1.681 3.708-3.808 0-1.981-1.681-3.661-3.708-3.661-2.127 0-3.761 1.68-3.761 3.661 0 2.127 1.634 3.808 3.761 3.808zm-24.039.347c1.98 0 3.661-1.681 3.661-3.808 0-1.981-1.681-3.661-3.661-3.661-2.127 0-3.808 1.681-3.808 3.661 0 2.127 1.681 3.808 3.808 3.808zm12.339 18.849c5.553 0 9.887-2.587 12.321-7.481.634-1.314-.253-3.343-2.089-3.343-.921 0-1.648.434-2.035 1.261-1.66 3.332-4.292 4.905-8.197 4.905-3.852 0-6.531-1.566-8.344-4.998-.387-.734-1.114-1.214-1.989-1.214-1.614 0-2.816 1.521-2.042 3.303 2.54 4.934 6.921 7.568 12.374 7.568z" transform="translate(1699 696)"/><path d="m48.522 1.942c1.739 0 3.461-.748 5.524-2.112 20.47-13.155 34.249-29.652 34.249-45.3 0-15.145-10.26-25.553-22.849-25.553-7.792 0-13.749 3.84-16.924 9.653-3.174-5.834-9.132-9.653-16.946-9.653-12.589 0-22.849 10.408-22.849 25.553 0 15.648 13.773 32.145 34.249 45.3 2.063 1.364 3.786 2.112 5.546 2.112zm-.021-11.127c-.23 0-.459-.143-.59-.23-17.595-11.936-28.463-25.092-28.463-36.188 0-8.566 5.712-14.851 13.477-14.851 5.918 0 9.659 3.169 12.594 8.168.861 1.367 1.656 2.107 3.037 2.107 1.359 0 2.287-.774 3.093-2.086 2.816-5.021 6.444-8.19 12.461-8.19 7.709 0 13.477 6.284 13.477 14.851 0 11.096-10.868 24.251-28.463 36.188-.186.087-.36.23-.624.23zm12.144-31.908c2.088 0 3.82-1.732 3.82-3.92 0-2.032-1.732-3.765-3.82-3.765-2.188 0-3.865 1.732-3.865 3.765 0 2.188 1.677 3.92 3.865 3.92zm-23.935.355c2.032 0 3.765-1.732 3.765-3.92 0-2.032-1.732-3.765-3.765-3.765-2.188 0-3.92 1.732-3.92 3.765 0 2.188 1.732 3.92 3.92 3.92zm12.235 18.452c5.545 0 9.922-2.622 12.399-7.532.677-1.409-.245-3.628-2.253-3.628-.999 0-1.786.477-2.208 1.365-1.634 3.246-4.18 4.758-7.938 4.758-3.714 0-6.315-1.523-8.093-4.869-.422-.777-1.209-1.309-2.152-1.309-1.709 0-3.04 1.599-2.197 3.562 2.566 4.977 6.998 7.654 12.443 7.654z" transform="translate(1995 696)"/><path d="m49.349 2.802c1.971 0 3.891-.837 6.259-2.416 20.44-13.257 34.35-29.902 34.35-45.826 0-15.772-10.607-26.419-23.452-26.419-8.132 0-14.036 3.912-17.157 9.563-3.121-5.667-9.025-9.563-17.173-9.563-12.846 0-23.452 10.647-23.452 26.419 0 15.923 13.893 32.569 34.35 45.826 2.368 1.579 4.287 2.416 6.275 2.416zm-.026-13.088c-.194 0-.388-.131-.483-.194-17.103-11.844-27.513-24.573-27.513-35.122 0-8 5.27-13.85 12.496-13.85 5.694 0 9.204 2.931 12.129 7.848.954 1.486 1.86 2.325 3.438 2.325 1.562 0 2.62-.891 3.506-2.309 2.866-4.933 6.185-7.864 11.978-7.864 7.159 0 12.496 5.85 12.496 13.85 0 10.549-10.411 23.278-27.513 35.122-.163.063-.289.194-.535.194zm12.105-30.453c2.173 0 3.979-1.806 3.979-4.079 0-2.106-1.806-3.912-3.979-3.912-2.273 0-4.012 1.806-4.012 3.912 0 2.273 1.738 4.079 4.012 4.079zm-23.788.368c2.106 0 3.911-1.806 3.911-4.079 0-2.106-1.806-3.911-3.911-3.911-2.273 0-4.079 1.806-4.079 3.911 0 2.273 1.806 4.079 4.079 4.079zm12.088 17.889c5.532 0 9.971-2.67 12.509-7.606.738-1.544-.232-4.032-2.485-4.032-1.109 0-1.982.538-2.453 1.511-1.597 3.124-4.021 4.55-7.571 4.55-3.518 0-6.009-1.462-7.739-4.686-.47-.838-1.344-1.444-2.385-1.444-1.844 0-3.358 1.709-2.417 3.929 2.603 5.038 7.109 7.776 12.541 7.776z" transform="translate(2292 696)"/><path d="m50.468 3.965c2.286 0 4.473-.958 7.253-2.829 20.4-13.394 34.488-30.242 34.488-46.537 0-16.62-11.075-27.59-24.268-27.59-8.593 0-14.424 4.009-17.472 9.442-3.048-5.441-8.879-9.442-17.48-9.442-13.193 0-24.268 10.97-24.268 27.59 0 16.295 14.054 33.143 34.488 46.537 2.78 1.87 4.966 2.829 7.26 2.829zm-.032-15.74c-.146 0-.292-.115-.338-.146-16.437-11.719-26.229-23.871-26.229-33.68 0-7.233 4.672-12.495 11.169-12.495 5.39 0 8.589 2.608 11.501 7.415 1.08 1.646 2.136 2.619 3.981 2.619 1.837 0 3.07-1.049 4.065-2.611 2.935-4.814 5.835-7.422 11.325-7.422 6.413 0 11.169 5.262 11.169 12.495 0 9.808-9.792 21.96-26.229 33.68-.131.031-.192.146-.415.146zm12.051-28.484c2.289 0 4.194-1.905 4.194-4.294 0-2.205-1.905-4.11-4.194-4.11-2.389 0-4.21 1.905-4.21 4.11 0 2.389 1.821 4.294 4.21 4.294zm-23.59.384c2.205 0 4.11-1.905 4.11-4.294 0-2.205-1.905-4.11-4.11-4.11-2.389 0-4.294 1.905-4.294 4.11 0 2.389 1.905 4.294 4.294 4.294zm11.89 17.128c5.516 0 10.037-2.737 12.657-7.705.821-1.726-.216-4.578-2.799-4.578-1.258 0-2.247.621-2.783 1.71-1.548 2.958-3.806 4.269-7.075 4.269-3.253 0-5.596-1.379-7.259-4.437-.537-.921-1.526-1.626-2.699-1.626-2.026 0-3.788 1.858-2.715 4.425 2.652 5.121 7.258 7.942 12.673 7.942z" transform="translate(2587 696)"/><path d="m51.538 5.078c2.588 0 5.029-1.074 8.203-3.223 20.361-13.525 34.619-30.566 34.619-47.217 0-17.432-11.523-28.711-25.049-28.711-9.033 0-14.795 4.102-17.773 9.326-2.978-5.225-8.74-9.326-17.773-9.326-13.525 0-25.049 11.279-25.049 28.711 0 16.65 14.209 33.691 34.619 47.217 3.174 2.148 5.615 3.223 8.203 3.223zm-.038-18.278c-.1 0-.2-.1-.2-.1-15.8-11.6-25-23.2-25-32.3 0-6.5 4.1-11.2 9.9-11.2 5.1 0 8 2.3 10.9 7 1.2 1.8 2.4 2.9 4.5 2.9s3.5-1.2 4.6-2.9c3-4.7 5.5-7 10.7-7 5.7 0 9.9 4.7 9.9 11.2 0 9.1-9.2 20.7-25 32.3-.1 0-.1.1-.3.1zm12-26.6c2.4 0 4.4-2 4.4-4.5 0-2.3-2-4.3-4.4-4.3-2.5 0-4.4 2-4.4 4.3 0 2.5 1.9 4.5 4.4 4.5zm-23.4.4c2.3 0 4.3-2 4.3-4.5 0-2.3-2-4.3-4.3-4.3-2.5 0-4.5 2-4.5 4.3 0 2.5 2 4.5 4.5 4.5zm11.7 16.4c5.5 0 10.1-2.8 12.8-7.8.9-1.9-.2-5.1-3.1-5.1-1.4 0-2.5.7-3.1 1.9-1.5 2.8-3.6 4-6.6 4s-5.2-1.3-6.8-4.2c-.6-1-1.7-1.8-3-1.8-2.2 0-4.2 2-3 4.9 2.7 5.2 7.4 8.1 12.8 8.1z" transform="translate(2883 696)"/><path d="m54.544 6.956c.848 0 1.8-.382 2.584-.832 26.296-16.158 43.194-36.364 43.194-54.606 0-15.527-11.016-27.39-25.524-27.39-7.966 0-15.974 4.585-20.253 12.958-4.238-8.442-12.224-12.958-20.26-12.958-14.508 0-25.524 11.863-25.524 27.39 0 18.242 16.926 38.448 43.173 54.606.783.45 1.757.832 2.612.832zm0-2.339c-.496 0-1.013-.237-1.37-.496-25.544-15.861-42.102-35.219-42.102-52.603 0-14.313 9.969-25.05 23.207-25.05 8.869 0 15.002 5.386 18.904 12.375.543.975.876 1.329 1.361 1.329.478 0 .88-.242 1.382-1.259 3.385-7.059 9.868-12.445 18.877-12.445 13.217 0 23.207 10.737 23.207 25.05 0 17.384-16.58 36.741-42.102 52.603-.377.259-.874.496-1.363.496zm14.669-48.699c2.043 0 3.742-1.7 3.742-3.885 0-2.043-1.7-3.743-3.742-3.743-2.185 0-3.885 1.7-3.885 3.743 0 2.186 1.7 3.885 3.885 3.885zm-29.806.386c2.043 0 3.742-1.7 3.742-3.885 0-2.043-1.7-3.742-3.742-3.742-2.186 0-3.885 1.7-3.885 3.742 0 2.186 1.7 3.885 3.885 3.885zm15.612 25.094c7.879 0 13.698-3.517 16.714-10.295.399-.884-.3-1.922-1.239-1.922-.541 0-1.026.285-1.225.783-2.618 5.737-7.311 8.628-14.25 8.628-6.839 0-11.446-2.79-14.307-8.627-.199-.499-.641-.784-1.182-.784-1.141 0-1.681 1.098-1.282 1.98 3.302 6.806 8.992 10.237 16.771 10.237z" transform="translate(503 1126)"/><path d="m55.229 7.697c1.038 0 2.168-.461 3.201-1.085 26.289-16.261 43.267-36.577 43.267-55.08 0-16.05-11.296-28.096-26.029-28.096-8.213 0-16.157 4.601-20.438 12.847-4.241-8.31-12.168-12.847-20.445-12.847-14.733 0-26.027 12.046-26.027 28.096 0 18.503 16.999 38.819 43.245 55.08 1.033.623 2.183 1.085 3.226 1.085zm-.001-3.936c-.466 0-.951-.225-1.293-.472-25.117-15.772-41.334-34.793-41.334-51.776 0-13.882 9.607-24.234 22.394-24.234 8.703 0 14.661 5.238 18.52 12.114.62 1.089 1.054 1.534 1.72 1.534.66 0 1.173-.352 1.75-1.47 3.395-6.939 9.64-12.177 18.477-12.177 12.762 0 22.392 10.352 22.392 24.234 0 16.983-16.236 36.004-41.334 51.776-.364.247-.827.472-1.291.472zm14.704-47.662c2.152 0 3.944-1.792 3.944-4.087 0-2.143-1.792-3.935-3.944-3.935-2.295 0-4.082 1.792-4.082 3.935 0 2.295 1.787 4.087 4.082 4.087zm-29.793.402c2.147 0 3.932-1.789 3.932-4.087 0-2.143-1.785-3.935-3.932-3.935-2.295 0-4.087 1.792-4.087 3.935 0 2.299 1.792 4.087 4.087 4.087zm15.545 24.961c7.855 0 13.692-3.561 16.757-10.407.479-1.083-.334-2.358-1.514-2.358-.668 0-1.255.353-1.505.961-2.556 5.601-7.074 8.39-13.737 8.39-6.568 0-11.009-2.703-13.803-8.403-.251-.59-.798-.956-1.457-.956-1.321 0-2.046 1.26-1.548 2.404 3.329 6.882 9.054 10.369 16.809 10.369z" transform="translate(799 1126)"/><path d="m56.355 8.916c1.351 0 2.773-.592 4.214-1.5 26.278-16.431 43.386-36.927 43.386-55.86 0-16.909-11.756-29.256-26.859-29.256-8.618 0-16.456 4.624-20.742 12.663-4.249-8.092-12.076-12.663-20.747-12.663-15.103 0-26.854 12.348-26.854 29.256 0 18.933 17.118 39.429 43.365 55.86 1.441.909 2.884 1.5 4.236 1.5zm-.005-6.56c-.417 0-.849-.205-1.167-.432-24.417-15.624-40.073-34.093-40.073-50.42 0-13.174 9.013-22.893 21.057-22.893 8.43 0 14.103 4.997 17.889 11.685.746 1.277 1.348 1.871 2.312 1.871.959 0 1.655-.532 2.356-1.818 3.41-6.741 9.265-11.738 17.821-11.738 12.015 0 21.053 9.719 21.053 22.893 0 16.327-15.672 34.796-40.073 50.42-.341.227-.75.432-1.174.432zm14.767-45.964c2.333 0 4.278-1.946 4.278-4.421 0-2.309-1.946-4.255-4.278-4.255-2.476 0-4.408 1.946-4.408 4.255 0 2.476 1.932 4.421 4.408 4.421zm-29.777.43c2.319 0 4.244-1.935 4.244-4.421 0-2.309-1.925-4.255-4.244-4.255-2.476 0-4.421 1.946-4.421 4.255 0 2.486 1.946 4.421 4.421 4.421zm15.439 24.752c7.814 0 13.68-3.633 16.825-10.592.611-1.413-.39-3.078-1.969-3.078-.879 0-1.633.466-1.969 1.255-2.453 5.375-6.682 7.996-12.887 7.996-6.118 0-10.285-2.558-12.968-8.033-.336-.742-1.057-1.241-1.912-1.241-1.619 0-2.65 1.529-1.989 3.106 3.374 7.007 9.155 10.588 16.869 10.588z" transform="translate(1095 1126)"/><path d="m57.285 9.923c1.61 0 3.272-.699 5.052-1.844 26.269-16.571 43.485-37.217 43.485-56.504 0-17.618-12.135-30.215-27.544-30.215-8.953 0-16.703 4.644-20.993 12.511-4.255-7.912-12-12.511-20.997-12.511-15.409 0-27.537 12.597-27.537 30.215 0 19.287 17.216 39.933 43.464 56.504 1.779 1.144 3.463 1.844 5.07 1.844zm-.008-8.728c-.376 0-.765-.188-1.062-.399-23.838-15.502-39.031-33.515-39.031-49.3 0-12.59 8.522-21.786 19.954-21.786 8.205 0 13.641 4.798 17.367 11.33.851 1.432 1.59 2.149 2.8 2.149 1.206 0 2.053-.681 2.857-2.105 3.423-6.576 8.956-11.374 17.278-11.374 11.398 0 19.946 9.196 19.946 21.786 0 15.785-15.207 33.798-39.031 49.3-.323.211-.686.399-1.078.399zm14.819-44.561c2.482 0 4.554-2.072 4.554-4.697 0-2.446-2.072-4.519-4.554-4.519-2.625 0-4.677 2.072-4.677 4.519 0 2.625 2.052 4.697 4.677 4.697zm-29.764.453c2.462 0 4.503-2.057 4.503-4.697 0-2.446-2.041-4.519-4.503-4.519-2.625 0-4.697 2.072-4.697 4.519 0 2.641 2.072 4.697 4.697 4.697zm15.351 24.579c7.781 0 13.67-3.693 16.882-10.745.72-1.686-.436-3.673-2.345-3.673-1.053 0-1.946.559-2.352 1.497-2.369 5.189-6.358 7.671-12.185 7.671-5.747 0-9.686-2.438-12.278-7.727-.406-.867-1.271-1.477-2.288-1.477-1.865 0-3.148 1.75-2.353 3.685 3.41 7.111 9.238 10.769 16.919 10.769z" transform="translate(1391 1126)"/><path d="m58.166 10.877c1.855 0 3.746-.801 5.845-2.169 26.26-16.704 43.578-37.491 43.578-57.115 0-18.29-12.495-31.123-28.194-31.123-9.27 0-16.937 4.662-21.23 12.367-4.261-7.741-11.928-12.367-21.234-12.367-15.699 0-28.184 12.832-28.184 31.123 0 19.624 17.31 40.41 43.558 57.115 2.1 1.367 4.012 2.169 5.86 2.169zm-.011-10.782c-.337 0-.685-.171-.963-.368-23.29-15.386-38.044-32.967-38.044-48.238 0-12.037 8.057-20.737 18.908-20.737 7.992 0 13.204 4.609 16.873 10.994.949 1.579 1.819 2.413 3.263 2.413 1.44 0 2.43-.822 3.331-2.377 3.435-6.421 8.662-11.03 16.764-11.03 10.813 0 18.898 8.701 18.898 20.737 0 15.271-14.766 32.852-38.044 48.238-.305.196-.626.368-.986.368zm14.868-43.231c2.624 0 4.816-2.192 4.816-4.959 0-2.576-2.192-4.768-4.816-4.768-2.767 0-4.932 2.192-4.932 4.768 0 2.767 2.165 4.959 4.932 4.959zm-29.751.474c2.597 0 4.748-2.171 4.748-4.959 0-2.577-2.151-4.768-4.748-4.768-2.767 0-4.959 2.192-4.959 4.768 0 2.788 2.192 4.959 4.959 4.959zm15.268 24.416c7.749 0 13.661-3.749 16.936-10.89.823-1.945-.48-4.237-2.702-4.237-1.218 0-2.242.647-2.714 1.727-2.289 5.013-6.051 7.364-11.52 7.364-5.395 0-9.119-2.325-11.624-7.438-.472-.985-1.474-1.7-2.645-1.7-2.098 0-3.621 1.961-2.697 4.235 3.445 7.209 9.317 10.94 16.966 10.94z" transform="translate(1687 1126)"/><path d="m58.899 11.667c2.059 0 4.138-.886 6.505-2.439 26.251-16.812 43.658-37.719 43.658-57.617 0-18.849-12.796-31.88-28.734-31.88-9.539 0-17.14 4.684-21.429 12.252-4.259-7.598-11.862-12.252-21.432-12.252-15.938 0-28.722 13.031-28.722 31.88 0 19.899 17.391 40.805 43.637 57.617 2.367 1.554 4.467 2.439 6.516 2.439zm-.012-12.496c-.305 0-.619-.159-.879-.341-22.836-15.292-37.22-32.51-37.22-47.346 0-11.57 7.669-19.862 18.038-19.862 7.811 0 12.834 4.445 16.461 10.714 1.032 1.699 2.009 2.629 3.644 2.629 1.633 0 2.741-.938 3.722-2.599 3.45-6.299 8.42-10.744 16.336-10.744 10.326 0 18.026 8.292 18.026 19.862 0 14.836-14.393 32.054-37.22 47.346-.29.182-.574.341-.909.341zm14.897-42.099c2.736 0 5.023-2.287 5.023-5.166 0-2.679-2.287-4.966-5.023-4.966-2.879 0-5.133 2.287-5.133 4.966 0 2.879 2.254 5.166 5.133 5.166zm-29.724.492c2.703 0 4.942-2.263 4.942-5.166 0-2.679-2.239-4.966-4.942-4.966-2.879 0-5.166 2.287-5.166 4.966 0 2.903 2.287 5.166 5.166 5.166zm15.19 24.229c7.725 0 13.66-3.795 16.988-11.004.905-2.147-.51-4.691-2.986-4.691-1.349 0-2.478.718-3.004 1.91-2.227 4.872-5.811 7.117-10.998 7.117-5.119 0-8.675-2.236-11.112-7.207-.526-1.078-1.637-1.877-2.929-1.877-2.282 0-3.999 2.125-2.971 4.673 3.475 7.287 9.387 11.078 17.012 11.078z" transform="translate(1983 1126)"/><path d="m59.78 12.621c2.304 0 4.611-.988 7.298-2.764 26.242-16.945 43.752-37.993 43.752-58.228 0-19.521-13.155-32.788-29.383-32.788-9.856 0-17.375 4.703-21.667 12.109-4.264-7.428-11.79-12.109-21.669-12.109-16.228 0-29.369 13.267-29.369 32.788 0 20.235 17.484 41.283 43.731 58.228 2.687 1.777 5.015 2.764 7.307 2.764zm-.015-14.55c-.266 0-.54-.142-.78-.31-22.287-15.176-36.233-31.963-36.233-46.285 0-11.016 7.205-18.813 16.992-18.813 7.598 0 12.397 4.256 15.967 10.378 1.131 1.846 2.239 2.893 4.107 2.893 1.866 0 3.118-1.079 4.196-2.871 3.462-6.143 8.127-10.4 15.823-10.4 9.742 0 16.978 7.797 16.978 18.813 0 14.322-13.952 31.109-36.233 46.285-.272.167-.514.31-.818.31zm14.947-40.77c2.878 0 5.285-2.407 5.285-5.427 0-2.809-2.407-5.216-5.285-5.216-3.02 0-5.388 2.407-5.388 5.216 0 3.02 2.368 5.427 5.388 5.427zm-29.712.514c2.838 0 5.186-2.378 5.186-5.427 0-2.809-2.348-5.216-5.186-5.216-3.02 0-5.427 2.407-5.427 5.216 0 3.05 2.407 5.427 5.427 5.427zm15.107 24.065c7.693 0 13.651-3.852 17.041-11.149 1.008-2.405-.554-5.254-3.342-5.254-1.514 0-2.775.806-3.367 2.139-2.146 4.695-5.504 6.81-10.332 6.81-4.767 0-8.108-2.122-10.458-6.918-.592-1.196-1.84-2.1-3.285-2.1-2.516 0-4.471 2.335-3.316 5.222 3.509 7.386 9.466 11.249 17.059 11.249z" transform="translate(2279 1126)"/><path d="m61.151 14.105c2.685 0 5.348-1.146 8.533-3.27 26.229-17.152 43.897-38.42 43.897-59.178 0-20.567-13.715-34.2-30.393-34.2-10.349 0-17.739 4.731-22.036 11.885-4.274-7.163-11.678-11.885-22.037-11.885-16.679 0-30.375 13.634-30.375 34.2 0 20.758 17.629 42.025 43.876 59.178 3.185 2.124 5.868 3.27 8.536 3.27zm-.02-17.744c-.206 0-.415-.117-.626-.261-21.434-14.996-34.698-31.111-34.698-44.634 0-10.155 6.481-17.181 15.366-17.181 7.267 0 11.717 3.963 15.199 9.855 1.284 2.075 2.596 3.303 4.827 3.303 2.23 0 3.705-1.299 4.934-3.294 3.481-5.902 7.67-9.864 15.023-9.864 8.832 0 15.347 7.026 15.347 17.181 0 13.523-13.266 29.638-34.697 44.634-.245.143-.42.261-.675.261zm15.023-38.703c3.098 0 5.691-2.593 5.691-5.834 0-3.011-2.593-5.605-5.691-5.605-3.241 0-5.785 2.594-5.785 5.605 0 3.241 2.544 5.834 5.785 5.834zm-29.692.547c3.048 0 5.567-2.556 5.567-5.834 0-3.011-2.519-5.605-5.567-5.605-3.241 0-5.834 2.593-5.834 5.605 0 3.278 2.593 5.834 5.834 5.834zm14.977 23.812c7.643 0 13.637-3.939 17.124-11.375 1.169-2.808-.623-6.131-3.896-6.131-1.77 0-3.235.943-3.931 2.497-2.022 4.421-5.027 6.331-9.297 6.331-4.22 0-7.226-1.946-9.441-6.467-.696-1.38-2.155-2.447-3.839-2.447-2.879 0-5.206 2.662-3.852 6.077 3.563 7.538 9.589 11.516 17.132 11.516z" transform="translate(2575 1126)"/><path d="m62.178 15.219c2.971 0 5.9-1.265 9.458-3.649 26.22-17.308 44.006-38.74 44.006-59.891 0-21.351-14.134-35.259-31.151-35.259-10.718 0-18.011 4.752-22.313 11.716-4.282-6.964-11.595-11.716-22.313-11.716-17.017 0-31.13 13.908-31.13 35.259 0 21.152 17.737 42.583 43.985 59.891 3.558 2.384 6.509 3.649 9.459 3.649zm-.022-20.14c-.161 0-.322-.099-.511-.224-20.794-14.861-33.547-30.471-33.547-43.397 0-9.511 5.939-15.958 14.146-15.958 7.018 0 11.208 3.744 14.622 9.463 1.4 2.247 2.864 3.612 5.368 3.612s4.145-1.464 5.488-3.612c3.494-5.719 7.328-9.463 14.424-9.463 8.15 0 14.124 6.447 14.124 15.958 0 12.925-12.752 28.536-33.546 43.397-.225.126-.35.224-.568.224zm15.082-37.156c3.264 0 5.998-2.734 5.998-6.141 0-3.164-2.734-5.898-5.998-5.898-3.407 0-6.084 2.734-6.084 5.898 0 3.407 2.677 6.141 6.084 6.141zm-29.681.572c3.207 0 5.855-2.691 5.855-6.141 0-3.164-2.648-5.898-5.855-5.898-3.407 0-6.141 2.734-6.141 5.898 0 3.45 2.734 6.141 6.141 6.141zm14.882 23.63c7.606 0 13.624-4.005 17.186-11.545 1.29-3.112-.675-6.791-4.314-6.791-1.963 0-3.583 1.046-4.357 2.766-1.927 4.214-4.666 5.97-8.515 5.97-3.807 0-6.559-1.813-8.673-6.127-.774-1.52-2.393-2.709-4.257-2.709-3.153 0-5.76 2.909-4.256 6.721 3.604 7.654 9.68 11.716 17.186 11.716z" transform="translate(2871 1126)"/><path d="m67.527 18.799c1.074 0 2.197-.439 3.125-.976 33.837-20.752 55.664-46.777 55.664-70.117 0-19.824-14.112-35.059-32.715-35.059-10.254 0-20.654 6.006-26.074 16.797-5.322-10.889-15.674-16.797-26.025-16.797-18.604 0-32.715 15.234-32.715 35.059 0 23.34 21.826 49.365 55.615 70.117.928.537 2.1.976 3.125.976zm0-2.539c-.635 0-1.318-.293-1.758-.635-33.106-20.508-54.443-45.508-54.443-67.92 0-18.506 12.939-32.52 30.176-32.52 11.426 0 19.336 6.885 24.463 16.016.684 1.172 1.074 1.611 1.562 1.611.537 0 1.025-.244 1.611-1.514 4.443-9.228 12.842-16.113 24.463-16.113 17.187 0 30.176 14.014 30.176 32.52 0 22.412-21.387 47.412-54.444 67.92-.488.342-1.123.635-1.807.635zm17.773-62.16c2.5 0 4.6-2.1 4.6-4.8 0-2.5-2.1-4.6-4.6-4.6-2.7 0-4.8 2.1-4.8 4.6 0 2.7 2.1 4.8 4.8 4.8zm-36.7.5c2.5 0 4.6-2.1 4.6-4.8 0-2.5-2.1-4.6-4.6-4.6-2.7 0-4.8 2.1-4.8 4.6 0 2.7 2.1 4.8 4.8 4.8zm19.2 30.5c10.9 0 19-5 23.1-14.4.4-1-.3-2.1-1.3-2.1-.6 0-1.2.4-1.4.9-3.7 8.3-10.5 12.5-20.4 12.5-9.8 0-16.4-4.1-20.4-12.5-.2-.5-.7-.9-1.3-.9-1.2 0-1.8 1.1-1.4 2.1 4.5 9.6 12.3 14.4 23.1 14.4z" transform="translate(487 1556)"/><path d="m68.216 19.575c1.264 0 2.58-.524 3.754-1.231 33.849-20.876 55.726-46.998 55.726-70.635 0-20.353-14.386-35.758-33.229-35.758-10.466 0-20.782 5.975-26.252 16.646-5.376-10.761-15.651-16.646-26.207-16.646-18.843 0-33.225 15.404-33.225 35.758 0 23.637 21.872 49.759 55.677 70.635 1.175.707 2.54 1.231 3.754 1.231zm0-4.118c-.604 0-1.253-.278-1.692-.615-32.657-20.404-53.69-45.083-53.69-67.148 0-18.112 12.58-31.712 29.357-31.712 11.279 0 19.031 6.788 24.077 15.757.761 1.303 1.263 1.843 1.953 1.843.734 0 1.338-.368 2.009-1.753 4.42-9.059 12.598-15.847 24.061-15.847 16.732 0 29.354 13.601 29.354 31.712 0 22.064-21.078 46.744-53.691 67.148-.481.338-1.088.615-1.737.615zm17.883-61.294c2.65 0 4.877-2.227 4.877-5.077 0-2.642-2.227-4.869-4.877-4.869-2.85 0-5.077 2.227-5.077 4.869 0 2.85 2.227 5.077 5.077 5.077zm-36.803.524c2.65 0 4.861-2.219 4.861-5.077 0-2.642-2.211-4.869-4.861-4.869-2.85 0-5.077 2.227-5.077 4.869 0 2.858 2.227 5.077 5.077 5.077zm19.192 30.714c10.861 0 18.945-5.047 23.092-14.566.511-1.293-.379-2.646-1.664-2.646-.766 0-1.501.487-1.764 1.137-3.605 8.126-10.152 12.191-19.664 12.191-9.412 0-15.767-3.973-19.672-12.199-.263-.635-.906-1.137-1.664-1.137-1.453 0-2.275 1.337-1.756 2.654 4.524 9.703 12.332 14.566 23.092 14.566z" transform="translate(783 1556)"/><path d="m69.545 21.072c1.628 0 3.317-.688 4.969-1.723 33.871-21.114 55.845-47.422 55.845-71.633 0-21.374-14.915-37.106-34.219-37.106-10.876 0-21.028 5.915-26.595 16.356-5.48-10.515-15.606-16.356-26.557-16.356-19.305 0-34.208 15.732-34.208 37.106 0 24.211 21.962 50.519 55.796 71.633 1.652 1.035 3.389 1.723 4.969 1.723zm0-7.165c-.544 0-1.126-.248-1.566-.578-31.793-20.202-52.238-44.264-52.238-65.658 0-17.352 11.888-30.156 27.778-30.156 10.996 0 18.442 6.602 23.332 15.258.91 1.556 1.628 2.29 2.705 2.29 1.114 0 1.942-.606 2.776-2.215 4.375-8.731 12.129-15.333 23.287-15.333 15.853 0 27.767 12.803 27.767 30.156 0 21.394-20.482 45.455-52.238 65.658-.466.331-1.021.578-1.603.578zm18.095-59.622c2.94 0 5.411-2.471 5.411-5.611 0-2.917-2.471-5.388-5.411-5.388-3.14 0-5.611 2.471-5.611 5.388 0 3.14 2.471 5.611 5.611 5.611zm-37.002.57c2.94 0 5.364-2.448 5.364-5.611 0-2.917-2.424-5.388-5.364-5.388-3.14 0-5.611 2.471-5.611 5.388 0 3.163 2.471 5.611 5.611 5.611zm19.177 31.125c10.784 0 18.838-5.139 23.077-14.886.724-1.857-.532-3.698-2.366-3.698-1.086 0-2.08.655-2.466 1.595-3.422 7.79-9.481 11.597-18.246 11.597-8.665 0-14.547-3.729-18.269-11.62-.385-.894-1.302-1.595-2.365-1.595-1.941 0-3.19 1.795-2.442 3.721 4.569 9.901 12.393 14.886 23.077 14.886z" transform="translate(1079 1556)"/><path d="m70.579 22.237c1.912 0 3.89-.816 5.913-2.105 33.889-21.299 55.938-47.752 55.938-72.409 0-22.167-15.326-38.154-34.99-38.154-11.195 0-21.219 5.869-26.861 16.13-5.562-10.324-15.571-16.13-26.829-16.13-19.664 0-34.972 15.987-34.972 38.154 0 24.657 22.031 51.11 55.889 72.409 2.022 1.29 4.049 2.105 5.913 2.105zm0-9.535c-.498 0-1.028-.225-1.467-.549-31.121-20.046-51.108-43.626-51.108-64.499 0-16.761 11.349-28.945 26.55-28.945 10.776 0 17.985 6.457 22.753 14.87 1.026 1.753 1.912 2.637 3.29 2.637 1.409 0 2.411-.791 3.373-2.574 4.341-8.476 11.764-14.933 22.684-14.933 15.169 0 26.533 12.184 26.533 28.945 0 20.873-20.018 44.453-51.108 64.499-.454.325-.969.549-1.499.549zm18.259-58.322c3.165 0 5.826-2.66 5.826-6.026 0-3.13-2.66-5.791-5.826-5.791-3.366 0-6.026 2.66-6.026 5.791 0 3.366 2.66 6.026 6.026 6.026zm-37.155.605c3.165 0 5.756-2.625 5.756-6.026 0-3.13-2.59-5.791-5.756-5.791-3.366 0-6.026 2.66-6.026 5.791 0 3.401 2.66 6.026 6.026 6.026zm19.164 31.446c10.725 0 18.755-5.21 23.065-15.136.89-2.296-.65-4.517-2.911-4.517-1.336 0-2.531.785-3.011 1.951-3.28 7.529-8.959 11.134-17.142 11.134-8.084 0-13.598-3.54-17.177-11.169-.48-1.095-1.611-1.951-2.911-1.951-2.321 0-3.902 2.151-2.976 4.552 4.605 10.055 12.44 15.136 23.065 15.136z" transform="translate(1374 1556)"/><path d="m71.563 23.346c2.183 0 4.437-.937 6.812-2.469 33.905-21.476 56.026-48.067 56.026-73.148 0-22.923-15.718-39.153-35.724-39.153-11.498 0-21.401 5.825-27.115 15.915-5.639-10.142-15.538-15.915-27.089-15.915-20.006 0-35.701 16.23-35.701 39.153 0 25.082 22.098 51.673 55.977 73.148 2.376 1.532 4.678 2.469 6.812 2.469zm0-11.791c-.454 0-.934-.202-1.373-.522-30.482-19.897-50.032-43.019-50.032-63.396 0-16.198 10.836-27.792 25.38-27.792 10.566 0 17.549 6.319 22.201 14.5 1.136 1.941 2.183 2.969 3.847 2.969 1.691 0 2.858-.968 3.941-2.916 4.308-8.233 11.417-14.553 22.11-14.553 14.518 0 25.358 11.593 25.358 27.792 0 20.376-19.577 43.499-50.032 63.396-.443.319-.92.522-1.399.522zm18.416-57.084c3.38 0 6.221-2.841 6.221-6.421 0-3.334-2.841-6.175-6.221-6.175-3.58 0-6.422 2.841-6.422 6.175 0 3.58 2.841 6.421 6.422 6.421zm-37.302.639c3.38 0 6.129-2.795 6.129-6.422 0-3.334-2.749-6.175-6.129-6.175-3.58 0-6.421 2.841-6.421 6.175 0 3.627 2.841 6.422 6.421 6.422zm19.153 31.75c10.668 0 18.676-5.278 23.054-15.373 1.049-2.714-.763-5.297-3.431-5.297-1.573 0-2.96.91-3.531 2.29-3.144 7.281-8.461 10.693-16.091 10.693-7.53 0-12.694-3.359-16.138-10.74-.571-1.288-1.905-2.29-3.431-2.29-2.683 0-4.58 2.49-3.485 5.343 4.639 10.202 12.485 15.373 23.054 15.373z" transform="translate(1670 1556)"/><path d="m72.4 24.288c2.412 0 4.901-1.04 7.577-2.779 33.92-21.626 56.101-48.334 56.101-73.777 0-23.566-16.051-40.002-36.347-40.002-11.756 0-21.555 5.787-27.33 15.732-5.705-9.987-15.51-15.732-27.309-15.732-20.297 0-36.32 16.436-36.32 40.002 0 25.443 22.154 52.151 56.052 73.777 2.676 1.739 5.213 2.779 7.577 2.779zm0-13.709c-.416 0-.854-.184-1.294-.498-29.937-19.77-49.118-42.504-49.118-62.458 0-15.72 10.399-26.812 24.386-26.812 10.388 0 17.178 6.202 21.732 14.186 1.23 2.1 2.412 3.25 4.321 3.25 1.93 0 3.238-1.118 4.424-3.207 4.279-8.027 11.121-14.229 21.623-14.229 13.965 0 24.358 11.092 24.358 26.812 0 19.954-19.202 42.687-49.118 62.458-.434.315-.877.498-1.315.498zm18.549-56.031c3.563 0 6.558-2.995 6.558-6.758 0-3.507-2.995-6.502-6.558-6.502-3.763 0-6.758 2.995-6.758 6.502 0 3.763 2.995 6.758 6.758 6.758zm-37.427.667c3.563 0 6.446-2.939 6.446-6.758 0-3.507-2.883-6.502-6.446-6.502-3.763 0-6.758 2.995-6.758 6.502 0 3.819 2.995 6.758 6.758 6.758zm19.144 32.01c10.62 0 18.608-5.336 23.044-15.575 1.183-3.069-.859-5.959-3.873-5.959-1.775 0-3.325 1.015-3.973 2.578-3.029 7.069-8.039 10.319-15.198 10.319-7.059 0-11.925-3.205-15.254-10.375-.648-1.451-2.154-2.578-3.873-2.578-2.99 0-5.156 2.778-3.917 6.015 4.668 10.327 12.524 15.575 23.044 15.575z" transform="translate(1967 1556)"/><path d="m73.385 25.397c2.683 0 5.447-1.162 8.476-3.143 33.936-21.803 56.189-48.649 56.189-74.516 0-24.322-16.442-41-37.081-41-12.059 0-21.737 5.743-27.584 15.517-5.782-9.805-15.477-15.517-27.568-15.517-20.639 0-37.048 16.679-37.048 41 0 25.868 22.22 52.714 56.141 74.516 3.029 1.982 5.842 3.143 8.476 3.143zm0-15.965c-.372 0-.76-.162-1.2-.471-29.297-19.622-48.042-41.897-48.042-61.354 0-15.157 9.886-25.658 23.216-25.658 10.178 0 16.743 6.064 21.18 13.816 1.34 2.288 2.683 3.581 4.878 3.581 2.211 0 3.684-1.295 4.993-3.549 4.246-7.784 10.774-13.848 21.049-13.848 13.314 0 23.183 10.501 23.183 25.658 0 19.458-18.76 41.733-48.042 61.354-.423.309-.828.471-1.216.471zm18.705-54.794c3.777 0 6.953-3.176 6.953-7.153 0-3.71-3.176-6.886-6.953-6.886-3.977 0-7.153 3.176-7.153 6.886 0 3.977 3.176 7.153 7.153 7.153zm-37.574.701c3.777 0 6.819-3.108 6.819-7.153 0-3.71-3.041-6.886-6.819-6.886-3.977 0-7.153 3.176-7.153 6.886 0 4.045 3.176 7.153 7.153 7.153zm19.133 32.316c10.564 0 18.529-5.403 23.033-15.812 1.341-3.488-.972-6.739-4.393-6.739-2.012 0-3.755 1.139-4.493 2.917-2.893 6.821-7.542 9.878-14.147 9.878-6.506 0-11.022-3.024-14.215-9.945-.738-1.643-2.448-2.917-4.393-2.917-3.351 0-5.834 3.117-4.425 6.806 4.702 10.474 12.569 15.812 23.033 15.812z" transform="translate(2262 1556)"/><path d="m74.911 27.116c3.102 0 6.294-1.35 9.87-3.708 33.962-22.076 56.326-49.136 56.326-75.662 0-25.493-17.049-42.548-38.218-42.548-12.53 0-22.02 5.675-27.978 15.183-5.902-9.523-15.426-15.183-27.97-15.183-21.169 0-38.177 17.055-38.177 42.548 0 26.526 22.323 53.586 56.277 75.662 3.576 2.358 6.817 3.708 9.87 3.708zm0-19.463c-.304 0-.615-.128-1.054-.428-28.305-19.391-46.374-40.956-46.374-59.644 0-14.285 9.091-23.871 21.403-23.871 9.853 0 16.067 5.85 20.325 13.243 1.511 2.579 3.102 4.094 5.742 4.094 2.647 0 4.377-1.568 5.873-4.079 4.195-7.408 10.235-13.258 20.159-13.258 12.305 0 21.362 9.586 21.362 23.871 0 18.688-18.076 40.253-46.374 59.644-.405.3-.751.428-1.062.428zm18.948-52.875c4.11 0 7.566-3.456 7.566-7.766 0-4.026-3.456-7.481-7.566-7.481-4.31 0-7.766 3.456-7.766 7.481 0 4.31 3.456 7.766 7.766 7.766zm-37.801.754c4.11 0 7.397-3.371 7.397-7.766 0-4.025-3.286-7.481-7.397-7.481-4.31 0-7.766 3.456-7.766 7.481 0 4.395 3.456 7.766 7.766 7.766zm19.115 32.788c10.476 0 18.407-5.508 23.015-16.18 1.586-4.136-1.147-7.948-5.198-7.948-2.38 0-4.42 1.332-5.298 3.442-2.683 6.436-6.771 9.195-12.519 9.195-5.647 0-9.62-2.744-12.603-9.28-.878-1.941-2.903-3.442-5.198-3.442-3.912 0-6.885 3.642-5.214 8.032 4.754 10.702 12.639 16.18 23.015 16.18z" transform="translate(2558 1556)"/><path d="m76.24 28.613c3.467 0 7.031-1.514 11.084-4.199 33.984-22.315 56.445-49.561 56.445-76.66 0-26.514-17.578-43.897-39.209-43.897-12.939 0-22.265 5.615-28.32 14.893-6.006-9.277-15.381-14.893-28.32-14.893-21.631 0-39.16 17.383-39.16 43.897 0 27.1 22.412 54.346 56.397 76.66 4.053 2.685 7.666 4.199 11.084 4.199zm0-22.51c-.244 0-.488-.098-.928-.391-27.441-19.19-44.922-40.137-44.922-58.154 0-13.525 8.398-22.315 19.824-22.315 9.57 0 15.479 5.664 19.58 12.744 1.66 2.832 3.467 4.541 6.494 4.541s4.98-1.807 6.641-4.541c4.15-7.08 9.766-12.744 19.385-12.744 11.426 0 19.775 8.789 19.775 22.315 0 18.018-17.48 38.965-44.921 58.154-.391.293-.684.391-.928.391zm19.16-51.203c4.4 0 8.1-3.7 8.1-8.3 0-4.3-3.7-8-8.1-8-4.6 0-8.3 3.7-8.3 8 0 4.6 3.7 8.3 8.3 8.3zm-38 .8c4.4 0 7.9-3.6 7.9-8.3 0-4.3-3.5-8-7.9-8-4.6 0-8.3 3.7-8.3 8 0 4.7 3.7 8.3 8.3 8.3zm19.1 33.2c10.4 0 18.3-5.6 23-16.5 1.8-4.7-1.3-9-5.9-9-2.7 0-5 1.5-6 3.9-2.5 6.1-6.1 8.6-11.1 8.6-4.9 0-8.4-2.5-11.2-8.7-1-2.2-3.3-3.9-5.9-3.9-4.4 0-7.8 4.1-5.9 9.1 4.8 10.9 12.7 16.5 23 16.5z" transform="translate(2854 1556)"/></svg>