<?xml version="1.0" encoding="utf-8"?>
<svg version="1.1" id="Ebene_1" xmlns="http://www.w3.org/2000/svg" xmlns:xlink="http://www.w3.org/1999/xlink" x="0px" y="0px"
 viewBox="0 0 500 500">
<polygon fill="#1D1D1B" points="500,500 250,458.012 0,500 0,0 500,0 "/>
<g>
<path fill="#FFFFFF" d="M404.894,275.145c-0.295,0-1.179-0.886-2.656-0.886c-2.068,0-4.133,0.295-7.087,3.244
	c-2.656,13.288-10.035,24.507-10.035,33.659c0,1.772,1.179,3.539,1.179,4.721c0,1.477-0.883,1.772-1.179,1.772
	c-0.591,0-0.886-0.295-2.363-0.295c-2.951,0-18.008,3.84-24.209,3.84c-3.837,0-6.201-1.477-6.201-3.84
	c0-2.659,2.363-8.266,4.726-10.924c3.542-3.539,10.035-3.539,11.808-5.312c0.886-0.886,1.477-10.333,1.477-15.06
	c0-6.198-3.545-7.084-6.496-7.084c-10.924,0-22.437,3.545-30.998,3.545c-3.249,0-7.382-7.084-9.447-11.22
	c-0.886-1.772-1.477-2.363-2.363-2.363c-3.542,0-12.398,7.379-12.398,16.242c0,4.13,5.61,9.447,8.856,14.168
	c0.886,0.886,1.477,2.659,1.477,4.431c0,0.886,0,1.767-0.886,1.767s-0.886-0.881-3.545-0.881c-0.293,0-3.542,0.881-7.379,2.653
	c-10.924,5.613-15.943,6.789-23.323,10.924c-3.247,2.068-21.846,2.363-21.846,2.363c-1.772,0-5.314-1.182-5.314-4.136
	c0-7.379,5.314-14.463,10.921-14.463c8.859,0,18.307-1.182,23.914-5.022c0.886-0.591,1.477-1.477,1.477-2.358
	c0-3.84-6.201-6.794-7.675-9.447c-2.363-4.431-3.837-17.423-3.837-21.849c0-9.447,11.512-12.992,11.512-18.304
	c0-1.182-2.656-1.182-5.019-1.182c-1.182,0-5.019,0.295-6.493,0.886c-16.83,8.561-35.133,25.092-38.971,26.865
	c-5.314,2.659-18.008,7.084-19.485,7.084c-0.591,0-1.772,0-1.772-1.182c0-1.182,0.295-1.471,0.295-3.244
	c0-2.659-3.837-4.431-8.561-4.431c0,2.363,1.182,7.675,1.182,11.811c0,2.068-0.886,6.198-1.772,6.198
	c-5.61,0-14.762,5.317-22.141,9.152c-11.22,5.613-16.83,12.106-26.572,19.485c-4.133,2.954-16.827,2.954-21.55,2.954
	c-4.428,0-8.266-5.607-8.266-9.447c0-3.545,2.656-10.038,6.493-10.038c4.724,0,6.201,0.886,8.564,0.886
	c0.883,0,10.626-1.477,10.921-1.772c7.973-8.266,17.42-11.22,25.095-18.304c0.591-0.295,0.886-1.182,0.886-2.068
	c0-2.363-4.724-11.22-6.791-11.22c-2.656,0-9.152,5.908-17.417,5.908c-0.295,0-1.772,0-3.837-1.182
	c-10.333-4.726-20.372-10.038-31.887-11.515c-2.065,0-4.724,1.477-5.016,4.136c-0.886,2.653-1.772,10.629-1.772,15.054
	c0,0-5.019,0.886-8.856,0.886c-6.791,0-10.333-3.84-10.333-9.152c0-7.379,2.951-15.94,7.379-20.372
	c2.068-1.772,3.84-6.493,6.496-6.493c18.008,0,29.819,2.659,43.103,3.835c2.951,0,7.379-2.653,7.379-6.493
	c0-2.068-0.591-2.659-0.886-2.659c-1.179,0-2.065,0.886-3.837,0.886c-9.743,0-17.122-15.94-20.96-15.94
	c-5.61,0-17.713,3.84-22.439,3.84c-2.065,0-7.675-7.681-7.675-12.697c0-2.659,15.648-9.743,16.239-14.765
	c0-0.881,0-6.493,0.295-7.675c1.77-2.062,9.152-6.493,10.921-9.152c0.591-0.591,0.886-1.477,0.886-3.539l-0.295-16.832
	c0-0.881,0.295-1.471,1.182-1.471s2.068,1.471,2.951,2.653c1.772,2.659,4.428,8.561,7.087,9.152
	c3.837-4.721,4.428-17.417,6.493-23.025c0.295-1.182,0.886-2.068,1.772-2.068s1.182,0.295,1.182,0.295
	c2.36,17.417,22.141,46.055,32.77,46.055c4.133,0,6.496-4.13,7.675-4.13c5.314,0,17.42,4.13,24.8,9.447
	c4.724,3.244,11.811,6.198,16.239,6.198c13.875,0,47.236-11.515,69.082-11.515c7.675,0,27.751,6.493,34.247,11.811
	c3.837,0,7.379-2.068,9.447-6.204c1.474-2.653,1.474-5.902,2.36-5.902c0.886,0,2.068,1.772,3.249,1.772
	c0.883,0,1.474-2.363,1.474-4.136c0-2.062-0.886-3.539-0.886-4.425c0-1.477,4.133,0,4.133-2.363c0-3.249-4.721-9.152-10.331-9.152
	c-18.599,0-49.6,12.401-71.15,12.401c-24.8,0-49.304-13.583-53.142-38.084c-0.295-2.659-1.182-3.545-1.182-4.726
	c0-1.477,0.295-4.13,2.068-5.607c0.591-0.591,1.77-0.591,2.065-0.591c2.954,0,7.678,7.084,17.125,7.084
	c2.065,0,2.656,0,4.724-0.886c-0.295-0.886-0.886-2.358-0.886-3.539c0-2.068,0.886-5.317,2.656-5.317
	c2.068,0,3.84,3.545,11.811,3.545c5.61,0,7.675-0.295,7.675-1.182s-1.77-1.477-1.77-3.545c0-0.295,0.591-0.886,1.474-0.886
	c9.447-0.881,21.258-1.176,33.065-1.176c22.144,0,46.35,3.244,62.884,12.986c6.496,3.545,16.534,19.19,16.534,36.312
	c0,8.561-11.81,28.933-35.429,35.727c4.724,17.122,2.951,32.176,7.087,36.607c2.36,2.062,7.675,3.835,12.694,3.835
	c5.61,0,7.97-1.772,9.152-1.772c0.886,0,0.886,2.659,2.951,2.659c2.659,0,6.201-3.835,7.973-3.835c2.065,0,2.065,0.295,2.065,3.244
	c0,0.591,0.591,0.591,0.886,0.591c1.477,0,3.837-0.886,5.61-0.886c0.886,0,2.951,1.182,2.951,1.772
	c0,0.886-3.247,2.954-3.247,6.198c2.656,0,7.675,1.182,7.675,5.908C405.78,274.554,405.485,275.145,404.894,275.145z
	 M137.715,194.84c-0.295,0-0.886,0-2.659,0.886c-2.065,1.182-5.607,4.136-5.607,7.084c0,0.591,0,0.886,2.36,0.886
	c2.954,0,4.133-0.295,5.905-0.295c2.068,0,3.542,0,3.542-2.068C141.257,198.68,139.487,194.84,137.715,194.84z M264.662,149.672
	c-5.019,0.886-11.22,1.772-17.713,1.772c-6.791,0-9.152-1.477-11.515-1.477c-0.886,0-2.065,0-2.065,0.886
	c0,3.835,10.038,20.372,19.19,20.372c2.951,0,3.247-2.068,5.902-4.726C258.461,160.3,259.643,153.801,264.662,149.672z"/>
</g>
</svg>
