<?xml version="1.0" encoding="utf-8"?>
<svg version="1.1" id="레이어_1" xmlns="http://www.w3.org/2000/svg" xmlns:xlink="http://www.w3.org/1999/xlink" x="0px" y="0px" viewBox="0 -100 325 325">
<style type="text/css">
	.st0{opacity:0.39;fill:#D2D2D2;}
	.st1{fill:#B24D41;}
	.st2{fill:#FFB9B0;}
	.st3{opacity:0.23;}
	.st4{fill:#FF5950;}
	.st5{opacity:0.44;}
	.st6{fill:#FFFFFF;}
	.st7{opacity:0.15;}
	.st8{fill:#3D3834;}
	.st9{fill:#FFCAC3;}
	.st10{fill:#3D3935;}
</style>
<title>대지 4</title>
<rect x="0" y="-100" class="st6" width="325" height="325"/>
<ellipse class="st0" cx="272.3" cy="93.1" rx="19.5" ry="4.3"/>
<path class="st1" d="M216.5,41.3L216.5,41.3L216.5,41.3z M205.4,32.2l0.2,0.2c1.1,1.1,6.2,5.6,9.1,6.8c0.5,0.2,1.3,0.5,1.9,0.7l0.5-0.3c0.3-0.2,0.4-0.4,0.4-0.8c0-0.6-0.4-1.5-1.6-2.2c-4-2.3-8.3-10.8-8.8-11.8c-0.3-0.7-0.9-1.2-1.5-1.5c-1.5-0.6-3.6,0.6-4.1,1.7c-0.4,0.9-0.3,2,0.2,2.9l0,0.1C202.4,29,203.7,30.5,205.4,32.2L205.4,32.2z"/>
<path class="st2" d="M217.3,40.1c0.4,1.4-1.2,1.2-3.1,0.5c-3.2-1.2-8.5-6-9.6-7.1c0,0,0,0-0.1-0.1c-0.1-0.1-0.2-0.2-0.2-0.2v0c-1.2-1.1-3-3-3.9-4.6c-0.8-1.3-1-2.9-0.3-4.4c0.8-1.7,3.7-3.4,6.1-2.4c1,0.5,1.8,1.2,2.3,2.2l0,0c0,0,4.5,9,8.2,11.2C219.3,36.8,219,39,217.3,40.1z"/>
<path class="st1" d="M214.4,79.1C214.4,79.1,214.4,79.1,214.4,79.1c0,0.1-0.1,0.1-0.1,0.1c-0.3,0.8-0.2,2,2.4,3.4c1.6,0.8,3.6,1.1,4.2-0.2c0-0.1,1-2,2.3-4.2c0.4-0.8,0.9-1.5,1.3-2.1c0,0,0,0,0,0c0.1-0.2,0.3-0.4,0.4-0.6l0.1-0.1c0.1-0.2,0.3-0.4,0.4-0.6l0.1-0.1c0.1-0.2,0.3-0.4,0.4-0.6l0.1-0.1c0.1-0.2,0.3-0.4,0.4-0.5c0,0,0,0,0-0.1c0.1-0.2,0.3-0.4,0.4-0.5c0.1-0.1,0.1-0.2,0.2-0.2c0.1-0.2,0.1-0.3,0.1-0.4c0,0,0,0,0,0c0-0.2-0.2-0.5-0.5-0.9c-0.2-0.2-0.5-0.5-0.8-0.7c-0.1-0.1-0.2-0.1-0.2-0.2c-0.2-0.2-0.4-0.3-0.5-0.3l-1.7-0.8l0,0c0,0,0,0,0,0c-0.2,0.2-0.5,0.5-0.8,0.8l-1.1,1.1C217.6,75,215.1,77.8,214.4,79.1C214.4,79.1,214.4,79.1,214.4,79.1z M214.4,79L214.4,79L214.4,79z M214.4,79L214.4,79L214.4,79z"/>
<path class="st2" d="M225.8,68.8l-2.7-1.3c0,0-8.4,8-10,10.9c0,0,0,0,0,0c0,0,0,0,0,0.1c0,0.1-0.1,0.2-0.1,0.2c-0.9,2.2,0.6,4,3.1,5.3c2.5,1.3,5.2,1.2,6.3-0.9c0,0,3.3-6.7,5.6-9.2C230.2,71.4,225.8,68.8,225.8,68.8z"/>
<g class="st3">
	<path class="st1" d="M225.9,76.6c0.8-1.3,1.3-2,2-2.7c2.3-2.5-2.1-5.1-2.1-5.1l-2.7-1.3c0,0-1,0.9-2.9,2.8C221.4,73.1,223.4,75.2,225.9,76.6z"/>
</g>
<path class="st1" d="M260.4,77.1c-0.9,0.2-2.3,0.8-2.6,1.4c-0.1,0.1-0.1,0.2,0,0.4c0,0.1,0,0.2,0.1,0.3c0.1,0.3,0.3,0.6,0.4,1l0.1,0.2c0.1,0.3,0.2,0.6,0.3,0.9l0.1,0.3c0.1,0.3,0.2,0.6,0.3,1l0,0.2c0.1,0.3,0.1,0.6,0.2,0.8c0.7,3.2,1.1,6.4,1.1,6.5c0.2,1.4,2.2,1.8,4.1,1.5c1.7-0.3,3.7-0.9,3.5-2.6l-0.1-0.2c-0.3-1.9-1.9-5.6-4.4-10.3l-0.8-1.4l0.5-0.3l-0.1,0l-0.5,0.3c0-0.1-0.1-0.1-0.1-0.2L260.4,77.1z M267.8,89L267.8,89L267.8,89z M263.4,76.5L263.4,76.5l0.5-0.3L263.4,76.5z M263.3,75.4L263.3,75.4L263.3,75.4L263.3,75.4z M263.2,75.3L263.2,75.3L263.2,75.3L263.2,75.3z"/>
<path class="st2" d="M269.2,88.5c-0.7-4.1-6-13.3-6-13.3l-3.1,0.4c0,0-5.1,1-3.7,4.1c1.4,3.1,2.4,10.6,2.4,10.6c0.3,2.3,2.9,3.3,5.8,2.8c2.9-0.4,5.1-1.8,4.7-4.4C269.3,88.7,269.2,88.6,269.2,88.5z"/>
<g class="st3">
	<path class="st1" d="M265.7,79.7c-1.4-2.9-2.4-4.5-2.4-4.5l-3.1,0.4c0,0-5.1,1-3.7,4.1c0.5,1.1,0.7,1.7,1,3.4C260.5,82.6,263.2,81.9,265.7,79.7z"/>
</g>
<path class="st1" d="M249.3,8.6c-8.9,0-16.9,3.1-23.7,9.1c-7.4,6.6-11.4,14.9-11.9,24.7c-0.5,9.8,2.6,18.5,9.2,25.7c6.6,7.2,15,11.2,24.7,11.7c8.9,0.5,16.9-2,23.8-7.3c0.8-0.6,1.4-1.1,2-1.6c7.4-6.5,11.4-14.8,11.9-24.6v0c0.2-3.3-0.1-6.4-0.7-9.5c-1.3-6-4.1-11.5-8.5-16.3c-6.6-7.3-15-11.3-24.7-11.8C250.7,8.6,250,8.6,249.3,8.6z"/>
<path class="st4" d="M286.9,46.3c0.2-3.4-0.1-6.7-0.7-9.9c-1.3-6.3-4.2-12-8.8-17c-6.9-7.6-15.6-11.8-25.8-12.3c-10.2-0.6-19.3,2.6-26.9,9.5c-7.7,6.9-11.9,15.5-12.4,25.7c-0.6,10.2,2.7,19.3,9.6,26.8c6.9,7.6,15.6,11.7,25.8,12.2c9.3,0.5,17.6-2.1,24.8-7.7c0.7-0.5,1.4-1.1,2.1-1.7C282.2,65.2,286.3,56.6,286.9,46.3z"/>
<g class="st5">
	<path class="st1" d="M283.9,59.3c0.7-1.6,1.6-4,2-5.8c-2.5-1.1-3.7-0.6-5.7-2.6C281,54.4,281.8,56.7,283.9,59.3z"/>
</g>
<path class="st1" d="M296.1,41.5c-1.9,1.3-9.1,6-13.9,7.8c-0.2,0.1-0.5,0.4-0.6,0.7c-0.1,0.4,0,0.7,0.3,1.2c1.1,1.4,3.1,1,3.7,0.9l5.6-1.3c1.1-0.3,2.3-0.6,3.3-1c1.3-0.5,3.3-1.3,4.9-2.1l0,0c2.1-1,3-2.4,3-3.4c0-1.5-1.6-3.8-3.6-3.9c-0.9,0-1.7,0.2-2.4,0.8L296.1,41.5L296.1,41.5z"/>
<path class="st2" d="M300.1,49.1c-1.6,0.9-3.6,1.6-5,2.2c-1.2,0.4-2.3,0.8-3.5,1l-5.6,1.3c-1.9,0.4-4,0.1-5.2-1.4c-1.5-1.9-0.3-3.8,0.9-4.3c5.3-2.1,14-7.9,14-7.9l0,0c0.9-0.7,2.1-1.1,3.4-1.1c2.9,0.1,5,3.2,5,5.4C304,46,302.7,47.9,300.1,49.1z"/>
<path class="st6" d="M270,45.8c0.4-17.8-4.5-25.3-8.7-28.5c-2.7-2-5.8-2.4-6.6-2.4c-14.5-0.9-22.9,21-22.9,21c-3.7,9.1-5.1,15.3-5.2,19.7C226.2,70.2,239.6,73,239.6,73S269.2,80.8,270,45.8z"/>
<path class="st1" d="M253.9,16.3c-12.8,0-20.5,19.9-20.6,20.1c-3.2,8.1-5,14.5-5.1,19.2c-0.4,13.2,11.2,15.8,11.7,16l0.1,0c0.1,0,11.4,2.9,19.6-3.3c5.6-4.3,8.6-11.8,8.9-22.5v0c0.4-17.2-4.2-24.3-8.1-27.3c-2.4-1.8-5.2-2.1-5.8-2.1C254.4,16.3,254.1,16.3,253.9,16.3z M270,45.8L270,45.8L270,45.8z"/>
<path class="st6" d="M270,45.8c0.4-17.8-4.5-25.3-8.7-28.5c-2.7-2-5.8-2.4-6.6-2.4c-14.5-0.9-22.9,21-22.9,21c-3.7,9.1-5.1,15.3-5.2,19.7C226.2,70.2,239.6,73,239.6,73S269.2,80.8,270,45.8z"/>
<g class="st7">
	<path class="st8" d="M270,45.8c0.3-11.4-1.7-18.6-4.2-23.2c2.1,4.6,3.5,11.4,3.3,21.4c-0.8,35-30.4,27.2-30.4,27.2s-7-1.5-10.7-7.8c3.3,7.8,11.6,9.6,11.6,9.6S269.2,80.8,270,45.8z"/>
</g>
<circle class="st1" cx="241.3" cy="37.5" r="2.6"/>
<path class="st1" d="M245.3,30.4c-0.2,0-0.5-0.1-0.6-0.3c-1.2-1.7-3-0.7-3.1-0.7c-0.4,0.2-0.8,0.1-1-0.3c-0.2-0.4-0.1-0.8,0.3-1c1.1-0.6,3.5-1.1,5.1,1.2c0.2,0.3,0.2,0.8-0.2,1.1C245.6,30.4,245.5,30.4,245.3,30.4z"/>
<ellipse transform="matrix(0.2275 -0.9738 0.9738 0.2275 139.994 265.1795)" class="st9" cx="237.1" cy="44.4" rx="1.4" ry="3.8"/>
<path class="st1" d="M262,34.3c-0.2,0-0.5-0.1-0.6-0.3c-0.1-0.2-1.3-1.7-3.1-0.7c-0.4,0.2-0.8,0.1-1-0.3c-0.2-0.4-0.1-0.8,0.3-1c2.4-1.3,4.4,0.2,5,1.2c0.2,0.3,0.2,0.8-0.2,1.1C262.3,34.2,262.2,34.3,262,34.3z"/>
<ellipse transform="matrix(0.2275 -0.9738 0.9738 0.2275 151.891 290.1091)" class="st9" cx="258.8" cy="49.3" rx="1.4" ry="3.8"/>
<path class="st1" d="M261.6,42.3c-0.2,0-0.3,0-0.5-0.1c-2.6-1.9-4.6-0.3-4.7-0.3c-0.3,0.3-0.8,0.2-1.1-0.1c-0.3-0.3-0.2-0.8,0.1-1.1c1-0.8,3.7-1.9,6.5,0.2c0.3,0.2,0.4,0.7,0.2,1.1C262,42.2,261.8,42.3,261.6,42.3z"/>
<path class="st1" d="M247.1,54.1c-0.4,0-0.8,0-1.2-0.1c-1.6-0.4-3-1.6-3.8-3.3c-0.2-0.4,0-0.8,0.3-1c0.4-0.2,0.8,0,1,0.3c0.6,1.3,1.6,2.2,2.8,2.5c1.2,0.3,2.5,0,3.6-0.9c0.3-0.2,0.8-0.2,1.1,0.2c0.3,0.3,0.2,0.8-0.2,1.1C249.6,53.7,248.3,54.1,247.1,54.1z"/>
<path class="st10" d="M24.4,71.6v-6.1l3.5-0.8c1.1,2.8,3.1,4.6,6.8,4.6c3.5,0,4.8-1.2,4.8-3.1c0-2.3-1.9-2.8-5.2-3.2c-4.7-0.7-10-1.8-10-7.6c0-5.2,4.2-8.3,10.5-8.3c4.4,0,7.7,1.3,9.5,2.4v4.7l-3.6,1c-1.2-1.7-2.7-3.5-6-3.5c-2.7,0-4.1,1-4.1,2.7c0,1.9,1.4,2.6,4.6,3c4.6,0.7,10.3,1.4,10.3,7.6c0,5.7-4.3,8.8-11,8.8C29.7,73.8,26.5,72.8,24.4,71.6z"/>
<path class="st10" d="M65.5,70.5c-1.9,2.2-4.6,3.3-7.7,3.3c-4.3,0-8.3-2.3-8.3-7.5c0-6.4,6.5-7.9,11.3-7.9c2,0,3.3,0.2,4.2,0.4V56c0-2.9-2-4.2-4.5-4.2c-2.9,0-4.7,1.8-5.9,3.5l-3.5-1v-4.9c2.1-0.9,5.7-2.1,10.1-2.1c5.8,0,10.1,2,10.1,8.8v13.1l3.2,0.2v3.5c-1.1,0.5-2.9,0.9-4.4,0.9C67.3,73.7,66.2,72.5,65.5,70.5z M65.1,67.2v-4.4c-0.8-0.1-2.5-0.3-3.8-0.3c-2.5,0-5.3,0.8-5.3,3.7c0,2.1,1.7,3,3.8,3C61.7,69.1,63.4,68.4,65.1,67.2z"/>
<path class="st10" d="M107.1,69.4v3.8H94.6v-3.8l3.2-0.3V57.5c0-3.8-1.9-4.8-4.5-4.8c-2.5,0-4.7,0.9-5.9,1.8V69l3.1,0.3v3.8H77.9v-3.8l3.2-0.3V52.5l-3.5-0.4v-3.5l6.3-0.8h2.8l0.2,2.8c1.9-1.9,4.6-3.5,8.7-3.5c5.1,0,8.3,3,8.3,8.5V69L107.1,69.4z"/>
<path class="st10" d="M109.9,60.9c0-9.1,5.2-13.6,11.8-13.6c2.7,0,4.6,0.6,6,1.7V41l-4.2-0.3V37l6.2-0.7h4.3v32.7l3.1,0.3v3.8h-7.8l-1-2.8c-1.4,1.6-3.8,3.5-7.4,3.5C115.3,73.8,109.9,70.4,109.9,60.9z M127.8,66.6v-13c-1.2-0.7-3.4-1.1-4.9-1.1c-3.7,0-6.5,2.4-6.5,7.8c0,6.1,3.1,8.2,6.5,8.2C124.6,68.5,126.7,67.7,127.8,66.6z"/>
<path class="st10" d="M140,60.9c0-7.7,4.2-13.6,13-13.6c8.9,0,12.4,5.9,12.4,13.2c0,7.4-4.2,13.3-13,13.3C143.5,73.8,140,68.3,140,60.9z M159,60.5c0-4.8-1.5-8.1-6-8.1c-4.3,0-6.6,3.3-6.5,8.1c0,4.8,1.9,8.3,6.3,8.3C157,68.8,159,65.4,159,60.5z"/>
<path class="st10" d="M181.8,69.4v3.8h-14.2v-3.8l4.2-0.3V41l-4.2-0.3V37l6-0.7h4.4V69L181.8,69.4z"/>
<path class="st10" d="M198.2,69.4v3.8h-14.2v-3.8l4.2-0.3V41l-4.2-0.3V37l6-0.7h4.4V69L198.2,69.4z"/>
</svg>
