<svg xmlns="http://www.w3.org/2000/svg" viewBox="0 0 500 500">
<rect width="500" height="500" fill="#EF203B" />
<path d="M277,254C277,267 285,272 292,272C302,272 310,261 317,248L317,248C316,254 315,261 314,267L324,272C329,250 341,225 347,225C348,225 349,226 349,229C349,234 342,243 336,245C336,263 338,271 345,271C349,271 354,266 359,258C359,268 366,272 373,272C380,272 389,267 397,258L397,260C397,266 399,270 403,270C410,270 415,260 427,240L428,240C425,250 423,259 422,266C396,280 390,285 390,293C390,302 399,305 406,305C420,305 425,292 431,266L440,261C441,269 447,272 454,272C465,272 472,264 472,254C472,242 459,240 459,229C459,224 462,223 465,223C467,223 468,224 468,225C468,227 467,228 467,231C467,235 470,238 474,239C475,235 477,232 477,228C477,223 473,219 464,219C456,219 449,224 449,233C449,245 461,247 461,258C461,264 457,267 454,267C450,267 447,265 447,261C447,259 448,258 448,258C452,256 453,254 453,252C453,250 452,248 451,247C445,247 441,251 440,257L433,261C435,251 438,239 442,226C443,220 438,219 434,219L408,262L408,261C413,242 418,229 418,225C418,220 414,219 408,219C406,229 401,239 398,249C389,261 380,266 375,266C373,266 371,264 371,260C371,255 372,250 373,246C374,249 377,251 381,251C388,251 396,242 396,231C396,225 392,219 382,219C372,219 363,234 360,248C356,256 352,261 350,261C347,261 346,251 346,243C349,242 359,236 359,227C359,221 355,219 350,219C341,219 334,230 329,243L329,243C331,232 333,222 335,214C354,213 363,202 363,193C363,184 355,179 347,179C340,179 334,186 327,209C309,206 294,195 289,182C285,183 282,186 282,191C282,206 305,213 325,214L323,224C313,251 300,266 294,266C289,266 289,262 289,257C289,243 298,225 306,225C307,225 307,226 307,226C307,228 299,235 298,241C296,246 299,248 304,250C310,239 314,231 314,228C314,224 309,218 302,218C298,218 291,223 285,232C281,236 277,240 274,242C275,240 275,238 275,236C275,225 268,218 260,218C251,218 246,225 246,234C246,235 246,236 247,236C240,240 235,247 235,258C235,270 244,272 251,272C263,272 271,260 273,247C275,246 277,245 279,243C278,247 277,251 277,254L277,254 Z M124,209C114,209 102,208 91,205C83,261 71,272 53,272C43,272 35,266 35,257C35,249 39,244 43,241L43,241C36,238 26,232 26,218C26,205 36,192 57,192C73,192 96,197 113,197C128,197 141,193 146,184C147,184 149,187 149,192C149,203 138,209 124,209L124,209 Z M207,259C204,261 201,264 198,267C197,268 197,268 196,268C192,268 190,266 190,260C190,255 192,250 193,245C195,248 198,251 202,251C210,251 217,241 217,230C217,224 214,218 203,218C190,218 178,242 178,258C178,268 185,272 194,272C194,272 195,271 195,271C191,277 188,283 188,290C188,300 195,303 200,303C209,303 222,297 233,245L236,228C238,220 234,219 227,219L222,242C212,286 204,297 198,297C197,297 195,296 195,291C195,285 198,276 203,270C208,268 213,266 213,262C213,259 209,259 207,259L207,259 Z M100,218C97,231 89,249 89,261C89,267 92,272 96,272C103,272 107,262 119,241L120,242C117,255 114,266 111,274C91,276 77,285 77,293C77,301 85,304 93,304C116,304 120,278 134,225C136,219 131,218 127,218L101,262L100,262C106,242 110,227 110,223C110,219 106,218 100,218L100,218 Z M50,199C39,199 34,206 34,213C34,225 40,233 50,237C53,235 58,234 62,234C62,235 63,236 63,239C63,242 61,244 57,244C54,244 51,243 49,243C45,246 43,251 43,257C43,265 48,267 52,267C66,267 73,245 79,203C68,201 58,199 50,199L50,199 Z M152,262C150,262 149,261 149,261L148,261C148,261 148,262 148,264C148,267 150,270 154,270C169,270 179,241 179,231C179,226 178,218 170,218C165,218 160,222 147,249L146,249C147,243 150,235 152,228C154,219 150,217 144,217C136,248 129,272 125,298L136,304C137,294 139,283 141,272C157,238 164,226 167,226C168,226 168,227 168,228C168,236 158,262 152,262L152,262 Z M403,299C399,299 398,296 398,293C398,287 405,280 420,271C414,292 410,299 403,299L403,299 Z M90,297C87,297 83,297 83,293C83,287 96,281 109,278C104,292 98,297 90,297L90,297 Z M351,183C353,183 355,186 355,190C355,198 349,209 336,209C342,192 347,183 351,183L351,183 Z M261,250C258,259 253,266 249,266C246,266 244,263 244,259C244,254 246,248 249,243C252,247 256,249 261,250L261,250 Z M233,191C233,199 230,208 230,208L233,211C237,209 246,202 246,198C246,193 239,191 233,191L233,191 Z M262,234C260,233 257,233 253,233L253,233C253,228 255,224 258,224C262,224 264,227 264,234C264,238 263,242 262,246C258,246 255,243 254,239C256,237 259,236 262,235L262,234 Z M208,223C209,223 210,225 210,227C210,233 202,244 198,244C196,244 195,243 195,242C199,232 206,223 208,223L208,223 Z M386,224C387,224 388,225 388,228C388,233 382,245 377,245C375,245 374,244 374,243C378,232 385,224 386,224 Z" fill="#FFFFFF"></path>
</svg>