<svg id="Layer_1" data-name="Layer 1" xmlns="http://www.w3.org/2000/svg" viewBox="0 0 500 500"><defs><style>.cls-1{fill:#0000c8;}</style></defs><rect x="0" y="0" width="500" height="500" fill="#ffffff"/><path class="cls-1" d="M147.28,297l1,1.89L133.6,322.76c-8.63,4.86-19.25,7.38-30.59,7.38-27.72,0-48.24-15.84-48.24-37.08,0-17.73,6.39-29.7,38.16-60.3-1.44-1.89-2.79-3.51-4.14-5.12C80,233.75,70.25,237.8,61.88,237.8c-11.7,0-19.8-6.66-19.8-16.1,0-8.46,8.55-16.11,18.09-16.11,8.73,0,17.73,5.13,29,17.55a47.66,47.66,0,0,0,4-3.06c-7-8.55-11.79-18.45-11.79-27.36,0-10.62,7.2-19.08,16.11-19.08,9.18,0,16.11,7.74,16.11,18,0,9.36-6.66,20.07-15.93,28.8a42.69,42.69,0,0,0,4,4.13c12.42-11.06,21-16,29-16a16.27,16.27,0,0,1,16.38,16.1c0,9.45-7.56,16.11-18.45,16.11-8.72,0-18.62-4.86-27.08-12.15-1.35,1.35-2.79,2.79-4.23,4.32,8.19,10.62,17.64,24.66,28.88,42.75l-2.79,1.62c-11.6-18.36-20.78-32-28.34-41.85-16.83,18.81-24.21,32.31-24.21,45,0,15.84,15,26.82,36.72,26.82A87.36,87.36,0,0,0,147.28,297Zm-61-72.18C78.17,216.3,72.05,213,66,213c-5.58,0-10.44,3.87-10.44,8.46,0,5.39,4.5,9,11.34,9A39,39,0,0,0,86.27,224.84Zm9.45-6.92c6.3-6,10.53-13.5,10.53-20.61,0-6.57-3.42-11.07-8.46-11.07s-9,5.4-9,12A33.83,33.83,0,0,0,95.72,217.92Zm-4.32,7.82c1.26,1.44,2.61,3.06,4,4.68,1.35-1.26,2.7-2.61,4-3.78a56.21,56.21,0,0,1-4-4.13A42.68,42.68,0,0,1,91.4,225.74Zm12.6.73c5.58,4.31,12.06,6.92,18.26,6.92,6.93,0,11.34-3.5,11.34-9,0-5.13-4.59-8.46-9.54-8.46C118.4,215.94,111.47,219.72,104,226.47Zm105.83,8.18.36,9.9c-2,1-7.83,2.16-10.89,2.16-6.84,0-10.8-2.16-12.33-6.84-3.06,4.59-7.2,6.75-13,6.75-8.64,0-14.22-5-14.22-12.6,0-10.7,8-15.74,26-16.37v-2.16c0-4.59-.9-5.94-3.87-5.94s-4.05,1.26-5,5.49l-15.57-2.7c1.62-10.35,8.73-15.3,21.87-15.3,14.13,0,21.06,5.67,21.06,17.19v17.36c0,2.79.63,3.6,2.79,3.6A11.19,11.19,0,0,0,209.83,234.65ZM185.89,226c-4.32,0-7,2-7,5a3,3,0,0,0,3.15,3.24,6.19,6.19,0,0,0,3.87-1.17Zm47.61,5.49h17.91v14h-39V233.21l17.19-22.31H212.44V198h37.35v12.33Zm70.29,3.15.36,9.9c-2,1-7.83,2.16-10.89,2.16-6.84,0-10.8-2.16-12.33-6.84-3.06,4.59-7.2,6.75-13,6.75-8.64,0-14.22-5-14.22-12.6,0-10.7,8-15.74,26-16.37v-2.16c0-4.59-.9-5.94-3.87-5.94s-4.05,1.26-5,5.49l-15.57-2.7C256.9,202,264,197,277.15,197c14.13,0,21.06,5.67,21.06,17.19v17.36c0,2.79.63,3.6,2.79,3.6A11.19,11.19,0,0,0,303.79,234.65ZM279.85,226c-4.32,0-7,2-7,5a3,3,0,0,0,3.15,3.24,6.19,6.19,0,0,0,3.87-1.17Zm27-48.41h19v67.94h-19Zm72.26,57.05.36,9.9c-2,1-7.82,2.16-10.89,2.16-6.84,0-10.79-2.16-12.32-6.84-3.06,4.59-7.2,6.75-13,6.75-8.64,0-14.22-5-14.22-12.6,0-10.7,8-15.74,26-16.37v-2.16c0-4.59-.9-5.94-3.87-5.94s-4.05,1.26-5,5.49l-15.57-2.7c1.62-10.35,8.73-15.3,21.87-15.3,14.13,0,21,5.67,21,17.19v17.36c0,2.79.63,3.6,2.79,3.6A11.19,11.19,0,0,0,379.11,234.65ZM355.18,226c-4.32,0-7,2-7,5a3,3,0,0,0,3.15,3.24,6.19,6.19,0,0,0,3.87-1.17Zm96.74-13.58v33.11h-19v-30c0-2.79-1.08-4.05-3.33-4.05a4.31,4.31,0,0,0-3.15,1.44v32.57h-19v-30c0-2.52-1.17-4.05-3.15-4.05a4.06,4.06,0,0,0-3.15,1.26v32.75h-19V198H398.1l.81,4a17.75,17.75,0,0,1,12.6-5q8.91,0,12.42,5.67c2.34-3.51,7.38-5.67,13.05-5.67C446.61,197,451.92,202.53,451.92,212.43Z"/><path class="cls-1" d="M324,307c-.18,14.13-6.75,21.51-19.17,21.51-5.94,0-10.62-2.16-13.59-6.21a14.77,14.77,0,0,1-13,6.84c-6.84,0-12.87-3.15-17.73-9.09-12.42,6.48-28.8,9.36-51.39,9.36a277.38,277.38,0,0,1-50.4-4.95l3.69-23c12.6,3.51,35.82,6.38,51.66,6.38,31.68,0,40.86-1.7,50.31-12,6.39-7,9.81-8.82,14.94-8.82,6.3,0,10.89,4.14,15.66,14.22,2.16,4.59,3.24,5.4,6.93,5.4,5,0,6.84-.63,6.84-2.43l-.45-37.35h16.11Zm-52.83-4.4c0,.09-.09.18-.09.27Zm.36-28.53c0-4.5,2.79-7.74,6.66-7.74s6.66,3.33,6.66,7.74a6.35,6.35,0,0,1-6.66,6.3C274.36,280.4,271.57,277.7,271.57,274.1Zm11.16,35.45c0-3.5-1.44-5.3-4.23-5.3-1.89,0-3.87,1.34-5.94,4.05a8.09,8.09,0,0,0,6.57,3.59C281.38,311.89,282.73,311,282.73,309.55Zm-7.83-35.81a3.34,3.34,0,0,0,6.66,0c0-2.16-1.35-3.87-3.33-3.87C276.43,269.87,274.9,271.76,274.9,273.74Zm30.24-12.87-.27-3.42a123.24,123.24,0,0,0,22.68-4.5l.27,3.42A155.59,155.59,0,0,1,305.14,260.87Zm88.1,68.57c-13.95,0-25-1.35-32.66-4.05-3.15,12.33-12.69,21-23.67,21-6.66,0-13.41-3-15.3-6.75l6.3-14.31a12.76,12.76,0,0,0,5.94,1.44c5.85,0,11.79-6.66,11.79-13.14L341,301.82l14.67-6,2.52,6.3c1.35,3.33,14.13,5.4,33.38,5.4a213.43,213.43,0,0,0,25-1.26,16.22,16.22,0,0,1-1.71-7.11,16.81,16.81,0,0,1,17-17.19c8.1,0,13.77,5.22,15.84,14.76l-10.35,4.95c-.72-1.8-3.15-3.06-6.12-3.06-2.25,0-4.05,1.35-4.05,3.06,0,2.61,3.6,4.05,10.17,4.05a53.22,53.22,0,0,0,10.8-.72l2,18.26C435.36,326.83,411.69,329.44,393.24,329.44ZM336.1,266.9l-.27-3.6a121.73,121.73,0,0,0,22.68-4.5l.27,3.6A155.59,155.59,0,0,1,336.1,266.9Zm1.26,14.4L348.16,271l10.35,10.35-10.35,10.8Zm33.93.63-.27-3.69a618.8,618.8,0,0,0,62-13.41l.27,3.69A618.8,618.8,0,0,1,371.29,281.93Z"/></svg>