<?xml version="1.0" encoding="utf-8"?>
<svg version="1.1" xmlns="http://www.w3.org/2000/svg" xmlns:xlink="http://www.w3.org/1999/xlink" viewBox="0 0 283 283">
<style type="text/css">
	.st0{fill:#00AEEF;}
</style>
 <rect width="283" height="283" style="fill:#ffffff;" />
<g class="st0">
	<path d="M93.43,223.51c1.21-1.47,1.87-3.31,1.87-5.3l0-1.51c0-5.62-2.74-8.47-8.14-8.47
		c-4.59,0-7.52,2.73-7.84,7.36c0,0.82,0.54,1.41,1.41,1.51l1.57,0.09c0.51,0.06,0.85-0.13,1.05-0.29c0.21-0.17,0.48-0.5,0.53-1.11
		c0.22-2.67,1.9-3.23,3.26-3.23c0.87,0,3.51,0,3.51,4.19l0,1.36c0,3.34-2.86,4.05-5.26,4.05l-2.63,0c-0.83,0-0.83,0.99-0.83,1.46
		l0,1.56c0,0.36,0,1.46,0.88,1.46l4.33,0c3.59,0,5.12,1.5,5.12,5.02l0,1.9c0,2.73-1.32,5.65-5.02,5.65c-1.73,0-2.93-0.39-3.67-1.19
		c-0.78-0.84-1.1-2.2-0.96-4.06c0.08-0.9-0.41-1.52-1.3-1.62l-1.59-0.14c-0.44-0.05-0.84,0.07-1.14,0.34
		c-0.29,0.26-0.45,0.64-0.45,1.02c-0.27,3.55,0.36,6.11,1.93,7.81c1.51,1.63,3.86,2.43,7.18,2.42c6.04,0,9.64-3.7,9.64-9.89l0-2.78
		C96.91,227.43,95.77,224.93,93.43,223.51z"/>
	<path d="M122.15,238.09L122.15,238.09c-0.23-0.36-0.55-0.59-0.92-0.66c-0.27-0.05-0.69-0.03-1.17,0.32
		c-1.32,1.04-2.74,1.5-4.62,1.5c-1.67,0-2.39-0.77-2.39-2.58l-0.01-14.97l8.14,0c0.85,0,1.46-0.61,1.46-1.46l0-1.32
		c0-0.85-0.62-1.46-1.46-1.46l-8.14,0l0-5.46c0-0.85-0.61-1.46-1.46-1.46l-1.8,0c-0.85,0-1.46,0.61-1.46,1.46l0,5.46l-2.15,0
		c-0.85,0-1.46,0.61-1.46,1.46l0,1.32c0,0.85,0.61,1.46,1.46,1.46l2.15,0l0.01,15.17c0,4.46,2.56,6.92,7.21,6.91
		c2.71,0,4.98-0.73,7.2-2.32c0.61-0.53,0.72-1.26,0.29-1.96L122.15,238.09z"/>
	<path d="M150.07,217.45l-1.9,0c-0.75,0-1.29,0.38-1.52,1.09l-5.49,16.96l-6.33-16.96
		c-0.24-0.7-0.77-1.08-1.52-1.08l-2.1,0c-0.64,0-0.97,0.28-1.13,0.52c-0.17,0.24-0.32,0.66-0.08,1.3l8.84,23.39l-0.26,0.83
		c-1.17,3.61-2.82,4.95-6.17,4.96h-0.29c-0.4,0-0.87,0.25-0.87,1.46l0,1.66c0,0.86,0.58,1.46,1.56,1.46h0.34
		c5.43,0,8.65-3.95,9.75-7.33l8.52-26.49c0.17-0.61-0.01-1.02-0.18-1.24C151.05,217.72,150.71,217.45,150.07,217.45z"/>
	<path d="M167.9,216.95c-2.2,0-4.23,0.79-5.7,2.13v-0.18c0-0.85-0.62-1.46-1.46-1.46l-1.7,0
		c-0.85,0-1.46,0.61-1.46,1.46l0.02,32.64c0,0.85,0.62,1.46,1.46,1.46l1.7,0c0.85,0,1.46-0.61,1.46-1.46l0-9.72
		c1.4,1.24,3.34,1.92,5.56,1.92c5.94,0,9.2-3.5,9.2-9.84l0-7.02C176.97,220.57,173.66,216.95,167.9,216.95z M172.35,226.6l0,7.45
		c0,3.46-1.57,5.22-4.68,5.22c-1.23,0-4.22-0.44-5.46-4.49l0-8.59c1.15-3.3,3.58-4.8,5.36-4.8
		C170.74,221.38,172.34,223.14,172.35,226.6z"/>
	<path d="M201.38,238.66c-0.18-0.4-0.48-0.68-0.85-0.8c-0.37-0.11-0.79-0.05-1.13,0.16
		c-1.44,0.76-3.02,1.14-4.82,1.14c-4.63,0-5.56-2.16-5.56-5.65l0-3.51l8.19,0c2.88,0,6.14,0,6.13-4.92c0-3.91-2.33-8.08-8.87-8.08
		c-6.22,0-10.08,4.04-10.08,10.53l0,5.85c0,6.88,3.43,10.37,10.19,10.37c2.66,0,4.86-0.56,6.96-1.77c0.68-0.42,0.87-1.15,0.51-1.97
		L201.38,238.66z M194.46,221.32c1.73,0,4.63,0.48,4.63,3.75c0,0.22,0,0.73-1.9,0.73l-8.05,0
		C189.44,224.04,190.53,221.32,194.46,221.32z"/>
	<path d="M140.72,50.15c-5.7,0-10.31-4.62-10.31-10.31s4.62-10.31,10.31-10.31s10.31,4.62,10.31,10.31
		S146.41,50.15,140.72,50.15z"/>
	<circle cx="140.72" cy="151.15" r="32.13"/>
	<path d="M166.11,69.46h-50.78c-1.57,0-2.84-1.27-2.84-2.84v-2.76c0-1.57,1.27-2.84,2.84-2.84h50.78
		c1.57,0,2.84,1.27,2.84,2.84v2.76C168.95,68.19,167.68,69.46,166.11,69.46z"/>
	<path d="M166.11,88.07h-50.79c-1.56,0-2.83-1.27-2.83-2.83v-2.77c0-1.56,1.27-2.83,2.83-2.83h50.79
		c1.56,0,2.83,1.27,2.83,2.83v2.77C168.95,86.8,167.68,88.07,166.11,88.07z"/>
	<path d="M166.11,106.69h-50.79c-1.57,0-2.84-1.27-2.84-2.84v-2.76c0-1.57,1.27-2.84,2.84-2.84h50.79
		c1.57,0,2.84,1.27,2.84,2.84v2.76C168.95,105.42,167.68,106.69,166.11,106.69z"/>
</g>
</svg>
