<?xml version="1.0" encoding="utf-8"?>
<!-- Generator: Adobe Illustrator 26.2.1, SVG Export Plug-In . SVG Version: 6.00 Build 0)  -->
<svg version="1.1" id="Ebene_1" xmlns="http://www.w3.org/2000/svg" xmlns:xlink="http://www.w3.org/1999/xlink" x="0px" y="0px"
	 viewBox="0 0 500 500" style="enable-background:new 0 0 500 500;" xml:space="preserve">
<g>
	<path d="m0 0h500v500h-500z" fill="#fff"/>
	<path d="M398.99,307.16l-8.33,19.62l-6.89-2.89l11.19-26.55l7.75-0.43l14.63,29.72l7.61-18.17l6.74,2.88l-10.62,25.25l-7.61,0.43
		L398.99,307.16z M434.3,258.69l-0.43-11.83l-31.86,1.15l-0.29-7.93l31.86-1.15l-0.44-11.84l7.32-0.29l1.15,31.6L434.3,258.69z
		 M399.71,193.33l-6.74,3.17l-10.34-21.93l35.45-17.03l3.44,7.21l-28.85,13.85L399.71,193.33z M343.88,109.8l15.21-18.61l6.17,5.05
		l-15.65,19.04c-3.01,3.6-2.58,8.37,1.15,11.39c3.59,3.03,8.47,2.6,11.48-1.01l15.5-19.04l6.17,5.05l-15.21,18.61
		c-6.03,7.36-15.5,8.08-22.68,2.16C338.86,126.68,337.85,117.16,343.88,109.8 M306.42,65.36l-8.04,38.66l-7.75-1.59l3.3-16.02
		l-18.09-3.89l-3.3,16.01l-7.9-1.73l8.04-38.66l7.9,1.73l-3.16,15.44l18.08,3.75l3.3-15.44L306.42,65.36z M186.15,88.59
		c-3.01-10.97,3.45-22.22,14.78-25.39c5.89-1.73,11.77-0.87,16.36,1.87l-3.87,6.79c-3.02-1.88-6.74-2.45-10.48-1.45
		c-7.03,2.02-11.05,9.09-9.04,16.16c2.01,7.07,9.04,11.11,16.07,9.09c4.02-1.16,7.18-4.05,8.61-7.65l6.89,3.6
		c-2.44,5.2-7.17,9.38-13.49,11.11C200.65,106.04,189.31,99.7,186.15,88.59 M131.04,138.37l4.45-5.91c2.73,1.88,6.31,1.29,9.33-1.45
		c2.73-2.45,4.02-5.63,1.72-8.08c-2-2.16-4.88-1.73-7.89,0.58l-2.3,1.73c-6.31,4.76-12.63,4.04-16.79-0.58
		c-5.16-5.91-3.3-13.56,2.16-18.47c4.88-4.33,11.62-5.77,16.79-2.02l-4.3,5.63c-1.86-1.3-5.17-0.58-7.6,1.59
		c-2.59,2.31-3.59,5.49-1.44,7.65c1.72,1.88,4.16,1.88,7.03-0.44l2.44-1.88c6.46-4.9,13.06-4.19,17.51,0.72
		c5.17,5.91,3.45,13.42-2.44,18.76C143.53,141.83,136.21,142.26,131.04,138.37 M100.9,192.9l8.18-19.62l6.89,2.89l-11.19,26.69
		l-7.75,0.44l-14.49-29.72l-7.61,18.18l-6.74-2.89l10.62-25.25l7.61-0.44L100.9,192.9z M65.74,241.52l0.43,11.83l31.86-1.3
		l0.29,7.94l-31.86,1.3l0.43,11.83l-7.32,0.29l-1.29-31.6L65.74,241.52z M100.47,306.73l6.74-3.18l10.48,21.93l-35.59,17.03
		l-3.45-7.21l28.7-13.85L100.47,306.73z M156.45,390.27l-15.22,18.61l-6.17-5.05l15.64-19.04c3.02-3.6,2.59-8.37-1.15-11.39
		c-3.59-3.03-8.47-2.6-11.48,1.15l-15.64,19.04l-6.17-5.05l15.21-18.61c6.03-7.36,15.5-8.08,22.68-2.31
		C161.33,373.24,162.48,382.91,156.45,390.27 M193.9,434.56l8.04-38.66l7.75,1.59l-3.3,16.01l18.09,3.75l3.3-16.01l7.89,1.58
		l-8.03,38.67l-7.9-1.59l3.16-15.44l-18.08-3.75l-3.16,15.44L193.9,434.56z M314.17,411.04c3.16,10.97-3.45,22.22-14.63,25.39
		c-5.89,1.73-11.77,0.86-16.36-1.88l3.87-6.79c3.02,1.88,6.74,2.46,10.48,1.45c7.03-2.02,11.05-9.09,9.04-16.16
		c-2.01-7.07-9.04-10.97-16.07-9.09c-4.02,1.15-7.03,4.04-8.61,7.64l-6.89-3.6c2.44-5.2,7.17-9.38,13.49-11.11
		C299.68,393.73,311.01,399.93,314.17,411.04 M369.14,361.12l-4.45,5.91c-2.72-1.88-6.31-1.15-9.33,1.44
		c-2.73,2.46-4.02,5.63-1.72,8.08c2.01,2.16,4.88,1.73,7.89-0.58l2.3-1.73c6.31-4.76,12.63-4.04,16.79,0.58
		c5.16,5.77,3.3,13.56-2.15,18.47c-4.88,4.33-11.63,5.77-16.79,2.16l4.3-5.63c2.15,1.3,5.31,0.58,7.89-1.73
		c2.59-2.31,3.45-5.49,1.44-7.65c-1.72-1.88-4.16-1.88-7.03,0.44l-2.44,1.88c-6.46,4.9-13.06,4.33-17.51-0.72
		c-5.31-5.91-3.45-13.42,2.44-18.76C356.65,357.81,364.12,357.37,369.14,361.12"/>
</g>
</svg>
