<?xml version="1.0" encoding="iso-8859-1"?>
<svg version="1.1" xmlns="http://www.w3.org/2000/svg" xmlns:xlink="http://www.w3.org/1999/xlink" viewBox="75 -270 950 950">
<rect x="75" y="-270" width="950" height="950"/>
<g fill="#ffffff" stroke="white" stroke-width="4">
	<path d="M139.192,201.662l53.346-2.749l-5.5,8.433l-47.846-1.65l1.283,30.248h28.964l-5.5,8.433h-53.163l5.5-8.433h15.032V123.752l-20.532,0.733l5.5-8.433h72.228v-6.6l4.766-2.934l4.033,62.695l-8.433,5.5l-0.367-52.979l-52.796,1.833L139.192,201.662z"/>
	<path d="M305.458,195.246c0,21.998-11.366,52.062-44.363,52.062c-30.797,0-47.296-27.131-47.296-60.128c0-19.249,8.433-30.248,29.148-31.348c-17.232-4.767-28.048-10.083-28.048-19.615c0-10.999,21.265-20.165,48.396-20.165h35.014l0.55-6.6l2.933-2.934l1.833,48.03l-8.433,5.499l2.566-35.563h-34.464c-25.665,0-44.73,2.933-44.73,12.099s17.232,16.865,59.396,20.532l2.933,8.433c-9.166-3.3-25.665-6.6-32.998-6.6c-20.898,0-25.665,6.232-25.665,28.231c0,32.997,16.499,56.462,38.863,56.462c23.832,0,35.931-22.731,35.931-52.062L305.458,195.246z"/>
	<path d="M434.511,235.943l-5.5,8.433H319.02l5.5-8.433h19.249l-3.3-111.458h-18.882l5.5-8.433h24.198c40.33,0,74.061,14.665,74.061,36.663c0,15.399-12.466,25.115-38.864,28.965l22.548,54.263H434.511z M347.251,235.943h57.929l-27.498-53.163c-6.233,0.55-13.016,0.733-20.532,0.733h-8.616L347.251,235.943z M349.818,124.485l-1.1,50.963h8.799c51.33,0,64.162-8.616,64.162-22.732C421.679,135.117,388.131,124.485,349.818,124.485z"/>
	<path d="M540.831,212.111c-15.399,22.182-38.313,35.197-61.595,35.197c-20.715,0-32.998-12.648-32.998-33.914c0-38.497,29.148-78.644,67.278-99.726v-4.216l2.933-2.934l5.5,62.695l-8.433,5.5v-50.047c-30.431,17.966-63.612,55.362-63.612,89.644c0,16.682,10.266,26.397,27.498,26.397c21.998,0,43.813-13.749,58.662-37.03L540.831,212.111z"/>
	<path d="M659.249,178.381c0,38.497-22.365,68.928-55.362,68.928c-34.831,0-48.764-28.414-48.764-65.262c0-38.497,22.365-68.928,55.362-68.928C645.316,113.119,659.249,141.534,659.249,178.381z M655.582,178.381c0-28.781-16.498-56.096-47.663-56.096c-26.031,0-49.129,21.632-49.129,59.762c0,28.781,16.498,56.096,47.663,56.096C632.484,238.143,655.582,216.512,655.582,178.381z"/>
	<path d="M780.233,167.748v20.898c0,40.33-6.6,55.729-35.931,55.729h-70.761l5.499-8.433c3.667,0.55,8.433,0.916,13.933,1.466l64.528-117.507l-69.111,4.399l1.649,57.013l-8.433,5.499l1.467-77.36l4.767-2.934l0.366,9.533h71.495l8.433,7.332L697.373,237.96c15.399,1.466,34.831,2.749,49.863,2.749c17.965,0,24.564-9.898,24.564-42.896v-24.564L780.233,167.748z"/>
	<path d="M892.052,214.312c0,18.332-5.499,30.064-25.664,30.064h-76.261l5.499-10.266c2.2,0.366,5.5,0.916,9.533,1.283l34.646-58.662l-37.58-0.917l1.1-3.3l39.964-1.467l30.064-51.146l-70.395,4.766l2.2,26.948l-8.434-5.499l1.834-39.598l3.3,2.934l0.55,6.6h73.145l8.433,8.433l-31.165,46.013l35.197-1.283l-5.499,8.433l-33.914-0.733l-39.964,59.029c17.049,2.017,43.264,4.766,57.013,4.766c12.832,0,16.865-6.232,16.865-31.897L892.052,214.312z"/>
	<path d="M973.626,235.943l-5.5,8.433h-76.993l5.499-8.433h17.966c12.832,0,18.331-6.416,18.331-22.731s-4.583-54.812-8.249-94.593c-18.515,0-23.648,3.666-23.648,10.266s5.866,12.832,9.533,16.499l-6.6,6.6c-5.5-6.6-8.066-13.199-8.066-20.532c0-10.999,7.333-18.332,34.098-18.332c10.999,0,27.131,1.1,41.797,2.934l-5.5,8.433c-6.782-1.283-20.349-4.033-31.348-5.133c1.834,32.447,4.217,70.577,4.217,92.025c0,13.016-3.667,20.716-10.083,24.565H973.626z"/>
</g>
</svg>
