<?xml version="1.0" encoding="utf-8"?>
<svg version="1.1" id="Layer_1" xmlns="http://www.w3.org/2000/svg" xmlns:xlink="http://www.w3.org/1999/xlink" viewBox="0 0 500 500">
<rect x="0" y="0" width="500" height="500" fill="#ffffff"/>
<polygon points="123.8,267.3 149.9,267.3 155.6,234 123.8,264.4 123.8,177.9 158.4,219.5 166.2,175.1 53.2,175.1 71.3,191.2 71.3,309.2 53.3,325.3 123.8,325.3 165.5,325.3 173.4,275.9 123.8,321.7 	"/>
<path d="M369.4,249c0-52.2,2.1-63.9,21-63.9c0.8,0,1.6,0.1,2.4,0.2c6.4,1.2,10.7,6,39.8,43.8c0.3-1.4,7.6-45.3,7.6-45.3c-12.4-4.8-27.4-10.5-48.7-10.5c-37.9,0-75.5,27.8-75.5,75.6c0,48.7,30.7,77.6,76.7,77.6h2.1C394.9,326.6,369.4,320.2,369.4,249z"/>
<path d="M417.3,277.6c-13.5,0-24.5,10.9-24.5,24.5c0,13.5,10.9,24.5,24.5,24.5c13.5,0,24.5-10.9,24.5-24.5c0,0,0,0,0,0C441.8,288.6,430.8,277.6,417.3,277.6z"/>
<polygon points="308.8,218 316.2,175.1 187.8,175.1 180.2,219.7 221.6,178.3 221.6,315.4 210.8,325.3 284.9,325.3 274.1,315.4 274.1,177.7"/>
</svg>
