<svg xmlns="http://www.w3.org/2000/svg" viewBox="0 0 500 500">
<rect width="500" height="500" fill="#fff"/>
<path d="M380.2,333.7c-2.6,3.5-2.6,8.8,0.9,10.6c6.2,3.5,13.2-4.4,22-8.8c5.3-2.6,14.1-4.4,21.1,0c10.6,7,13.2,20.2,6.2,29.9c-6.2,10.6-19.4,13.2-29.9,7l7-10.6c4.4,1.8,9.7,0.9,12.3-3.5c2.6-3.5,2.6-7.9-1.8-10.6c-4.4-2.6-11.4,3.5-19.4,7c-6.2,4.4-15,7-23.8,1.8c-9.7-7-12.3-19.4-6.2-29.9c7-9.7,20.2-13.2,30.8-7l-7,10.6C388.1,328.4,382.9,329.3,380.2,333.7z
M430.4,236.9v8.8c0,4.4,4.4,8.8,9.7,8.8h2.6c4.4-0.9,8.8-4.4,8.8-9.7l-0.9-8.8L430.4,236.9z
M417.2,236.9l-26.4,0.9v-13.2l73-1.8v22c0.9,11.4-8.8,22-21.1,22h-2.6c-8.8,0.9-15.8-4.4-19.4-11.4l-29,14.1v-15l25.5-12.3V236.9z
M396.9,138.4l14.1,20.2l-10.6,7l-14.1-20.2L372.3,156l14.1,20.2l-10.6,7l-21.1-30.8l59.8-41.4l21.1,29.9l-10.6,7.9L411,128.7L396.9,138.4z
M331.8,64.4l-22.9,55.4l-12.3-4.4L320.4,60l-15-6.2l5.3-11.4l40.5,16.7l-5.3,11.4L331.8,64.4z
M220.9,48.6l9.7,59l-12.3,1.8l-10.6-59l-15,2.6L191,40.7l42.2-7.9l2.6,13.2L220.9,48.6z
M119.7,114.6l18.5-16.7l8.8,9.7l-18.5,16.7l11.4,12.3l18.5-15.8l8.8,9.7l-28.2,24.6l-48.4-54.6L118,75.9l8.8,9.7l-18.5,15.8L119.7,114.6z
M115.3,191.2l-9.7,35.2l-70.4-20.2l3.5-12.3l58.1,16.7l6.2-22.9L115.3,191.2z
M70.5,306.4l-7-23.8l12.3-3.5l7,23.8l16.7-4.4l-7-23.8l12.3-3.5l10.6,35.2l-70.4,20.2l-10.6-35.2l12.3-3.5l7,22.9L70.5,306.4z
M146.1,351.3l13.2,11.4L120.6,427l-8.8-8.8l26.4-44l-41.4,31.7l-8.8-8.8L146.1,351.3z
M214.8,412l-4.4,29c-0.9,5.3,2.6,9.7,7.9,10.6c4.4,0.9,8.8-2.6,9.7-7.9l4.4-29c0.9-6.2-2.6-9.7-7-10.6C220.1,403.2,215.7,406.8,214.8,412z
M198.1,439.3l4.4-29.9c1.8-11.4,12.3-19.4,24.6-17.6c11.4,1.8,20.2,12.3,18.5,24.6l-4.4,29c-1.8,12.3-13.2,21.1-25.5,19.4C204.2,463.1,195.4,451.6,198.1,439.3z
M288.7,389.2l34.3-15.8l29.9,66.9l-11.4,5.3L316,390.9l-22,9.7L288.7,389.2z"/>
</svg>
