<svg xmlns="http://www.w3.org/2000/svg" viewBox="0 450 1200 1200">
<defs>
<linearGradient id="grad1" x1="200%" y1="-100%" x2="30%" y2="130%">
<stop offset="0%" style="stop-color:#0099ff;" />
<stop offset="100%" style="stop-color:#cd2861;" />
</linearGradient>
</defs>
<rect x="0" y="450" width="1200" height="1200" fill="url(#grad1)"/>
<path fill="#FFFFFF" d="M42,1099h37v-48c0-26,0-50-1-78c3,12,7,22,11,37l28,89h32l28-89c4-15,7-26,11-37c-1,27-2,52-2,78v48h37v-163h-57l-22,70c-4,12-8,27-10,41c-4-14-8-28-12-41l-22-70h-58v163ZM241,1040c0,38,24,62,61,62c38,0,62-24,62-62c0-37-24-62-62-62c-37,0-61,25-61,62ZM277,1040c0-23,9-33,25-33c17,0,26,10,26,33c0,22-9,33-26,33c-16,0-25-11-25-33ZM380,1099h36v-66c0-18,12-24,22-24c14,0,20,6,20,20v70h35v-78c0-29-18-43-41-43c-17,0-29,8-37,20v-18h-35v119ZM509,1040c0,38,25,62,62,62c38,0,62-24,62-62c0-37-24-62-62-62c-37,0-62,25-62,62ZM545,1040c0-23,10-33,26-33c16,0,26,10,26,33c0,22-10,33-26,33c-16,0-26-11-26-33ZM636,1008h18v58c0,24,12,34,41,34c5,0,11-1,17-1v-26h-10c-9,0-12-2-12-11v-54h22v-28h-22v-35h-36v35h-18v28ZM717,980l34,97c3,8,6,16,6,23c0,9-5,16-19,16h-11v28c3,0,7,0,14,0c35,0,49-11,59-40l42-124h-37l-4,18c-7,22-14,47-20,74c-7-27-14-52-20-74l-5-18h-39ZM852,1144h36v-59c7,10,19,17,34,17c32,0,52-24,52-62c0-37-20-62-52-62c-16,0-28,7-35,19v-17h-35v164ZM887,1040c0-23,10-33,26-33c16,0,25,9,25,32c0,22-9,34-25,34c-16,0-26-11-26-33ZM986,1040c0,38,24,62,61,62c28,0,51-14,57-40h-34c-4,9-11,14-23,14c-15,0-24-9-27-25h87v-7c0-40-24-66-61-66c-37,0-60,25-60,62ZM1020,1028c3-16,12-23,26-23c15,0,23,9,26,23h-52ZM1117,1099h39v-38h-39v38ZM1117,1099"></path>
</svg>