<svg xmlns="http://www.w3.org/2000/svg" viewBox="-23 -72 570 570">
<rect x="-23" y="-72" width="570" height="570" fill="#001223" />
<g fill="#ffffff">
<path d="M94.9 216c-11.2 0-19.3 5.701-23.8 13.201-3.4-8.201-10.3-13.201-22.6-13.201-10.1 0-18.3 5.101-22.2 12v-9.6h-22.3v78.2h23.8v-47.1c0-9.699 7.2-14.801 13.8-14.801 5.4 0 9.2 2.9 9.2 12.301v49.6h23.8v-47.799c0-8 6.4-14.102 13.6-14.102 5.4 0 9.3 3.2 9.3 12.301v49.6h23.8v-52.299c0-19.301-9.8-28.301-26.4-28.301zM178.3 179.9h.1v9.7h21.4v-108.598h-22v37.6c-4.1-5-10.7-9.6-22.2-9.6-21.6 0-34.8 16.8-34.8 41.199 0 27.799 12.9 41.399 34.3 41.399 10.8.001 18.6-4.7 23.2-11.7zm-34.3-29.898c0-15.601 7.9-23.2 17.2-23.2 10.201 0 16.6 6.799 16.6 22.799h-.001v2.202c0 15.299-6.899 21.699-16.899 21.699-9 0-16.9-6.4-16.9-23.5zM171.2 216c-19.4 0-30.7 6.901-33.6 23.101l17.5 1c1.5-6.1 5.999-9.601 15.3-9.601 8.6 0 14.3 3.401 14.3 13.601v3.5l-13.401.601c-18.8.899-37.8 5.301-37.8 27 0 16.2 11.6 23.399 25.8 23.399 12 0 19.601-4.6 25.601-11.5h.1v9.6h18.099v-50.398c0-19.001-8.199-30.303-31.899-30.303zm13.2 49.803c0 12-8.801 17.699-20.5 17.699-7.3 0-11.2-3.301-11.2-9.101 0-7.5 4.2-12.4 20.5-13.301l11.2-.6v5.303z"></path>
<path d="M248.399 2c-19.5 0-31.5 7.2-34.3 23.5l20.5 1.2c1.602-5.9 6-7.9 13-7.9 7.801 0 12.301 3.5 12.301 11.4v3.4l-14.399.6c-16.899.8-35.7 5.6-35.7 27 0 16.6 11.7 23.399 25.2 23.399 12.601 0 19.8-4.7 25.2-11.101h.099v9.201h20.8v-49.799c-.001-19.199-8.301-30.9-32.701-30.9zm11.301 50.601c0 10.7-7.7 15.3-17.7 15.3-6.2 0-10-2.8-10-8.3 0-6.399 3.601-10.5 16.899-10.899l10.801-.5v4.399zM249.2 108.9c-19.401 0-30.801 6.9-33.601 23.1l17.5 1c1.5-6.1 6-9.6 15.301-9.6 8.5 0 14.199 3.4 14.199 13.6v3.5l-13.3.601c-18.8.899-37.8 5.301-37.8 27 0 16.201 11.6 23.399 25.8 23.399 12 0 19.601-4.6 25.602-11.5h.1v9.601h18.099v-50.399c-.001-19.101-8.2-30.302-31.9-30.302zm13.099 49.903c0 12-8.8 17.699-20.5 17.699-7.3 0-11.2-3.2-11.2-9.101 0-7.5 4.2-12.401 20.5-13.301l11.2-.595v-.005h.102l-.102.005v5.298zM250.399 216.401c-18.899 0-29.399 7.2-31.899 21.601l13.5.899c1.601-6.9 7.2-10.801 17.8-10.801 11 0 16.5 5.101 16.5 17.101v2.7l-13.6.5c-20.7.699-38.2 6.101-38.2 26.8 0 15.899 11.101 23.399 26.5 23.399 12.101 0 20.2-5.5 25.6-12.299v10.299h14.4v-50.099c0-18.699-7.701-30.1-30.601-30.1zm15.902 50.401c0 12-8.6 19.799-23.1 19.799-9.401 0-13.601-4.799-13.601-11.799 0-9.301 5.399-15.201 23.699-16l13-.5h.001v8.5zM251.5 323.1c-17.8 0-27.899 6.201-30.7 19.801l10.602 1.199c2-7.4 6.899-11.699 19.8-11.699 13 0 18.3 6 18.3 19.601v2.698l-13.5.5c-19.8.701-39.1 5.201-39.1 26.201 0 15.4 10.799 23.199 26.398 23.199 12.9 0 21.102-5.798 26.5-12.4v10.7h11.2v-48.3c0-19-5.2-31.5-29.5-31.5zm18 40.301h-.024l-.075.003v9.397c0 12.798-9.001 21.897-25.001 21.897-11 0-15.699-5.199-15.699-13.6 0-10.9 6.3-16.299 28.199-17.199l12.501-.496v-.003h.099v.001zM262.299 153.5v.005l.101-.005z"></path>
<path d="M307.9 302.802c2.3 9.5 7.198 13 21.1 13 15.6 0 22.6-6.301 22.6-23.4v-7.899c-3.898 5.399-12 12.1-25.198 12.1-21.302 0-32.802-18.299-32.802-39.1 0-21.4 11.5-40.801 33.4-40.801 13.3 0 20.7 5.801 24.6 11v-9h11.5v73.801c0 17.801-8.5 33.1-34.198 33.1-19.302 0-30-6.299-32.4-22.799l11.398-.002zm-11.1-221.902h15.1v108.7h-15.1v-108.7zm55 171.201c0-16.799-9-25.5-22.8-25.5-12 0-23.1 8.5-23.1 30.701 0 21.6 10.898 29.199 23.1 29.199 11.1 0 22.8-7.601 22.8-24.699v-9.701zm-31.9-140.3h13v-22.5h15v22.5h21v12.3h-21v42.601c0 8.101 3 11.799 10.6 11.799 3.6 0 7.5-.6 11-1.399l2.4 11.5c-5.5 1.601-11.2 2.399-16.5 2.399-13.302 0-22.5-6.899-22.5-24.299v-42.702h-13v-12.199zm124.8 38.8c0 25.8-12.601 41.399-35.7 41.399-23.2 0-35.7-15-35.7-40.799 0-25.801 13-41.4 35.7-41.4 22.8 0 35.7 15.5 35.7 40.8zm-59.3.201c0 19 7.8 31.299 23.5 31.299 15.898 0 23.5-12.101 23.5-31 0-19-7.802-31.299-23.5-31.299-15.8-.101-23.5 12.098-23.5 31zm70.7-38.601h10.3v12.299c6.3-9 16.198-14.699 28.198-14.699 17.5 0 25.302 11.1 25.302 27.1v52.7h-10.6v-49c0-13.899-4.6-20.399-16.898-20.399-13 0-25.602 10.602-25.602 24.899v44.5h-10.6v-77.399h-.1z"></path>
</g>
</svg>