<svg xmlns="http://www.w3.org/2000/svg" viewBox="0 0 500 500"><defs><style>.cls-1{fill:#ed3b38;}.cls-2{fill:#f5f0e3;}</style></defs><rect class="cls-1" width="500" height="500"/><path class="cls-2" d="M257.32,88.88q83.88,0,127.1,28.21c28.72,18.81,43.21,45.76,43.21,81.09,0,18-4.32,33.3-13.22,45.75a79.9,79.9,0,0,1-33.3,27.71,100.31,100.31,0,0,1-41.69,9.15c-10.93,0-20.08-1-27.7-3.3a54.77,54.77,0,0,1-10.93-4.58,41.58,41.58,0,0,1-8.14-5.85q9.92-8,13.73-13.72a32.56,32.56,0,0,0,5.85-10.93,39.09,39.09,0,0,0,2-13.73c0-7.62-1.53-14-4.83-19.06a29.21,29.21,0,0,0-14.23-11.44c-6.36-2.54-14.24-3.81-23.9-3.81-4.57,0-9.4.25-14.74.76s-11.19,1-17.29,1.78l21.1-11.44c5.34,16.78,8.39,36.35,8.64,59,.26,22.37-2,43.21-7.11,62.28,9.91,0,19.82-.26,30-.77s19.83-1,29-1.77A55.56,55.56,0,0,1,330,323.75a97.92,97.92,0,0,1,2.79,22.37q0,30.5-13,45.75c-8.64,10.17-22.37,15.25-41.43,15.25-11.44,0-24.4-.51-38.64-1.27s-28-1.52-40.92-2c-10.17-.77-19.83-1.27-29.23-1.78s-18.31-.76-26.44-.76a218.7,218.7,0,0,0-22.62,1.27c-7.37.76-13.47,1.52-17.79,2A75,75,0,0,1,93.12,382a114.78,114.78,0,0,1-2.29-23.13,89.94,89.94,0,0,1,3-24.91,42.5,42.5,0,0,1,9.66-17.29A41.64,41.64,0,0,1,121.84,306c7.12-2,16-2.54,26.43-1.77a187.55,187.55,0,0,1-8.64-48.55c-.76-16.53,1.27-33.81,5.85-51.86a104.17,104.17,0,0,0-12.46.76c-4.06.51-8.38,1.27-12.45,2a118,118,0,0,0-11.95,3.05c-4.07,1.52-8.13,3-12,4.57-5.08-4.06-9.4-9.91-13-17.28s-5.34-16-5.34-25.93a55.82,55.82,0,0,1,8.9-30.76c5.85-9.15,16.52-17.53,31.77-25.41,17.29-8.65,37.62-15,61.52-19.07A415.06,415.06,0,0,1,257.32,88.88Z"/></svg>