<svg viewBox="-20 -170 490 490" xmlns="http://www.w3.org/2000/svg"><title>TypeMates</title>
<rect x="-20" y="-170" width="490" height="490" fill="#ffffC4"/>
<path d="M91.076 15.264l-11.55 95.164H56.892l5.083-22.174H49.038L40.98 21.252h-5.8v67.002h-23.1V21.252H0V0h47.67v15.264h13.38l2.77 30.95.924 21.714h2.772l.924-21.713 2.31-30.95h20.326zm51.74 36.033c0 29.104-3.697 37.418-16.63 37.418-4.16 0-7.855-1.385-11.088-4.62v26.333h-21.25V15.264h15.706l1.848 8.777h2.31c1.386-6.465 6.005-10.16 12.935-10.16 12.472 0 16.168 8.314 16.168 37.417zm49.428 10.164h-25.407v4.62c3.234 1.385 6.93 2.31 12.01 2.31 4.158 0 7.854-.462 12.936-1.85v19.867c-5.544 2.308-11.55 3.232-18.48 3.232-19.863 0-27.716-10.626-27.716-37.42 0-27.255 6.93-38.34 24.484-38.34 16.17 0 22.174 9.7 22.174 34.646V61.46zM271.7 88.255h-20.788V40.672h-2.77l-.925 13.86-5.082 33.722h-17.092l-5.08-33.722-.925-13.86h-2.772v47.582h-19.402V.02h31.413l3.233 38.344.924 18.94h2.772l.924-18.94L239.364.02H271.7v88.234zm-75.298 22.174h75.76V92.873h-75.76v17.555zm125.652-22.174H307.27l-2.308-7.39h-2.772c-1.386 5.543-6.006 8.775-12.01 8.775-10.626 0-14.784-6.468-14.784-22.175 0-16.168 3.234-20.787 13.397-22.635l12.01-2.31V37.9c-4.157-.923-6.005-.923-9.7-.923-4.62 0-9.24.924-13.397 2.31v-21.25c6.006-2.773 13.397-4.158 20.787-4.158 15.708 0 23.56 7.39 23.56 21.25v53.124zm33.723-.463c-3.234 1.388-7.392 1.85-11.55 1.85-12.934 0-17.553-5.08-17.553-19.864V24.04l4.62-19.4h18.015v10.624h6.467v19.402h-6.468V68.39c2.308.462 4.62.462 6.467 0v19.4zm47.12-26.33h-25.408v4.62c3.232 1.385 6.928 2.31 12.01 2.31 4.157 0 7.853-.462 12.934-1.85v19.867c-5.543 2.308-11.55 3.232-18.478 3.232-20.326 0-27.717-11.087-27.717-37.42 0-28.18 7.39-38.34 24.482-38.34 16.17 0 22.174 9.7 22.174 34.646V61.46zm22.173-25.407v3.234c17.092 9.702 20.788 14.32 20.788 26.33 0 16.17-7.39 24.022-22.174 24.022-5.08 0-12.472-1.386-17.554-3.233V66.54c3.696 1.388 8.315 1.85 12.473 1.85 3.234 0 5.08-.462 6.467-.925v-3.232c-16.168-9.24-19.402-13.86-19.402-27.256 0-15.244 7.39-23.098 21.712-23.098 6.467 0 12.01 1.384 15.707 3.234v19.863c-3.696-1.387-8.316-1.848-11.55-1.848-2.77 0-5.08.46-6.467.923zM377.49 48.99h6.466V38.363c0-3.698-.924-4.62-3.234-4.62s-3.233.922-3.233 4.62V48.99zm-78.997 24.02h2.31V54.532l-3.695.923c-1.848.46-2.77 1.848-2.77 5.082v8.315c0 3.234 1.846 4.158 4.155 4.158zM166.837 48.99h6.467V38.363c0-3.698-.924-4.62-3.233-4.62-2.31 0-3.233.922-3.233 4.62V48.99zm-45.734 20.325v-30.95c0-3.236-.924-4.622-3.234-4.622h-2.772V73.47h2.77c2.31 0 3.235-.923 3.235-4.155z" fill-rule="evenodd"></path>
</svg>