<?xml version="1.0" encoding="utf-8"?>
<svg version="1.1" id="rolandhusedesign" xmlns="http://www.w3.org/2000/svg" xmlns:xlink="http://www.w3.org/1999/xlink" viewBox="2 -23 750 750" >
<style type="text/css">
	.st0{fill:#00395E;}
	.st1{fill:#FFFFFF;}
</style>
<rect x="2" y="-23" class="st0" width="750" height="750"/>
<g class="st1">
<rect x="357.06" y="238.15" width="34.26" height="21.09"/>
<polygon  points="385.4,331.06 405.16,400.25 425.59,394.32 405.82,325.13 "/>
<polygon points="393.3,224.97 388.03,204.55 354.43,213.11 359.7,233.54"/>
<polygon points="354.43,265.17 338.61,251.33 289.19,304.05 304.35,318.54"/>
<rect x="363.65" y="340.29" width="21.09" height="65.23"/>
<polygon points="406.48,280.32 388.03,290.87 422.96,350.83 440.75,339.63"/>
<polygon points="278.65,259.9 287.22,279.01 329.39,260.56 320.82,241.45"/>
<polygon points="446.02,248.04 536.29,230.25 607.46,265.17 628.54,226.95 610.09,217.07 598.89,237.49 538.93,207.84 442.06,227.61"/>
<polygon points="363.65,331.06 343.23,325.13 323.46,394.32 343.88,400.25"/>
<polygon points="361.02,290.87 342.57,280.32 308.3,339.63 326.09,350.83"/>
<rect x="363.65" y="272.42" width="21.09" height="56.01"/>
<polygon points="229.89,396.3 183.11,304.05 192.99,304.05 252.29,412.77 276.01,326.45 245.7,274.39 255.59,275.05 256.91,253.97 206.17,250.67 252.95,329.74 245.7,356.76 206.17,283.62 148.84,281.64 205.51,394.32 186.4,421.33 134.35,302.73 135,427.26 107.99,404.86 118.53,267.8 50,302.73 59.23,321.18 94.81,303.39 86.24,414.09 157.41,474.05 155.43,403.54 181.79,463.51"/>
<polygon points="212.76,230.25 303.03,248.04 306.98,227.61 210.12,207.84 150.16,237.49 138.96,217.07 120.51,226.95 141.59,265.17"/>
<polygon points="459.86,304.05 410.44,251.33 394.62,265.17 444.7,318.54"/>
<polygon points="699.05,302.73 630.52,267.8 641.06,404.86 614.04,427.26 614.7,302.73 562.65,421.33 543.54,394.32 600.21,281.64 542.88,283.62 503.34,356.76 496.1,329.74 542.88,250.67 492.14,253.97 493.46,275.05 503.34,274.39 473.03,326.45 496.76,412.77 556.06,304.05 565.94,304.05 519.16,396.3 567.26,463.51 593.62,403.54 591.64,474.05 662.8,414.09 654.24,303.39 689.82,321.18"/>
<path d="M469.74,474.71l-5.93-70.51l-54.03,25.7l-9.22-25.04l-19.11,7.25l15.55,43.53l-0.02,0.01l-21.37,8.74l-21.37-8.74l-0.8-0.16l15.49-43.37l-19.11-7.25l-9.22,25.04l-54.03-25.7l-5.93,70.51l-24.38-7.91l16.47,25.04l25.7,7.91l6.59-62.6l35.38,15.72l-0.73-0.15l-39.82,110.72l37.88-17.48l-7.77,27.2l45.65,67.02l45.65-69.93l-6.8-23.31l36.91,18.45l-40.79-112.67l-0.49,0.11l35.29-15.68l6.59,62.6l25.7-7.91l16.47-25.04L469.74,474.71z M415.42,525.57l-33.99-16.51l17.48,58.28l-23.31,36.91l-24.28-34.97l18.45-60.22l-34.97,16.51l17.48-49.53l23.31,9.71l22.34-8.74L415.42,525.57z"/>
<polygon points="341.91,162.38 322.8,152.49 304.35,189.39 283.26,182.8 287.88,170.28 268.11,163.04 255.59,195.32 314.89,215.09"/>
<polygon points="470.4,259.9 428.23,241.45 419.66,260.56 461.83,279.01"/>
<polygon points="374.85,99.78 416.37,124.16 455.9,107.03 476.33,138 434.82,134.7 367.61,170.94 368.92,201.25 390.01,200.59 389.35,182.14 440.09,155.79 515.21,161.06 461.83,80.67 417.68,101.1 373.54,74.08 300.4,134.7 287.88,106.37 307.64,90.55 311.6,97.8 328.73,83.96 312.91,59.58 262.18,100.44 291.83,168.97"/>
<polygon points="371.56,134.04 405.82,139.31 381.44,114.93"/>
<polygon points="507.45,460.21 520.24,480.19 509.89,494.29 498.2,476.07 485.02,495.18 513.2,540.77 529.57,527.27 520.54,512.03 531.82,498.27 542.49,514.94 558.29,501.44 519.97,441.1"/>
<polygon points="189.74,501.94 206.12,517.02 229.46,479.32 239.34,494.47 217.6,508.98 214.95,524.35 234.34,540.94 234.62,520.68 266.78,496.95 228.8,441.1"/>
</g>
</svg>
