<?xml version="1.0" encoding="utf-8"?>
<svg version="1.1" id="Layer_1" xmlns="http://www.w3.org/2000/svg" xmlns:xlink="http://www.w3.org/1999/xlink" viewBox="0 0 500 500">
<style type="text/css">
.st0{fill:#757E1D;}
</style>
<rect x="0" y="0" width="500" height="500" fill="#ffffff"/>
<path d="M52,387.6c21.4,0,38.7-17.4,38.7-38.7v-198c0.7-21.4-16-39.3-37.4-40c-21.4-0.7-39.3,16-40,37.4c0,0.9,0,1.7,0,2.6v198C13.3,370.2,30.6,387.5,52,387.6C52,387.6,52,387.6,52,387.6z"/>
<circle class="st0" cx="52" cy="51.9" r="38.7"/>
<ellipse transform="matrix(0.1735 -0.9848 0.9848 0.1735 155.3523 288.9131)" cx="249.8" cy="51.9" rx="38.7" ry="38.7"/>
<circle class="st0" cx="447.9" cy="348.8" r="38.7"/>
<path class="st0" d="M349,90.6h99c21.4-0.7,38.1-18.6,37.4-40c-0.7-20.4-17-36.7-37.4-37.4h-99c-21.4,0.7-38.1,18.6-37.4,40C312.3,73.6,328.6,89.9,349,90.6z"/>
<path d="M447.9,112.1c-21.4,0.1-38.6,17.4-38.6,38.7v99c0.7,21.4,18.6,38.1,40,37.4c20.4-0.7,36.7-17,37.4-37.4v-99C486.7,129.5,469.4,112.1,447.9,112.1C448,112.1,447.9,112.1,447.9,112.1z"/>
<path class="st0" d="M447.9,409.1H349c-21.4,0.7-38.1,18.6-37.4,40c0.7,20.4,17,36.7,37.4,37.4h99c21.4,0.7,39.3-16,40-37.4s-16-39.3-37.4-40C449.7,409,448.8,409,447.9,409.1L447.9,409.1z"/>
<path d="M349,387.6c21.4,0,38.7-17.3,38.7-38.7v-198c0.7-21.4-16-39.3-37.4-40c-21.4-0.7-39.3,16-40,37.4c0,0.9,0,1.7,0,2.6v198C310.3,370.2,327.6,387.5,349,387.6C349,387.6,349,387.6,349,387.6z"/>
<path d="M249.8,112.1c-21.4,0-38.7,17.3-38.7,38.7v296.9c0.7,21.4,18.6,38.1,40,37.4c20.4-0.7,36.7-17,37.4-37.4V150.8C288.5,129.5,271.2,112.1,249.8,112.1z"/>
<path class="st0" d="M151,409.1H52c-21.4-0.7-39.3,16-40,37.4c-0.7,21.4,16,39.3,37.4,40c0.9,0,1.7,0,2.6,0h99c21.4,0.7,39.3-16,40-37.4s-16-39.3-37.4-40C152.8,409,151.9,409,151,409.1L151,409.1z"/>
<path d="M151,13.2c-21.4,0-38.7,17.3-38.7,38.7v296.9c-0.7,21.4,16,39.3,37.4,40s39.3-16,40-37.4c0-0.9,0-1.7,0-2.6V51.9C189.7,30.5,172.4,13.2,151,13.2C151,13.2,151,13.2,151,13.2z"/>
</svg>
