<svg width="120" height="120" viewBox="-10 -10 134 134" xmlns="http://www.w3.org/2000/svg">
<defs>
<linearGradient id="grad1" x1="0%" y1="0%" x2="0%" y2="100%">
<stop offset="0%" style="stop-color:#f00068;" />
<stop offset="100%" style="stop-color:#f76300;" />
</linearGradient>
</defs>
<rect x="-7" y="-7" width="134" height="134" fill="url(#grad1)" />
<path d="M42.873 115.696c-2.89 0-4.478-5.615-4.478-18.572 0-15.405 2.022-23.467 5.055-23.467 2.6 0 3.9 5.327 3.9 19.58 0 15.26-1.733 22.46-4.477 22.46zm.577-44.342c-5.055 0-7.365 8.494-7.365 25.77 0 14.397 1.877 20.876 6.788 20.876 4.91 0 6.788-7.63 6.788-24.763 0-15.837-1.588-21.883-6.21-21.883zm3.755-44.49h-2.6l-.577 7.63h2.31l.867-7.63zm-22.963 90.272h2.31V87.19h5.777v-2.303H26.55v-10.51h8.81v-2.304h-11.12v45.063zm65.135-43.48c1.878 0 3.033 1.73 3.033 4.61 0 1.726-.29 2.59-.29 2.59l2.184.542s.444-1.4.417-3.133c-.062-4.03-2.165-6.91-5.343-6.91-3.177 0-5.344 2.735-5.344 6.477 0 8.782 10.255 22.89 10.255 31.818 0 3.743-2.022 6.046-5.055 6.046-3.178 0-5.2-2.447-5.2-6.335 0-3.74 1.878-6.62 1.878-6.62l-2.02-1.152s-2.168 3.455-2.168 7.773c0 5.04 3.034 8.64 7.51 8.64 4.333 0 7.366-3.455 7.366-8.35 0-9.502-10.254-23.9-10.254-31.818 0-2.59 1.3-4.175 3.033-4.175zm12.42-26.49c-2.888 0-5.2 2.158-5.2 5.326 0 2.59 1.446 4.03 2.746 4.895l1.444-1.728c-.722-.433-1.878-1.585-1.878-3.313 0-1.583 1.155-2.88 2.743-2.88 1.878 0 3.033 1.585 3.033 4.464 0 4.896-3.9 9.36-9.388 9.36-4.55 0-7.576-2.503-8.655-7.083 4.677-.93 7.79-5.59 7.79-11.634 0-3.023-1.3-5.04-3.612-5.04-3.753 0-6.93 5.76-6.93 12.527 0 .68.03 1.34.087 1.978-1.223-.1-2.32-.402-3.27-.88-.07-7.278-1.772-10.312-3.75-10.312-1.3 0-2.31 1.44-2.31 3.6 0 3.074 1.493 5.907 3.866 7.755-.283 5.09-2.426 9.09-4.445 9.09-2.188 0-4.003-3.76-5.095-10.338 3.796-10.02 6.25-23.835 6.25-33.142 0-5.902-1.01-8.638-3.61-8.638-4.19 0-6.066 9.646-6.066 25.627 0 6.407.356 11.857 1.06 16.238-2.435 6.144-5.226 10.253-7.704 10.253-1.215 0-2.302-.766-3.154-2.103 3.085-3.968 5.464-9.977 5.464-15.318 0-3.457-1.3-5.616-3.61-5.616-3.466 0-6.066 5.615-6.066 12.67 0 3.138.535 5.87 1.474 7.988-1.33 1.47-2.71 2.38-3.93 2.38-2.743 0-3.9-6.77-3.176-21.022h-2.31c-1.59 14.397-3.756 21.02-6.5 21.02-2.69 0-4.414-4.996-6.6-9.35.475-4.03.678-9.212.678-15.7v-7.833c5.306-7.697 8.81-17.15 8.81-24.418 0-3.6-1.59-5.76-4.188-5.76-5.2 0-6.933 7.487-6.933 26.06v3.628C23.918 36.832 17.475 41.982 11.1 41.982c-4.045 0-6.79-2.736-6.79-6.623 0-3.6 2.312-6.48 4.91-6.48 1.88 0 3.034 1.296 3.034 3.312 0 1.15-.433 2.447-.866 3.31l2.022 1.153c.722-1.152 1.155-2.88 1.155-4.463 0-3.312-2.166-5.615-5.344-5.615-3.898 0-7.22 4.03-7.22 8.782 0 5.182 3.755 8.925 9.1 8.925 6.363 0 12.672-4.495 17.763-10.782v4.736c0 4.878-.118 8.947-.357 12.295-1.254-1.737-2.716-2.94-4.553-2.94-3.466 0-5.777 3.6-5.777 9.503 0 4.896 2.166 8.497 5.488 8.497 3.065 0 5.018-2.26 6.16-7.5 1.84 3.805 3.978 7.5 7.272 7.5 3.417 0 5.254-3.15 6.74-11.832.163 8.31 1.67 11.832 5.247 11.832 1.667 0 3.44-1 5.1-2.637 1.244 1.68 2.862 2.637 4.72 2.637 3.087 0 5.984-3.524 8.457-8.804 1.418 5.722 3.66 8.805 6.708 8.805 3.395 0 6.082-4.475 6.565-10.12 1.13.504 2.373.817 3.693.888 1.264 5.79 5.207 9.232 10.972 9.232 6.5 0 11.7-5.33 11.7-11.952 0-3.743-2.023-6.478-5.2-6.478zm-10.976-5.328c.723 0 1.3.864 1.3 2.735 0 4.976-2.382 8.593-5.84 9.352a20.86 20.86 0 0 1-.08-1.865c0-5.328 2.455-10.222 4.62-10.222zM76.813 46.3c0-.72.144-1.007.29-1.007.378 0 1.2 2.428 1.4 6.125-1.087-1.307-1.69-3.048-1.69-5.117zm-8.954-9.5c0-13.68 1.877-23.324 3.755-23.324.722 0 1.3 2.015 1.3 6.334 0 9.237-1.906 19.854-4.564 28.286-.32-3.318-.492-7.105-.492-11.297zm-14.01 16.124c0-5.472 2.023-10.367 3.756-10.367.722 0 1.3 1.152 1.3 3.312 0 4.27-1.88 9.333-4.246 12.898-.515-1.628-.81-3.62-.81-5.844zM23.81 63.29c-1.877 0-3.32-2.593-3.32-6.192 0-4.32 1.443-7.198 3.465-7.198 1.61 0 2.882 2.026 4.167 4.623-.782 6.134-2.197 8.768-4.312 8.768zm7.366-37c0-16.99 1.444-23.756 4.622-23.756 1.155 0 1.877 1.152 1.877 3.455 0 6.138-2.543 13.75-6.5 20.388v-.09zM82.59 74.376v-2.304H70.745v2.304h4.62v42.76h2.313v-42.76h4.91zM65.546 101.73l.525 9.524-1.97-9.38-7.8-29.8H54.14v45.062h2.31v-30.09l-.504-9.136 1.66 8.273 8.087 30.953h2.168V72.073h-2.31v29.658z" fill="#FFF" fill-rule="evenodd"></path>
</svg>