<svg xmlns="http://www.w3.org/2000/svg" viewBox="0 0 725 725">
<rect width="725" height="725" fill="#fff"/>
<path fill="#1D1D1B" d="M299.51,306.37c-3.55,0-7.05,0.21-10.41,0.64c-8.62,1.11-13.75,2.35-16.2,5.71c-2.68,3.68-1.69,9.05,0.10,18.80c2.29,12.41,6.12,33.20,4.94,66.91c-0.30,7.21-0.91,13.82-1.85,20.21c-10.71,69.13-30.21,111.92-42.15,111.92c-1.53,0-2.93-0.73-4.29-2.26c-5.71-6.38-17.45-35.34-2.98-165.95c0.12-1.19,13.85-121.16,66.45-262.86l0.73-1.96l-2.58-0.04c-34.62,0-58.37,80.57-72.58,246.28l-33.21,3.74c1.94-39.44,29.60-183.65,50.27-269.67l0.52-2.19l-2.22,0.38c-27.28,4.72-45.61,50.88-58.52,272.56l-35.31,4.98c0.62-57.56,14.47-154.66,26.25-220.84l0.41-2.32l-2.27,0.63c-28.24,7.89-39.27,81.06-33.7,223.70l-34.76,5.04c-1.85-36.98,2.90-73.59,9.44-123.99l2.49-19.30l-2.11,0.53c-7.85,2.00-14.24,12.60-18.45,30.66C69.24,325.96,96.17,524.26,243.14,649.95l1.99,1.70l38.44-230.49c0.92-5.58,1.71-10.80,2.46-15.70l0.84-5.52c8.87-60.56,13.35-68.64,70.20-74.80l4.49-0.49l-3.90-2.27C357.41,322.21,329.84,306.37,299.51,306.37z"/>
<path fill="#1D1D1B" d="M636.31,247.73c-4.21-18.06-10.59-28.66-18.45-30.66l-2.11-0.53l2.50,19.34c6.54,50.38,11.30,86.97,9.47,123.95l-34.79-5.04c5.57-142.62-5.44-215.80-33.67-223.70l-2.27-0.63l0.41,2.32c11.76,66.27,25.60,163.44,26.22,220.84l-35.31-4.98C535.39,126.94,517.05,80.78,489.76,76.05l-2.22-0.38l0.52,2.19c20.67,86.01,48.33,230.23,50.27,269.67l-33.20-3.74c-14.22-165.71-37.97-246.28-72.59-246.28l-2.58,0.04l0.73,1.96c52.59,141.69,66.32,261.67,66.45,262.86c14.46,130.61,2.73,159.57-2.98,165.96c-1.36,1.52-2.76,2.26-4.29,2.26c-11.93,0-31.43-42.78-42.12-111.91c-0.96-6.52-1.59-13.33-1.89-20.21c-1.17-33.69,2.65-54.48,4.94-66.89c1.79-9.77,2.79-15.15,0.10-18.84c-2.44-3.36-7.58-4.60-16.2-5.71c-3.36-0.43-6.86-0.64-10.41-0.64c-30.31,0-57.89,15.84-58.17,16.00l-3.90,2.27l4.49,0.49c56.88,6.16,61.37,14.24,70.20,74.81c0.96,6.51,2.02,13.58,3.30,21.23l38.44,230.49l1.99-1.70C627.62,524.27,654.55,325.96,636.31,247.73z"/>
</svg>
