<?xml version="1.0" encoding="utf-8"?>
<svg version="1.1" id="Layer_1" xmlns="http://www.w3.org/2000/svg" xmlns:xlink="http://www.w3.org/1999/xlink" x="0px" y="0px"
	 viewBox="0 0 500 500" >
<style type="text/css">
	.st0{fill:#E51727;}
	.st1{fill:#FFFFFF;}
</style>
<rect y="0" class="st0" width="500" height="500"/>
<path class="st1" d="M453.5,228.5c-1,20.6-8.3,45.5-22.4,59.4c-24.6,0-33.9-8.9-36.9-13.4c-0.9-3.4-0.5-8.1,0.7-13.3
	c15.7-2,38.7-10.2,38.7-28.7c0-8.4-8.7-13.8-14.9-13.8c-9,0-23.3,17.3-31.8,35.8c1.8-8,2.5-15.6,2.5-20.9c0-3.1-2-10.6-7.3-10.6
	c-3.2,0-15.6,16.4-27.8,35.3c1.8-6.1,3.1-10.8,3.3-13.3c0.5-5.3-7.9-12-11.7-13.2c1.5,14-8.9,38.8-16.2,57.4c-2.4,0-4.9,0.1-7.5,0.1
	c8-13.6,13.6-27.8,15.6-38.4c1.1-5.4-6.7-10.7-9.3-12c0,2.1-0.2,4-0.7,6.2c-5.5,8.2-14.4,17.8-23.6,26.2c3.7-11.3,9.1-25.7,9.8-30.5
	c0.8-5.1-6.7-12.7-10.7-14.1c-0.1,2.5-0.9,5.9-2.2,9.8c-8.2,13.6-16.5,26.9-25.3,35.8c4.1-12.7,12.8-38.5,17.8-54.3
	c13.7,1.3,26.5,2,36.2,2c23.2,0,40.6-1.4,52.4-6.2c11.2-4.5,17.4-11.8,19.6-23.2c-6.3,7.5-51.2,14.1-104.8,15.6
	c0.1-0.4,0.1-0.7,0.2-1c0.6-5.1-5-12.7-9-14.1c-0.1,2.6-1.6,8.2-4,15.4c-17.8,0.2-36.2-0.2-54.3-1.2c-3.4,0-7.2,0.9-8.4,2.2
	c8.6,2,19.3,3.9,30.9,5.6c-9.7,1.8-9.6,22.1-2,22.1c10.6,0,17.7-16.8,7.5-21.3c7.4,1,15.1,2,22.7,2.8c-2,5.6-4.2,11.7-6.5,17.8
	c-8.6,14.2-19.7,30.8-29.4,40.5c3.3-10.8,7.4-23.2,8.1-28c0.8-5.1-7.5-9.3-11.5-10.7c0,0.9-0.1,1.9-0.3,2.9
	c-7,6.8-15,12.3-23.4,16.7c0.4-5,0.8-9.7,1.5-13.4c2,1.4,4.5,2.1,5.3,2.1c1.4,0,12.1-10,12.1-15.9c0-7.9-25.2-5.6-28.5,3.9
	c-1.6,4.7-0.7,16.2-0.3,27.8c-5.9,2.5-12,4.6-18,6.3c4.8-7.8,8-16.3,8-24.7c0-12.9-7.2-19.3-17.3-19.3c-7.8,0-14.6,2.3-20.1,5.8
	c2.6-4.4,3.8-8.5,3.8-12.3c0-12.7-15.3-21.2-38.3-21.3c-1.4-6.1-11.4-11.8-18-11.8c0.1,3.3-0.5,7.7-1.6,12.9
	c-37.8,4.2-75.6,20.4-75.6,43.4c0,9.2,5.3,17.7,12.9,20.4c1.9-21.5,33.1-43,60-52.5c-4.5,17-11.8,38.2-17.1,55.5
	c-5.1,1.9-10.5,3.6-16.2,5l1.2,2c4.4,0,8.8-0.2,13-0.6c-2.8,9.7-4.8,17.6-4.8,22c0,5.6,7.6,12,10.3,13.2c1.6-8.1,6.7-22.6,12.6-38.5
	c15.9-4.1,29.4-11,39.1-18.3c1.7-1.3,3.4-2.6,4.9-3.9c-4.3,9.3-3.1,18.5,5.4,20.4c-4.4,8.6-6.9,17.3-6.1,23.4
	c0.9,4,4.7,10.3,9.3,10.3c3.3,0,10.7-4.6,18.4-11.9c10.4,6.3,26.4,11.1,32.8,11.1c7.8,0,9.2-16.4,10.3-32.5
	c8-5.4,15.6-11.9,22.5-19.5c-3.8,13.2-12.6,32.1-12.6,41c0,3.1,2.8,6.2,4.4,6.2c5.9,0,23.2-19,36.5-40.7
	c-5.4,14.8-9.7,27.6-9.7,31.9c0,3.1,2.8,6.2,4.4,6.2c5.5,0,19.1-14.8,31.2-34c-4.4,10.7-8.7,21.1-8.7,26.5c0,3.1,2.8,6.2,4.4,6.2
	c6.2,0,23.9-18.6,35.3-33.3c-0.2,0.4-0.3,0.8-0.5,1.3c-5.3,13.3-12.2,24.9-20.4,34c-24.5,2.3-50.2,7.4-68.5,13.3
	c-1.2,0.2-4.5,4.8-2.8,7.8c11.8,14.9,25.3,21.8,36.1,21.8c16.9,0,33.4-14.3,46.2-32.1c3.4,0.4,6.8,0.8,10.3,1.4
	c-1.2,3.9-1.9,7-1.7,8.8c0.8,6.7,6.1,14.5,22.2,14.5c-1.1-7.5-1.5-13.5-1.5-19.1c15.4,4.3,27.3,10.3,27.1,16.8
	c15.6-21,0.3-31.1-25.8-33.7c0.1-0.4,0.1-0.9,0.2-1.3c1.6-5.8,3.4-11.6,5-17c9.5-14.1,20.3-29,26.4-36.3c-1.3,7.5-3.2,17.4-6.1,25.8
	c-7.6,2.3-17.3,7-17.3,13.2c0,7.2,2.2,13.5,7.5,13.5c9.3,0,15.8-6.7,20.3-15.7c-0.6,3.1-1,6.1-1,8.9c0,10.1,7.2,17.3,22.5,17.3
	c38.7,0,68.3-29.9,68.3-49.9C470.9,240.3,467,231.2,453.5,228.5z M107.9,252.7c7.4-19.7,14.9-39.4,17.4-50.3
	c10.5-0.8,17.7,2.1,17.7,10C143,222.9,129.8,239.7,107.9,252.7z M156.7,279.5c-2.6,0-0.7-7.1,2.6-15c5.7-0.8,10-3.4,12.6-6.8
	l-0.3-0.5c-3,1.4-6.6,2.3-10.2,2.6c2.6-5.4,5.6-10.7,8.2-13.8l-2-1.9c-4.6,4-8.8,9.3-12.3,15c-6.5-5.1,8.3-31.2,22.7-31.8
	C195.2,237.2,163.3,279.5,156.7,279.5z M206.9,283.3l-18.3-4.5c6.5-2.2,13-5.1,19.4-8.7C208,275,207.7,279.6,206.9,283.3z
	 M260.2,311.5c-6.5,0-13.6-1.1-21.5-3.5c18.3-4.4,36.6-7,54-7.5C283.2,307.5,272.2,311.5,260.2,311.5z M360.8,275.9
	c-1.5-0.7-2.8-2.5-2.8-4.7c3.9-2.2,7.2-3.3,10-4C366,271.2,363.6,274.3,360.8,275.9z M414.3,226.3c2,0,4.4,2.8,4.4,6.2
	c0,6.2-5.4,13.9-20.9,19.8C402.3,240.2,409.8,228.2,414.3,226.3z"/>
</svg>
