<?xml version="1.0" encoding="utf-8"?>
<svg version="1.1" id="Layer_1" xmlns="http://www.w3.org/2000/svg" xmlns:xlink="http://www.w3.org/1999/xlink" x="0px" y="0px"
 viewBox="0 0 500 500">
<style type="text/css">
.st0{fill:#E3E3E5;}
.st1{fill:#EE4723;}
</style>
<rect x="0" y="0" class="st0" width="500" height="500"/>
<g>
<path class="st1" d="M259.14,261.6c1.67-64.41,8.78-125.42,32.37-125.38c1.49,1,23.81,39.11,23.81,72.98
	C315.32,238.16,272.4,256.88,259.14,261.6z M298.83,248.27c28.83-14.57,83.7-47.59,83.7-71.88c0-24.62-35.63-54.65-35.63-73.25
	c0-4.59,2.17-8.48,7.59-11.42l-0.53-2.65c-95.25,0-98.42,91.01-100.54,179.91c-0.11,6.82-0.41,13.23-0.41,19.27
	c0,8.32-7.75,13.77-15.42,18.45v2.43c7.15,3.9,11.31,7.7,11.31,13.7c0,5.92-4.09,14.01-9.23,20.23
	c-5.68,6.85-12.58,9.59-20.28,9.59c-16.66,0-37.07-12.82-56.98-24.4c20.11-8.47,50.27-25.93,56.09-30.16
	c15.47-10.99,31.88-95.59,31.88-142.7c0-14.12-1.48-24.88-4.89-29.27c-14.82-19.05-63.5-33.34-71.97-33.34
	c-33.87,0-103.19,74.61-103.19,100.54c0,19.58,56.62,40.74,73.02,52.92c3.24,2.5,7.79,7.43,7.79,13.86
	c0,7.2-5.69,16.28-25.25,25.91l2.65,3.05c0,0,64.03-32.92,64.03-57.65c0-9-7.94-22.22-22.22-32.81
	c-22.94-16.86-52.93-38.27-52.93-56.55c0-2.38,0.51-4.7,1.6-6.95c6.88-5.82,56.62,16.4,64.03,24.87
	c12.27,14.1,17.2,40.05,17.2,65.65c0,26.28-5.19,52.19-12.96,64.52c-6.88,11.11-16.4,28.05-28.05,35.98
	c-19.05-11.11-42.86-25.93-51.86-25.93c-16.4,0-32.28,25.4-37.04,53.97l2.65,4.76c2.12-4.76,4.23-16.93,12.17-16.93
	c13.76,0,81.49,74.71,111.12,74.71c25.26,0,56.23-61.39,60.27-90.4c1.21-8.67,8.94-14.06,15.39-17.19v-2.43
	c-7.75-4.16-13.2-8.03-13.2-16.34c0-7.96,0.13-16,0.31-24.01c3.98-1.42,13.04-4.25,17.67-4.25c28.57,0,53.44,154.61,84.14,154.61
	c16.4,0,79.76-58.51,79.76-82.85l-2.5,0.53c-3.01,4.13-11.89,9.97-20.01,9.97c-3.31,0-6.49-0.97-9.1-3.42
	c-38.63-36.51-54.5-103.19-75.67-103.19c-6.5,0-23.25,7.09-34.09,11.36L298.83,248.27z M410.01,425.63
	c-38.08,33.46-91.92,35.4-160.01,35.4C99.11,461.03,38.97,433.74,38.97,250c0-72.39,4.22-128.68,41.94-167.04
	C119.3,43.9,176.3,38.96,250,38.96c72.28,0,128.51,4.48,166.87,42.26c39.16,38.57,44.16,95.64,44.16,168.77
	C461.03,328,453.64,387.3,410.01,425.63z M250,15.5C99.56,15.5,15.5,99.56,15.5,250c0,82.61,25,142.64,68.87,181.28
	c40.64,35.79,97.47,53.22,165.62,53.22c69.81,0,125.33-18.09,164.77-52.52C460.35,392.21,484.5,330.65,484.5,250
	C484.5,100.9,400.47,15.5,250,15.5z"/>
</g>
</svg>
