<svg fill="none" height="500" viewBox="0 0 500 500" width="500" xmlns="http://www.w3.org/2000/svg"><path d="m0 0h500v500h-500z" fill="#fff"/><g fill="#101014"><path d="m212.131 91.9933-56.314.0435.008 10.3012 22.491-.017.037 47.557 11.332-.008-.037-47.558 22.491-.017zm35.14 57.8317 11.331-.009-.014-18.542 7.211-.005 14.992-39.3287-12.018.0093-10.622 29.6244-10.473.008-10.668-29.6079-12.018.0093 15.053 39.3046 7.211-.005zm103.052-51.0709-5.154-5.1467c-1.203-1.2009-2.491-1.7149-4.122-1.7137l-44.382.0343.045 57.859 11.332-.009-.013-16.31 33.05-.026c1.631-.001 2.918-.517 4.119-1.72l5.147-5.154c1.201-1.203 1.715-2.491 1.714-4.122l-.016-19.573c-.001-1.631-.517-2.918-1.72-4.1189zm-9.595 24.3869-32.707.026-.016-20.946 32.707-.026zm79.327-21.007-.008-10.3013-37.256.0288c-1.631.0012-2.919.5173-4.119 1.72l-5.147 5.1547c-1.201 1.2027-1.715 2.4908-1.714 4.1218l.028 35.883c.001 1.631.517 2.918 1.72 4.119l5.155 5.147c1.202 1.201 2.49 1.715 4.121 1.713l37.257-.028-.008-10.302-36.913.029-.012-14.679 30.904-.024-.008-10.302-30.903.024-.01-12.275z"/><path d="m133.296 421.294-.033-42.665c0-.858-.258-1.459-.86-2.06l-2.577-2.573c-.516-.515-1.117-.857-1.975-.857l-20.946.016c-.859.001-1.459.345-1.974.86l-2.573 2.578c-.601.601-.858 1.202-.857 2.061l.028 36.998-20.9456.017-.0328-42.493-5.1506.004.0329 42.664c.0007.859.2587 1.459.8601 2.06l2.5773 2.573c.5154.515 1.2882.772 1.975.771l20.3447-.015c.773-.001 1.46-.259 2.06-.86l2.488-2.492c.6-.601.857-1.288.856-2.061l-.028-36.999 21.547-.016.033 42.493zm-52.7994-118.06-5.1507.004.0325 42.064c.0006.772.2587 1.459.8601 2.059l2.5773 2.574c.5155.6 1.2025.857 2.0609.857l46.8713-.037c.858 0 1.545-.258 2.059-.86l2.574-2.577c.6-.601.857-1.288.856-2.061l-.032-42.064-5.151.004.033 41.892-22.406.018-.027-35.883-5.151.004.028 35.883-20.0021.015zm52.6824-33.089-.014-19.058-57.8729-17.467.0045 5.837 52.7204 15.583.009 11.16-52.6966 15.664.0045 5.838zm-52.7862-101.277-5.1507.004.0325 42.064c.0006.772.2587 1.459.86 2.059l2.5774 2.573c.5155.601 1.2024.858 2.0609.857l46.8711-.036c.858-.001 1.545-.259 2.059-.86l2.574-2.577c.6-.602.857-1.289.857-2.061l-.033-42.064-5.151.004.033 41.892-22.406.017-.027-35.882-5.151.004.028 35.882-20.0019.016zm52.6912-22.445-.005-5.666-52.7079.041-.0041-5.236 52.687-27.168-.011-14.5075-57.8588.0447.0044 5.6657 52.7084-.0407.004 5.1508-52.6875 27.167.0112 14.508z"/></g></svg>