<svg viewBox="0 0 467 176" xmlns="http://www.w3.org/2000/svg"><path d="m90.01 52.41h74.1v37h-74.1z" fill="#e8f4d9" stroke="#fff" stroke-miterlimit="10"/><path d="m164.11 52.41h74.1v37h-74.1z" fill="#d1e8b2" stroke="#fff" stroke-miterlimit="10"/><path d="m238.2 52.41h74.1v37h-74.1z" fill="#badd8c" stroke="#fff" stroke-miterlimit="10"/><path d="m312.3 52.41h74.1v37h-74.1z" fill="#a3d165" stroke="#fff" stroke-miterlimit="10"/><path d="m386.4 52.41h74.1v37h-74.1z" fill="#8cc63f" stroke="#fff" stroke-miterlimit="10"/><path d="m90.01 89.41h74.1v37h-74.1z" fill="#e8f4d9" stroke="#fff" stroke-miterlimit="10"/><path d="m164.11 89.41h74.1v37h-74.1z" fill="#d1e8b2" stroke="#fff" stroke-miterlimit="10"/><path d="m238.2 89.41h74.1v37h-74.1z" fill="#badd8c" stroke="#fff" stroke-miterlimit="10"/><path d="m312.3 89.41h74.1v37h-74.1z" fill="#a3d165" stroke="#fff" stroke-miterlimit="10"/><path d="m386.4 89.41h74.1v37h-74.1z" fill="#8cc63f" stroke="#fff" stroke-miterlimit="10"/><path d="m90.01 126.41h74.1v37h-74.1z" fill="#e8f4d9" stroke="#fff" stroke-miterlimit="10"/><path d="m164.11 126.41h74.1v37h-74.1z" fill="#d1e8b2" stroke="#fff" stroke-miterlimit="10"/><path d="m238.2 126.41h74.1v37h-74.1z" fill="#badd8c" stroke="#fff" stroke-miterlimit="10"/><path d="m312.3 126.41h74.1v37h-74.1z" fill="#a3d165" stroke="#fff" stroke-miterlimit="10"/><g fill="#8cc63f"><path d="m386.4 126.41h74.1v37h-74.1z" stroke="#fff" stroke-miterlimit="10"/><path d="m119.5 45c0 .67-.08.74-.62.74h-3.46v-6.6c0-.54 0-1.24-.06-1.63.76 0 .86.06.86.66v6.89h1.67c.52 0 1.24-.06 1.61-.06z"/><path d="m121.91 38.08c0 .42-.2.63-.56.63s-.52-.2-.52-.62.19-.64.56-.64.52.21.52.63zm-.17 2.3v5.37h-.74v-4.4c0-.54 0-1.25-.06-1.63.64 0 .8.06.8.66z"/><path d="m125.3 45.07h.59c1 0 2 .09 2 1.3s-.81 1.83-2.55 1.83c-1.58 0-2.31-.49-2.31-1.38a1.39 1.39 0 0 1 1-1.24.8.8 0 0 1 -.64-.84 1 1 0 0 1 .78-1 2 2 0 0 1 -.83-1.81c0-1.45.76-2.25 2-2.25a2.17 2.17 0 0 1 .93.18 7.59 7.59 0 0 0 .91-1 .77.77 0 0 1 .31.57.53.53 0 0 1 -.27.45l-.5.31a2.22 2.22 0 0 1 .65 1.73 2 2 0 0 1 -2 2.18 2.52 2.52 0 0 1 -.73-.1c-.36.13-.58.34-.58.57.04.43.57.5 1.24.5zm1.91 1.4c0-.83-1-.78-1.92-.78-1.12 0-1.44.57-1.44 1s.44.83 1.61.83 1.75-.33 1.75-1.05zm-3.07-4.6c0 1.06.41 1.55 1.27 1.55s1.24-.49 1.24-1.52-.4-1.53-1.26-1.53-1.25.46-1.25 1.5z"/><path d="m133.39 41.64v4.11h-.76v-3.92c0-1.09-.28-1.4-1-1.4a2.88 2.88 0 0 0 -1.71.62v4.7h-.76v-6.87c0-.54 0-1.25-.06-1.63.71 0 .82.06.82.66v2.59a2.82 2.82 0 0 1 1.88-.79c1.12 0 1.59.52 1.59 1.93z"/><path d="m138.26 45.4a3.12 3.12 0 0 1 -1.49.44c-.8 0-1.16-.38-1.16-1.36v-4.09a7 7 0 0 0 -.93 0c0-.63 0-.69.93-.69v-.7c0-.6.1-.66.82-.66a13.77 13.77 0 0 0 -.06 1.42h1.66c0 .58 0 .69-.63.69h-1v3.9c0 .61.16.78.61.78s.65-.22.9-.22.29.17.35.49z"/><path d="m39.7 67c-.11.62-.24.77-.47.77s-.69-.35-1.42-.35c-1.18 0-1.68.93-1.68 3.35s.45 3.17 1.55 3.17c.76 0 1.32-.42 1.67-.42s.35.22.42.62a3.87 3.87 0 0 1 -2.27.75c-1.61 0-2.43-1.14-2.43-4 0-3 .89-4.37 2.71-4.37a4.19 4.19 0 0 1 1.92.48z"/><path d="m45 71.71c0 2.15-.78 3.14-2.23 3.14s-2.13-.94-2.13-3 .78-3.15 2.23-3.15 2.13.92 2.13 3.01zm-3.38 0c0 1.72.36 2.29 1.2 2.29s1.2-.56 1.2-2.27-.36-2.28-1.2-2.28-1.16.55-1.16 2.3z"/><path d="m50.47 70.48v4.27h-1v-4.09c0-.85-.18-1.11-.69-1.11a2.21 2.21 0 0 0 -1.36.51v4.69h-1v-4.38c0-.55 0-1.26-.06-1.68.81 0 1 .08 1 .78a2.4 2.4 0 0 1 1.71-.78c1.01 0 1.4.54 1.4 1.79z"/><path d="m55.08 74.08a2.14 2.14 0 0 1 -1.53.76c-1.15 0-1.75-.81-1.75-3s.65-3.2 1.92-3.2a1.85 1.85 0 0 1 1.34.59v-1.32c0-.55 0-1.24-.07-1.67.94 0 1 .06 1 .76v6.18c0 .55 0 1.24.06 1.66-.77 0-.94-.06-.97-.76zm0-.64v-3.51a1.68 1.68 0 0 0 -1.12-.43c-.76 0-1.16.38-1.16 2.25s.38 2.28 1 2.28a1.74 1.74 0 0 0 1.26-.59z"/><path d="m61.57 71.14v.73h-3.12c0 1.59.42 2.1 1.29 2.1.63 0 .92-.26 1.23-.26s.38.2.42.63a3.65 3.65 0 0 1 -1.77.51c-1.36 0-2.16-.83-2.16-3s.77-3.18 2.27-3.18c1.27.01 1.84.8 1.84 2.47zm-3.11 0h2.21c0-1.27-.31-1.71-1-1.71s-1.14.44-1.21 1.75z"/><path d="m67 70.48v4.27h-1v-4.09c0-.85-.17-1.11-.68-1.11a2.26 2.26 0 0 0 -1.37.51v4.69h-.95v-4.38c0-.55 0-1.26-.06-1.68.82 0 1 .08 1 .78a2.42 2.42 0 0 1 1.72-.78c.97 0 1.34.54 1.34 1.79z"/><path d="m71.63 69c-.1.58-.23.76-.47.76s-.52-.24-1-.24-.87.22-.87.78c0 1.39 2.47.51 2.47 2.72a1.71 1.71 0 0 1 -1.92 1.85 5.16 5.16 0 0 1 -1.66-.32c.1-.58.24-.78.52-.78s.55.27 1.12.27 1-.25 1-.91c0-1.56-2.46-.64-2.46-2.71a1.61 1.61 0 0 1 1.81-1.71 4.66 4.66 0 0 1 1.46.29z"/><path d="m77 71.14v.73h-3.16c0 1.59.42 2.1 1.3 2.1.62 0 .91-.26 1.22-.26s.39.2.42.63a3.61 3.61 0 0 1 -1.76.51c-1.37 0-2.16-.83-2.16-3s.77-3.18 2.27-3.18c1.25.01 1.87.8 1.87 2.47zm-3.1 0h2.2c0-1.27-.31-1.71-1-1.71s-1.17.44-1.24 1.75z"/><path d="m81.42 74.08a2.14 2.14 0 0 1 -1.53.76c-1.15 0-1.75-.81-1.75-3s.65-3.2 1.92-3.2a1.85 1.85 0 0 1 1.34.59v-1.32c0-.55 0-1.24-.07-1.67.94 0 1 .06 1 .76v6.18c0 .55 0 1.24.06 1.66-.77 0-.94-.06-.97-.76zm0-.64v-3.51a1.68 1.68 0 0 0 -1.12-.43c-.76 0-1.16.38-1.16 2.25s.38 2.28 1 2.28a1.74 1.74 0 0 0 1.26-.59z"/><path d="m40.63 110.64a1.43 1.43 0 0 1 -.71.22.65.65 0 0 1 -.61-.37l-1.48-3h-1.43v3.25h-1v-8.14h2c1.78 0 2.71.79 2.71 2.19a2.46 2.46 0 0 1 -1.35 2.38c.47 1.03 1.36 2.65 1.87 3.47zm-3.22-4c1.11 0 1.62-.65 1.62-1.85 0-1-.59-1.39-1.81-1.39h-.82v3.24z"/><path d="m45.92 107.15a6 6 0 0 1 0 .72h-3.43c0 1.53.47 2.1 1.46 2.1a9 9 0 0 0 1.34-.26c.3 0 .4.2.45.63a4.19 4.19 0 0 1 -1.93.51c-1.49 0-2.29-.87-2.29-3s.84-3.16 2.43-3.16c1.34-.01 1.97.82 1.97 2.46zm-3.42 0h2.5c0-1.26-.36-1.71-1.15-1.71s-1.25.45-1.35 1.74z"/><path d="m49.22 110h.61c1 0 2.05.1 2.05 1.32s-.83 1.86-2.65 1.86c-1.53 0-2.3-.47-2.3-1.36a1.3 1.3 0 0 1 1-1.17.83.83 0 0 1 -.66-.87 1.07 1.07 0 0 1 .82-1 2 2 0 0 1 -.89-1.78 2 2 0 0 1 2.07-2.27 2.35 2.35 0 0 1 1 .18 9.14 9.14 0 0 0 .9-1 .85.85 0 0 1 .34.61.56.56 0 0 1 -.27.46l-.47.29a2.26 2.26 0 0 1 .64 1.72 2 2 0 0 1 -2.07 2.17 2.92 2.92 0 0 1 -.73-.08c-.3.12-.49.32-.49.54-.04.38.46.38 1.1.38zm1.78 1.51c0-.69-.72-.73-1.52-.73h-.48c-.9.07-1.19.51-1.19.94s.41.77 1.5.77 1.69-.32 1.69-.98zm-2.83-4.64c0 1 .37 1.47 1.16 1.47s1.13-.44 1.13-1.46-.36-1.45-1.14-1.45-1.18.43-1.18 1.44z"/><path d="m56.33 110a2.74 2.74 0 0 1 -1.87.82c-1 0-1.41-.57-1.41-1.91v-2.56c0-.55 0-1.26-.07-1.68.91 0 1 .06 1 .71v3.34c0 .9.24 1.24.81 1.24a2.68 2.68 0 0 0 1.52-.54v-4.69h1v4.45c0 .54 0 1.22.07 1.64-.88.02-1.02-.07-1.05-.82z"/><path d="m60.2 103v7.75h-1v-6.84c0-.55 0-1.24-.07-1.67.96 0 1.07.06 1.07.76z"/><path d="m65 110.08a2.26 2.26 0 0 1 -1.65.76 1.46 1.46 0 0 1 -1.6-1.61c0-1.42 1.07-2 3.25-2v-.46c0-.84-.2-1.24-1-1.24-.62 0-1 .42-1.39.42s-.4-.17-.47-.72a5.12 5.12 0 0 1 2.07-.53c1.39 0 1.76.83 1.76 2v2.62c0 .53 0 1.18.08 1.58-.94-.06-1.05-.11-1.05-.82zm0-.65v-1.49c-1.7 0-2.27.28-2.27 1.19a.81.81 0 0 0 .89.91 1.94 1.94 0 0 0 1.38-.61z"/><path d="m70.89 105.17c0 .46-.16.54-.58.62a2 2 0 0 0 -1.58 1.06v3.9h-1v-4.38c0-.55 0-1.26-.07-1.68.94 0 1 .1 1 1v.31a2.18 2.18 0 0 1 2.12-1.36 3.39 3.39 0 0 1 .11.53z"/><path d="m75 103.1a.81.81 0 0 1 0 .25l-.19.88 1.62-.46a2.33 2.33 0 0 1 .07.5c0 .32-.14.46-.55.5l-1 .08.94 1.38a1.32 1.32 0 0 1 -.62.24c-.2 0-.32-.13-.46-.41l-.4-.86-1.08 1.29c-.32-.27-.47-.46-.47-.64s.09-.27.27-.44l.75-.66-1.57-.52c.19-.45.34-.64.57-.64a1 1 0 0 1 .4.13l.89.47v-1.58c.59.05.83.14.83.49z"/><path d="m40.16 145.86c0 .82-.09.89-.71.89h-4v-8.14h2.79c.58 0 1.33 0 1.75-.05 0 .83-.09.89-.71.89h-2.79v2.72h1.51 1.75c0 .82-.08.88-.7.88h-2.56v2.9h1.92c.59-.04 1.33-.05 1.75-.09z"/><path d="m46.4 146.63a2.58 2.58 0 0 1 -.73.19c-.28 0-.44-.16-.72-.61l-1.25-1.89-1.21 1.83c-.33.49-.47.67-.76.67a2.66 2.66 0 0 1 -.65-.15l2.1-3-1.91-2.8a2.1 2.1 0 0 1 .67-.18c.28 0 .46.19.79.69l1 1.57 1-1.57c.34-.5.49-.69.76-.69a2.21 2.21 0 0 1 .63.17l-1.93 2.77z"/><path d="m51 146.37a3.33 3.33 0 0 1 -1.67.47c-.93 0-1.33-.39-1.33-1.46v-3.88a7.81 7.81 0 0 0 -1 .05c0-.75 0-.81 1-.81v-.58c0-.74.11-.84 1-.84 0 .42-.06.88-.07 1.47h1.81c0 .7 0 .81-.71.81h-1.03v3.68c0 .57.18.74.66.74s.7-.19 1-.19.28.11.34.54z"/><path d="m56.69 143.19v.68h-3.69c0 1.48.5 2.1 1.61 2.1a11.72 11.72 0 0 0 1.48-.26c.31 0 .42.21.46.63a4.61 4.61 0 0 1 -2.11.51c-1.59 0-2.42-.9-2.42-3s.92-3.15 2.63-3.15c1.35-.02 2.04.86 2.04 2.49zm-3.7 0h2.77c0-1.24-.38-1.71-1.25-1.71s-1.41.43-1.51 1.7z"/><path d="m63.14 142.73v4h-1v-3.73c0-1.11-.33-1.42-1-1.42a3.19 3.19 0 0 0 -1.73.56v4.64h-.95v-4.38c0-.55 0-1.26-.07-1.68.86 0 1 .1 1 .84a3.08 3.08 0 0 1 2-.84c1.21-.03 1.75.51 1.75 2.01z"/><path d="m68.78 146a2.72 2.72 0 0 1 -1.87.8c-1.37 0-2.15-.89-2.15-3s.9-3.16 2.39-3.16a2.55 2.55 0 0 1 1.63.6v-1.38c0-.55 0-1.24-.07-1.67.91 0 1 .06 1 .76v6.16c0 .55 0 1.26.07 1.68-.87.05-.98-.03-1-.79zm-1.66 0a2.73 2.73 0 0 0 1.66-.56v-3.44a3 3 0 0 0 -1.62-.45c-.89 0-1.43.49-1.43 2.28s.49 2.17 1.39 2.17z"/><path d="m76.19 143.19v.68h-3.7c0 1.48.5 2.1 1.61 2.1a11.72 11.72 0 0 0 1.48-.26c.31 0 .42.21.46.63a4.61 4.61 0 0 1 -2.11.51c-1.59 0-2.42-.9-2.42-3s.92-3.15 2.63-3.15c1.39-.02 2.05.86 2.05 2.49zm-3.7 0h2.77c0-1.24-.38-1.71-1.25-1.71s-1.41.43-1.52 1.7z"/><path d="m81.55 146a2.72 2.72 0 0 1 -1.87.8c-1.37 0-2.15-.89-2.15-3s.9-3.16 2.39-3.16a2.57 2.57 0 0 1 1.63.6v-1.38a16.7 16.7 0 0 0 -.08-1.67c.92 0 1 .06 1 .76v6.16c0 .55 0 1.26.07 1.68-.86.05-.97-.03-.99-.79zm-1.66 0a2.73 2.73 0 0 0 1.66-.56v-3.44a3 3 0 0 0 -1.62-.45c-.89 0-1.43.49-1.43 2.28s.5 2.17 1.39 2.17z"/><path d="m187.5 45.64a1.43 1.43 0 0 1 -.71.22.65.65 0 0 1 -.61-.37l-1.48-3h-1.43v3.25h-1v-8.13h2c1.78 0 2.71.79 2.71 2.19a2.46 2.46 0 0 1 -1.35 2.38c.47 1.02 1.37 2.64 1.87 3.46zm-3.22-4c1.1 0 1.62-.65 1.62-1.85 0-1-.59-1.39-1.81-1.39h-.82v3.24z"/><path d="m192.79 42.15a6 6 0 0 1 0 .72h-3.39c0 1.53.47 2.1 1.46 2.1a9.28 9.28 0 0 0 1.34-.26c.3 0 .4.2.45.63a4.19 4.19 0 0 1 -1.93.51c-1.49 0-2.29-.87-2.29-3s.84-3.16 2.43-3.16c1.3-.01 1.93.82 1.93 2.46zm-3.42 0h2.51c0-1.26-.36-1.71-1.15-1.71s-1.26.45-1.36 1.74z"/><path d="m196.09 45h.61c1 0 2.05.1 2.05 1.32s-.83 1.86-2.65 1.86c-1.53 0-2.3-.47-2.3-1.36a1.3 1.3 0 0 1 1-1.17.83.83 0 0 1 -.66-.87 1.07 1.07 0 0 1 .82-1 2 2 0 0 1 -.87-1.83 2 2 0 0 1 2.07-2.27 2.35 2.35 0 0 1 1 .18 9.14 9.14 0 0 0 .9-1 .85.85 0 0 1 .34.61.56.56 0 0 1 -.27.46l-.47.29a2.26 2.26 0 0 1 .64 1.72 2 2 0 0 1 -2.07 2.17 2.92 2.92 0 0 1 -.73-.08c-.3.12-.49.32-.49.54-.01.43.44.43 1.08.43zm1.75 1.49c0-.69-.72-.73-1.52-.73h-.43c-.9.07-1.19.51-1.19.94s.41.77 1.5.77 1.64-.3 1.64-.96zm-2.84-4.62c0 1 .37 1.47 1.16 1.47s1.13-.44 1.13-1.46-.36-1.45-1.14-1.45-1.15.43-1.15 1.44z"/><path d="m203.2 45a2.74 2.74 0 0 1 -1.87.82c-1 0-1.41-.57-1.41-1.91v-2.54c0-.55 0-1.26-.07-1.68.91 0 1 .06 1 .71v3.34c0 .9.24 1.24.81 1.24a2.68 2.68 0 0 0 1.52-.54v-4.69h1v4.45c0 .54 0 1.22.07 1.64-.88 0-1.02-.09-1.05-.84z"/><path d="m207.07 38v7.75h-.95v-6.84c0-.55 0-1.24-.07-1.67.95 0 1.02.06 1.02.76z"/><path d="m211.82 45.08a2.26 2.26 0 0 1 -1.65.76 1.46 1.46 0 0 1 -1.6-1.61c0-1.42 1.07-2 3.25-2v-.46c0-.84-.2-1.24-1-1.24-.62 0-1 .42-1.39.42s-.41-.17-.47-.72a5.12 5.12 0 0 1 2.07-.53c1.39 0 1.76.83 1.76 2v2.62c0 .53.05 1.18.08 1.58-.87-.06-1.01-.11-1.05-.82zm0-.65v-1.49c-1.7 0-2.27.28-2.27 1.19a.81.81 0 0 0 .89.91 1.94 1.94 0 0 0 1.38-.61z"/><path d="m217.76 40.17c0 .46-.16.54-.58.62a2 2 0 0 0 -1.58 1.06v3.9h-1v-4.38c0-.55 0-1.26-.07-1.68.94 0 1 .1 1 1v.31a2.18 2.18 0 0 1 2.12-1.36 3.39 3.39 0 0 1 .11.53z"/><path d="m221.64 38.1a1.29 1.29 0 0 1 0 .25l-.19.88 1.62-.46a2.33 2.33 0 0 1 .07.5c0 .32-.14.46-.55.5l-1 .08.95 1.38a1.36 1.36 0 0 1 -.62.24c-.21 0-.33-.13-.46-.41l-.46-.86-1 1.29c-.32-.27-.47-.46-.47-.64s.09-.27.27-.44l.75-.66-1.57-.52c.19-.45.34-.64.57-.64a1 1 0 0 1 .4.13l.89.47v-1.58c.54.05.8.14.8.49z"/><path d="m263.39 45.75h-1.18l-.21-6.75a13.19 13.19 0 0 1 -.5 1.35l-1.67 4h-.93l-1.67-3.92c-.2-.49-.4-1-.53-1.39l-.25 6.75h-1.09l.32-8.25c1.35 0 1.5.14 1.77.8l1.47 3.51c.15.34.35.83.47 1.16.12-.33.32-.82.48-1.16l1.46-3.51c.28-.67.45-.8 1.77-.8z"/><path d="m269.26 42.18a6.8 6.8 0 0 1 0 .76h-3.31c0 1.41.43 1.9 1.37 1.9a10.75 10.75 0 0 0 1.33-.24c.31 0 .43.2.49.73a4.22 4.22 0 0 1 -2 .52c-1.52 0-2.36-.84-2.36-3s.84-3.18 2.48-3.18c1.36-.01 2 .83 2 2.51zm-3.34 0h2.27c0-1.2-.31-1.62-1-1.62s-1.19.37-1.27 1.61z"/><path d="m274 45.06a2.21 2.21 0 0 1 -1.63.78c-1.28 0-1.95-.87-1.95-3s.75-3.18 2.13-3.18a2 2 0 0 1 1.44.59v-1.25c0-.56 0-1.26-.06-1.71 1.1 0 1.2.06 1.2.85v6c0 .56 0 1.25.07 1.72-.97-.02-1.12-.1-1.2-.8zm0-.64v-3.42a2.09 2.09 0 0 0 -1.23-.41c-.76 0-1.18.45-1.18 2.17s.4 2.16 1.1 2.16a2 2 0 0 0 1.31-.5z"/><path d="m278.28 38a.69.69 0 0 1 -.76.78c-.47 0-.72-.24-.72-.75a.68.68 0 0 1 .76-.78.65.65 0 0 1 .72.75zm-.16 2.56v5.2h-1.12v-4.35c0-.56 0-1.26-.07-1.72 1.07 0 1.19.06 1.19.86z"/><path d="m283.08 45a2.63 2.63 0 0 1 -1.84.83c-.95 0-1.41-.57-1.41-1.9v-2.53c0-.55 0-1.25-.07-1.72 1.09 0 1.21.06 1.21.76v3.3c0 .81.22 1.12.75 1.12a2.51 2.51 0 0 0 1.35-.46v-4.65h1.14v4.39c0 .57 0 1.23.07 1.7-.98 0-1.17-.1-1.2-.84z"/><path d="m293.48 41.58v4.17h-1.14v-3.94c0-.89-.23-1.17-.79-1.17a2.19 2.19 0 0 0 -1.24.48v.46 4.17h-1.14v-3.94c0-.86-.23-1.17-.75-1.17a2.17 2.17 0 0 0 -1.26.52v4.59h-1.16v-4.35c0-.55 0-1.25-.08-1.72 1 0 1.17.1 1.2.85a2.6 2.6 0 0 1 1.77-.85 1.22 1.22 0 0 1 1.27.88 2.63 2.63 0 0 1 1.84-.88c1 0 1.48.55 1.48 1.9z"/><path d="m331 37.87c-.13.82-.3 1-.66 1a9.28 9.28 0 0 0 -1.34-.26c-.73 0-1.19.31-1.19 1 0 1.83 3.5.84 3.5 3.76a2.41 2.41 0 0 1 -2.72 2.49 6.76 6.76 0 0 1 -2.4-.44c.13-.88.35-1.06.67-1.06a10 10 0 0 0 1.67.33c.85 0 1.38-.36 1.38-1.17 0-2-3.5-1-3.5-3.78a2.19 2.19 0 0 1 2.47-2.27 6.21 6.21 0 0 1 2.12.4z"/><path d="m336.92 42.19a8.39 8.39 0 0 1 0 .84h-3.21c.05 1.25.39 1.67 1.26 1.67a11.19 11.19 0 0 0 1.3-.24c.33 0 .47.21.54.87a4.28 4.28 0 0 1 -2 .53c-1.57 0-2.45-.82-2.45-3s.85-3.2 2.53-3.2c1.37-.03 2.03.84 2.03 2.53zm-3.25 0h2c0-1.13-.27-1.5-.93-1.5s-.99.31-1.07 1.45z"/><path d="m345.93 41.54v4.21h-1.34v-4c0-.78-.2-1-.71-1a2.09 2.09 0 0 0 -1.09.4v.37 4.21h-1.35v-4c0-.75-.19-1-.67-1a2.2 2.2 0 0 0 -1.12.42v4.56h-1.35v-4.28c0-.56 0-1.26-.06-1.76 1.14 0 1.36.1 1.4.86a2.49 2.49 0 0 1 1.77-.86 1.18 1.18 0 0 1 1.26.89 2.6 2.6 0 0 1 1.86-.89c.96 0 1.4.55 1.4 1.87z"/><path d="m349 37.94a.78.78 0 0 1 -.89.86.73.73 0 0 1 -.82-.83.77.77 0 0 1 .88-.85.74.74 0 0 1 .83.82zm-.17 2.7v5.11h-1.33v-4.3c0-.58 0-1.26-.06-1.78 1.31 0 1.41.06 1.41.97z"/><path d="m355.28 42.66c0 2.19-.74 3.18-2.12 3.18a1.91 1.91 0 0 1 -1.4-.6c-.06.58-.27.6-1.41.6 0-.51.08-1.2.08-1.77v-5.07c0-.57 0-1.26-.08-1.77 1.32 0 1.42.06 1.42 1v2.23a2.1 2.1 0 0 1 1.55-.74c1.29-.05 1.96.84 1.96 2.94zm-1.39.11c0-1.58-.35-2-1-2a1.88 1.88 0 0 0 -1.13.39v3.34a2 2 0 0 0 1.1.33c.67-.04 1.03-.46 1.03-2.06z"/><path d="m361.34 42.73c0 2.15-.85 3.13-2.53 3.13s-2.47-1-2.47-3.08.85-3.15 2.53-3.15 2.47.99 2.47 3.1zm-3.61 0c0 1.53.34 2.06 1.12 2.06s1.1-.51 1.1-2.08-.32-2.08-1.1-2.08-1.12.54-1.12 2.14z"/><path d="m364.05 38.18v7.57h-1.35v-6.75c0-.57 0-1.26-.06-1.77 1.36-.01 1.41.05 1.41.95z"/><path d="m368.93 45.07a2.11 2.11 0 0 1 -1.57.77c-1.3 0-2-.89-2-3s.75-3.19 2.13-3.19a1.88 1.88 0 0 1 1.37.56v-1.21c0-.57 0-1.26-.06-1.77 1.32 0 1.42.06 1.42 1v5.89c0 .58 0 1.26.07 1.77-1.12-.05-1.29-.11-1.36-.82zm0-.69v-3.38a1.92 1.92 0 0 0 -1.09-.33c-.66 0-1 .42-1 2s.35 2.05 1 2.05a1.86 1.86 0 0 0 1.06-.34z"/><path d="m417.6 43.35c0 1.59-1 2.4-2.69 2.4h-2.67v-8.17h2.26c1.78 0 2.69.74 2.69 1.91a1.71 1.71 0 0 1 -1.37 1.8 1.93 1.93 0 0 1 1.78 2.06zm-3.22-4.57h-.53v2.22h.54c.83 0 1.2-.3 1.2-1.19s-.32-1.03-1.21-1.03zm1.54 4.55c0-.91-.47-1.15-1.54-1.15h-.53v2.34h.74c.98 0 1.33-.3 1.33-1.19z"/><path d="m423.61 42.73c0 2.13-.86 3.13-2.59 3.13s-2.54-1-2.54-3.09.85-3.16 2.56-3.16 2.57 1.01 2.57 3.12zm-3.53 0c0 1.48.29 1.95 1 1.95s1-.46 1-2-.29-2-1-2-1 .54-1 2.09z"/><path d="m426.39 38.28v7.47h-1.56v-6.75c0-.59 0-1.28-.05-1.83 1.52.04 1.61.11 1.61 1.11z"/><path d="m431.09 45.09a2 2 0 0 1 -1.52.75c-1.3 0-1.95-.92-1.95-3s.72-3.19 2.1-3.19a1.88 1.88 0 0 1 1.33.53v-1.18c0-.59 0-1.28-.06-1.83 1.53 0 1.63.07 1.63 1.07v5.76c0 .58 0 1.26.07 1.82-1.33.02-1.52-.04-1.6-.73zm0-.74v-3.28a1.87 1.87 0 0 0 -.94-.26c-.58 0-.9.41-.9 1.91s.32 1.93.89 1.93a1.75 1.75 0 0 0 .91-.3z"/></g><path d="m120 67c0 .67-.07.74-.58.74h-3.13v-6.6c0-.54 0-1.24-.06-1.63.76 0 .86.06.86.66v6.89h1.46c.45 0 1.08-.06 1.45-.06z"/><path d="m122.19 60.08c0 .42-.19.63-.55.63s-.51-.2-.51-.62.19-.64.55-.64.51.21.51.63zm-.14 2.3v5.37h-.75v-4.4c0-.54 0-1.25-.06-1.63.68 0 .81.06.81.66z"/><path d="m125.87 67.07c1 0 2 .06 2 1.3s-.74 1.83-2.44 1.83c-1.5 0-2.21-.52-2.21-1.38a1.37 1.37 0 0 1 .94-1.24.8.8 0 0 1 -.6-.84 1 1 0 0 1 .72-1 2 2 0 0 1 -.77-1.8c0-1.48.73-2.26 1.91-2.26a2.13 2.13 0 0 1 .9.18 7.79 7.79 0 0 0 .88-1 .77.77 0 0 1 .31.57.54.54 0 0 1 -.28.45l-.5.33a2.31 2.31 0 0 1 .59 1.72 1.93 1.93 0 0 1 -1.89 2.17 2.75 2.75 0 0 1 -.73-.09c-.32.12-.5.33-.5.56.06.56.8.5 1.67.5zm1.3 1.4c0-.78-.81-.78-1.68-.78h-.1c-1 0-1.37.57-1.37 1s.45.83 1.52.83 1.63-.35 1.63-1.05zm-2.88-4.59c0 1.1.36 1.54 1.19 1.54s1.14-.44 1.14-1.52-.32-1.53-1.15-1.53-1.18.43-1.18 1.51z"/><path d="m132.85 63.52v4.23h-.76v-4.1c0-.94-.2-1.22-.75-1.22a2.38 2.38 0 0 0 -1.55.61v4.71h-.79v-6.87c0-.54 0-1.25-.06-1.63.71 0 .81.06.81.66v2.56a2.57 2.57 0 0 1 1.74-.76c.99 0 1.36.54 1.36 1.81z"/><path d="m137.35 67.4a3 3 0 0 1 -1.37.44c-.74 0-1.08-.35-1.08-1.36v-4.09a8.71 8.71 0 0 0 -.91 0c0-.61 0-.67.91-.69v-.7c0-.6.1-.66.82-.66a13.77 13.77 0 0 0 -.06 1.42h1.5c0 .58 0 .69-.59.69h-.91v3.9c0 .62.14.78.53.78a1 1 0 0 0 .46-.12.88.88 0 0 1 .34-.1c.25-.01.32.19.36.49z"/><path d="m107.27 72c-.07.52-.2.63-.41.63a1.06 1.06 0 0 1 -.46-.14 2.57 2.57 0 0 0 -1-.22c-1.3 0-1.82 1-1.82 3.47s.49 3.34 1.69 3.34a3.23 3.23 0 0 0 1.23-.29 1.88 1.88 0 0 1 .51-.14c.22 0 .31.2.34.5a3.9 3.9 0 0 1 -2.24.73c-1.59 0-2.39-1.15-2.39-4 0-3 .86-4.38 2.68-4.38a4.1 4.1 0 0 1 1.87.5z"/><path d="m112.58 76.69c0 2.17-.77 3.15-2.19 3.15s-2-.92-2-3 .77-3.13 2.18-3.13 2.01.91 2.01 2.98zm-3.46.06c0 1.75.4 2.4 1.33 2.4s1.35-.62 1.35-2.37-.41-2.39-1.35-2.39-1.33.61-1.33 2.36z"/><path d="m118 75.52v4.23h-.76v-4.1c0-.94-.2-1.22-.75-1.22a2.36 2.36 0 0 0 -1.55.61v4.71h-.76v-4.41c0-.54 0-1.25-.06-1.63.66 0 .79.07.82.76a2.57 2.57 0 0 1 1.74-.76c.94 0 1.32.54 1.32 1.81z"/><path d="m122.79 79.07a2.38 2.38 0 0 1 -1.57.77c-1.15 0-1.75-.78-1.75-3s.64-3.16 1.91-3.16a1.93 1.93 0 0 1 1.4.6v-1.4c0-.54 0-1.25-.06-1.63.72 0 .81.06.81.66v6.32c0 .54 0 1.22.06 1.61-.59 0-.78-.08-.8-.77zm-1.44.08a2 2 0 0 0 1.43-.67v-3.59a1.88 1.88 0 0 0 -1.26-.5c-.84 0-1.27.38-1.27 2.38s.4 2.38 1.1 2.38z"/><path d="m129.11 76.13v.67h-3.18c0 1.73.45 2.32 1.39 2.32a2.17 2.17 0 0 0 .86-.18 1.3 1.3 0 0 1 .4-.1c.26 0 .34.2.37.5a3.62 3.62 0 0 1 -1.71.5c-1.32 0-2.09-.84-2.09-3s.75-3.16 2.22-3.16c1.2.03 1.74.81 1.74 2.45zm-3.19.06h2.46c0-1.33-.35-1.8-1.15-1.8s-1.23.42-1.31 1.8z"/><path d="m134.55 75.52v4.23h-.76v-4.1c0-.94-.2-1.22-.75-1.22a2.36 2.36 0 0 0 -1.55.61v4.71h-.76v-4.41c0-.54 0-1.25-.06-1.63.66 0 .79.07.82.76a2.57 2.57 0 0 1 1.74-.76c.94 0 1.32.54 1.32 1.81z"/><path d="m139.17 74c-.09.47-.21.65-.43.65a.93.93 0 0 1 -.34-.1 1.55 1.55 0 0 0 -.64-.15c-.56 0-1 .24-1 .86s.52.87 1.08 1.07 1.45.5 1.45 1.71a1.64 1.64 0 0 1 -1.83 1.8 5.64 5.64 0 0 1 -1.61-.28c.07-.51.22-.68.47-.68a1 1 0 0 1 .36.1 2 2 0 0 0 .78.17c.61 0 1.08-.27 1.08-1s-.58-1-1.18-1.21-1.36-.5-1.36-1.58a1.56 1.56 0 0 1 1.74-1.65 4.34 4.34 0 0 1 1.43.29z"/><path d="m144.51 76.13v.67h-3.21c0 1.73.46 2.32 1.4 2.32a2.26 2.26 0 0 0 .86-.18 1.18 1.18 0 0 1 .4-.1c.26 0 .33.2.37.5a3.66 3.66 0 0 1 -1.72.5c-1.32 0-2.08-.84-2.08-3s.75-3.16 2.21-3.16c1.26.03 1.77.81 1.77 2.45zm-3.19.06h2.46c0-1.33-.35-1.8-1.16-1.8s-1.22.42-1.3 1.8z"/><path d="m149.13 79.07a2.38 2.38 0 0 1 -1.57.77c-1.16 0-1.75-.78-1.75-3s.64-3.16 1.91-3.16a1.93 1.93 0 0 1 1.4.6v-1.4c0-.54 0-1.25-.06-1.63.71 0 .81.06.81.66v6.32c0 .54 0 1.22.06 1.61-.62 0-.78-.08-.8-.77zm-1.44.08a2 2 0 0 0 1.43-.67v-3.59a1.88 1.88 0 0 0 -1.26-.5c-.84 0-1.28.38-1.28 2.38s.42 2.38 1.11 2.38z"/><path d="m189.2 67.64a1.36 1.36 0 0 1 -.67.22.65.65 0 0 1 -.63-.42l-1.32-2.94h-1.25v3.25h-1v-8.14h1.84c1.61 0 2.49.84 2.49 2.19a2.5 2.5 0 0 1 -1.23 2.37c.5 1.01 1.32 2.66 1.77 3.47zm-3-4c1.05 0 1.44-.65 1.44-1.85s-.64-1.34-1.64-1.34h-.69v3.24z" fill="#fff"/><path d="m194.05 64.14v.73h-3.08c0 1.59.42 2.1 1.29 2.1.63 0 .91-.26 1.23-.26s.38.2.42.63a3.69 3.69 0 0 1 -1.77.51c-1.36 0-2.16-.83-2.16-3s.77-3.18 2.27-3.18c1.21.01 1.8.8 1.8 2.47zm-3.11 0h2.21c0-1.27-.32-1.71-1-1.71s-1.15.44-1.21 1.75z" fill="#fff"/><path d="m197.23 67h.55c.95 0 1.95.1 1.95 1.32s-.73 1.88-2.53 1.88c-1.47 0-2.23-.49-2.23-1.36a1.28 1.28 0 0 1 .95-1.17.82.82 0 0 1 -.62-.87 1.06 1.06 0 0 1 .76-1 1.94 1.94 0 0 1 -.81-1.82c0-1.5.75-2.28 2-2.28a2.17 2.17 0 0 1 .93.18 9.14 9.14 0 0 0 .9-1 .82.82 0 0 1 .34.61.55.55 0 0 1 -.28.46l-.48.3a2.38 2.38 0 0 1 .59 1.73 1.93 1.93 0 0 1 -2 2.15 2.89 2.89 0 0 1 -.7-.08.62.62 0 0 0 -.45.53c.02.42.51.42 1.13.42zm1.6 1.49c0-.69-.67-.73-1.42-.73h-.41c-.85.07-1.12.51-1.12.94s.42.77 1.43.77 1.52-.32 1.52-.96zm-2.65-4.64c0 1.06.33 1.47 1.08 1.47s1-.41 1-1.45-.28-1.46-1-1.46-1.08.41-1.08 1.46z" fill="#fff"/><path d="m203.72 67.06a2.42 2.42 0 0 1 -1.71.78c-.85 0-1.24-.54-1.24-1.79v-2.68c0-.55 0-1.26-.06-1.68.91 0 1 .06 1 .71v3.47c0 .89.2 1.11.67 1.11a2.15 2.15 0 0 0 1.32-.51v-4.72h1v4.45c0 .54 0 1.22.06 1.64-.85 0-1.01-.09-1.04-.78z" fill="#fff"/><path d="m207.38 60v7.75h-.95v-6.84c0-.55 0-1.24-.06-1.67.92 0 1.01.06 1.01.76z" fill="#fff"/><path d="m211.66 67.12a2 2 0 0 1 -1.49.72 1.41 1.41 0 0 1 -1.48-1.61c0-1.38 1-2 3-2v-.53c0-.82-.18-1.19-.86-1.19s-.9.41-1.29.41-.4-.18-.47-.72a4.81 4.81 0 0 1 1.94-.52c1.26 0 1.63.83 1.63 2v2.62c0 .53 0 1.18.08 1.58-.91-.04-1.03-.08-1.06-.76zm0-.66v-1.53c-1.45 0-2 .27-2 1.18 0 .63.25.93.78.93a1.67 1.67 0 0 0 1.22-.58z" fill="#fff"/><path d="m217.22 62.19c0 .44-.16.54-.57.61a1.7 1.7 0 0 0 -1.41 1v3.92h-1v-4.35c0-.55 0-1.26-.06-1.68.93 0 1 .09 1 1v.31a2 2 0 0 1 1.94-1.36 3.53 3.53 0 0 1 .1.55z" fill="#fff"/><path d="m181.29 72c-.1.62-.23.77-.46.77-.39 0-.7-.35-1.43-.35-1.18 0-1.68.93-1.68 3.35s.46 3.17 1.55 3.17c.77 0 1.32-.42 1.68-.42s.34.22.42.62a3.9 3.9 0 0 1 -2.28.75c-1.61 0-2.42-1.14-2.42-4 0-3 .88-4.37 2.71-4.37a4.15 4.15 0 0 1 1.91.48z"/><path d="m186.64 76.71c0 2.15-.78 3.14-2.24 3.14s-2.13-.94-2.13-3 .78-3.15 2.23-3.15 2.14.92 2.14 3.01zm-3.39 0c0 1.72.36 2.29 1.2 2.29s1.2-.56 1.2-2.27-.36-2.28-1.2-2.28-1.2.55-1.2 2.3z"/><path d="m192.06 75.48v4.27h-1v-4.09c0-.85-.18-1.11-.68-1.11a2.24 2.24 0 0 0 -1.37.51v4.69h-1v-4.38c0-.55 0-1.26-.06-1.68.81 0 1 .08 1 .78a2.4 2.4 0 0 1 1.71-.78c1.02 0 1.4.54 1.4 1.79z"/><path d="m196.67 79.08a2.12 2.12 0 0 1 -1.53.76c-1.15 0-1.75-.81-1.75-3s.65-3.2 1.92-3.2a1.89 1.89 0 0 1 1.35.59v-1.32a16.7 16.7 0 0 0 -.08-1.67c.94 0 1 .06 1 .76v6.18c0 .55 0 1.24.06 1.66-.77 0-.94-.06-.97-.76zm0-.64v-3.51a1.72 1.72 0 0 0 -1.13-.43c-.76 0-1.15.38-1.15 2.25s.37 2.28 1 2.28a1.77 1.77 0 0 0 1.27-.59z"/><path d="m203.16 76.14a6.29 6.29 0 0 1 0 .73h-3.16c0 1.59.42 2.1 1.3 2.1.62 0 .91-.26 1.22-.26s.38.2.42.63a3.61 3.61 0 0 1 -1.76.51c-1.37 0-2.16-.83-2.16-3s.76-3.18 2.26-3.18c1.29.01 1.88.8 1.88 2.47zm-3.11 0h2.21c0-1.27-.31-1.71-1-1.71s-1.14.44-1.21 1.75z"/><path d="m208.61 75.48v4.27h-1v-4.09c0-.85-.18-1.11-.69-1.11a2.21 2.21 0 0 0 -1.36.51v4.69h-1v-4.38c0-.55 0-1.26-.06-1.68.81 0 1 .08 1 .78a2.4 2.4 0 0 1 1.71-.78c1.01 0 1.4.54 1.4 1.79z"/><path d="m213.23 74c-.11.58-.24.76-.48.76s-.52-.24-1-.24-.88.22-.88.78c0 1.39 2.47.51 2.47 2.72a1.71 1.71 0 0 1 -1.92 1.85 5 5 0 0 1 -1.65-.32c.09-.58.24-.78.51-.78s.55.27 1.12.27 1-.25 1-.91c0-1.56-2.46-.64-2.46-2.71a1.61 1.61 0 0 1 1.81-1.71 4.79 4.79 0 0 1 1.48.29z"/><path d="m218.55 76.14v.73h-3.08c0 1.59.42 2.1 1.29 2.1.62 0 .91-.26 1.22-.26s.39.2.42.63a3.61 3.61 0 0 1 -1.76.51c-1.37 0-2.16-.83-2.16-3s.77-3.18 2.27-3.18c1.25.01 1.8.8 1.8 2.47zm-3.1 0h2.2c0-1.27-.31-1.71-1-1.71s-1.13.44-1.2 1.75z"/><path d="m223 79.08a2.12 2.12 0 0 1 -1.53.76c-1.15 0-1.75-.81-1.75-3s.65-3.2 1.92-3.2a1.89 1.89 0 0 1 1.35.59v-1.32a16.7 16.7 0 0 0 -.08-1.67c.94 0 1 .06 1 .76v6.18c0 .55 0 1.24.06 1.66-.76 0-.97-.06-.97-.76zm0-.64v-3.51a1.72 1.72 0 0 0 -1.13-.43c-.76 0-1.15.38-1.15 2.25s.37 2.28 1 2.28a1.77 1.77 0 0 0 1.28-.59z"/><path d="m264.4 67.75h-1.18l-.19-6.7c-.1.38-.25.86-.43 1.36l-1.47 3.9h-1l-1.42-3.81c-.17-.49-.36-1-.48-1.45l-.23 6.7h-1l.3-8.25c1.33 0 1.52.17 1.75.85l1.26 3.44c.12.32.32.88.4 1.14.07-.26.28-.82.4-1.14l1.26-3.44c.25-.68.45-.85 1.78-.85z"/><path d="m269.8 64.09a6.33 6.33 0 0 1 -.05.85h-3c0 1.46.37 1.9 1.21 1.9a8.84 8.84 0 0 0 1.2-.24c.29 0 .41.19.47.73a3.67 3.67 0 0 1 -1.82.52c-1.4 0-2.22-.81-2.22-3s.76-3.19 2.29-3.19c1.28 0 1.92.78 1.92 2.43zm-3 .08h2c0-1.23-.27-1.62-.93-1.62s-1.02.37-1.09 1.62z"/><path d="m274.11 67.08a2 2 0 0 1 -1.49.76c-1.15 0-1.74-.83-1.74-3s.62-3.21 1.9-3.21a1.73 1.73 0 0 1 1.3.58v-1.21c0-.56 0-1.26-.06-1.71 1.1 0 1.2.06 1.2.85v6c0 .57 0 1.24.06 1.71-.93-.01-1.13-.07-1.17-.77zm0-.65v-3.43a1.55 1.55 0 0 0 -1-.37c-.68 0-1 .4-1 2.16s.33 2.17.92 2.17a1.67 1.67 0 0 0 1.05-.53z"/><path d="m278.11 60a.69.69 0 0 1 -.76.78c-.47 0-.72-.24-.72-.75a.68.68 0 0 1 .76-.78.66.66 0 0 1 .72.75zm-.11 2.55v5.2h-1.13v-4.34c0-.56 0-1.26-.07-1.72 1.05 0 1.2.06 1.2.86z"/><path d="m282.38 67a2.3 2.3 0 0 1 -1.7.81c-.84 0-1.22-.54-1.22-1.76v-2.65c0-.55 0-1.25-.07-1.72 1.09 0 1.2.06 1.2.76v3.42c0 .8.19 1 .62 1a1.89 1.89 0 0 0 1.16-.44v-4.67h1.14v4.39c0 .57 0 1.23.06 1.7-.97 0-1.16-.1-1.19-.84z"/><path d="m291.84 63.43v4.32h-1.14v-4.09c0-.77-.17-1-.62-1a1.86 1.86 0 0 0 -1.05.42v.36 4.32h-1.13v-4.1c0-.77-.17-1-.63-1a1.79 1.79 0 0 0 -1 .44v4.66h-1.13v-4.36c0-.55 0-1.25-.07-1.72 1 0 1.16.09 1.2.81a2.19 2.19 0 0 1 1.58-.81 1.07 1.07 0 0 1 1.12.82 2.44 2.44 0 0 1 1.7-.82c.77 0 1.17.54 1.17 1.75z"/><path d="m255.31 72c-.13.73-.28.9-.54.9s-.68-.33-1.36-.33c-1.08 0-1.55.87-1.55 3.21s.42 3 1.41 3c.72 0 1.25-.41 1.62-.41s.4.24.51.71a3.83 3.83 0 0 1 -2.33.79c-1.61 0-2.46-1.13-2.46-4 0-3.07.93-4.35 2.75-4.35a4.52 4.52 0 0 1 1.95.48z"/><path d="m260.69 76.71c0 2.15-.78 3.14-2.29 3.14s-2.2-.95-2.2-3 .77-3.14 2.27-3.14 2.22.9 2.22 3zm-3.31 0c0 1.68.31 2.2 1.07 2.2s1.06-.51 1.06-2.18-.32-2.21-1.08-2.21-1.05.55-1.05 2.23z"/><path d="m266.11 75.43v4.32h-1.11v-4.09c0-.77-.16-1-.63-1a2 2 0 0 0 -1.2.46v4.64h-1.17v-4.36c0-.55 0-1.25-.07-1.72 1 0 1.16.09 1.2.83a2.33 2.33 0 0 1 1.7-.83c.9 0 1.28.54 1.28 1.75z"/><path d="m270.57 79.08a2 2 0 0 1 -1.49.76c-1.15 0-1.74-.83-1.74-3s.62-3.21 1.89-3.21a1.73 1.73 0 0 1 1.31.58v-1.21c0-.56 0-1.26-.06-1.71 1.11 0 1.2.06 1.2.85v6c0 .57 0 1.24.06 1.71-.93-.01-1.13-.07-1.17-.77zm0-.65v-3.43a1.55 1.55 0 0 0 -1-.37c-.69 0-1 .4-1 2.16s.32 2.17.91 2.17a1.67 1.67 0 0 0 1.06-.53z"/><path d="m277.2 76.09a6.33 6.33 0 0 1 -.05.85h-3c0 1.46.37 1.9 1.21 1.9.6 0 .87-.24 1.2-.24s.41.19.46.73a3.67 3.67 0 0 1 -1.82.52c-1.4 0-2.22-.81-2.22-3s.76-3.19 2.29-3.19c1.3 0 1.93.78 1.93 2.43zm-3 .08h2c0-1.23-.28-1.62-.94-1.62s-1.01.37-1.08 1.62z"/><path d="m282.66 75.43v4.32h-1.14v-4.09c0-.77-.17-1-.63-1a2 2 0 0 0 -1.2.46v4.64h-1.13v-4.36c0-.55 0-1.25-.07-1.72 1 0 1.16.09 1.2.83a2.32 2.32 0 0 1 1.7-.83c.89 0 1.27.54 1.27 1.75z"/><path d="m287.29 74c-.13.66-.27.84-.51.84s-.55-.23-1-.23-.79.22-.79.72c0 1.28 2.4.46 2.4 2.65a1.76 1.76 0 0 1 -2 1.9 5.06 5.06 0 0 1 -1.72-.33c.12-.67.28-.87.55-.87s.58.25 1.11.25a.77.77 0 0 0 .88-.84c0-1.45-2.38-.58-2.38-2.64a1.66 1.66 0 0 1 1.88-1.76 4.09 4.09 0 0 1 1.58.31z"/><path d="m292.6 76.09c0 .27 0 .55-.05.85h-3c0 1.46.37 1.9 1.21 1.9a8.84 8.84 0 0 0 1.2-.24c.29 0 .41.19.47.73a3.67 3.67 0 0 1 -1.82.52c-1.41 0-2.22-.81-2.22-3s.75-3.19 2.29-3.19c1.32 0 1.92.78 1.92 2.43zm-3 .08h2c0-1.23-.27-1.62-.93-1.62s-1.02.37-1.1 1.62z"/><path d="m296.91 79.08a2 2 0 0 1 -1.49.76c-1.15 0-1.74-.83-1.74-3s.62-3.21 1.89-3.21a1.73 1.73 0 0 1 1.31.58v-1.21c0-.56 0-1.26-.06-1.71 1.1 0 1.2.06 1.2.85v6c0 .57 0 1.24.06 1.71-.94-.01-1.08-.07-1.17-.77zm0-.65v-3.43a1.55 1.55 0 0 0 -1-.37c-.68 0-1 .4-1 2.16s.33 2.17.92 2.17a1.67 1.67 0 0 0 1.05-.53z"/><path d="m332.54 59.87c-.14.83-.3 1-.66 1s-.59-.25-1.15-.25-1.08.31-1.08 1c0 1.81 3.15.85 3.15 3.77a2.29 2.29 0 0 1 -2.51 2.48 6.22 6.22 0 0 1 -2.22-.44c.12-.9.31-1 .63-1a9.34 9.34 0 0 0 1.5.3 1.05 1.05 0 0 0 1.19-1.17c0-2-3.14-1-3.14-3.78a2.1 2.1 0 0 1 2.29-2.27 5.56 5.56 0 0 1 2 .36z"/><path d="m338 64.13c0 .28 0 .58-.05.9h-2.88c0 1.27.35 1.67 1.1 1.67.57 0 .84-.24 1.17-.24s.45.19.51.87a3.65 3.65 0 0 1 -1.86.53c-1.46 0-2.3-.79-2.3-3s.77-3.2 2.34-3.2c1.29-.03 1.97.75 1.97 2.47zm-2.93 0h1.72c0-1.14-.24-1.5-.81-1.5s-.87.37-.93 1.51z"/><path d="m346.15 63.4v4.35h-1.36v-4.08c0-.67-.14-.88-.55-.88a1.59 1.59 0 0 0 -.9.34 2.35 2.35 0 0 1 0 .27v4.35h-1.34v-4.08c0-.67-.15-.88-.55-.88a1.56 1.56 0 0 0 -.89.34v4.62h-1.36v-4.32c0-.56 0-1.26-.07-1.76 1.13 0 1.37.1 1.42.8a2.17 2.17 0 0 1 1.6-.8 1 1 0 0 1 1.1.84 2.37 2.37 0 0 1 1.71-.84c.78 0 1.19.54 1.19 1.73z"/><path d="m349 59.94a.78.78 0 0 1 -.89.86.73.73 0 0 1 -.82-.83.77.77 0 0 1 .88-.85.74.74 0 0 1 .83.82zm-.15 2.7v5.11h-1.36v-4.3c0-.58 0-1.26-.07-1.78 1.31 0 1.41.06 1.41.97z"/><path d="m354.66 64.61c0 2.21-.63 3.23-1.9 3.23a1.63 1.63 0 0 1 -1.27-.6c-.07.57-.26.6-1.4.6 0-.51.07-1.2.07-1.77v-5.07c0-.57 0-1.26-.06-1.77 1.33 0 1.41.06 1.41 1v2.19a1.89 1.89 0 0 1 1.4-.7c1.16-.05 1.75.81 1.75 2.89zm-1.39.16c0-1.6-.29-2-.82-2a1.45 1.45 0 0 0 -.94.37v3.39a1.5 1.5 0 0 0 .88.29c.61-.04.88-.44.88-2.05z"/><path d="m360.21 64.72c0 2.14-.79 3.14-2.33 3.14s-2.28-1-2.28-3.07.78-3.16 2.31-3.16 2.3.98 2.3 3.09zm-3.22 0c0 1.63.26 2.08.92 2.08s.91-.43.91-2.08-.27-2.08-.92-2.08-.9.46-.9 2.11z"/><path d="m362.73 60.18v7.57h-1.35v-6.75c0-.57 0-1.26-.06-1.77 1.33-.01 1.41.05 1.41.95z"/><path d="m367.08 67.1a1.87 1.87 0 0 1 -1.43.74c-1.16 0-1.74-.87-1.74-2.94s.63-3.23 1.9-3.23a1.65 1.65 0 0 1 1.24.55v-1.22c0-.57 0-1.26-.07-1.77 1.34 0 1.43.06 1.43 1v5.9c0 .57 0 1.25.06 1.76-1.13-.05-1.32-.1-1.39-.79zm0-.69v-3.41a1.34 1.34 0 0 0 -.86-.3c-.59 0-.89.4-.89 2s.29 2 .82 2a1.39 1.39 0 0 0 .9-.29z"/><path d="m329.31 72c-.17.85-.33 1-.6 1s-.67-.3-1.32-.3c-.95 0-1.41.78-1.41 3.06 0 2.1.4 2.86 1.26 2.86.69 0 1.18-.39 1.56-.39s.45.25.59.83a3.81 3.81 0 0 1 -2.37.81c-1.61 0-2.49-1.1-2.49-4.05 0-3.11 1-4.34 2.79-4.34a4.6 4.6 0 0 1 1.99.52z"/><path d="m334.72 76.72c0 2.14-.79 3.14-2.34 3.14s-2.28-1-2.28-3.07.78-3.16 2.32-3.16 2.3.98 2.3 3.09zm-3.23 0c0 1.63.27 2.08.93 2.08s.91-.43.91-2.08-.28-2.08-.93-2.08-.91.46-.91 2.11z"/><path d="m340.17 75.4v4.35h-1.36v-4.08c0-.67-.14-.88-.55-.88a1.8 1.8 0 0 0 -1 .36v4.6h-1.36v-4.32c0-.56 0-1.26-.07-1.76 1.12 0 1.38.1 1.41.82a2.27 2.27 0 0 1 1.69-.82c.84 0 1.24.54 1.24 1.73z"/><path d="m344.42 79.1a1.88 1.88 0 0 1 -1.43.74c-1.16 0-1.74-.87-1.74-2.94s.62-3.23 1.89-3.23a1.67 1.67 0 0 1 1.25.55v-1.22c0-.57 0-1.26-.07-1.77 1.34 0 1.43.06 1.43 1v5.9c0 .57 0 1.25.06 1.76-1.13-.05-1.32-.1-1.39-.79zm0-.69v-3.41a1.34 1.34 0 0 0 -.86-.3c-.59 0-.89.4-.89 2s.29 2 .82 2a1.43 1.43 0 0 0 .9-.29z"/><path d="m351.23 76.13a7.18 7.18 0 0 1 -.05.9h-2.88c0 1.27.35 1.67 1.11 1.67.56 0 .84-.24 1.16-.24s.46.19.52.87a3.65 3.65 0 0 1 -1.86.53c-1.47 0-2.3-.79-2.3-3s.76-3.2 2.33-3.2c1.31-.03 1.97.75 1.97 2.47zm-2.93 0h1.7c0-1.14-.24-1.5-.8-1.5s-.84.37-.9 1.51z"/><path d="m356.73 75.4v4.35h-1.36v-4.08c0-.67-.14-.88-.55-.88a1.8 1.8 0 0 0 -1 .36v4.6h-1.35v-4.32c0-.56 0-1.26-.08-1.76 1.13 0 1.38.1 1.42.82a2.27 2.27 0 0 1 1.69-.82c.83 0 1.23.54 1.23 1.73z"/><path d="m361.36 74c-.16.78-.31 1-.55 1s-.59-.22-1-.22-.69.19-.69.63c0 1.15 2.33.39 2.33 2.59a1.81 1.81 0 0 1 -2.06 1.94 5.12 5.12 0 0 1 -1.78-.35c.16-.77.31-1 .61-1s.6.25 1.08.25a.69.69 0 0 0 .78-.75c0-1.3-2.3-.5-2.3-2.57a1.71 1.71 0 0 1 1.95-1.82 4.43 4.43 0 0 1 1.63.3z"/><path d="m366.64 76.13a7.18 7.18 0 0 1 -.05.9h-2.88c0 1.27.35 1.67 1.11 1.67.56 0 .84-.24 1.16-.24s.45.19.51.87a3.64 3.64 0 0 1 -1.85.53c-1.47 0-2.31-.79-2.31-3s.77-3.2 2.34-3.2c1.33-.03 1.97.75 1.97 2.47zm-2.93 0h1.72c0-1.14-.24-1.5-.81-1.5s-.85.37-.91 1.51z"/><path d="m370.79 79.1a1.85 1.85 0 0 1 -1.43.74c-1.16 0-1.74-.87-1.74-2.94s.63-3.23 1.9-3.23a1.68 1.68 0 0 1 1.25.55v-1.22c0-.57 0-1.26-.07-1.77 1.34 0 1.42.06 1.42 1v5.9c0 .57 0 1.25.06 1.76-1.13-.05-1.32-.1-1.39-.79zm0-.69v-3.41a1.35 1.35 0 0 0 -.87-.3c-.58 0-.88.4-.88 2s.28 2 .81 2a1.43 1.43 0 0 0 .92-.29z"/><path d="m418.11 65.34a2.22 2.22 0 0 1 -2.48 2.41h-2.57v-8.17h2.24c1.56 0 2.41.72 2.41 1.91a1.67 1.67 0 0 1 -1.29 1.8 1.89 1.89 0 0 1 1.69 2.05zm-3-4.56h-.47v2.22h.47c.68 0 1-.3 1-1.19s-.23-1.03-.96-1.03zm1.28 4.52c0-.88-.35-1.12-1.31-1.12h-.44v2.34h.6c.91 0 1.19-.3 1.19-1.22z"/><path d="m423.58 64.73c0 2.13-.79 3.13-2.39 3.13s-2.36-1-2.36-3.09.78-3.16 2.38-3.16 2.37 1 2.37 3.12zm-3.14 0c0 1.6.21 2 .77 2s.76-.37.76-2-.22-2-.76-2-.77.4-.77 2.02z"/><path d="m426.16 60.28v7.47h-1.56v-6.75c0-.59 0-1.28-.06-1.83 1.54.04 1.62.11 1.62 1.11z"/><path d="m430.3 67.12a1.75 1.75 0 0 1 -1.38.72c-1.17 0-1.74-.89-1.74-2.94 0-2.21.61-3.24 1.89-3.24a1.56 1.56 0 0 1 1.2.53v-1.19c0-.59 0-1.28-.08-1.83 1.56 0 1.64.07 1.64 1.07v5.76c0 .59 0 1.26.07 1.82-1.3.02-1.51-.03-1.6-.7zm0-.75v-3.32a1.21 1.21 0 0 0 -.74-.24c-.49 0-.74.4-.74 1.91s.24 1.93.71 1.93a1.22 1.22 0 0 0 .74-.28z"/><path d="m403.33 72c-.19 1-.37 1.18-.67 1.18s-.66-.27-1.26-.27c-.83 0-1.25.68-1.25 2.89 0 2 .35 2.71 1.11 2.71s1.09-.4 1.48-.4.49.29.69 1a3.77 3.77 0 0 1 -2.43.85c-1.6 0-2.53-1.09-2.53-4.08 0-3.14 1-4.33 2.83-4.33a4.54 4.54 0 0 1 2.03.45z"/><path d="m408.78 76.73c0 2.13-.79 3.13-2.39 3.13s-2.36-1-2.36-3.09.78-3.16 2.37-3.16 2.38 1 2.38 3.12zm-3.14 0c0 1.6.21 2 .76 2s.77-.37.77-2-.23-2-.77-2-.76.4-.76 2.02z"/><path d="m414.24 75.35v4.4h-1.56v-4.06c0-.59-.13-.78-.49-.78a1.52 1.52 0 0 0 -.82.28v4.56h-1.56v-4.28c0-.58 0-1.26-.07-1.81 1.28 0 1.57.09 1.62.84a2.19 2.19 0 0 1 1.68-.84c.79 0 1.2.54 1.2 1.69z"/><path d="m418.29 79.12a1.74 1.74 0 0 1 -1.37.72c-1.18 0-1.74-.89-1.74-2.94 0-2.21.61-3.24 1.88-3.24a1.55 1.55 0 0 1 1.2.53v-1.19c0-.59 0-1.28-.07-1.83 1.56 0 1.63.07 1.63 1.07v5.76c0 .59 0 1.26.07 1.82-1.29.02-1.51-.03-1.6-.7zm0-.75v-3.32a1.21 1.21 0 0 0 -.73-.24c-.49 0-.75.4-.75 1.91s.24 1.93.71 1.93a1.22 1.22 0 0 0 .74-.28z"/><path d="m425.28 76.14a6.72 6.72 0 0 1 -.06 1h-2.77c.05 1.11.31 1.43 1 1.43.52 0 .79-.22 1.12-.22s.49.2.57 1a3.82 3.82 0 0 1 -1.92.53c-1.51 0-2.38-.77-2.38-3s.77-3.2 2.38-3.2c1.35-.07 2.06.72 2.06 2.46zm-2.83 0h1.44c0-1.08-.19-1.39-.69-1.39s-.7.25-.75 1.38z"/><path d="m430.79 75.35v4.4h-1.56v-4.06c0-.59-.13-.78-.49-.78a1.49 1.49 0 0 0 -.82.28v4.56h-1.56v-4.28c0-.58 0-1.26-.07-1.81 1.28 0 1.57.09 1.62.84a2.19 2.19 0 0 1 1.68-.84c.79 0 1.2.54 1.2 1.69z"/><path d="m435.42 74c-.18.89-.35 1.07-.6 1.07s-.61-.21-1-.21-.58.17-.58.54c0 1 2.26.34 2.26 2.51 0 1.41-.9 2-2.16 2a5.32 5.32 0 0 1 -1.84-.36c.18-.87.37-1.11.67-1.11s.63.24 1.05.24a.61.61 0 0 0 .68-.66c0-1.17-2.23-.42-2.23-2.5 0-1.39.94-1.87 2-1.87a4.32 4.32 0 0 1 1.75.35z"/><path d="m440.69 76.14a8.54 8.54 0 0 1 -.06 1h-2.77c0 1.11.31 1.43 1 1.43.53 0 .79-.22 1.13-.22s.49.2.56 1a3.78 3.78 0 0 1 -1.91.53c-1.52 0-2.38-.77-2.38-3s.77-3.2 2.38-3.2c1.36-.07 2.05.72 2.05 2.46zm-2.83 0h1.43c0-1.08-.19-1.39-.68-1.39s-.71.25-.75 1.38z"/><path d="m444.67 79.12a1.75 1.75 0 0 1 -1.38.72c-1.17 0-1.74-.89-1.74-2.94 0-2.21.61-3.24 1.89-3.24a1.53 1.53 0 0 1 1.19.53v-1.19c0-.59 0-1.28-.07-1.83 1.56 0 1.63.07 1.63 1.07v5.76c0 .59 0 1.26.08 1.82-1.27.02-1.52-.03-1.6-.7zm0-.75v-3.32a1.16 1.16 0 0 0 -.73-.24c-.49 0-.74.4-.74 1.91s.24 1.93.71 1.93a1.17 1.17 0 0 0 .72-.28z"/><path d="m119.5 105c0 .67-.08.74-.62.74h-3.46v-6.6c0-.54 0-1.24-.06-1.63.76 0 .86.06.86.66v6.89h1.67c.52 0 1.24-.06 1.61-.06z"/><path d="m121.91 98.08c0 .42-.2.63-.56.63s-.52-.2-.52-.62.19-.64.56-.64.52.21.52.63zm-.17 2.3v5.37h-.74v-4.4c0-.54 0-1.25-.06-1.63.64 0 .8.06.8.66z"/><path d="m125.3 105.07h.59c1 0 2 .09 2 1.3s-.81 1.83-2.55 1.83c-1.58 0-2.31-.49-2.31-1.38a1.39 1.39 0 0 1 1-1.24.8.8 0 0 1 -.64-.84 1 1 0 0 1 .78-1 2 2 0 0 1 -.83-1.81c0-1.45.76-2.25 2-2.25a2.17 2.17 0 0 1 .93.18 7.59 7.59 0 0 0 .91-1 .77.77 0 0 1 .31.57.53.53 0 0 1 -.27.45l-.5.31a2.22 2.22 0 0 1 .65 1.73 2 2 0 0 1 -2 2.18 2.52 2.52 0 0 1 -.73-.1c-.36.13-.58.34-.58.57.04.43.57.5 1.24.5zm1.91 1.4c0-.83-1-.78-1.92-.78-1.12 0-1.44.57-1.44 1s.44.83 1.61.83 1.75-.33 1.75-1.05zm-3.07-4.6c0 1.06.41 1.55 1.27 1.55s1.24-.49 1.24-1.52-.4-1.53-1.26-1.53-1.25.46-1.25 1.5z"/><path d="m133.39 101.64v4.11h-.76v-3.92c0-1.09-.28-1.4-1-1.4a2.88 2.88 0 0 0 -1.71.62v4.7h-.76v-6.87c0-.54 0-1.25-.06-1.63.71 0 .82.06.82.66v2.59a2.82 2.82 0 0 1 1.88-.79c1.12 0 1.59.52 1.59 1.93z"/><path d="m138.26 105.4a3.12 3.12 0 0 1 -1.49.44c-.8 0-1.16-.38-1.16-1.36v-4.09a7 7 0 0 0 -.93 0c0-.63 0-.69.93-.69v-.7c0-.6.1-.66.82-.66a13.77 13.77 0 0 0 -.06 1.42h1.66c0 .58 0 .69-.63.69h-1v3.9c0 .61.16.78.61.78s.65-.22.9-.22.29.17.35.49z"/><path d="m114.27 117.68a1.15 1.15 0 0 1 -.56.18.57.57 0 0 1 -.53-.35l-1.59-3.13h-1.59v3.37h-.81v-8.13h1.85c1.78 0 2.66.79 2.66 2.13a2.45 2.45 0 0 1 -1.41 2.38c.56 1.03 1.51 2.77 1.98 3.55zm-3.07-4c1.12 0 1.68-.75 1.68-1.93s-.66-1.44-1.93-1.44h-.95v3.37z" fill="#fff"/><path d="m119.58 114.15a4.86 4.86 0 0 1 0 .65h-3.47c0 1.66.48 2.32 1.54 2.32a8.92 8.92 0 0 0 1.38-.28c.28 0 .36.19.4.5a4.17 4.17 0 0 1 -1.9.5c-1.44 0-2.2-.89-2.2-3s.82-3.14 2.39-3.14c1.28.01 1.86.82 1.86 2.45zm-3.49 0h2.73c0-1.32-.38-1.8-1.25-1.8s-1.39.48-1.48 1.84z" fill="#fff"/><path d="m122.89 117.07h.59c1 0 2 .09 2 1.3s-.82 1.83-2.56 1.83c-1.57 0-2.3-.49-2.3-1.38a1.38 1.38 0 0 1 1-1.24.8.8 0 0 1 -.63-.84 1 1 0 0 1 .78-1 2 2 0 0 1 -.77-1.74c0-1.45.76-2.25 2-2.25a2.2 2.2 0 0 1 .93.18 7.59 7.59 0 0 0 .91-1 .77.77 0 0 1 .31.57.54.54 0 0 1 -.28.45l-.49.31a2.25 2.25 0 0 1 .65 1.73 2 2 0 0 1 -2 2.18 2.48 2.48 0 0 1 -.73-.1c-.36.13-.58.34-.58.57-.03.36.5.43 1.17.43zm1.91 1.4c0-.83-1-.78-1.92-.78-1.12 0-1.44.57-1.44 1s.44.83 1.61.83 1.75-.33 1.75-1.05zm-3.07-4.6c0 1.06.4 1.55 1.27 1.55s1.23-.49 1.23-1.52-.39-1.53-1.26-1.53-1.24.46-1.24 1.5z" fill="#fff"/><path d="m130.13 117a2.93 2.93 0 0 1 -1.89.8c-1 0-1.45-.57-1.45-1.94v-2.56c0-.54 0-1.25-.06-1.63.72 0 .82.06.82.66v3.38c0 1 .25 1.37.88 1.37a2.89 2.89 0 0 0 1.7-.63v-4.74h.75v4.5a14.87 14.87 0 0 0 .07 1.59c-.68.04-.8-.05-.82-.8z" fill="#fff"/><path d="m133.75 109.91v7.84h-.75v-6.87c0-.54 0-1.25-.06-1.63.7 0 .81.06.81.66z" fill="#fff"/><path d="m138.67 117a2.3 2.3 0 0 1 -1.72.8 1.44 1.44 0 0 1 -1.57-1.6c0-1.33.93-2 3.29-2v-.52c0-.9-.2-1.33-1.08-1.33-.65 0-1.07.43-1.4.43s-.35-.15-.44-.62a5 5 0 0 1 2-.5c1.36 0 1.68.86 1.68 1.93v2.6c0 .54 0 1.21.08 1.6-.76.05-.84 0-.84-.79zm0-.6v-1.5c-1.9 0-2.51.3-2.51 1.27a.87.87 0 0 0 1 1 2.12 2.12 0 0 0 1.51-.73z" fill="#fff"/><path d="m144.39 112.1c0 .33-.14.42-.52.49a2 2 0 0 0 -1.67 1.22v3.94h-.76v-4.41c0-.54 0-1.25-.06-1.63.73 0 .84.1.84 1v.29a2.23 2.23 0 0 1 2.13-1.31 2.33 2.33 0 0 1 .04.41z" fill="#fff"/><path d="m188.27 105.64a1.43 1.43 0 0 1 -.71.22.65.65 0 0 1 -.61-.37l-1.48-3h-1.47v3.25h-1v-8.13h2c1.78 0 2.71.79 2.71 2.19a2.46 2.46 0 0 1 -1.35 2.38c.52 1.02 1.4 2.64 1.91 3.46zm-3.22-4c1.11 0 1.62-.65 1.62-1.85 0-1-.59-1.39-1.81-1.39h-.86v3.24z" fill="#fff"/><path d="m193.56 102.15a6 6 0 0 1 0 .72h-3.39c0 1.53.47 2.1 1.46 2.1a9.49 9.49 0 0 0 1.35-.26c.3 0 .39.2.44.63a4.19 4.19 0 0 1 -1.93.51c-1.49 0-2.29-.87-2.29-3s.84-3.16 2.43-3.16c1.31-.01 1.93.82 1.93 2.46zm-3.42 0h2.51c0-1.26-.36-1.71-1.15-1.71s-1.26.45-1.36 1.74z" fill="#fff"/><path d="m196.86 105h.61c1 0 2.05.1 2.05 1.32s-.83 1.86-2.65 1.86c-1.53 0-2.3-.47-2.3-1.36a1.3 1.3 0 0 1 1-1.17.83.83 0 0 1 -.66-.87 1.07 1.07 0 0 1 .82-1 2 2 0 0 1 -.87-1.83 2 2 0 0 1 2.07-2.27 2.35 2.35 0 0 1 1 .18 9.14 9.14 0 0 0 .9-1 .85.85 0 0 1 .34.61.56.56 0 0 1 -.27.46l-.47.29a2.26 2.26 0 0 1 .64 1.72 2 2 0 0 1 -2.07 2.17 2.92 2.92 0 0 1 -.73-.08c-.3.12-.49.32-.49.54-.06.43.44.43 1.08.43zm1.75 1.49c0-.69-.72-.73-1.52-.73h-.43c-.9.07-1.19.51-1.19.94s.41.77 1.5.77 1.64-.3 1.64-.96zm-2.83-4.64c0 1 .37 1.47 1.16 1.47s1.13-.44 1.13-1.46-.36-1.45-1.14-1.45-1.15.45-1.15 1.46z" fill="#fff"/><path d="m204 105a2.78 2.78 0 0 1 -1.88.82c-1 0-1.41-.57-1.41-1.91v-2.56c0-.55 0-1.26-.07-1.68.91 0 1 .06 1 .71v3.34c0 .9.24 1.24.81 1.24a2.74 2.74 0 0 0 1.53-.54v-4.67h.94v4.45c0 .54 0 1.22.07 1.64-.85 0-.99-.09-.99-.84z" fill="#fff"/><path d="m207.84 98v7.75h-1v-6.84c0-.55 0-1.24-.07-1.67.96 0 1.07.06 1.07.76z" fill="#fff"/><path d="m212.59 105.08a2.26 2.26 0 0 1 -1.65.76 1.46 1.46 0 0 1 -1.6-1.61c0-1.42 1.07-2 3.25-2v-.46c0-.84-.2-1.24-1-1.24-.62 0-1 .42-1.39.42s-.4-.17-.46-.72a5 5 0 0 1 2.06-.53c1.39 0 1.76.83 1.76 2v2.62c0 .53 0 1.18.08 1.58-.89-.06-1.01-.11-1.05-.82zm0-.65v-1.49c-1.7 0-2.27.28-2.27 1.19a.81.81 0 0 0 .89.91 1.94 1.94 0 0 0 1.38-.61z" fill="#fff"/><path d="m218.53 100.17c0 .46-.15.54-.57.62a2 2 0 0 0 -1.59 1.06v3.9h-1v-4.38c0-.55 0-1.26-.07-1.68.94 0 1 .1 1 1v.31a2.18 2.18 0 0 1 2.13-1.36c.09.25.1.36.1.53z" fill="#fff"/><path d="m188.27 117.64a1.43 1.43 0 0 1 -.71.22.65.65 0 0 1 -.61-.37l-1.48-3h-1.47v3.25h-1v-8.14h2c1.78 0 2.71.79 2.71 2.19a2.46 2.46 0 0 1 -1.35 2.38c.52 1.03 1.4 2.65 1.91 3.47zm-3.22-4c1.11 0 1.62-.65 1.62-1.85 0-1-.59-1.39-1.81-1.39h-.86v3.24z" fill="#fff"/><path d="m193.56 114.15a6 6 0 0 1 0 .72h-3.39c0 1.53.47 2.1 1.46 2.1a9.49 9.49 0 0 0 1.35-.26c.3 0 .39.2.44.63a4.19 4.19 0 0 1 -1.93.51c-1.49 0-2.29-.87-2.29-3s.84-3.16 2.43-3.16c1.31-.01 1.93.82 1.93 2.46zm-3.42 0h2.51c0-1.26-.36-1.71-1.15-1.71s-1.26.45-1.36 1.74z" fill="#fff"/><path d="m196.86 117h.61c1 0 2.05.1 2.05 1.32s-.83 1.86-2.65 1.86c-1.53 0-2.3-.47-2.3-1.36a1.3 1.3 0 0 1 1-1.17.83.83 0 0 1 -.66-.87 1.07 1.07 0 0 1 .82-1 2 2 0 0 1 -.87-1.83 2 2 0 0 1 2.07-2.27 2.35 2.35 0 0 1 1 .18 9.14 9.14 0 0 0 .9-1 .85.85 0 0 1 .34.61.56.56 0 0 1 -.27.46l-.47.29a2.26 2.26 0 0 1 .64 1.72 2 2 0 0 1 -2.07 2.17 2.92 2.92 0 0 1 -.73-.08c-.3.12-.49.32-.49.54-.06.43.44.43 1.08.43zm1.75 1.49c0-.69-.72-.73-1.52-.73h-.43c-.9.07-1.19.51-1.19.94s.41.77 1.5.77 1.64-.3 1.64-.96zm-2.83-4.64c0 1 .37 1.47 1.16 1.47s1.13-.44 1.13-1.46-.36-1.45-1.14-1.45-1.15.45-1.15 1.46z" fill="#fff"/><path d="m204 117a2.78 2.78 0 0 1 -1.88.82c-1 0-1.41-.57-1.41-1.91v-2.56c0-.55 0-1.26-.07-1.68.91 0 1 .06 1 .71v3.34c0 .9.24 1.24.81 1.24a2.74 2.74 0 0 0 1.53-.54v-4.69h.94v4.45c0 .54 0 1.22.07 1.64-.85.02-.99-.07-.99-.82z" fill="#fff"/><path d="m207.84 110v7.75h-1v-6.84c0-.55 0-1.24-.07-1.67.96 0 1.07.06 1.07.76z" fill="#fff"/><path d="m212.59 117.08a2.26 2.26 0 0 1 -1.65.76 1.46 1.46 0 0 1 -1.6-1.61c0-1.42 1.07-2 3.25-2v-.46c0-.84-.2-1.24-1-1.24-.62 0-1 .42-1.39.42s-.4-.17-.46-.72a5 5 0 0 1 2.06-.53c1.39 0 1.76.83 1.76 2v2.62c0 .53 0 1.18.08 1.58-.89-.06-1.01-.11-1.05-.82zm0-.65v-1.49c-1.7 0-2.27.28-2.27 1.19a.81.81 0 0 0 .89.91 1.94 1.94 0 0 0 1.38-.61z" fill="#fff"/><path d="m218.53 112.17c0 .46-.15.54-.57.62a2 2 0 0 0 -1.59 1.06v3.9h-1v-4.38c0-.55 0-1.26-.07-1.68.94 0 1 .1 1 1v.31a2.18 2.18 0 0 1 2.13-1.36c.09.25.1.36.1.53z" fill="#fff"/><path d="m263.39 105.75h-1.18l-.21-6.75c-.12.39-.29.84-.5 1.35l-1.67 4h-.93l-1.67-3.92a14.79 14.79 0 0 1 -.53-1.39l-.25 6.75h-1.09l.32-8.25c1.34 0 1.5.14 1.76.8l1.48 3.51c.14.34.35.83.47 1.16.12-.33.32-.82.48-1.16l1.46-3.51c.28-.67.44-.8 1.76-.8z"/><path d="m269.26 102.18a6.8 6.8 0 0 1 0 .76h-3.31c0 1.41.43 1.9 1.37 1.9a10.75 10.75 0 0 0 1.33-.24c.31 0 .43.2.49.73a4.22 4.22 0 0 1 -2 .52c-1.52 0-2.36-.84-2.36-3s.84-3.18 2.48-3.18c1.36-.01 2 .83 2 2.51zm-3.34 0h2.27c0-1.2-.31-1.62-1-1.62s-1.19.37-1.27 1.61z"/><path d="m274 105.06a2.23 2.23 0 0 1 -1.63.78c-1.28 0-1.95-.87-1.95-3s.75-3.18 2.13-3.18a2 2 0 0 1 1.44.59v-1.25c0-.56 0-1.26-.06-1.71 1.1 0 1.2.06 1.2.85v6c0 .56 0 1.25.07 1.72-.97-.02-1.12-.1-1.2-.8zm0-.64v-3.42a2.1 2.1 0 0 0 -1.24-.41c-.75 0-1.17.45-1.17 2.17s.39 2.16 1.1 2.16a2 2 0 0 0 1.31-.5z"/><path d="m278.28 98a.69.69 0 0 1 -.77.78.65.65 0 0 1 -.72-.75.69.69 0 0 1 .77-.78.65.65 0 0 1 .72.75zm-.17 2.56v5.2h-1.11v-4.34c0-.56 0-1.26-.07-1.72 1.07-.01 1.18.05 1.18.85z"/><path d="m283.08 105a2.63 2.63 0 0 1 -1.85.83c-.94 0-1.4-.57-1.4-1.9v-2.53c0-.55 0-1.25-.07-1.72 1.09 0 1.21.06 1.21.76v3.3c0 .81.22 1.12.74 1.12a2.54 2.54 0 0 0 1.36-.46v-4.65h1.14v4.39c0 .57 0 1.23.07 1.7-.98 0-1.17-.1-1.2-.84z"/><path d="m293.48 101.58v4.17h-1.14v-3.94c0-.89-.24-1.17-.79-1.17a2.24 2.24 0 0 0 -1.25.48 3.33 3.33 0 0 1 0 .46v4.17h-1.14v-3.94c0-.86-.23-1.17-.76-1.17a2.19 2.19 0 0 0 -1.26.52v4.59h-1.14v-4.35c0-.55 0-1.25-.08-1.72 1 0 1.17.1 1.2.85a2.6 2.6 0 0 1 1.77-.85 1.22 1.22 0 0 1 1.27.88 2.63 2.63 0 0 1 1.84-.88c1 0 1.48.55 1.48 1.9z"/><path d="m262.23 117.62a1.8 1.8 0 0 1 -.84.24.69.69 0 0 1 -.68-.41l-1.38-2.85h-1.33v3.15h-1.19v-8.15h2.09c1.76 0 2.75.78 2.75 2.25a2.42 2.42 0 0 1 -1.33 2.36c.54 1 1.38 2.53 1.91 3.41zm-3.36-4c1.11 0 1.56-.56 1.56-1.77 0-1-.51-1.34-1.7-1.34h-.73v3.11z" fill="#fff"/><path d="m267.52 114.18v.76h-3.31c0 1.41.43 1.9 1.36 1.9a11 11 0 0 0 1.34-.24c.31 0 .43.2.49.73a4.22 4.22 0 0 1 -2 .52c-1.53 0-2.37-.84-2.37-3s.84-3.18 2.49-3.18c1.37-.01 2 .83 2 2.51zm-3.33 0h2.27c0-1.2-.32-1.62-1-1.62s-1.19.37-1.27 1.61z" fill="#fff"/><path d="m270.88 117h.5c1 0 2.13.09 2.13 1.34s-.85 1.89-2.73 1.89c-1.5 0-2.32-.45-2.32-1.33 0-.58.43-.93 1-1.13a.84.84 0 0 1 -.69-.89 1.09 1.09 0 0 1 .86-1 2 2 0 0 1 -.89-1.87 2 2 0 0 1 2.12-2.26 2.61 2.61 0 0 1 1 .17 8.93 8.93 0 0 0 .9-1 .94.94 0 0 1 .39.65.53.53 0 0 1 -.29.45l-.45.28a2.26 2.26 0 0 1 .63 1.71 2 2 0 0 1 -2.14 2.16 3 3 0 0 1 -.68-.07.61.61 0 0 0 -.44.52c-.03.32.47.38 1.1.38zm1.56 1.57c0-.76-1-.68-1.95-.69-.74.08-1 .48-1 .87s.39.72 1.39.72 1.56-.32 1.56-.93zm-2.62-4.67c0 1 .33 1.39 1.05 1.39s1.05-.41 1.05-1.39-.33-1.38-1.05-1.38-1.05.36-1.05 1.35z" fill="#fff"/><path d="m277.83 117a2.63 2.63 0 0 1 -1.85.83c-.94 0-1.4-.57-1.4-1.9v-2.53c0-.55 0-1.25-.07-1.72 1.09 0 1.21.06 1.21.76v3.3c0 .81.22 1.12.74 1.12a2.54 2.54 0 0 0 1.36-.46v-4.65h1.18v4.39c0 .57 0 1.23.07 1.7-1.02 0-1.21-.1-1.24-.84z" fill="#fff"/><path d="m281.91 110.09v7.66h-1.14v-6.75c0-.56 0-1.26-.06-1.71 1.11-.05 1.2.01 1.2.8z" fill="#fff"/><path d="m286.54 117.08a2.13 2.13 0 0 1 -1.62.76 1.46 1.46 0 0 1 -1.6-1.62c0-1.5 1.18-2 3.21-2v-.43c0-.8-.2-1.13-.93-1.13s-1 .38-1.38.38-.47-.18-.53-.8a5.33 5.33 0 0 1 2.13-.54c1.42 0 1.85.8 1.85 2v2.64c0 .51.05 1.14.08 1.55-1.02-.05-1.17-.09-1.21-.81zm0-.68v-1.4c-1.55 0-2 .28-2 1.1a.75.75 0 0 0 .83.86 1.72 1.72 0 0 0 1.16-.56z" fill="#fff"/><path d="m292.69 112.2c0 .61-.16.69-.63.77a1.85 1.85 0 0 0 -1.52 1v3.79h-1.14v-4.36c0-.55 0-1.25-.07-1.72 1.13 0 1.21.1 1.21 1.07v.32a2.12 2.12 0 0 1 2.12-1.4c.01.22.03.38.03.53z" fill="#fff"/><path d="m331 97.87c-.13.82-.3 1-.66 1a9.58 9.58 0 0 0 -1.34-.26c-.74 0-1.19.31-1.19 1 0 1.83 3.5.84 3.5 3.76a2.41 2.41 0 0 1 -2.72 2.49 6.76 6.76 0 0 1 -2.4-.44c.13-.88.35-1.06.67-1.06a10 10 0 0 0 1.67.33c.85 0 1.38-.36 1.38-1.17 0-2-3.5-1-3.5-3.78a2.19 2.19 0 0 1 2.47-2.27 6.21 6.21 0 0 1 2.12.4z"/><path d="m336.92 102.19a6.28 6.28 0 0 1 -.05.84h-3.2c.05 1.25.38 1.67 1.26 1.67a10.94 10.94 0 0 0 1.29-.24c.34 0 .47.21.54.87a4.21 4.21 0 0 1 -2 .53c-1.58 0-2.45-.82-2.45-3s.85-3.2 2.53-3.2c1.42-.03 2.08.84 2.08 2.53zm-3.25 0h2c0-1.13-.26-1.5-.92-1.5s-1.01.31-1.08 1.45z"/><path d="m345.93 101.54v4.21h-1.34v-4c0-.78-.21-1-.71-1a2.06 2.06 0 0 0 -1.09.4v.37 4.21h-1.35v-4c0-.75-.2-1-.68-1a2.2 2.2 0 0 0 -1.11.42v4.56h-1.35v-4.32c0-.56 0-1.26-.06-1.76 1.14 0 1.37.1 1.41.86a2.47 2.47 0 0 1 1.77-.86 1.18 1.18 0 0 1 1.26.89 2.59 2.59 0 0 1 1.86-.89c.95.04 1.39.59 1.39 1.91z"/><path d="m349 97.94a.78.78 0 0 1 -.89.86.74.74 0 0 1 -.83-.83.78.78 0 0 1 .89-.85.74.74 0 0 1 .83.82zm-.17 2.7v5.11h-1.33v-4.3c0-.58 0-1.26-.06-1.78 1.3 0 1.41.06 1.41.97z"/><path d="m355.28 102.66c0 2.19-.74 3.18-2.12 3.18a2 2 0 0 1 -1.41-.6c-.06.58-.26.6-1.4.6 0-.51.07-1.2.07-1.77v-5.07c0-.57 0-1.26-.07-1.77 1.32 0 1.42.06 1.42 1v2.23a2.08 2.08 0 0 1 1.54-.74c1.3-.05 1.97.84 1.97 2.94zm-1.39.11c0-1.58-.35-2-1-2a1.85 1.85 0 0 0 -1.12.39v3.34a2 2 0 0 0 1.1.33c.66-.04 1.02-.46 1.02-2.06z"/><path d="m361.34 102.73c0 2.15-.85 3.13-2.53 3.13s-2.47-1-2.47-3.08.85-3.15 2.53-3.15 2.47.99 2.47 3.1zm-3.61 0c0 1.53.34 2.06 1.12 2.06s1.1-.51 1.1-2.08-.33-2.08-1.1-2.08-1.12.54-1.12 2.14z"/><path d="m364 98.18v7.57h-1.3v-6.75c0-.57 0-1.26-.06-1.77 1.36-.01 1.36.05 1.36.95z"/><path d="m368.92 105.07a2.11 2.11 0 0 1 -1.57.77c-1.29 0-2-.89-2-3s.74-3.19 2.12-3.19a1.9 1.9 0 0 1 1.38.56v-1.21c0-.57 0-1.26-.06-1.77 1.32 0 1.42.06 1.42 1v5.89c0 .58 0 1.26.07 1.77-1.12-.05-1.28-.11-1.36-.82zm0-.69v-3.38a1.92 1.92 0 0 0 -1.09-.33c-.66 0-1 .42-1 2s.35 2 1 2a1.89 1.89 0 0 0 1.07-.29z"/><path d="m336.22 117.58a2.27 2.27 0 0 1 -1 .28.77.77 0 0 1 -.76-.44l-1.25-2.69h-1.21v3h-1.4v-8.17h2.22c1.76 0 2.8.78 2.8 2.32a2.43 2.43 0 0 1 -1.29 2.36c.55 1 1.32 2.4 1.89 3.34zm-3.52-3.92c1.08 0 1.49-.47 1.49-1.69 0-1-.44-1.29-1.57-1.29h-.62v3z" fill="#fff"/><path d="m341.5 114.19a6.28 6.28 0 0 1 -.05.84h-3.2c.05 1.25.38 1.67 1.26 1.67a10.94 10.94 0 0 0 1.29-.24c.34 0 .47.21.54.87a4.25 4.25 0 0 1 -2 .53c-1.57 0-2.44-.82-2.44-3s.85-3.2 2.53-3.2c1.41-.03 2.07.84 2.07 2.53zm-3.25 0h2c0-1.13-.26-1.5-.92-1.5s-1.01.31-1.08 1.45z" fill="#fff"/><path d="m344.85 116.92h.55c1 0 2.1.1 2.1 1.36s-.87 1.92-2.82 1.92c-1.47 0-2.34-.42-2.34-1.31 0-.55.43-.87 1-1a.89.89 0 0 1 -.7-.93 1.14 1.14 0 0 1 .9-1.11 1.93 1.93 0 0 1 -.94-1.89 2 2 0 0 1 2.2-2.26 2.62 2.62 0 0 1 1 .18 10.12 10.12 0 0 0 .9-1 1 1 0 0 1 .42.7.54.54 0 0 1 -.3.46l-.41.25a2.31 2.31 0 0 1 .61 1.7 2 2 0 0 1 -2.22 2.16 3.52 3.52 0 0 1 -.66-.06.59.59 0 0 0 -.38.49c.01.31.48.34 1.09.34zm1.39 1.66c0-.58-.61-.64-1.33-.64h-.58c-.57.1-.8.42-.8.79s.35.65 1.27.65 1.44-.25 1.44-.8zm-2.36-4.73c0 1 .28 1.32.94 1.32s.93-.37.93-1.33-.29-1.29-.93-1.29-.94.36-.94 1.3z" fill="#fff"/><path d="m351.66 117a2.58 2.58 0 0 1 -1.82.83c-.92 0-1.38-.58-1.38-1.88v-2.53c0-.56 0-1.26-.06-1.76 1.3 0 1.42.06 1.42.8v3.25c0 .74.19 1 .67 1a2.23 2.23 0 0 0 1.16-.38v-4.59h1.35v4.35c0 .56 0 1.23.07 1.74-1.13.01-1.37-.1-1.41-.83z" fill="#fff"/><path d="m356 110.18v7.57h-1.34v-6.75c0-.57 0-1.26-.06-1.77 1.31-.01 1.4.05 1.4.95z" fill="#fff"/><path d="m360.47 117.09a2 2 0 0 1 -1.55.75 1.5 1.5 0 0 1 -1.64-1.65c0-1.57 1.34-2.06 3.18-2v-.38c0-.73-.19-1-.85-1s-.91.36-1.37.36-.54-.19-.57-.9a5.29 5.29 0 0 1 2.2-.57c1.45 0 1.94.77 1.94 2v2.67c0 .51 0 1.08.08 1.52-1.15-.05-1.35-.09-1.42-.8zm0-.72v-1.37c-1.36 0-1.8.25-1.8 1a.69.69 0 0 0 .76.78 1.52 1.52 0 0 0 1.03-.41z" fill="#fff"/><path d="m366.87 112.19c0 .82-.16.9-.7 1a1.8 1.8 0 0 0 -1.43.85v3.72h-1.36v-4.32c0-.56 0-1.26-.06-1.76 1.32 0 1.41.08 1.41 1.12v.3a2.06 2.06 0 0 1 2.13-1.43c.01.19.01.33.01.52z" fill="#fff"/><path d="m417.59 103.35c0 1.59-1 2.4-2.68 2.4h-2.68v-8.17h2.27c1.77 0 2.68.74 2.68 1.91a1.7 1.7 0 0 1 -1.36 1.8 1.92 1.92 0 0 1 1.77 2.06zm-3.21-4.57h-.53v2.22h.54c.83 0 1.2-.3 1.2-1.19s-.32-1.03-1.21-1.03zm1.53 4.55c0-.91-.46-1.15-1.53-1.15h-.53v2.34h.73c.99 0 1.33-.3 1.33-1.19z"/><path d="m423.6 102.73c0 2.13-.86 3.13-2.59 3.13s-2.54-1-2.54-3.09.85-3.16 2.57-3.16 2.56 1.01 2.56 3.12zm-3.52 0c0 1.48.29 2 1 2s1-.46 1-2-.29-2-1-2-1 .49-1 2.04z"/><path d="m426.39 98.28v7.47h-1.56v-6.75c0-.59 0-1.28-.06-1.83 1.52.04 1.62.11 1.62 1.11z"/><path d="m431.08 105.09a2 2 0 0 1 -1.51.75c-1.31 0-1.95-.92-1.95-3s.71-3.19 2.09-3.19a1.86 1.86 0 0 1 1.33.53v-1.18c0-.59 0-1.28-.05-1.83 1.53 0 1.63.07 1.63 1.07v5.76c0 .58 0 1.26.07 1.82-1.33.02-1.52-.04-1.61-.73zm0-.74v-3.28a1.8 1.8 0 0 0 -.93-.26c-.59 0-.9.41-.9 1.91s.31 1.93.89 1.93a1.69 1.69 0 0 0 .86-.3z"/><path d="m410.19 117.56a2.72 2.72 0 0 1 -1.14.31.87.87 0 0 1 -.86-.5l-1.13-2.52h-1v2.9h-1.62v-8.17h2.35c1.77 0 2.86.76 2.86 2.37a2.46 2.46 0 0 1 -1.24 2.36c.48.96 1.2 2.25 1.78 3.25zm-3.68-3.91c1.08 0 1.43-.36 1.43-1.6 0-1-.36-1.24-1.44-1.24h-.5v2.84z" fill="#fff"/><path d="m415.46 114.19a7.59 7.59 0 0 1 -.06.92h-3.1c.06 1.09.37 1.43 1.16 1.43a12.72 12.72 0 0 0 1.27-.22c.35 0 .5.22.59 1a4.37 4.37 0 0 1 -2.09.53c-1.63 0-2.53-.78-2.53-3s.85-3.2 2.57-3.2c1.5-.04 2.19.82 2.19 2.54zm-3.16-.06h1.76c0-1.07-.24-1.4-.82-1.4s-.87.27-.94 1.4z" fill="#fff"/><path d="m418.84 116.88h.55c1 0 2.1.09 2.1 1.36s-.89 2-2.92 2c-1.44 0-2.35-.4-2.35-1.29 0-.54.42-.83 1-1a.9.9 0 0 1 -.7-1 1.18 1.18 0 0 1 .93-1.15 1.94 1.94 0 0 1 -1-1.92 2 2 0 0 1 2.27-2.26 2.9 2.9 0 0 1 1 .17 12.58 12.58 0 0 0 .89-1 1.1 1.1 0 0 1 .47.75.53.53 0 0 1 -.3.46l-.4.23a2.36 2.36 0 0 1 .6 1.69c0 1.42-.79 2.16-2.29 2.16a3.05 3.05 0 0 1 -.62 0 .55.55 0 0 0 -.33.46c.05.29.51.34 1.1.34zm1.2 1.75c0-.58-.68-.6-1.43-.6h-.43c-.44.11-.64.37-.64.7s.33.59 1.16.59 1.3-.2 1.3-.69zm-2.12-4.78c0 .9.26 1.23.83 1.23s.82-.33.82-1.25-.24-1.21-.82-1.21-.83.31-.83 1.23z" fill="#fff"/><path d="m425.5 117a2.46 2.46 0 0 1 -1.79.84c-.91 0-1.36-.58-1.36-1.86v-2.51c0-.58 0-1.26-.07-1.81 1.5 0 1.63.06 1.63.85v3.21c0 .64.18.87.59.87a2 2 0 0 0 1-.31v-4.53h1.57v4.25c0 .57 0 1.24.08 1.8-1.32.04-1.59-.07-1.65-.8z" fill="#fff"/><path d="m430.1 110.28v7.47h-1.56v-6.75c0-.59 0-1.28-.05-1.83 1.51.04 1.61.11 1.61 1.11z" fill="#fff"/><path d="m434.41 117.12a1.92 1.92 0 0 1 -1.5.72 1.51 1.51 0 0 1 -1.65-1.66c0-1.67 1.46-2.09 3.13-2.09v-.32c0-.68-.19-.91-.77-.91s-.86.33-1.36.33-.59-.2-.63-1a5.62 5.62 0 0 1 2.29-.58c1.47 0 2 .73 2 2v2.69c0 .49 0 1 .07 1.49-1.24.05-1.48.01-1.58-.67zm0-.77v-1.27c-1.15 0-1.55.24-1.55.91a.6.6 0 0 0 .67.69 1.36 1.36 0 0 0 .86-.33z" fill="#fff"/><path d="m441.05 112.1c0 1.13-.16 1.19-.76 1.29a1.64 1.64 0 0 0 -1.35.74v3.62h-1.57v-4.28c0-.58 0-1.26-.08-1.81 1.54 0 1.62.07 1.62 1.16v.29a2 2 0 0 1 2.13-1.46c-.04.16.01.35.01.45z" fill="#fff"/><path d="m119 142c0 .67-.09.74-.66.74h-3.8v-6.61a15.67 15.67 0 0 0 -.07-1.63c.77 0 .87.06.87.66v6.89h1.88c.6.01 1.41-.05 1.78-.05z"/><path d="m121.61 135.08c0 .42-.2.63-.56.63s-.53-.2-.53-.62.19-.64.56-.64.53.21.53.63zm-.18 2.3v5.37h-.75v-4.4a15.29 15.29 0 0 0 -.08-1.63c.65 0 .83.06.83.66z"/><path d="m125.2 142.07h.61c1 0 2.16.09 2.16 1.3s-.89 1.83-2.67 1.83-2.39-.48-2.39-1.38a1.42 1.42 0 0 1 1-1.24.79.79 0 0 1 -.68-.84 1 1 0 0 1 .84-1 2.27 2.27 0 0 1 1.2-4.06 2.25 2.25 0 0 1 .94.18 7.59 7.59 0 0 0 .91-1 .75.75 0 0 1 .32.57.54.54 0 0 1 -.28.45l-.48.3a2.13 2.13 0 0 1 .7 1.74 2 2 0 0 1 -2.09 2.18 2.66 2.66 0 0 1 -.77-.1c-.37.12-.61.34-.61.57.03.43.58.5 1.29.5zm2 1.4c0-.83-1-.78-2-.78-1.2 0-1.51.57-1.51 1s.42.83 1.69.83 1.86-.31 1.86-1.05zm-3.28-4.6c0 1 .47 1.55 1.36 1.55s1.33-.52 1.33-1.52-.47-1.53-1.35-1.53-1.26.51-1.26 1.5z"/><path d="m133.91 138.76v4h-.76v-3.76c0-1.24-.36-1.58-1.15-1.58a3.42 3.42 0 0 0 -1.88.63v4.69h-.76v-6.87c0-.54 0-1.25-.07-1.63.71 0 .83.06.83.66v2.61a3.21 3.21 0 0 1 2-.81c1.23.01 1.79.53 1.79 2.06z"/><path d="m139.15 142.4a3.14 3.14 0 0 1 -1.59.44c-.88 0-1.26-.39-1.26-1.36v-4.09a7.39 7.39 0 0 0 -1 .05c0-.64 0-.69 1-.69v-.75c0-.6.09-.66.82-.66 0 .37-.06.85-.07 1.42.51 0 1.41 0 1.83-.05 0 .58 0 .69-.68.69h-1.15v3.9c0 .6.2.78.7.78a8 8 0 0 0 1-.22c.25.04.33.21.4.54z"/><path d="m107.73 154c0 .68-.09.75-.65.75h-3.91v-8.13h2.65c.56 0 1.38 0 1.79-.05 0 .7-.09.76-.66.76h-3v2.91h1.57c.57 0 1.38 0 1.79-.05 0 .7-.08.76-.66.76h-2.65v3.05h2z"/><path d="m113.86 154.67a1.85 1.85 0 0 1 -.57.15c-.22 0-.38-.16-.68-.61l-1.34-2-1.27 1.93c-.35.5-.48.68-.73.68a1.48 1.48 0 0 1 -.49-.12l2.12-3-2-2.83a1.35 1.35 0 0 1 .52-.15c.24 0 .4.18.73.68l1.13 1.66 1.15-1.65c.36-.51.51-.69.73-.69a1.61 1.61 0 0 1 .47.12l-1.94 2.81z"/><path d="m118.38 154.4a3.17 3.17 0 0 1 -1.59.44c-.88 0-1.26-.39-1.26-1.36v-4.09a7.39 7.39 0 0 0 -1 .05c0-.64 0-.69 1-.69v-.75c0-.6.08-.66.82-.66 0 .37-.06.85-.08 1.42.52 0 1.42 0 1.84-.05 0 .58-.05.69-.68.69h-1.16v3.9c0 .6.21.78.71.78a8 8 0 0 0 1-.22c.22.04.33.21.4.54z"/><path d="m124 151.18v.62h-3.78c0 1.57.52 2.32 1.7 2.32a10.47 10.47 0 0 0 1.5-.28c.29 0 .39.19.42.5a4.42 4.42 0 0 1 -2.06.5c-1.56 0-2.34-.93-2.34-3s.91-3.12 2.58-3.12c1.28-.01 1.98.85 1.98 2.46zm-3.78 0h3c0-1.3-.44-1.8-1.35-1.8s-1.58.48-1.69 1.81z"/><path d="m130.38 150.76v4h-.75v-3.76c0-1.24-.36-1.58-1.15-1.58a3.43 3.43 0 0 0 -1.89.63v4.69h-.75v-4.41c0-.54 0-1.25-.07-1.63.7 0 .81.09.82.81a3.23 3.23 0 0 1 2-.81c1.23.01 1.79.53 1.79 2.06z"/><path d="m136.19 154.08a3 3 0 0 1 -1.95.76c-1.35 0-2.14-.88-2.14-3s.91-3.15 2.4-3.15a2.57 2.57 0 0 1 1.69.61v-1.44a15.54 15.54 0 0 0 -.07-1.63c.71 0 .83.06.83.66v6.29a15.88 15.88 0 0 0 .07 1.64c-.72.02-.83-.06-.83-.74zm-1.82.07a2.69 2.69 0 0 0 1.82-.66v-3.6a3.22 3.22 0 0 0 -1.76-.5c-1 0-1.55.53-1.55 2.4s.53 2.36 1.49 2.36z"/><path d="m143.38 151.18a4.5 4.5 0 0 1 0 .62h-3.77c0 1.57.51 2.32 1.7 2.32a10.47 10.47 0 0 0 1.5-.28c.29 0 .38.19.42.5a4.49 4.49 0 0 1 -2.06.5c-1.56 0-2.34-.93-2.34-3s.91-3.12 2.58-3.12c1.31-.01 1.97.85 1.97 2.46zm-3.78 0h3c0-1.3-.43-1.8-1.34-1.8s-1.55.48-1.66 1.81z"/><path d="m148.89 154.08a3.08 3.08 0 0 1 -2 .76c-1.34 0-2.13-.88-2.13-3s.91-3.15 2.4-3.15a2.61 2.61 0 0 1 1.69.61v-1.44a15.29 15.29 0 0 0 -.08-1.63c.71 0 .83.06.83.66v6.29c0 .54 0 1.25.07 1.64-.67.02-.78-.06-.78-.74zm-1.83.07a2.69 2.69 0 0 0 1.83-.66v-3.6a3.23 3.23 0 0 0 -1.77-.5c-1 0-1.54.53-1.54 2.4s.52 2.36 1.48 2.36z"/><path d="m188.27 142.64a1.43 1.43 0 0 1 -.71.22.65.65 0 0 1 -.61-.37l-1.48-3h-1.47v3.25h-1v-8.14h2c1.78 0 2.71.79 2.71 2.19a2.46 2.46 0 0 1 -1.35 2.38c.52 1.03 1.4 2.65 1.91 3.47zm-3.22-3.95c1.11 0 1.62-.65 1.62-1.85 0-1-.59-1.39-1.81-1.39h-.86v3.24z" fill="#fff"/><path d="m193.56 139.15a6 6 0 0 1 0 .72h-3.39c0 1.53.47 2.1 1.46 2.1a9.49 9.49 0 0 0 1.35-.26c.3 0 .39.2.44.63a4.19 4.19 0 0 1 -1.93.51c-1.49 0-2.29-.87-2.29-3s.84-3.16 2.43-3.16c1.31-.01 1.93.82 1.93 2.46zm-3.42 0h2.51c0-1.26-.36-1.71-1.15-1.71s-1.26.45-1.36 1.74z" fill="#fff"/><path d="m196.86 142h.61c1 0 2.05.1 2.05 1.32s-.83 1.86-2.65 1.86c-1.53 0-2.3-.47-2.3-1.36a1.3 1.3 0 0 1 1-1.17.83.83 0 0 1 -.66-.87 1.07 1.07 0 0 1 .82-1 2 2 0 0 1 -.87-1.83 2 2 0 0 1 2.07-2.27 2.35 2.35 0 0 1 1 .18 9.14 9.14 0 0 0 .9-1 .85.85 0 0 1 .34.61.56.56 0 0 1 -.27.46l-.47.29a2.26 2.26 0 0 1 .64 1.72 2 2 0 0 1 -2.07 2.17 2.92 2.92 0 0 1 -.73-.08c-.3.12-.49.32-.49.54-.06.43.44.43 1.08.43zm1.75 1.49c0-.69-.72-.73-1.52-.73h-.43c-.9.07-1.19.51-1.19.94s.41.77 1.5.77 1.64-.3 1.64-.96zm-2.83-4.64c0 1 .37 1.47 1.16 1.47s1.13-.44 1.13-1.46-.36-1.45-1.14-1.45-1.15.45-1.15 1.46z" fill="#fff"/><path d="m204 142a2.78 2.78 0 0 1 -1.88.82c-1 0-1.41-.57-1.41-1.91v-2.56c0-.55 0-1.26-.07-1.68.91 0 1 .06 1 .71v3.34c0 .9.24 1.24.81 1.24a2.74 2.74 0 0 0 1.53-.54v-4.69h.94v4.45c0 .54 0 1.22.07 1.64-.85.02-.99-.07-.99-.82z" fill="#fff"/><path d="m207.84 135v7.75h-1v-6.84c0-.55 0-1.24-.07-1.67.96 0 1.07.06 1.07.76z" fill="#fff"/><path d="m212.59 142.08a2.26 2.26 0 0 1 -1.65.76 1.46 1.46 0 0 1 -1.6-1.61c0-1.42 1.07-2 3.25-2v-.46c0-.84-.2-1.24-1-1.24-.62 0-1 .42-1.39.42s-.4-.17-.46-.72a5 5 0 0 1 2.06-.53c1.39 0 1.76.83 1.76 2v2.62c0 .53 0 1.18.08 1.58-.89-.06-1.01-.11-1.05-.82zm0-.65v-1.49c-1.7 0-2.27.28-2.27 1.19a.81.81 0 0 0 .89.91 1.94 1.94 0 0 0 1.38-.61z" fill="#fff"/><path d="m218.53 137.17c0 .46-.15.54-.57.62a2 2 0 0 0 -1.59 1.06v3.9h-1v-4.38c0-.55 0-1.26-.07-1.68.94 0 1 .1 1 1v.31a2.18 2.18 0 0 1 2.13-1.36c.09.25.1.36.1.53z" fill="#fff"/><path d="m181.57 153.86c0 .82-.08.89-.71.89h-4v-8.14h2.78c.59 0 1.33 0 1.75-.05 0 .83-.09.89-.71.89h-2.78v2.72h1.52 1.75c0 .82-.08.88-.7.88h-2.57v2.9h1.92c.58-.04 1.33-.05 1.75-.09z"/><path d="m187.81 154.63a2.5 2.5 0 0 1 -.73.19c-.28 0-.43-.16-.72-.61l-1.25-1.89-1.21 1.83c-.32.49-.47.67-.75.67a2.57 2.57 0 0 1 -.65-.15l2.1-3-1.92-2.8a2.17 2.17 0 0 1 .67-.18c.29 0 .47.19.79.69l1 1.57 1.05-1.57c.33-.5.49-.69.75-.69a2.25 2.25 0 0 1 .64.17l-1.93 2.77z"/><path d="m192.43 154.37a3.3 3.3 0 0 1 -1.67.47c-.93 0-1.33-.39-1.33-1.46v-3.88a7.93 7.93 0 0 0 -1 .05c0-.75 0-.81 1-.81v-.58c0-.74.11-.84 1-.84 0 .42-.06.88-.07 1.47h1.81c0 .7 0 .81-.7.81h-1.11v3.68c0 .57.18.74.66.74s.7-.19 1-.19.33.11.41.54z"/><path d="m198.11 151.19v.68h-3.69c0 1.48.49 2.1 1.6 2.1a11.06 11.06 0 0 0 1.48-.26c.31 0 .42.21.47.63a4.68 4.68 0 0 1 -2.11.51c-1.6 0-2.43-.9-2.43-3s.93-3.15 2.63-3.15c1.39-.02 2.05.86 2.05 2.49zm-3.71 0h2.77c0-1.24-.38-1.71-1.25-1.71s-1.41.43-1.52 1.7z"/><path d="m204.55 150.73v4h-1v-3.73c0-1.11-.32-1.42-1-1.42a3.19 3.19 0 0 0 -1.73.56v4.64h-.95v-4.38c0-.55 0-1.26-.07-1.68.86 0 1 .1 1 .84a3.08 3.08 0 0 1 2-.84c1.2-.03 1.75.51 1.75 2.01z"/><path d="m210.19 154a2.72 2.72 0 0 1 -1.87.8c-1.37 0-2.15-.89-2.15-3s.9-3.16 2.39-3.16a2.53 2.53 0 0 1 1.63.6v-1.38c0-.55 0-1.24-.07-1.67.91 0 1 .06 1 .76v6.16c0 .55 0 1.26.07 1.68-.87.05-.98-.03-1-.79zm-1.65 0a2.7 2.7 0 0 0 1.65-.56v-3.44a3 3 0 0 0 -1.62-.45c-.89 0-1.43.49-1.43 2.28s.5 2.17 1.4 2.17z"/><path d="m217.61 151.19v.68h-3.69c0 1.48.49 2.1 1.6 2.1a11.06 11.06 0 0 0 1.48-.26c.31 0 .42.21.47.63a4.68 4.68 0 0 1 -2.11.51c-1.6 0-2.43-.9-2.43-3s.93-3.15 2.63-3.15c1.44-.02 2.05.86 2.05 2.49zm-3.71 0h2.77c0-1.24-.38-1.71-1.25-1.71s-1.42.43-1.52 1.7z"/><path d="m223 154a2.72 2.72 0 0 1 -1.87.8c-1.37 0-2.15-.89-2.15-3s.9-3.16 2.39-3.16a2.55 2.55 0 0 1 1.63.6v-1.38c0-.55 0-1.24-.07-1.67.91 0 1 .06 1 .76v6.16c0 .55 0 1.26.07 1.68-.91.05-1-.03-1-.79zm-1.66 0a2.73 2.73 0 0 0 1.66-.56v-3.44a3 3 0 0 0 -1.62-.45c-.89 0-1.43.49-1.43 2.28s.45 2.17 1.35 2.17z"/><path d="m262.35 142.75h-1.24l-.27-6.74a14.37 14.37 0 0 1 -.57 1.34l-1.81 4h-1l-1.83-4c-.23-.49-.41-.91-.58-1.34l-.27 6.74h-1.14l.36-8.25c1.39 0 1.54.11 1.84.77l1.64 3.51c.16.37.36.79.51 1.18.17-.39.36-.78.53-1.18l1.62-3.51c.3-.67.48-.77 1.85-.77z"/><path d="m268.71 139.23v.74h-3.6c.05 1.32.48 1.82 1.5 1.82a12 12 0 0 0 1.44-.24c.35 0 .47.23.53.78a4.68 4.68 0 0 1 -2.17.52c-1.66 0-2.53-.85-2.53-3s.93-3.17 2.68-3.17c1.5-.02 2.15.88 2.15 2.55zm-3.62-.08h2.49c0-1.16-.35-1.57-1.13-1.57s-1.26.42-1.36 1.57z"/><path d="m273.89 142a2.43 2.43 0 0 1 -1.78.81c-1.39 0-2.15-.92-2.15-3s.87-3.16 2.36-3.16a2.36 2.36 0 0 1 1.56.59v-1.24c0-.56 0-1.26-.08-1.74 1.18 0 1.29.08 1.29.9v6c0 .56 0 1.26.07 1.74-1.1-.06-1.22-.12-1.27-.9zm0-.61v-3.39a2.8 2.8 0 0 0 -1.43-.38c-.79 0-1.26.46-1.26 2.12s.44 2.11 1.25 2.11a2.69 2.69 0 0 0 1.43-.43z"/><path d="m278.5 135a.71.71 0 0 1 -.8.79.68.68 0 0 1 -.77-.77.71.71 0 0 1 .81-.8.69.69 0 0 1 .76.78zm-.19 2.59v5.18h-1.2v-4.33c0-.56 0-1.26-.07-1.74 1.12-.02 1.27.04 1.27.87z"/><path d="m283.75 142a2.89 2.89 0 0 1 -2 .86c-1.05 0-1.56-.6-1.56-2v-2.4c0-.56 0-1.26-.07-1.73 1.15 0 1.27.06 1.27.77v3.18c0 .8.24 1.19.85 1.19a3.07 3.07 0 0 0 1.49-.47v-4.6h1.27v4.38c0 .57 0 1.23.09 1.71-1.09-.05-1.31-.15-1.34-.89z"/><path d="m295.17 138.71v4h-1.17v-3.81c0-1-.28-1.26-.92-1.26a2.62 2.62 0 0 0 -1.39.5v.53 4h-1.21v-3.81c0-.9-.26-1.26-.84-1.26a2.72 2.72 0 0 0 -1.45.55v4.52h-1.19v-4.34c0-.56 0-1.26-.07-1.73 1.08 0 1.23.1 1.26.91a2.87 2.87 0 0 1 1.93-.91 1.35 1.35 0 0 1 1.44.93 2.8 2.8 0 0 1 2-.93c1.1.08 1.61.63 1.61 2.11z"/><path d="m255.34 153.7c0 1-.09 1.05-.78 1.05h-4v-8.15h3 1.7c0 1-.08 1-.78 1h-2.63v2.49h1.47 1.7c0 1-.08 1-.78 1h-2.39v2.65h1.84c.55-.01 1.21-.01 1.65-.04z"/><path d="m261.74 154.58a3.46 3.46 0 0 1 -1 .26c-.31 0-.48-.2-.76-.63l-1.14-1.77-1.06 1.72c-.29.48-.46.68-.77.68a3.24 3.24 0 0 1 -.86-.22l2.06-3-1.88-2.76a2.7 2.7 0 0 1 .88-.23c.33 0 .52.2.83.7l.92 1.45.92-1.47c.31-.48.48-.68.79-.68a2.79 2.79 0 0 1 .84.22l-1.92 2.73z"/><path d="m266.49 154.33a3.41 3.41 0 0 1 -1.78.51c-1 0-1.41-.4-1.41-1.58v-3.62a8.78 8.78 0 0 0 -1 0c0-.89 0-1 1-1v-.42c0-.91.15-1.07 1.3-1.07-.05.47-.08.95-.09 1.54h1.79c0 .84-.06.94-.76.94h-1v3.4c0 .56.17.71.59.71s.65-.17.91-.17.33.2.45.76z"/><path d="m272.28 151.23v.74h-3.6c.05 1.32.48 1.82 1.5 1.82a12 12 0 0 0 1.44-.24c.35 0 .47.23.53.78a4.68 4.68 0 0 1 -2.17.52c-1.66 0-2.53-.85-2.53-3s.93-3.17 2.68-3.17c1.5-.02 2.15.88 2.15 2.55zm-3.61-.08h2.48c0-1.16-.35-1.57-1.13-1.57s-1.26.42-1.35 1.57z"/><path d="m278.77 150.71v4h-1.22v-3.81c0-1-.27-1.24-.91-1.24a3.09 3.09 0 0 0 -1.52.48v4.57h-1.2v-4.34c0-.56 0-1.26-.07-1.73 1 0 1.23.1 1.27.88a2.89 2.89 0 0 1 2-.88c1.13.04 1.65.59 1.65 2.07z"/><path d="m284.2 154a2.43 2.43 0 0 1 -1.77.81c-1.39 0-2.16-.92-2.16-3s.87-3.16 2.36-3.16a2.34 2.34 0 0 1 1.56.59v-1.24c0-.56 0-1.26-.07-1.74 1.17 0 1.28.08 1.28.9v6c0 .56 0 1.26.07 1.74-1.1-.06-1.22-.12-1.27-.9zm0-.61v-3.39a2.8 2.8 0 0 0 -1.43-.38c-.79 0-1.26.46-1.26 2.12s.45 2.11 1.25 2.11a2.67 2.67 0 0 0 1.43-.43z"/><path d="m291.89 151.23v.74h-3.6c.05 1.32.48 1.82 1.5 1.82a12 12 0 0 0 1.44-.24c.35 0 .47.23.53.78a4.68 4.68 0 0 1 -2.17.52c-1.66 0-2.53-.85-2.53-3s.93-3.17 2.68-3.17c1.51-.02 2.15.88 2.15 2.55zm-3.6-.08h2.48c0-1.16-.35-1.57-1.13-1.57s-1.26.42-1.35 1.57z"/><path d="m297.08 154a2.45 2.45 0 0 1 -1.78.81c-1.39 0-2.16-.92-2.16-3s.88-3.16 2.37-3.16a2.36 2.36 0 0 1 1.56.59v-1.24c0-.56 0-1.26-.08-1.74 1.18 0 1.29.08 1.29.9v6c0 .56 0 1.26.07 1.74-1.1-.06-1.22-.12-1.27-.9zm0-.61v-3.39a2.8 2.8 0 0 0 -1.43-.38c-.79 0-1.26.46-1.26 2.12s.44 2.11 1.25 2.11a2.69 2.69 0 0 0 1.43-.43z"/><path d="m329.38 134.87c-.13.81-.31 1-.65 1a11.18 11.18 0 0 0 -1.54-.26c-.79 0-1.31.31-1.31 1 0 1.82 3.87.83 3.87 3.73 0 1.68-1.24 2.51-2.92 2.51a7.76 7.76 0 0 1 -2.59-.44c.14-.87.38-1.07.72-1.07a10.75 10.75 0 0 0 1.83.34c.95 0 1.55-.36 1.55-1.18 0-1.94-3.85-.86-3.85-3.75 0-1.55 1.14-2.29 2.65-2.29a6.9 6.9 0 0 1 2.24.41z"/><path d="m335.84 139.26a7.1 7.1 0 0 1 0 .77h-3.53c0 1.22.44 1.67 1.41 1.67a12.09 12.09 0 0 0 1.43-.24c.36 0 .48.24.56.87a4.69 4.69 0 0 1 -2.2.53c-1.68 0-2.59-.84-2.59-3.05s.93-3.18 2.72-3.18c1.55 0 2.2.94 2.2 2.63zm-3.56-.12h2.3c0-1.11-.31-1.5-1-1.5s-1.22.36-1.3 1.5z"/><path d="m345.71 138.7v4.05h-1.35v-3.84c0-.87-.25-1.14-.84-1.14a2.66 2.66 0 0 0 -1.31.45v.47 4.06h-1.36v-3.84c0-.82-.24-1.14-.79-1.14a2.7 2.7 0 0 0 -1.34.48v4.5h-1.32v-4.32c0-.56 0-1.26-.07-1.76 1.19 0 1.37.1 1.4.92a2.85 2.85 0 0 1 1.94-.92 1.32 1.32 0 0 1 1.42.92 2.85 2.85 0 0 1 2-.92c1.12 0 1.62.58 1.62 2.03z"/><path d="m349.05 134.94a.78.78 0 0 1 -.88.86.74.74 0 0 1 -.84-.83.77.77 0 0 1 .88-.85.74.74 0 0 1 .84.82zm-.19 2.7v5.11h-1.34v-4.3c0-.58 0-1.26-.07-1.78 1.28 0 1.41.06 1.41.97z"/><path d="m355.89 139.71c0 2.18-.86 3.13-2.35 3.13a2.28 2.28 0 0 1 -1.52-.58c0 .58-.28.58-1.43.58.05-.51.07-1.2.07-1.77v-5.07c0-.57 0-1.26-.07-1.77 1.32 0 1.43.06 1.43 1v2.27a2.39 2.39 0 0 1 1.7-.78c1.4-.05 2.17.87 2.17 2.99zm-1.38.06c0-1.55-.42-2-1.17-2a2.54 2.54 0 0 0 -1.32.4v3.33a2.72 2.72 0 0 0 1.32.34c.74-.04 1.17-.48 1.17-2.07z"/><path d="m362.47 139.73c0 2.15-.94 3.13-2.75 3.13s-2.65-1-2.65-3.08.94-3.15 2.74-3.15 2.66 1.01 2.66 3.1zm-4 .05c0 1.45.4 2.05 1.31 2.05s1.31-.57 1.31-2.09-.39-2.07-1.31-2.07-1.32.56-1.32 2.11z"/><path d="m365.35 135.18v7.57h-1.35v-6.75c0-.57 0-1.26-.06-1.77 1.31-.01 1.41.05 1.41.95z"/><path d="m370.77 142a2.32 2.32 0 0 1 -1.71.8c-1.42 0-2.17-.93-2.17-3s.86-3.16 2.35-3.16a2.28 2.28 0 0 1 1.52.58v-1.22c0-.57 0-1.26-.07-1.77 1.32 0 1.43.06 1.43 1v5.89c0 .57 0 1.26.07 1.77-1.19-.05-1.36-.13-1.42-.89zm0-.67v-3.31a2.48 2.48 0 0 0 -1.32-.36c-.74 0-1.19.45-1.19 2s.42 2 1.19 2a2.46 2.46 0 0 0 1.31-.29z"/><path d="m329.23 153.6c0 1.08-.08 1.15-.81 1.15h-4.07v-8.17h3.07 1.68c0 1.08-.08 1.14-.82 1.14h-2.52v2.28h1.42 1.68c0 1.07-.08 1.13-.82 1.13h-2.28v2.51h1.8c.62 0 1.23 0 1.67-.04z"/><path d="m335.73 154.56a3.83 3.83 0 0 1 -1.08.28c-.35 0-.52-.2-.79-.64l-1.07-1.7-1 1.66c-.28.48-.45.68-.79.68a3.56 3.56 0 0 1 -1-.24l2.05-3-1.87-2.72a3.21 3.21 0 0 1 1-.26c.36 0 .55.21.86.71l.85 1.38.84-1.4c.29-.48.47-.69.82-.69a3.35 3.35 0 0 1 1 .25l-1.92 2.72z"/><path d="m340.53 154.31a3.49 3.49 0 0 1 -1.84.53c-1 0-1.45-.4-1.45-1.65v-3.48c-.42 0-.72 0-1 0 0-1 0-1 1-1v-.32c0-1 .17-1.2 1.44-1.2-.05.49-.07 1-.08 1.57.7 0 1.33 0 1.76-.05 0 .94-.06 1-.77 1h-1v3.29c0 .54.14.69.55.69s.6-.16.89-.16.37.14.5.78z"/><path d="m346.38 151.26v.77h-3.54c.05 1.22.44 1.67 1.41 1.67a12.09 12.09 0 0 0 1.43-.24c.36 0 .48.24.56.87a4.69 4.69 0 0 1 -2.2.53c-1.68 0-2.59-.84-2.59-3.05s.93-3.18 2.72-3.18c1.57 0 2.21.94 2.21 2.63zm-3.56-.12h2.3c0-1.11-.31-1.5-1-1.5s-1.22.36-1.3 1.5z"/><path d="m352.89 150.7v4.05h-1.35v-3.84c0-.87-.26-1.12-.85-1.12a2.92 2.92 0 0 0 -1.4.43v4.53h-1.29v-4.32c0-.56 0-1.26-.08-1.76 1.18 0 1.38.11 1.42.9a2.81 2.81 0 0 1 2-.9c1.05 0 1.55.58 1.55 2.03z"/><path d="m358.2 154a2.32 2.32 0 0 1 -1.71.8c-1.42 0-2.17-.93-2.17-3s.86-3.16 2.35-3.16a2.3 2.3 0 0 1 1.52.58v-1.22c0-.57 0-1.26-.07-1.77 1.32 0 1.43.06 1.43 1v5.89c0 .57 0 1.26.07 1.77-1.21-.05-1.36-.13-1.42-.89zm0-.67v-3.31a2.48 2.48 0 0 0 -1.32-.36c-.74 0-1.19.45-1.19 2s.42 2 1.19 2a2.46 2.46 0 0 0 1.31-.29z"/><path d="m366.05 151.26a7.1 7.1 0 0 1 0 .77h-3.53c0 1.22.44 1.67 1.41 1.67a12.09 12.09 0 0 0 1.43-.24c.36 0 .48.24.56.87a4.69 4.69 0 0 1 -2.2.53c-1.68 0-2.59-.84-2.59-3.05s.93-3.18 2.72-3.18c1.55 0 2.2.94 2.2 2.63zm-3.56-.12h2.3c0-1.11-.31-1.5-1-1.5s-1.22.36-1.3 1.5z"/><path d="m371.13 154a2.34 2.34 0 0 1 -1.72.8c-1.41 0-2.17-.93-2.17-3s.86-3.16 2.35-3.16a2.33 2.33 0 0 1 1.53.58v-1.22c0-.57 0-1.26-.08-1.77 1.32 0 1.43.06 1.43 1v5.89c0 .57 0 1.26.07 1.77-1.21-.05-1.35-.13-1.41-.89zm0-.67v-3.31a2.54 2.54 0 0 0 -1.33-.36c-.74 0-1.18.45-1.18 2s.42 2 1.18 2a2.52 2.52 0 0 0 1.32-.29z"/><path d="m417.09 140.36c0 1.58-1 2.39-2.89 2.39h-2.78v-8.17h2.28c2 0 3 .74 3 1.9a1.73 1.73 0 0 1 -1.46 1.81 2 2 0 0 1 1.85 2.07zm-3.45-4.58h-.64v2.22h.61c1 0 1.43-.3 1.43-1.19s-.36-1.03-1.4-1.03zm1.78 4.56c0-.92-.58-1.16-1.78-1.16h-.64v2.34h.88c1.12 0 1.54-.3 1.54-1.18z"/><path d="m423.63 139.73c0 2.15-.93 3.13-2.79 3.13s-2.73-1-2.73-3.09.93-3.16 2.78-3.16 2.74 1.01 2.74 3.12zm-3.91 0c0 1.39.35 1.95 1.16 1.95s1.14-.55 1.14-2-.33-2-1.14-2-1.16.62-1.16 2.09z"/><path d="m426.61 135.28v7.47h-1.61v-6.75c0-.59 0-1.28-.05-1.83 1.57.04 1.66.11 1.66 1.11z"/><path d="m431.86 142.06a2.24 2.24 0 0 1 -1.64.78c-1.45 0-2.19-.94-2.19-3s.85-3.15 2.34-3.15a2.22 2.22 0 0 1 1.46.54v-1.23c0-.59 0-1.28-.07-1.83 1.53 0 1.64.07 1.64 1.07v5.76c0 .58 0 1.26.07 1.82-1.35.02-1.53-.06-1.61-.76zm0-.74v-3.21a2.35 2.35 0 0 0 -1.16-.3c-.66 0-1.05.42-1.05 1.91s.38 1.93 1.07 1.93a2.37 2.37 0 0 0 1.11-.33z"/><path d="m403.05 153.47c0 1.21-.08 1.28-.87 1.28h-4.13v-8.17h3.23 1.63c0 1.2-.08 1.27-.87 1.27h-2.37v2.15h1.38 1.63c0 1.2-.08 1.26-.87 1.26h-2.14v2.3h1.74c.64-.07 1.18-.07 1.64-.09z"/><path d="m409.67 154.51a4.36 4.36 0 0 1 -1.28.33c-.37 0-.56-.21-.82-.64l-1-1.6-.89 1.58c-.26.46-.44.66-.79.66a4.27 4.27 0 0 1 -1.15-.29l2-2.91-1.74-2.64a4.15 4.15 0 0 1 1.18-.3c.39 0 .6.21.9.71l.76 1.26.73-1.29c.27-.48.47-.68.83-.68a3.61 3.61 0 0 1 1.15.29l-1.91 2.68z"/><path d="m414.58 154.28a3.61 3.61 0 0 1 -1.92.56c-1.1 0-1.52-.4-1.52-1.74v-3.27c-.42 0-.73 0-1 0 0-1.08 0-1.14 1-1.14v-.18c0-1.18.19-1.39 1.66-1.39a13.88 13.88 0 0 0 -.09 1.62h1.74c0 1.06-.07 1.14-.8 1.14h-.94v3c0 .52.14.65.5.65s.56-.13.85-.13.36.13.52.88z"/><path d="m420.53 151.26v.85h-3.53c.07 1.08.43 1.43 1.3 1.43a13.68 13.68 0 0 0 1.42-.22c.38 0 .51.26.61 1a5 5 0 0 1 -2.25.53c-1.74 0-2.7-.79-2.7-3.05s.95-3.2 2.77-3.2 2.38.96 2.38 2.66zm-3.49-.13h2.06c0-1.07-.26-1.39-1-1.39s-.98.26-1.1 1.39z"/><path d="m427.08 150.67v4.08h-1.57v-3.87c0-.75-.23-1-.73-1a2.7 2.7 0 0 0 -1.24.38v4.46h-1.54v-4.28c0-.58 0-1.26-.07-1.81 1.33 0 1.58.11 1.62.92a2.73 2.73 0 0 1 2-.92c1.05.03 1.53.62 1.53 2.04z"/><path d="m432.21 154.06a2.22 2.22 0 0 1 -1.63.78c-1.45 0-2.19-.94-2.19-3s.85-3.15 2.34-3.15a2.22 2.22 0 0 1 1.46.54v-1.23c0-.59 0-1.28-.07-1.83 1.53 0 1.64.07 1.64 1.07v5.76c0 .58 0 1.26.07 1.82-1.35.02-1.53-.06-1.62-.76zm0-.74v-3.21a2.35 2.35 0 0 0 -1.16-.3c-.66 0-1 .42-1 1.91s.38 1.93 1.07 1.93a2.37 2.37 0 0 0 1.07-.33z"/><path d="m440.29 151.26a6.33 6.33 0 0 1 -.05.85h-3.44c.07 1.08.43 1.43 1.31 1.43a13.85 13.85 0 0 0 1.41-.22c.39 0 .52.26.61 1a4.92 4.92 0 0 1 -2.25.53c-1.74 0-2.7-.79-2.7-3.05s.95-3.2 2.77-3.2 2.34.96 2.34 2.66zm-3.49-.13h2.06c0-1.07-.26-1.39-.94-1.39s-1.04.26-1.12 1.39z"/><path d="m445.22 154.06a2.22 2.22 0 0 1 -1.63.78c-1.45 0-2.19-.94-2.19-3s.85-3.15 2.34-3.15a2.22 2.22 0 0 1 1.46.54v-1.23c0-.59 0-1.28-.07-1.83 1.53 0 1.64.07 1.64 1.07v5.76c0 .58 0 1.26.07 1.82-1.35.02-1.53-.06-1.62-.76zm0-.74v-3.21a2.35 2.35 0 0 0 -1.16-.3c-.66 0-1.05.42-1.05 1.91s.37 1.93 1.07 1.93a2.37 2.37 0 0 0 1.12-.33z"/><path d="m229.22 6.24-3 6.46h-1.14l-1-6.46a11.33 11.33 0 0 0 -.32-1.69 5.62 5.62 0 0 1 .56-.07c.48 0 .59.28.72 1.25l.58 4.23c.08.61.14 1.24.17 1.75.23-.63.41-1.08.73-1.8l1.92-4.25c.42-.93.59-1.18 1-1.18a2.81 2.81 0 0 1 .57.07c-.27.57-.5 1.08-.79 1.69z"/><path d="m234.68 6.66c-.08.37-.24 1.2-.32 1.68l-.44 2.81a15.9 15.9 0 0 0 -.17 1.63c-.7 0-.93-.07-.93-.53a1.28 1.28 0 0 1 0-.19 2.42 2.42 0 0 1 -1.69.72c-1 0-1.56-.7-1.56-2.1 0-1.81.78-4 2.64-4a1.77 1.77 0 0 1 1.36.62c.12-.6.28-.66 1.11-.64zm-3.13 5.34a2.12 2.12 0 0 0 1.38-.58l.55-3.54a1.78 1.78 0 0 0 -1.13-.42c-1.38 0-1.78 1.91-1.78 3.16 0 .91.26 1.38.98 1.38z"/><path d="m237.85 4.62a1.56 1.56 0 0 1 0 .35l-1.23 7.73h-1l1.1-6.87c.08-.55.18-1.25.19-1.65.72 0 .94.06.94.44z"/><path d="m243.63 6.7-.71 4.47a16.15 16.15 0 0 0 -.17 1.61c-.71 0-.92-.07-.92-.53a1.19 1.19 0 0 1 0-.25 3.13 3.13 0 0 1 -1.92.78c-.8 0-1.18-.4-1.18-1.27a6.12 6.12 0 0 1 .06-.67l.4-2.56c.08-.55.18-1.25.19-1.64.73 0 .93.06.93.43v.3l-.53 3.35a3.61 3.61 0 0 0 -.05.52c0 .5.2.69.62.69a2.92 2.92 0 0 0 1.59-.57l.73-4.66z"/><path d="m245.57 10.45a.9.9 0 0 0 0 .23c0 .92.35 1.22 1.06 1.22s1-.34 1.35-.34.39.14.47.6a4 4 0 0 1 -2.05.63c-1.09 0-1.8-.56-1.8-2.06 0-2 1.14-4.1 3.07-4.1 1 0 1.51.49 1.51 1.32-.02 1.27-1.36 2.27-3.61 2.5zm.09-.73c1.9-.29 2.57-1 2.57-1.64a.64.64 0 0 0 -.73-.69c-.94 0-1.6 1.16-1.84 2.33z"/><path d="m254 7.13c-.17.53-.33.67-.56.67s-.61-.37-1.15-.37-1 .32-1 .86c0 1.2 2.31.62 2.31 2.53a2 2 0 0 1 -2.18 1.95 4.09 4.09 0 0 1 -1.87-.51c.17-.55.35-.69.6-.69s.64.38 1.3.38a1 1 0 0 0 1.18-1c0-1.3-2.31-.69-2.31-2.51a1.83 1.83 0 0 1 2-1.76 3.14 3.14 0 0 1 1.68.45z"/><path d="m261.74 4.48c-.17.59-.31.67-.54.67s-.43-.15-.82-.15-.67.27-.79 1l-.13.8h1.54c-.11.73-.18.76-.76.76h-.89l-1.09 6.86c-.09.63-.21.72-1.08.72l1.21-7.61c-.33 0-.63 0-.88 0 .08-.72.15-.77.91-.77h.09l.14-.84c.19-1.17.75-1.7 1.73-1.7a3.32 3.32 0 0 1 1.36.26z"/><path d="m261.27 10.67c0-2.22.89-4 2.91-4 1.29 0 1.95.69 1.95 2.13 0 2.21-.89 4-2.89 4-1.31-.01-1.97-.7-1.97-2.13zm3.87-1.94c0-.92-.35-1.3-1.06-1.3-1.37 0-1.82 1.67-1.82 3.26 0 .93.36 1.3 1.08 1.3 1.37.01 1.8-1.68 1.8-3.26z"/><path d="m271.14 6.64c0 .91-.12 1-.66 1.1a2.33 2.33 0 0 0 -1.77 1.13l-.61 3.83h-.94l.69-4.42c.08-.55.18-1.25.19-1.64.71 0 .93.08.93.53a3.62 3.62 0 0 1 -.05.51v.23a2.47 2.47 0 0 1 2.22-1.27z"/><path d="m278.64 10.38v1.48a10.79 10.79 0 0 0 1.5-4.47c.07-.6.17-.75.51-.75a2.67 2.67 0 0 1 .49.06 12.92 12.92 0 0 1 -2.14 6h-1l-.15-3.12c0-.75-.06-1.26-.06-1.9-.36 1-.4 1.15-.7 1.91l-1.21 3.11h-1.1l-.48-6a2.42 2.42 0 0 1 .54-.07c.36 0 .44.18.46.72l.17 3.15c0 .47.05 1 0 1.38.17-.49.23-.77.6-1.73l1-2.66c.29-.76.37-.85 1.32-.85z"/><path d="m282.73 10.45a1.77 1.77 0 0 0 0 .23c0 .92.35 1.22 1 1.22s1-.34 1.36-.34.38.14.47.6a4.09 4.09 0 0 1 -2.06.63c-1.09 0-1.79-.56-1.79-2.06 0-2 1.14-4.1 3.07-4.1 1 0 1.51.49 1.51 1.32.04 1.27-1.29 2.27-3.56 2.5zm.1-.73c1.89-.29 2.56-1 2.56-1.64a.63.63 0 0 0 -.73-.69c-.93 0-1.59 1.16-1.83 2.33z"/><path d="m288.89 7.12a2.51 2.51 0 0 1 0 .32l-.89 5.26h-1l.71-4.41c.08-.55.17-1.24.18-1.64.77 0 1 .06 1 .47zm.45-2.29c0 .59-.27.85-.75.85a.5.5 0 0 1 -.57-.54c0-.59.28-.85.77-.85a.49.49 0 0 1 .55.54z"/><path d="m294.94 6.66q-.13.68-.3 1.68l-.63 4c-.31 2-1.25 2.78-2.76 2.78a3.91 3.91 0 0 1 -1.72-.38c.18-.64.36-.73.6-.73.42 0 .51.27 1.2.27.9 0 1.49-.45 1.71-1.84l.06-.39a2.39 2.39 0 0 1 -1.65.71c-1.05 0-1.58-.67-1.58-2.11 0-1.8.77-4 2.63-4a1.66 1.66 0 0 1 1.35.62c.15-.57.28-.63 1.09-.61zm-1.74 4.75.56-3.55a1.81 1.81 0 0 0 -1.12-.42c-1.39 0-1.8 1.92-1.8 3.16 0 .93.27 1.38 1 1.38a2.13 2.13 0 0 0 1.36-.57z"/><path d="m300.82 7.9a3.42 3.42 0 0 1 -.06.68l-.45 2.78a8.39 8.39 0 0 0 -.15 1.43c-.69 0-.92-.07-.92-.53a3.35 3.35 0 0 1 .06-.56l.48-3a3.35 3.35 0 0 0 .06-.57c0-.51-.22-.67-.67-.67a3 3 0 0 0 -1.61.56l-.74 4.65h-1l1.18-6.84c.08-.55.18-1.25.19-1.65.72 0 .94.06.94.43a2.81 2.81 0 0 1 -.13.39l-.38 2.45a3.09 3.09 0 0 1 1.92-.78c.88-.03 1.28.33 1.28 1.23z"/><path d="m303.43 11.2a2.51 2.51 0 0 0 0 .32c0 .32.15.4.45.4s.63-.2.87-.2.33.21.35.64a3.84 3.84 0 0 1 -1.58.42c-.75 0-1.07-.29-1.07-1a2.9 2.9 0 0 1 0-.48l.62-3.86c-.4 0-.67 0-.91 0 .09-.73.12-.8 1-.8l.09-.61c.11-.65.21-.8.84-.8h.3c-.08.4-.18.87-.27 1.43h1.59c-.09.72-.14.79-.74.79h-1z"/><path d="m313.85 6.66c-.08.37-.23 1.2-.32 1.68l-.43 2.81a16.15 16.15 0 0 0 -.18 1.63c-.7 0-.92-.07-.92-.53a1.28 1.28 0 0 1 0-.19 2.45 2.45 0 0 1 -1.69.72c-1 0-1.56-.7-1.56-2.1 0-1.81.78-4 2.64-4a1.73 1.73 0 0 1 1.35.62c.12-.6.26-.66 1.11-.64zm-3.13 5.34a2.1 2.1 0 0 0 1.38-.58l.56-3.54a1.82 1.82 0 0 0 -1.13-.42c-1.38 0-1.79 1.91-1.79 3.16 0 .91.26 1.38.98 1.38z"/><path d="m317.52 9.6 1.44 3a2.46 2.46 0 0 1 -.71.18c-.25 0-.39-.18-.58-.64l-.8-1.88-1.33 1.88c-.29.41-.48.65-.77.65a2.17 2.17 0 0 1 -.67-.18l2.32-3-1.28-2.77a2.09 2.09 0 0 1 .67-.17c.29 0 .4.2.61.71l.66 1.56 1.16-1.62c.31-.45.51-.66.78-.66a2.18 2.18 0 0 1 .64.18z"/><path d="m322 7.12a2.23 2.23 0 0 1 0 .32l-.84 5.26h-1l.71-4.41c.08-.55.16-1.24.17-1.64.72 0 .96.06.96.47zm.46-2.29c0 .59-.28.85-.76.85a.49.49 0 0 1 -.56-.54c0-.59.28-.85.77-.85a.49.49 0 0 1 .54.54z"/><path d="m327 7.13c-.18.53-.33.67-.56.67s-.61-.37-1.15-.37-1 .32-1 .86c0 1.2 2.31.62 2.31 2.53a2 2 0 0 1 -2.18 1.95 4.09 4.09 0 0 1 -1.87-.51c.17-.55.35-.69.6-.69s.63.38 1.29.38a1.05 1.05 0 0 0 1.19-1c0-1.3-2.31-.69-2.31-2.51a1.82 1.82 0 0 1 2-1.76 3.18 3.18 0 0 1 1.68.45z"/><path d="m6.56 152 6.44 3v1.14l-6.45 1a11.09 11.09 0 0 0 -1.69.32 3.83 3.83 0 0 1 -.08-.57c0-.47.28-.58 1.25-.71l4.23-.58c.62-.08 1.24-.14 1.76-.17-.64-.23-1.08-.41-1.8-.73l-4.22-1.94c-.93-.42-1.18-.59-1.18-1a2.94 2.94 0 0 1 .08-.57z"/><path d="m7 146.51c.37.08 1.2.24 1.68.32l2.8.44a16.19 16.19 0 0 0 1.63.17c0 .7-.07.93-.53.93h-.19a2.42 2.42 0 0 1 .72 1.69c0 1-.69 1.56-2.1 1.56-1.81 0-4-.78-4-2.64a1.74 1.74 0 0 1 .63-1.36c-.64-.12-.64-.28-.64-1.11zm5.31 3.13a2.12 2.12 0 0 0 -.58-1.38l-3.53-.55a1.72 1.72 0 0 0 -.42 1.13c0 1.38 1.9 1.78 3.15 1.78.92 0 1.36-.26 1.36-.98z"/><path d="m4.94 143.34a1.7 1.7 0 0 1 .35 0l7.71 1.27v1l-6.86-1.1c-.55-.08-1.26-.18-1.66-.19.01-.76.07-.98.46-.98z"/><path d="m7 137.56 4.48.71c.55.08 1.21.16 1.6.17 0 .71-.07.92-.53.92a1.19 1.19 0 0 1 -.25 0 3.13 3.13 0 0 1 .78 1.92c0 .8-.39 1.18-1.27 1.18a6.12 6.12 0 0 1 -.67-.06l-2.54-.4c-.56-.08-1.25-.18-1.65-.19 0-.73.06-.93.43-.93h.3l3.35.53a3.61 3.61 0 0 0 .53.05c.49 0 .68-.2.68-.62a3 3 0 0 0 -.56-1.59l-4.68-.73z"/><path d="m10.77 135.62a.82.82 0 0 0 .22 0c.93 0 1.23-.35 1.23-1.06s-.35-1-.35-1.36.14-.38.6-.46a4 4 0 0 1 .63 2.05c0 1.09-.56 1.8-2.06 1.8-2 0-4.1-1.14-4.1-3.07 0-1 .49-1.51 1.32-1.51 1.27-.01 2.28 1.36 2.51 3.61zm-.74-.09c-.28-1.9-1-2.57-1.64-2.57-.41 0-.68.22-.68.73 0 .94 1.15 1.6 2.29 1.84z"/><path d="m7.44 127.23c.53.17.68.33.68.56s-.38.61-.38 1.15a.91.91 0 0 0 .87 1c1.2 0 .61-2.32 2.53-2.32a2 2 0 0 1 1.94 2.19 4.22 4.22 0 0 1 -.5 1.87c-.55-.17-.7-.35-.7-.6s.39-.64.39-1.3a1.06 1.06 0 0 0 -1-1.18c-1.29 0-.68 2.31-2.5 2.31a1.83 1.83 0 0 1 -1.77-2 3.24 3.24 0 0 1 .44-1.68z"/><path d="m4.79 119.45c.59.17.67.31.67.54s-.15.43-.15.81.27.68 1 .8l.8.13c0-.6 0-1.15 0-1.54.73.11.77.18.77.76v.89l6.86 1.09c.62.09.72.21.72 1.08l-7.67-1.21v.88c-.72-.08-.76-.15-.76-.91v-.09l-.84-.14c-1.18-.19-1.71-.75-1.71-1.74a3.53 3.53 0 0 1 .31-1.35z"/><path d="m11 119.91c-2.22 0-4-.88-4-2.9 0-1.29.7-2 2.14-2 2.2 0 4 .89 4 2.89-.04 1.35-.73 2.01-2.14 2.01zm-2-3.86c-.91 0-1.3.35-1.3 1.06 0 1.37 1.67 1.82 3.27 1.82.92 0 1.29-.36 1.29-1.08.04-1.37-1.64-1.8-3.26-1.8z"/><path d="m7 110.05c.91 0 1 .12 1.11.66a2.35 2.35 0 0 0 1.12 1.77l3.83.61v1l-4.41-.7c-.56-.08-1.25-.18-1.65-.19 0-.71.09-.93.53-.93a3.89 3.89 0 0 1 .52 0h.22a2.47 2.47 0 0 1 -1.27-2.22z"/><path d="m10.69 102.55h1.48a10.74 10.74 0 0 0 -4.46-1.55c-.6-.07-.76-.17-.76-.51a4 4 0 0 1 .05-.49 12.88 12.88 0 0 1 6 2.14v1.09l-3.12.15c-.74 0-1.26.06-1.89.06 1 .36 1.15.4 1.9.7l3.11 1.22v1.1l-6 .48a2.42 2.42 0 0 1 -.07-.54c0-.36.18-.44.72-.46l3.15-.17h1.38c-.49-.17-.76-.23-1.72-.6l-2.67-1c-.75-.29-.85-.37-.85-1.32z"/><path d="m5.14 97c.59 0 .85.27.85.75a.5.5 0 0 1 -.54.57c-.58 0-.85-.28-.85-.77a.49.49 0 0 1 .54-.55zm2.29.45a1.53 1.53 0 0 1 .33 0l5.25.84v1l-4.4-.71c-.55-.08-1.25-.17-1.65-.18.04-.72.04-.95.47-.95z"/><path d="m4.94 91.07a1.7 1.7 0 0 1 .35 0l6.17 1a14.39 14.39 0 0 0 1.63.19c0 .73-.07.91-.51.91h-.23a2.57 2.57 0 0 1 .74 1.74c0 1-.6 1.57-2 1.57-2 0-4.14-.78-4.14-2.66a1.74 1.74 0 0 1 .64-1.39l-1.44-.23a14.61 14.61 0 0 0 -1.66-.2c0-.69.05-.93.45-.93zm7.35 3.51a2.43 2.43 0 0 0 -.6-1.51l-3.5-.55a1.79 1.79 0 0 0 -.43 1.21c0 1.33 1.83 1.77 3.27 1.77.97 0 1.26-.3 1.26-.92z"/><path d="m11.51 88.88a1.45 1.45 0 0 0 .32 0c.33 0 .4-.14.4-.44s-.23-.6-.23-.84.2-.32.63-.35a3.77 3.77 0 0 1 .42 1.59c0 .74-.29 1.06-1 1.06h-.48l-3.86-.63v.92c-.73-.1-.8-.12-.8-1l-.52-.19c-.65-.11-.79-.2-.79-.84 0-.08 0-.19 0-.3.41.09.87.18 1.44.28 0-.56 0-1.21 0-1.6.72.1.79.15.79.75v1z"/><path d="m8.21 81.12a3.51 3.51 0 0 1 .69.06l2.78.46a8 8 0 0 0 1.42.14c0 .7-.07.93-.52.93a4.83 4.83 0 0 1 -.57-.06l-3-.48a3.35 3.35 0 0 0 -.56-.06c-.52 0-.68.21-.68.67a3.09 3.09 0 0 0 .57 1.61l4.64.74v1l-6.83-1.13c-.55-.09-1.26-.18-1.66-.2 0-.72.06-.93.44-.93a1.86 1.86 0 0 1 .36 0l2.44.38a3.09 3.09 0 0 1 -.73-1.88 1.1 1.1 0 0 1 1.21-1.25z"/><path d="m7 72.36c.37.09 1.2.24 1.68.33l2.8.43c.53.08 1.24.17 1.63.18 0 .69-.07.92-.53.92h-.19a2.45 2.45 0 0 1 .72 1.69c0 1-.69 1.56-2.1 1.56-1.81 0-4-.78-4-2.64a1.71 1.71 0 0 1 .63-1.35c-.64-.12-.64-.29-.64-1.12zm5.31 3.13a2.12 2.12 0 0 0 -.58-1.38l-3.53-.55a1.74 1.74 0 0 0 -.42 1.13c0 1.38 1.9 1.79 3.15 1.79.92 0 1.36-.27 1.36-.99z"/><path d="m9.91 68.7 3-1.44a2.39 2.39 0 0 1 .18.71c0 .25-.18.38-.63.58l-1.89.8 1.89 1.33c.4.29.64.48.64.77a2.17 2.17 0 0 1 -.18.67l-3-2.33-2.8 1.29a2.15 2.15 0 0 1 -.12-.67c0-.29.21-.4.71-.62l1.56-.66-1.67-1.13c-.44-.31-.66-.51-.66-.78a2.23 2.23 0 0 1 .18-.65z"/><path d="m5.14 63.77c.59 0 .85.27.85.75a.5.5 0 0 1 -.54.57c-.58 0-.85-.28-.85-.77a.49.49 0 0 1 .54-.55zm2.29.45a2.63 2.63 0 0 1 .33 0l5.24.88v1l-4.4-.71c-.55-.08-1.25-.17-1.65-.18.05-.76.05-.99.48-.99z"/><path d="m7.44 59.19c.53.18.68.33.68.56s-.38.61-.38 1.15a.91.91 0 0 0 .87 1c1.2 0 .61-2.31 2.53-2.31a2 2 0 0 1 1.94 2.18 4.22 4.22 0 0 1 -.5 1.87c-.55-.17-.7-.35-.7-.6s.39-.64.39-1.3a1.06 1.06 0 0 0 -1-1.18c-1.29 0-.68 2.31-2.5 2.31a1.83 1.83 0 0 1 -1.77-2 3.27 3.27 0 0 1 .44-1.68z"/><path d="m90.29 34.41v-7.9h369.12v7.9" fill="none" stroke="#000" stroke-miterlimit="10" stroke-width=".75"/><path d="m273.87 19.41v7.26" fill="none" stroke="#000" stroke-miterlimit="10" stroke-width=".75"/><path d="m33.35 163.19h-7.9v-110.63h7.9" fill="none" stroke="#000" stroke-miterlimit="10" stroke-width=".75"/><path d="m18.35 108.17h7.26" fill="none" stroke="#000" stroke-miterlimit="10" stroke-width=".75"/><path d="m98 114.91h58.66" fill="none" stroke="#000" stroke-miterlimit="10" stroke-width=".75"/><path d="m171.83 114.91h58.67" fill="none" stroke="#000" stroke-miterlimit="10" stroke-width=".75"/><path d="m171.83 102.91h58.67" fill="none" stroke="#000" stroke-miterlimit="10" stroke-width=".75"/><path d="m171 64.91h58" fill="none" stroke="#000" stroke-miterlimit="10" stroke-width=".75"/><path d="m171.83 138.91h58.67" fill="none" stroke="#000" stroke-miterlimit="10" stroke-width=".75"/><path d="m245.67 114.91h58.66" fill="none" stroke="#000" stroke-miterlimit="10" stroke-width=".75"/><path d="m319.5 114.91h58.67" fill="none" stroke="#000" stroke-miterlimit="10" stroke-width=".75"/><path d="m393.34 114.91h58.66" fill="none" stroke="#000" stroke-miterlimit="10" stroke-width=".75"/><path d="m187.87 166.59a.61.61 0 0 1 -.06.22l-.22.57 1.12-.29v.2c0 .31-.07.43-.42.45l-.68.06.5.92a.89.89 0 0 1 -.42.16c-.14 0-.22-.1-.28-.29l-.18-.56-.85.85c-.17-.17-.26-.3-.26-.41s.06-.19.22-.31l.57-.43-1-.37c.17-.28.28-.4.42-.4a.77.77 0 0 1 .27.09l.55.31.17-1.05c.38.02.55.09.55.28z" fill="#8cc63f"/><path d="m189.78 170.23a.86.86 0 0 0 0 .16c0 .61.23.81.7.81s.66-.23.91-.23.25.1.31.4a2.69 2.69 0 0 1 -1.37.42c-.73 0-1.2-.37-1.2-1.37 0-1.32.76-2.74 2-2.74.66 0 1 .33 1 .88.05.85-.85 1.52-2.35 1.67zm.06-.48c1.27-.19 1.71-.65 1.71-1.1 0-.27-.14-.45-.48-.45-.63 0-1.07.8-1.23 1.55z" fill="#8cc63f"/><path d="m194.15 166.35a1.11 1.11 0 0 1 0 .23l-.82 5.15h-.65l.74-4.57a10.62 10.62 0 0 0 .12-1.11c.46 0 .61.04.61.3z" fill="#8cc63f"/><path d="m195.81 168v.22l-.56 3.5h-.64l.47-2.93c.05-.37.11-.84.12-1.1.46.01.61.05.61.31zm.3-1.53c0 .4-.18.57-.5.57a.33.33 0 0 1 -.38-.36c0-.39.19-.57.52-.57a.33.33 0 0 1 .36.37z" fill="#8cc63f"/><path d="m200.06 166.35a1 1 0 0 1 0 .23l-.65 4.12a10.27 10.27 0 0 0 -.13 1.09c-.48 0-.6 0-.6-.35a.86.86 0 0 1 0-.15 1.76 1.76 0 0 1 -1.17.5c-.68 0-1-.4-1-1.34 0-1.33.52-2.76 1.77-2.76a1.15 1.15 0 0 1 .93.43l.15-1a10.62 10.62 0 0 0 .12-1.11c.42.04.58.07.58.34zm-2.34 4.9a1.61 1.61 0 0 0 1-.4l.37-2.33a1.17 1.17 0 0 0 -.81-.29c-.89 0-1.18 1.22-1.18 2.18.01.59.21.84.62.84z" fill="#8cc63f"/><path d="m203.93 167.71c-.06.25-.16.8-.22 1.12l-.29 1.87c0 .35-.11.82-.12 1.09-.46 0-.61 0-.61-.36a.49.49 0 0 1 0-.12 1.66 1.66 0 0 1 -1.13.48c-.69 0-1-.47-1-1.4 0-1.21.52-2.7 1.76-2.7a1.12 1.12 0 0 1 .9.42c.04-.38.16-.42.71-.4zm-2.09 3.54a1.39 1.39 0 0 0 .92-.38l.37-2.36a1.15 1.15 0 0 0 -.75-.28c-.92 0-1.19 1.27-1.19 2.1 0 .67.17.92.65.92z" fill="#8cc63f"/><path d="m208 169c0 1.39-.53 2.79-1.77 2.79a1.16 1.16 0 0 1 -.93-.43c-.07.36-.13.41-.4.41h-.34c.07-.28.15-.74.21-1.11l.55-3.49a10.75 10.75 0 0 0 .13-1.12c.49 0 .63.05.63.31v.23l-.26 1.6a1.87 1.87 0 0 1 1.15-.49c.61-.01 1.03.38 1.03 1.3zm-.66.05c0-.61-.21-.82-.58-.82a1.64 1.64 0 0 0 -1 .4l-.37 2.33a1.25 1.25 0 0 0 .83.29c.78 0 1.08-1.25 1.08-2.2z" fill="#8cc63f"/><path d="m210.11 166.35v.23l-.82 5.15h-.65l.73-4.57a10.9 10.9 0 0 0 .13-1.11c.5 0 .61.04.61.3z" fill="#8cc63f"/><path d="m211.2 170.23a.86.86 0 0 0 0 .16c0 .61.24.81.71.81s.65-.23.9-.23.26.1.31.4a2.66 2.66 0 0 1 -1.36.42c-.73 0-1.2-.37-1.2-1.37 0-1.32.76-2.74 2-2.74.66 0 1 .33 1 .88.04.85-.85 1.52-2.36 1.67zm.07-.48c1.26-.19 1.71-.65 1.71-1.1 0-.27-.15-.45-.49-.45-.62 0-1.06.8-1.22 1.55z" fill="#8cc63f"/><path d="m27.44 24.63c-.16.5-.28.61-.51.61s-.46-.24-.93-.24a.76.76 0 0 0 -.84.76c0 1 1.89.68 1.89 2.27a1.77 1.77 0 0 1 -1.93 1.81 3.58 3.58 0 0 1 -1.6-.45c.16-.56.32-.66.52-.66s.59.33 1.14.33a.84.84 0 0 0 .91-.89c0-1.07-1.88-.75-1.88-2.3a1.63 1.63 0 0 1 1.79-1.66 2.85 2.85 0 0 1 1.44.42z" fill="#8cc63f"/><path d="m32.1 24.27c-.12.81-.17.84-.62.84h-1.05l-.74 4.62h-.93l.73-4.62h-1.49l.13-.82h3c.35 0 .69 0 .97-.02z" fill="#8cc63f"/><path d="m34.37 28.38h-1.7l-.46 1.07c-.11.25-.19.35-.43.35a4.56 4.56 0 0 1 -.7-.1c.19-.35.39-.72.54-1l1.7-3.7a7.67 7.67 0 0 0 .34-.82c.9 0 1.05.15 1.12.6l.71 4.92h-1zm-.08-.74-.16-1.64c0-.26-.08-.67-.1-.89l-.37.91-.66 1.62z" fill="#8cc63f"/><path d="m40.16 24.27c-.12.81-.16.84-.62.84h-1l-.73 4.62h-.94l.74-4.62h-1.54l.14-.82h3c.34 0 .67 0 .95-.02z" fill="#8cc63f"/><path d="m42.65 28.23v.05c0 .54.17.72.63.72s.55-.19.8-.19.31.14.37.6a2.88 2.88 0 0 1 -1.4.39c-.81 0-1.31-.4-1.31-1.45 0-1.39.79-2.7 2.09-2.7.74 0 1.09.39 1.09 1 0 .67-.66 1.42-2.27 1.58zm.07-.6c1-.15 1.39-.55 1.39-.91a.36.36 0 0 0 -.41-.4c-.52 0-.85.68-.98 1.31z" fill="#8cc63f"/><path d="m48.79 26.52a4.2 4.2 0 0 1 0 .44l-.29 1.76a6.85 6.85 0 0 0 -.09 1.08c-.68 0-.88-.05-.88-.43a2.13 2.13 0 0 1 0-.39l.3-1.92a1.89 1.89 0 0 0 0-.3c0-.27-.11-.34-.35-.34a1.69 1.69 0 0 0 -.84.29l-.5 3h-.89l.47-2.9c.06-.39.12-.84.14-1.16.67 0 .86.07.86.43v.12a1.9 1.9 0 0 1 1.28-.52c.53 0 .79.26.79.84z" fill="#8cc63f"/><path d="m50.68 28.59a1 1 0 0 0 0 .22c0 .18.08.22.24.22s.36-.11.53-.11.23.12.27.55a2.65 2.65 0 0 1 -1.17.32c-.55 0-.79-.2-.79-.72a1.94 1.94 0 0 1 0-.4l.37-2.3a5.59 5.59 0 0 0 -.62 0c.08-.63.11-.68.7-.68v-.25c.11-.68.24-.77 1.08-.75-.07.33-.13.64-.2 1h1c-.08.64-.11.68-.55.68h-.54z" fill="#8cc63f"/><path d="m55.27 25.68c-.1.91-.15.94-.57 1a1.41 1.41 0 0 0 -1.05.59l-.39 2.45h-.9l.46-2.9a10.94 10.94 0 0 0 .18-1.14c.69 0 .87 0 .87.39a1.87 1.87 0 0 1 0 .37v.12a1.54 1.54 0 0 1 1.4-.88z" fill="#8cc63f"/><path d="m56.79 26a2.11 2.11 0 0 1 0 .31l-.54 3.38h-.9l.46-2.9a8.61 8.61 0 0 0 .13-1.15c.66.04.85.08.85.36zm.32-1.6a.58.58 0 0 1 -.66.65c-.32 0-.5-.15-.5-.45a1 1 0 0 1 0-.15.56.56 0 0 1 .64-.52.44.44 0 0 1 .52.51z" fill="#8cc63f"/><path d="m58.21 28.23v.05c0 .54.16.72.62.72s.55-.19.8-.19.31.14.37.6a2.87 2.87 0 0 1 -1.39.39c-.82 0-1.32-.4-1.32-1.45 0-1.39.79-2.7 2.09-2.7.74 0 1.1.39 1.1 1 0 .67-.67 1.42-2.27 1.58zm.06-.6c1-.15 1.39-.55 1.39-.91a.36.36 0 0 0 -.41-.4c-.52 0-.84.68-.98 1.31z" fill="#8cc63f"/><path d="m63.75 26c-.17.48-.28.57-.44.57s-.43-.23-.76-.23-.54.18-.54.45c0 .69 1.47.35 1.47 1.63a1.37 1.37 0 0 1 -1.48 1.37 2.91 2.91 0 0 1 -1.34-.36c.16-.48.28-.6.47-.6s.46.24.85.24.64-.2.64-.55c0-.74-1.48-.39-1.48-1.62 0-.77.62-1.22 1.45-1.22a2.42 2.42 0 0 1 1.16.32z" fill="#8cc63f"/><path d="m65.4 29.11a.62.62 0 0 1 -.7.69c-.34 0-.53-.15-.53-.46a.61.61 0 0 1 .69-.69c.35 0 .54.16.54.46zm.43-2.71a.61.61 0 0 1 -.7.68c-.34 0-.53-.16-.53-.48a.61.61 0 0 1 .69-.67c.36 0 .54.16.54.47z" fill="#8cc63f"/><path d="m24.17 34a2.94 2.94 0 0 1 .59-1.52.64.64 0 0 1 .56-.26h.21a8.53 8.53 0 0 0 -.53 1.16.37.37 0 0 1 .37.42.62.62 0 0 1 -.7.68c-.33 0-.5-.17-.5-.48z" fill="#8cc63f"/><path d="m29.49 32.4a2.23 2.23 0 0 1 0 .32l-.61 3.92a10.54 10.54 0 0 0 -.14 1.15c-.73 0-.86-.06-.86-.44a1.53 1.53 0 0 1 -1.07.48c-.69 0-1.05-.42-1.05-1.34 0-1.34.51-2.77 1.75-2.77a1.09 1.09 0 0 1 .87.4l.14-.88c.05-.39.11-.84.12-1.16.66-.08.85 0 .85.32zm-2.36 4.68a1.32 1.32 0 0 0 .78-.27l.36-2.25a1.06 1.06 0 0 0 -.64-.2c-.73 0-1 1.2-1 2 .02.55.18.72.5.72z" fill="#8cc63f"/><path d="m31.25 34a1.38 1.38 0 0 1 0 .31l-.53 3.38h-.91l.47-2.9a10.66 10.66 0 0 0 .13-1.15c.64.04.84.08.84.36zm.32-1.6a.58.58 0 0 1 -.66.65c-.32 0-.5-.15-.5-.45a.86.86 0 0 1 0-.15.57.57 0 0 1 .65-.52.44.44 0 0 1 .51.51z" fill="#8cc63f"/><path d="m34.62 34c-.17.48-.28.57-.44.57s-.43-.23-.76-.23-.54.18-.54.45c0 .69 1.47.35 1.47 1.63a1.36 1.36 0 0 1 -1.53 1.35 2.91 2.91 0 0 1 -1.34-.36c.16-.48.28-.6.47-.6s.46.24.85.24.64-.2.64-.55c0-.74-1.47-.39-1.47-1.62 0-.77.61-1.22 1.44-1.22a2.39 2.39 0 0 1 1.21.34z" fill="#8cc63f"/><path d="m38.57 35c0 1.37-.52 2.79-1.75 2.79a1.07 1.07 0 0 1 -.87-.41l-.21 1.33c-.08.51-.18.62-1 .62.07-.37.17-.83.22-1.22l.53-3.28a10.94 10.94 0 0 0 .13-1.15c.72 0 .88.08.86.48a1.53 1.53 0 0 1 1.07-.48c.66 0 1.02.41 1.02 1.32zm-.92.06c0-.52-.17-.68-.48-.68a1.44 1.44 0 0 0 -.79.27l-.38 2.24a1.1 1.1 0 0 0 .66.2c.75 0 .99-1.21.99-2.03z" fill="#8cc63f"/><path d="m40.81 32.4a1.35 1.35 0 0 1 0 .32l-.8 5h-.91l.73-4.53a10.82 10.82 0 0 0 .1-1.19c.7 0 .88.09.88.4z" fill="#8cc63f"/><path d="m44.39 33.69h.3c-.06.32-.17.83-.22 1.18l-.27 1.76a10.39 10.39 0 0 0 -.13 1.15c-.69 0-.88-.07-.86-.47a1.51 1.51 0 0 1 -1.06.47c-.68 0-1-.46-1-1.38 0-1.27.51-2.73 1.73-2.73a1 1 0 0 1 .85.4c.04-.31.16-.38.66-.38zm-1.83 3.39a1.27 1.27 0 0 0 .71-.25l.35-2.27a1 1 0 0 0 -.59-.19c-.74 0-1 1.23-1 2 .02.5.16.71.53.71z" fill="#8cc63f"/><path d="m48.68 33.73-.58 3.7c-.22 1.37-.85 1.93-2 1.93a2.56 2.56 0 0 1 -1.16-.25c.13-.55.26-.63.46-.63s.33.15.74.15.93-.25 1.05-1.06v-.31a1.91 1.91 0 0 1 -1.24.53c-.5 0-.76-.28-.76-.84a3.77 3.77 0 0 1 0-.44l.27-1.68a10.73 10.73 0 0 0 .12-1.15c.71 0 .89 0 .89.32a2.32 2.32 0 0 1 0 .24l-.35 2.17v.27c0 .27.11.36.33.36a1.65 1.65 0 0 0 .82-.27l.47-3z" fill="#8cc63f"/><path d="m53.69 34c-.16.48-.28.57-.44.57s-.43-.23-.76-.23-.54.18-.54.45c0 .69 1.47.35 1.47 1.63a1.36 1.36 0 0 1 -1.53 1.35 3 3 0 0 1 -1.34-.36c.16-.48.28-.6.47-.6s.47.24.85.24.64-.2.64-.55c0-.74-1.47-.39-1.47-1.62 0-.77.61-1.22 1.45-1.22a2.38 2.38 0 0 1 1.2.34z" fill="#8cc63f"/><path d="m55.4 36.59a1 1 0 0 0 0 .22c0 .18.08.22.23.22s.37-.11.54-.11.23.12.26.55a2.57 2.57 0 0 1 -1.16.32c-.55 0-.79-.2-.79-.72a1.94 1.94 0 0 1 0-.4l.37-2.3a5.46 5.46 0 0 0 -.62 0c.08-.63.1-.68.7-.68v-.25c.11-.68.24-.77 1.07-.75-.06.33-.12.64-.19 1h1c-.08.64-.12.68-.56.68h-.57z" fill="#8cc63f"/><path d="m60 33.68c-.1.91-.15.94-.57 1a1.41 1.41 0 0 0 -1.05.59l-.38 2.46h-.9l.46-2.9a10.94 10.94 0 0 0 .13-1.15c.69 0 .87 0 .87.39a3.15 3.15 0 0 1 0 .37v.12a1.56 1.56 0 0 1 1.44-.88z" fill="#8cc63f"/><path d="m61.51 34a2.11 2.11 0 0 1 0 .31l-.54 3.38h-.97l.46-2.9a8.61 8.61 0 0 0 .13-1.15c.73.04.92.08.92.36zm.32-1.6a.58.58 0 0 1 -.66.65c-.32 0-.5-.15-.5-.45a1 1 0 0 1 0-.15.56.56 0 0 1 .64-.52.44.44 0 0 1 .52.51z" fill="#8cc63f"/><path d="m65.48 34.52a4.2 4.2 0 0 1 0 .44l-.29 1.76a7.05 7.05 0 0 0 -.1 1.08c-.68 0-.88 0-.88-.43a3.67 3.67 0 0 1 0-.39l.31-1.92a1.89 1.89 0 0 0 0-.3c0-.27-.11-.34-.35-.34a1.69 1.69 0 0 0 -.84.29l-.5 3h-.83l.47-2.9c.05-.39.12-.84.13-1.16.68 0 .87.07.87.43v.12a1.9 1.9 0 0 1 1.26-.54c.49.02.75.28.75.86z" fill="#8cc63f"/><path d="m69.36 33.69h.29c-.06.28-.14.73-.21 1.18l-.44 2.56c-.23 1.37-.86 1.93-2 1.93a2.6 2.6 0 0 1 -1.17-.25c.14-.55.27-.63.47-.63s.33.15.74.15.93-.25 1-1.06v-.23a1.51 1.51 0 0 1 -1 .45c-.69 0-1-.45-1-1.4 0-1.24.5-2.71 1.71-2.71a1.07 1.07 0 0 1 .86.39c.12-.31.24-.38.75-.38zm-1.14 3.14.36-2.27a1.05 1.05 0 0 0 -.58-.19c-.77 0-1 1.23-1 2 0 .53.15.74.52.74a1.15 1.15 0 0 0 .7-.28z" fill="#8cc63f"/><path d="m73 34c-.17.48-.28.57-.44.57s-.43-.23-.76-.23-.54.18-.54.45c0 .69 1.47.35 1.47 1.63a1.36 1.36 0 0 1 -1.53 1.35 3 3 0 0 1 -1.34-.36c.16-.48.28-.6.47-.6s.47.24.85.24.64-.2.64-.55c0-.74-1.47-.39-1.47-1.62 0-.77.61-1.22 1.44-1.22a2.39 2.39 0 0 1 1.21.34z" fill="#8cc63f"/><path d="m75.12 32.69a2.88 2.88 0 0 1 -.59 1.51.63.63 0 0 1 -.56.26h-.21a9.14 9.14 0 0 0 .51-1.14.37.37 0 0 1 -.37-.42.62.62 0 0 1 .7-.68c.4-.01.52.16.52.47z" fill="#8cc63f"/><path d="m77 36.29c0-1.53.64-2.64 2-2.64 1 0 1.41.51 1.41 1.53 0 1.52-.64 2.62-2 2.62-.96 0-1.41-.5-1.41-1.51zm2.45-.91c0-.1 0-.19 0-.27 0-.55-.19-.77-.56-.77-.68 0-.91.83-1 1.76a2.29 2.29 0 0 0 0 .25c0 .56.2.76.57.76.71 0 .94-.8 1-1.73z" fill="#8cc63f"/><path d="m83.84 33.68c-.09.91-.15.94-.56 1a1.41 1.41 0 0 0 -1 .59l-.39 2.45h-.91l.47-2.9c0-.39.12-.84.13-1.15.68 0 .87 0 .87.39a3.15 3.15 0 0 1 0 .37v.12a1.56 1.56 0 0 1 1.39-.87z" fill="#8cc63f"/><path d="m24.17 42a2.94 2.94 0 0 1 .59-1.52.64.64 0 0 1 .56-.26h.21a8.53 8.53 0 0 0 -.53 1.16.37.37 0 0 1 .37.42.62.62 0 0 1 -.7.68c-.33 0-.5-.17-.5-.48z" fill="#8cc63f"/><path d="m29.19 42.52a4.2 4.2 0 0 1 0 .44l-.29 1.76a6.85 6.85 0 0 0 -.09 1.08c-.68 0-.88 0-.88-.43a2.13 2.13 0 0 1 0-.39l.3-1.92a1.89 1.89 0 0 0 0-.3c0-.27-.11-.34-.35-.34a1.69 1.69 0 0 0 -.84.29l-.5 3h-.89l.47-2.9c.06-.39.12-.84.14-1.16.67 0 .86.07.86.43v.12a1.91 1.91 0 0 1 1.27-.54c.54.02.8.28.8.86z" fill="#8cc63f"/><path d="m33.06 41.69h.3c-.06.32-.16.83-.22 1.18l-.27 1.76c-.06.38-.11.83-.13 1.15-.69 0-.88-.07-.86-.47a1.51 1.51 0 0 1 -1.06.47c-.68 0-1-.46-1-1.38 0-1.27.51-2.73 1.73-2.73a1 1 0 0 1 .85.4c.05-.31.16-.38.66-.38zm-1.83 3.39a1.22 1.22 0 0 0 .71-.25l.35-2.27a1 1 0 0 0 -.59-.19c-.74 0-1 1.23-1 2 .02.5.16.71.53.71z" fill="#8cc63f"/><path d="m39.28 42.52a2.47 2.47 0 0 1 0 .44l-.28 1.76a6 6 0 0 0 -.1 1.08c-.68 0-.88 0-.88-.43a3.67 3.67 0 0 1 -.02-.37l.3-1.92a1.24 1.24 0 0 0 0-.3c0-.27-.12-.35-.36-.35a1.42 1.42 0 0 0 -.77.3v.25l-.45 2.77h-.91l.44-2.67c0-.11 0-.2 0-.28 0-.27-.1-.37-.33-.37a1.67 1.67 0 0 0 -.79.3l-.48 3h-.9l.46-2.9a11 11 0 0 0 .14-1.16c.66 0 .85.07.85.44v.13a1.86 1.86 0 0 1 1.22-.56.66.66 0 0 1 .74.59 2 2 0 0 1 1.31-.59c.53 0 .81.26.81.84z" fill="#8cc63f"/><path d="m40.8 44.23v.05c0 .54.17.72.62.72s.55-.19.8-.19.31.14.38.6a2.94 2.94 0 0 1 -1.4.39c-.82 0-1.31-.4-1.31-1.45 0-1.39.78-2.7 2.08-2.7.74 0 1.1.39 1.1 1 0 .67-.67 1.42-2.27 1.58zm.06-.6c1-.15 1.39-.55 1.39-.91a.36.36 0 0 0 -.41-.4c-.51 0-.84.68-.98 1.31z" fill="#8cc63f"/><path d="m48 42c-.17.48-.28.57-.44.57s-.43-.23-.76-.23-.54.18-.54.45c0 .69 1.47.35 1.47 1.63a1.36 1.36 0 0 1 -1.53 1.35 2.91 2.91 0 0 1 -1.34-.36c.16-.48.28-.6.47-.6s.46.24.85.24.64-.2.64-.55c0-.74-1.47-.39-1.47-1.62 0-.77.61-1.22 1.44-1.22a2.39 2.39 0 0 1 1.21.34z" fill="#8cc63f"/><path d="m49.73 44.59a1 1 0 0 0 0 .22c0 .18.07.22.23.22s.37-.11.54-.11.23.12.26.55a2.57 2.57 0 0 1 -1.16.32c-.56 0-.8-.2-.8-.72a2 2 0 0 1 0-.4l.36-2.3a5.4 5.4 0 0 0 -.61 0c.08-.63.1-.68.7-.68v-.25c.11-.68.23-.77 1.07-.75-.06.33-.12.64-.19 1q.66 0 1 0c-.08.64-.11.68-.55.68h-.57z" fill="#8cc63f"/><path d="m54.32 41.68c-.1.91-.15.94-.57 1a1.41 1.41 0 0 0 -1 .59l-.39 2.45h-.9l.46-2.9a10.94 10.94 0 0 0 .08-1.14c.69 0 .87 0 .87.39a3.15 3.15 0 0 1 0 .37v.12a1.56 1.56 0 0 1 1.45-.88z" fill="#8cc63f"/><path d="m55.84 42a2.11 2.11 0 0 1 0 .31l-.54 3.38h-.9l.46-2.9a10.66 10.66 0 0 0 .14-1.11c.65 0 .84.04.84.32zm.32-1.6a.58.58 0 0 1 -.66.65c-.32 0-.5-.15-.5-.45 0 0 0-.09 0-.15a.58.58 0 0 1 .65-.52.44.44 0 0 1 .51.51z" fill="#8cc63f"/><path d="m59.8 42.52a2.55 2.55 0 0 1 0 .44l-.28 1.76a6 6 0 0 0 -.1 1.08c-.68 0-.88 0-.88-.43a3.67 3.67 0 0 1 0-.39l.3-1.92a1.24 1.24 0 0 0 0-.3c0-.27-.12-.34-.35-.34a1.69 1.69 0 0 0 -.84.29l-.5 3h-.9l.48-2.9c0-.39.12-.84.13-1.16.67 0 .87.07.87.43v.12a1.9 1.9 0 0 1 1.27-.52c.55 0 .8.26.8.84z" fill="#8cc63f"/><path d="m63.68 41.69h.32c-.06.28-.14.73-.22 1.18l-.39 2.55c-.23 1.37-.86 1.93-2 1.93a2.6 2.6 0 0 1 -1.17-.25c.14-.55.27-.63.47-.63s.32.15.74.15.93-.25 1-1.06v-.23a1.51 1.51 0 0 1 -1 .45c-.69 0-1-.45-1-1.4 0-1.24.5-2.71 1.71-2.71a1.07 1.07 0 0 1 .86.39c.06-.3.18-.37.68-.37zm-1.13 3.14.36-2.27a1.05 1.05 0 0 0 -.58-.19c-.77 0-1 1.23-1 2 0 .53.15.74.52.74a1.15 1.15 0 0 0 .7-.28z" fill="#8cc63f"/><path d="m67.3 42c-.17.48-.28.57-.44.57s-.43-.23-.76-.23-.54.18-.54.45c0 .69 1.47.35 1.47 1.63a1.36 1.36 0 0 1 -1.53 1.35 2.91 2.91 0 0 1 -1.34-.36c.16-.48.28-.6.47-.6s.46.24.85.24.64-.2.64-.55c0-.74-1.47-.39-1.47-1.62 0-.77.61-1.22 1.44-1.22a2.39 2.39 0 0 1 1.21.34z" fill="#8cc63f"/><path d="m69.45 40.69a2.88 2.88 0 0 1 -.59 1.51.64.64 0 0 1 -.57.26h-.2a9.14 9.14 0 0 0 .51-1.14.37.37 0 0 1 -.37-.42.62.62 0 0 1 .7-.68c.35-.01.52.16.52.47z" fill="#8cc63f"/><path d="m51 48.91v12.34" fill="none" stroke="#8cc63f" stroke-miterlimit="10" stroke-width=".75"/><path d="m49.5 60.82 1.5 2.59 1.5-2.59z" fill="#8cc63f"/><path d="m72.5 42.91h28.85" fill="none" stroke="#8cc63f" stroke-miterlimit="10" stroke-width=".75"/><path d="m100.91 44.4 2.59-1.49-2.59-1.5z" fill="#8cc63f"/></svg>