<svg viewBox="0 0 149.7116 156.4507" xmlns="http://www.w3.org/2000/svg"><path d="m0 0h44.3038v156.4507h-44.3038z" fill="#fbb040"/><path d="m61.8714 74.8051h37.0044v126.287h-37.0044z" fill="#fbb040" transform="matrix(0 -1 1 0 -57.5749 218.3222)"/><path d="m64.7769 14.8909h-.5469l-1.457-3.5937h.6328l1.1172 2.9728 1.0742-2.9726h.6172z" fill="#231f20"/><path d="m69.4566 14.7151a2.7122 2.7122 0 0 1 -1.1836.2735c-1.0586 0-1.6367-.6836-1.6367-1.91 0-1.18.57-1.8594 1.5742-1.8594.8477 0 1.3242.5586 1.3242 1.5274a2.4815 2.4815 0 0 1 -.0351.3672h-2.3281c.0156.914.3867 1.4257 1.1445 1.4257a2.5432 2.5432 0 0 0 1.0156-.2382zm-.4219-2.0151c-.0078-.6719-.3125-1.0313-.8359-1.0313-.5664 0-.9219.3555-1.0078 1.0313z" fill="#231f20"/><path d="m72.734 11.8167c-.6133-.1367-1.0625.2617-1.4844.9336v2.1445h-.5664v-3.5937h.5625v.7929c.3984-.5742.8867-1.0039 1.5586-.8125l-.07.5274z" fill="#231f20"/><path d="m75.6129 14.86a2.3972 2.3972 0 0 1 -.7461.121c-.75 0-1.0742-.3906-1.0742-1.1562v-2.0941h-.5508v-.43h.5508v-1.1832l.5664-.1407v1.3282h1.0351v.43h-1.0351v2.0664c0 .4492.164.707.5937.707a1.9187 1.9187 0 0 0 .5625-.0977l.0938.4493z" fill="#231f20"/><path d="m76.273 10.1409a.389.389 0 0 1 .7774 0 .3888.3888 0 0 1 -.7774 0zm.668 1.1563v3.5937h-.5664v-3.5937z" fill="#231f20"/><path d="m80.6871 14.7581a2.652 2.652 0 0 1 -1.0078.1992c-1.0547 0-1.5977-.68-1.5977-1.84 0-1.2071.59-1.8828 1.6485-1.8828a2.57 2.57 0 0 1 .9375.1757l-.1094.4375a2.1251 2.1251 0 0 0 -.7891-.16c-.73 0-1.1055.4844-1.1055 1.3867 0 .918.3829 1.4258 1.07 1.4258a2.6236 2.6236 0 0 0 .8515-.16l.1055.418z" fill="#231f20"/><path d="m83.4254 14.887c-.0274-.125-.0508-.2422-.0782-.41a1.9445 1.9445 0 0 1 -1.1679.4961.9208.9208 0 0 1 -.98-.9882c0-.879.75-1.1993 2.1016-1.2149v-.383l-.0039-.0039a.6169.6169 0 0 0 -.6993-.707 2.9552 2.9552 0 0 0 -1.0507.2382l-.125-.4179a3.5073 3.5073 0 0 1 1.2461-.2657c.7929 0 1.1953.379 1.1953 1.1407v1.48a9.7467 9.7467 0 0 0 .0625 1.0352zm-.1254-1.7031c-.9883.0039-1.52.1836-1.52.7383a.536.536 0 0 0 .5352.5937 1.6632 1.6632 0 0 0 .9844-.4883zm.0468 0h-.0078v.0039z" fill="#231f20"/><path d="m85.8707 9.4768v5.4141h-.5664v-5.4141z" fill="#231f20"/><path d="m91.1871 11.8245a2.35 2.35 0 0 0 -.8047-.1719c-.43 0-.7109.1563-.7109.4883 0 .82 1.7968.5977 1.7968 1.8438 0 .7226-.6015.98-1.3086.98a3.137 3.137 0 0 1 -1.164-.2265l.1484-.4414a2.935 2.935 0 0 0 1.0235.2343c.4375 0 .7421-.1562.7421-.5234 0-.8711-1.7968-.6524-1.7968-1.84 0-.664.5664-.9453 1.2656-.9453a2.8571 2.8571 0 0 1 .9453.1641z" fill="#231f20"/><path d="m94.359 14.86a2.3972 2.3972 0 0 1 -.7461.121c-.75 0-1.0743-.3906-1.0743-1.1562v-2.0941h-.5507v-.43h.5507v-1.1832l.5665-.1407v1.3282h1.0349v.43h-1.0349v2.0664c0 .4492.164.707.5937.707a1.9187 1.9187 0 0 0 .5625-.0977l.0938.4493z" fill="#231f20"/><path d="m97.57 14.7151a2.7125 2.7125 0 0 1 -1.1836.2735c-1.0586 0-1.6367-.6836-1.6367-1.91 0-1.18.57-1.8594 1.5742-1.8594.8477 0 1.3242.5586 1.3242 1.5274a2.4815 2.4815 0 0 1 -.0351.3672h-2.3283c.0157.914.3868 1.4257 1.1446 1.4257a2.5432 2.5432 0 0 0 1.0156-.2382zm-.422-2.0151c-.0078-.6719-.3125-1.0313-.8359-1.0313-.5664 0-.9219.3555-1.0078 1.0313z" fill="#231f20"/><path d="m99.3394 11.7737a2.2142 2.2142 0 0 1 1.336-.543.88.88 0 0 1 .9336.59 2.2744 2.2744 0 0 1 1.4062-.5859c.6094 0 1.0156.3007 1.0156 1.2031v2.4491h-.57v-2.3789c0-.5078-.1758-.7774-.6367-.7774a1.8634 1.8634 0 0 0 -1.1289.5391c.0039.0547.0039.1094.0039.168v2.4531h-.57v-2.3789c0-.5078-.1836-.7813-.6445-.7813a1.9247 1.9247 0 0 0 -1.1172.5313v2.625h-.5674v-3.5938h.5351z" fill="#231f20"/><g fill="#ef4136"><path d="m64.7637 22.6941a1.3318 1.3318 0 0 0 -.5195.7754c-.0161.168.0957.2158.0957.4077a.33.33 0 0 1 -.3515.336c-.272 0-.3838-.2159-.3838-.4717a2.0084 2.0084 0 0 1 .8794-1.3833z"/><path d="m65.7159 24.493a3.4224 3.4224 0 0 1 -.0879 1.0317l-.376 1.5591c-.0957.4155.0562.6074.3277.6074.6635 0 1.5434-1.1431 1.5434-2.2227a2.6873 2.6873 0 0 0 -.144-.9116l.5678-.1279a3.5846 3.5846 0 0 1 .1519 1.0234c0 1.3994-1.0957 2.7266-2.207 2.7266-.48 0-.9834-.2876-.7915-1.1353l.3759-1.6469a4.4479 4.4479 0 0 0 .104-.9038z"/><path d="m70.6192 27.7952a2.16 2.16 0 0 1 -1.1831.3838c-.7036 0-1.1035-.3677-1.1035-1.1992a2.4241 2.4241 0 0 1 1.9512-2.5664c.6 0 .8794.3354.8794.7431 0 .7119-.7676 1.1514-2.295 1.5835l-.0078.1836c0 .5757.208.8.68.8a1.7053 1.7053 0 0 0 .9194-.3359zm-1.6787-1.5112c1.1431-.3438 1.7031-.6158 1.7031-1.0635 0-.24-.1762-.3516-.416-.3516-.5039 0-1.0713.6158-1.2871 1.4151z"/><path d="m72.7081 25.5725c.4477-.8.8076-1.1513 1.3511-1.1513a1.2192 1.2192 0 0 1 .3281.0478l-.0723.56a1.3619 1.3619 0 0 0 -.272-.0317c-.7114 0-1.3828 1.0551-1.6948 2.2788l-.168.8154h-.5595l.5517-2.63a3.8553 3.8553 0 0 0 .0957-.9677h.4956a3.3746 3.3746 0 0 1 -.0478 1.0317z"/><path d="m75.38 26.804a2.6907 2.6907 0 0 0 -.0962.5674.3087.3087 0 0 0 .352.3359 1.3218 1.3218 0 0 0 .7031-.312l.168.4a1.7746 1.7746 0 0 1 -1.0474.3838c-.4633 0-.7592-.2236-.7592-.7036a2.777 2.777 0 0 1 .12-.6714l.4639-1.8711h-.5442l.0957-.44h.56l.2959-1.1832.6079-.0961-.3281 1.2793h.8794l-.0879.44h-.9034z"/><path d="m78.2677 24.493c0 .0561.0078.144.0078.2641a3.89 3.89 0 0 1 -.128.9595l-.5434 2.3745h-.56l.5674-2.4785a4.4464 4.4464 0 0 0 .1279-1.12zm-.0562-.7754a.3745.3745 0 0 1 -.3916-.376.3919.3919 0 0 1 .7837 0 .3747.3747 0 0 1 -.3921.376z"/><path d="m81.147 27.74a1.727 1.727 0 0 1 -1.0791.4317c-.5839 0-1.0556-.3282-1.0556-1.2154 0-1.0634.6719-2.5424 1.8393-2.5424a1.2334 1.2334 0 0 1 .8711.3354l-.2314.3838a.9228.9228 0 0 0 -.6157-.2476c-.8477 0-1.3033 1.295-1.3033 2.0469 0 .5117.2237.7593.5835.7593a1.36 1.36 0 0 0 .7915-.3438z"/><path d="m83.8272 28.0911a3.6943 3.6943 0 0 1 .0156-.7754 1.7928 1.7928 0 0 1 -1.311.8633c-.56 0-.8237-.4-.8237-.9834 0-1.2632.9433-2.7822 2.1191-2.7822a1.5807 1.5807 0 0 1 1.127.4394l-.5117 2.0947a5.52 5.52 0 0 0 -.1119 1.1436zm.1758-1.7832a8.9587 8.9587 0 0 0 .36-1.271.8329.8329 0 0 0 -.544-.168c-.7514 0-1.5591 1.1675-1.5591 2.231 0 .2637.08.5752.4078.5752.4159 0 1.0155-.5835 1.3353-1.3672z"/><path d="m87.1793 22.6619a2.8234 2.8234 0 0 1 -.064 1l-.5517 2.4546a7.28 7.28 0 0 0 -.24 1.3594 2.2936 2.2936 0 0 0 .08.5757l-.48.1357a1.7755 1.7755 0 0 1 -.1519-.7275 5.86 5.86 0 0 1 .2245-1.3598l.5835-2.503a2.933 2.933 0 0 0 .0879-.9033z"/><path d="m91.4747 25.0926a1.8664 1.8664 0 0 0 -.7993-.232c-.376 0-.5039.2163-.5039.44 0 .6635 1.1113.9673 1.1113 1.9028 0 .4878-.3438.9438-1.1431.9438a2.2149 2.2149 0 0 1 -1.1274-.3281l.1679-.4238a2.0529 2.0529 0 0 0 .9751.312c.376 0 .584-.208.584-.5039 0-.68-1.12-1.0073-1.12-1.9028 0-.4639.312-.8716 1.04-.8716a2.12 2.12 0 0 1 .9755.248z"/><path d="m92.9073 26.804a2.7493 2.7493 0 0 0 -.0957.5674.3086.3086 0 0 0 .3516.3359 1.3242 1.3242 0 0 0 .7041-.312l.1674.4a1.7744 1.7744 0 0 1 -1.0473.3838c-.4639 0-.7593-.2236-.7593-.7036a2.7571 2.7571 0 0 1 .12-.6714l.4639-1.8711h-.5439l.0961-.44h.56l.2959-1.1832.6079-.0961-.3281 1.2793h.88l-.0884.44h-.9033z"/><path d="m96.8106 27.7952a2.16 2.16 0 0 1 -1.1831.3838c-.7036 0-1.1035-.3677-1.1035-1.1992a2.4241 2.4241 0 0 1 1.9512-2.5664c.6 0 .8794.3354.8794.7431 0 .7119-.7676 1.1514-2.295 1.5835l-.0078.1836c0 .5757.208.8.68.8a1.7059 1.7059 0 0 0 .9195-.3359zm-1.6787-1.5112c1.1431-.3438 1.7031-.6158 1.7031-1.0635 0-.24-.1762-.3516-.416-.3516-.5039 0-1.0713.6158-1.2871 1.4151z"/><path d="m98.9552 24.493a3.5192 3.5192 0 0 1 -.0079.7758 1.6871 1.6871 0 0 1 1.2793-.8554c.52 0 .712.3994.7276.8711a1.7412 1.7412 0 0 1 1.3354-.8711.7521.7521 0 0 1 .7915.8554c0 .8233-.6074 1.8628-.5595 2.8223h-.544c-.0557-1.0234.52-1.9668.52-2.6865 0-.28-.12-.4956-.3681-.4956-.4878 0-1.1592.68-1.3911 1.7031l-.32 1.479h-.5594l.4555-2.0708a2.88 2.88 0 0 0 .0879-.6235c0-.2642-.0718-.4878-.3354-.4878-.4722 0-1.1514.6635-1.3833 1.7109l-.336 1.4712h-.5595l.5835-2.63a3.928 3.928 0 0 0 .0878-.9677z"/><path d="m106.9552 25.2205a1.6574 1.6574 0 0 1 1.3115-.7993c.5835 0 .8.376.8 1.0156a6.914 6.914 0 0 1 -.792 2.7822l-.4956-.2a6.75 6.75 0 0 0 .7275-2.5107c0-.3677-.104-.5918-.4155-.5918-.48 0-1.12.5595-1.4155 1.6069l-.3355 1.5674h-.56l.9594-4.4536a3.0737 3.0737 0 0 0 .0879-.9434l.52-.0322a2.7787 2.7787 0 0 1 -.0639 1.0474z"/><path d="m111.0352 24.493c0 .0561.0078.144.0078.2641a3.8887 3.8887 0 0 1 -.1279.9595l-.5434 2.3745h-.56l.5674-2.4785a4.4464 4.4464 0 0 0 .1279-1.12zm-.0561-.7754a.3745.3745 0 0 1 -.3916-.376.3919.3919 0 0 1 .7837 0 .3747.3747 0 0 1 -.3921.376z"/><path d="m112.9786 24.493a3.7954 3.7954 0 0 1 -.0078.7436 1.6662 1.6662 0 0 1 1.3354-.8154c.9356 0 .8633.9033.6953 1.6792l-.4394 1.9907h-.56l.44-2.0469c.12-.5439.1919-1.1274-.3037-1.1274-.5118 0-1.1675.6079-1.4395 1.7031l-.3276 1.4712h-.56l.5835-2.63a4.34 4.34 0 0 0 .0879-.9677z"/><path d="m116.8194 26.804a2.6974 2.6974 0 0 0 -.0962.5674.3087.3087 0 0 0 .3521.3359 1.3218 1.3218 0 0 0 .7031-.312l.168.4a1.7749 1.7749 0 0 1 -1.0474.3838c-.4634 0-.7593-.2236-.7593-.7036a2.7782 2.7782 0 0 1 .12-.6714l.4638-1.8711h-.5435l.0957-.44h.5595l.2959-1.1832.6079-.0961-.3281 1.2793h.8794l-.0879.44h-.9033z"/><path d="m118.9 24.0691a1.3293 1.3293 0 0 0 .5195-.7754c.0161-.1679-.0957-.2158-.0957-.4077a.3306.3306 0 0 1 .3516-.3359c.272 0 .3838.2158.3838.4717a2.0087 2.0087 0 0 1 -.8794 1.3833z"/><path d="m64.7637 32.2937a1.3318 1.3318 0 0 0 -.5195.7754c-.0161.168.0957.2158.0957.4077a.33.33 0 0 1 -.3515.336c-.272 0-.3838-.2158-.3838-.4717a2.0084 2.0084 0 0 1 .8794-1.3833z"/><path d="m65.8917 34.82a1.6574 1.6574 0 0 1 1.3115-.7993c.5835 0 .8.376.8 1.0156a6.914 6.914 0 0 1 -.792 2.7822l-.4956-.2a6.75 6.75 0 0 0 .7275-2.5107c0-.3677-.104-.5918-.4155-.5918-.48 0-1.12.56-1.4155 1.6069l-.3355 1.5674h-.56l.96-4.4536a3.0731 3.0731 0 0 0 .0878-.9434l.52-.0322a2.7809 2.7809 0 0 1 -.064 1.0474z"/><path d="m71.8106 35.9158c-.2475 1.1592-.9033 1.8628-1.855 1.8628s-1.3911-.7036-1.1191-1.9507c.2476-1.1357.9116-1.8149 1.855-1.8149.9834 0 1.375.7275 1.1191 1.9028zm-2.3984-.0322c-.208.9516.0239 1.4311.6 1.4311.6 0 1.0312-.5273 1.2231-1.4389.2-.9038-.0161-1.4073-.6-1.4073-.5918 0-1.0234.5115-1.2231 1.4151z"/><path d="m73.6519 35.1722c.4478-.8.8076-1.1514 1.3511-1.1514a1.2192 1.2192 0 0 1 .3281.0478l-.0722.56a1.362 1.362 0 0 0 -.2715-.0317c-.7119 0-1.3833 1.0551-1.6953 2.2788l-.168.8154h-.56l.5518-2.63a3.8553 3.8553 0 0 0 .0957-.9677h.4961a3.3932 3.3932 0 0 1 -.0484 1.0317z"/><path d="m76.5479 34.0926c0 .0561.0078.144.0078.2641a3.8887 3.8887 0 0 1 -.1279.96l-.5434 2.3745h-.56l.5674-2.4785a4.4464 4.4464 0 0 0 .1279-1.12zm-.0561-.7754a.3745.3745 0 0 1 -.3916-.376.3919.3919 0 0 1 .7837 0 .3747.3747 0 0 1 -.3921.376z"/><path d="m77.5719 37.179c.8476.0957 1.2553.6318 2.2387.4556v.4638c-1.3193.2158-1.5591-.4878-2.9262-.5278l-.0562-.3355 2.519-2.6948h-1.8149l.08-.4477h2.4067l.04.4z"/><path d="m83.2506 35.9158c-.2476 1.1592-.9034 1.8628-1.855 1.8628s-1.3911-.7036-1.1192-1.9507c.2476-1.1357.9112-1.8149 1.855-1.8149.9834 0 1.375.7275 1.1192 1.9028zm-2.3985-.0322c-.208.9516.024 1.4311.6 1.4311.6 0 1.0313-.5273 1.2232-1.4389.2-.9038-.0156-1.4073-.6-1.4073-.5918 0-1.0235.5115-1.2232 1.4151z"/><path d="m85.1475 34.0926a3.7954 3.7954 0 0 1 -.0078.7436 1.6664 1.6664 0 0 1 1.3355-.8154c.9355 0 .8633.9033.6953 1.6792l-.44 1.9907h-.56l.44-2.0469c.12-.5439.1919-1.1274-.3037-1.1274-.5117 0-1.1675.6079-1.4395 1.7031l-.3273 1.4712h-.56l.5835-2.63a4.34 4.34 0 0 0 .0879-.9677z"/><path d="m88.9874 36.4036a2.75 2.75 0 0 0 -.0957.5674.3085.3085 0 0 0 .3515.3359 1.3242 1.3242 0 0 0 .7041-.312l.1675.4a1.7746 1.7746 0 0 1 -1.0473.3838c-.4639 0-.7593-.2236-.7593-.7036a2.7522 2.7522 0 0 1 .12-.6714l.4639-1.8711h-.544l.0962-.44h.56l.2959-1.1831.6079-.0962-.3281 1.2793h.88l-.0884.44h-.9033z"/><path d="m92.7393 37.6907a3.6886 3.6886 0 0 1 .0157-.7754 1.7932 1.7932 0 0 1 -1.3111.8633c-.56 0-.8237-.4-.8237-.9834 0-1.2632.9434-2.7822 2.1191-2.7822a1.5807 1.5807 0 0 1 1.127.4394l-.5117 2.0948a5.5186 5.5186 0 0 0 -.1119 1.1435zm.1758-1.7832a8.9587 8.9587 0 0 0 .36-1.271.8327.8327 0 0 0 -.544-.168c-.7514 0-1.5591 1.1675-1.5591 2.231 0 .2637.08.5752.4078.5752.4159 0 1.0155-.5835 1.3353-1.3672z"/><path d="m96.0909 32.2615a2.8234 2.8234 0 0 1 -.064 1l-.5517 2.4546a7.28 7.28 0 0 0 -.24 1.3594 2.2976 2.2976 0 0 0 .08.5757l-.48.1357a1.7753 1.7753 0 0 1 -.1518-.7275 5.8643 5.8643 0 0 1 .2244-1.3594l.5835-2.5029a2.9306 2.9306 0 0 0 .0879-.9034z"/><path d="m97.9552 32.2615a2.8234 2.8234 0 0 1 -.064 1l-.5518 2.4546a7.286 7.286 0 0 0 -.24 1.3594 2.293 2.293 0 0 0 .08.5757l-.48.1357a1.7755 1.7755 0 0 1 -.1519-.7275 5.8643 5.8643 0 0 1 .2245-1.3594l.5835-2.5029a2.9306 2.9306 0 0 0 .0879-.9034z"/><path d="m101.2584 34.0926a9.9438 9.9438 0 0 1 -3.4384 5.1411l-.2954-.4478a7.5174 7.5174 0 0 0 1.5029-1.4072l-.6235-3.2861h.616l.3838 2.7744a8.796 8.796 0 0 0 1.2871-2.7744z"/><path d="m105.4986 34.6922a1.8656 1.8656 0 0 0 -.7993-.232c-.376 0-.5039.2163-.5039.44 0 .6636 1.1113.9673 1.1113 1.9028 0 .4878-.3437.9439-1.1431.9439a2.2153 2.2153 0 0 1 -1.1274-.3282l.168-.4238a2.0522 2.0522 0 0 0 .9751.312c.3759 0 .584-.208.584-.5039 0-.68-1.12-1.0073-1.12-1.9028 0-.4639.312-.8716 1.04-.8716a2.1206 2.1206 0 0 1 .9756.248z"/><path d="m107.2511 34.0926a3.7873 3.7873 0 0 1 -.0079.7436 1.6665 1.6665 0 0 1 1.3355-.8154c.9355 0 .8633.9033.6953 1.6792l-.4395 1.9907h-.56l.44-2.0469c.12-.5439.1919-1.1274-.3037-1.1274-.5117 0-1.1675.6079-1.4394 1.7031l-.3277 1.4712h-.5595l.5835-2.63a4.3467 4.3467 0 0 0 .0878-.9677z"/><path d="m112.3067 37.6907a3.6943 3.6943 0 0 1 .0156-.7754 1.793 1.793 0 0 1 -1.311.8633c-.56 0-.8237-.4-.8237-.9834 0-1.2632.9433-2.7822 2.1191-2.7822a1.5807 1.5807 0 0 1 1.127.4394l-.5118 2.0948a5.5248 5.5248 0 0 0 -.1118 1.1435zm.1758-1.7832a8.9587 8.9587 0 0 0 .36-1.271.8329.8329 0 0 0 -.544-.168c-.7515 0-1.5591 1.1675-1.5591 2.231 0 .2637.08.5752.4077.5752.416 0 1.0156-.5835 1.3354-1.3672z"/><path d="m115.2833 34.0926a3.4551 3.4551 0 0 1 -.0244.8715 1.9029 1.9029 0 0 1 1.4316-.9511c.5752 0 1.0713.4155.7832 1.7265-.2876 1.2954-1.1113 2.0391-2.0786 2.0391a1.7312 1.7312 0 0 1 -.7036-.1519l-.416 1.9029h-.56l.9834-4.4693a3.8988 3.8988 0 0 0 .0879-.9677zm-.4639 3.0063a.9236.9236 0 0 0 .6157.208c.6475 0 1.2471-.6235 1.4712-1.6391.2-.9517-.08-1.1592-.3838-1.1592-.5117 0-1.2553.7275-1.4555 1.583z"/><path d="m119.3223 34.0926a3.4239 3.4239 0 0 1 -.0239.8715 1.9029 1.9029 0 0 1 1.4312-.9511c.5761 0 1.0717.4155.7837 1.7265-.2876 1.2954-1.1114 2.0391-2.0787 2.0391a1.7319 1.7319 0 0 1 -.7036-.1519l-.416 1.9029h-.56l.9834-4.4693a3.9228 3.9228 0 0 0 .0879-.9677zm-.4633 3.0063a.9233.9233 0 0 0 .6157.208c.6474 0 1.2471-.6235 1.4712-1.6391.2-.9517-.08-1.1592-.3838-1.1592-.5117 0-1.2554.7275-1.4556 1.583z"/><path d="m123.3946 34.0926c0 .0561.0078.144.0078.2641a3.8887 3.8887 0 0 1 -.1279.96l-.5435 2.3745h-.5595l.5673-2.4785a4.4465 4.4465 0 0 0 .128-1.12zm-.0561-.7754a.3745.3745 0 0 1 -.3916-.376.3918.3918 0 0 1 .7836 0 .3746.3746 0 0 1 -.392.376z"/><path d="m125.3389 34.0926a3.8172 3.8172 0 0 1 -.0083.7436 1.6665 1.6665 0 0 1 1.3355-.8154c.9355 0 .8633.9033.6953 1.6792l-.44 1.9907h-.5595l.4394-2.0469c.12-.5439.1919-1.1274-.3037-1.1274-.5117 0-1.1675.6079-1.4394 1.7031l-.3277 1.4712h-.5595l.5835-2.63a4.3467 4.3467 0 0 0 .0878-.9677z"/><path d="m131.7691 33.8367a2.0765 2.0765 0 0 0 -.9194.5439.8346.8346 0 0 1 .1118.4395 2.1727 2.1727 0 0 1 -1.5515 1.9189c-.12.128-.2075.2164-.2075.36.0078.3521 1.271.7915 1.271 1.5352 0 .7119-.9434.8715-1.623.8715-.9034 0-1.543-.2-1.543-.8154 0-.6079.7436-.9277 1.5029-1.1435a.5218.5218 0 0 1 -.1679-.36.6707.6707 0 0 1 .288-.4717.7464.7464 0 0 1 -.48-.7915 1.9461 1.9461 0 0 1 1.6074-1.9106 1.1311 1.1311 0 0 1 .4717.0957 2.1859 2.1859 0 0 1 1.0551-.8zm-2.6147 3.9819c-.6075.1519-1.3033.44-1.3033.8394 0 .352.52.44.9834.44.44 0 1.0474-.1118 1.0474-.4638s-.3838-.5836-.7275-.8156zm-.2-1.9111c.0078.2559.1357.416.3676.416.4639 0 1.1114-.8716 1.12-1.4634a.3692.3692 0 0 0 -.4077-.4155c-.5279 0-1.0874.9033-1.0796 1.4629z"/><path d="m134.5469 34.82a1.6562 1.6562 0 0 1 1.3111-.7993c.5835 0 .7993.376.7993 1.0156a6.912 6.912 0 0 1 -.7915 2.7822l-.4956-.2a6.75 6.75 0 0 0 .7275-2.5107c0-.3677-.104-.5918-.4155-.5918-.48 0-1.12.56-1.4155 1.6069l-.3355 1.5674h-.56l.9594-4.4536a3.0749 3.0749 0 0 0 .0884-.9434l.52-.0322a2.7809 2.7809 0 0 1 -.064 1.0474z"/><path d="m138.6265 34.0926c0 .0561.0079.144.0079.2641a3.89 3.89 0 0 1 -.128.96l-.5434 2.3745h-.56l.5674-2.4785a4.4464 4.4464 0 0 0 .1279-1.12zm-.0561-.7754a.3745.3745 0 0 1 -.3916-.376.3919.3919 0 0 1 .7837 0 .3747.3747 0 0 1 -.3925.376z"/><path d="m140.57 34.0926a3.7954 3.7954 0 0 1 -.0078.7436 1.6662 1.6662 0 0 1 1.3354-.8154c.9356 0 .8633.9033.6953 1.6792l-.4394 1.9907h-.56l.44-2.0469c.12-.5439.1919-1.1274-.3037-1.1274-.5118 0-1.1675.6079-1.4395 1.7031l-.3276 1.4712h-.56l.5835-2.63a4.34 4.34 0 0 0 .0879-.9677z"/><path d="m144.41 36.4036a2.7574 2.7574 0 0 0 -.0957.5674.3086.3086 0 0 0 .3516.3359 1.3242 1.3242 0 0 0 .7041-.312l.1675.4a1.7749 1.7749 0 0 1 -1.0474.3838c-.4639 0-.7593-.2236-.7593-.7036a2.7534 2.7534 0 0 1 .12-.6714l.4638-1.8711h-.5439l.0962-.44h.5595l.2959-1.1831.608-.0962-.3282 1.2793h.88l-.0884.44h-.9037z"/><path d="m146.4908 33.6687a1.3328 1.3328 0 0 0 .52-.7754c.0156-.1679-.0962-.2158-.0962-.4077a.3307.3307 0 0 1 .3521-.3359c.2715 0 .3838.2158.3838.4717a2.01 2.01 0 0 1 -.88 1.3833z"/></g><path d="m74.7725 69.41a2.2216 2.2216 0 0 1 1.32-.5157c.6875 0 1.0508.3907 1.0508 1.1914v2.4683h-.5664v-2.41c0-.4883-.207-.7461-.6523-.7461a2.0158 2.0158 0 0 0 -1.1524.5235v2.6406h-.5622v-.0039h-.0039v-5.4143h.5664z" fill="#231f20"/><path d="m81.546 70.722c0 1.2031-.6055 1.914-1.6328 1.914-1.0235 0-1.6289-.6992-1.6289-1.8828 0-1.18.6171-1.875 1.664-1.875 1.0039 0 1.5977.6836 1.5977 1.8438zm-.5821.0312c0-.8984-.3828-1.418-1.0429-1.418-.668 0-1.0547.5118-1.0547 1.3985 0 .9218.3945 1.4531 1.0742 1.4531.6484 0 1.0234-.5234 1.0234-1.4336z" fill="#231f20"/><path d="m84.7647 69.4837c-.6133-.1367-1.0625.2617-1.4844.9336v2.1445h-.5664v-3.5938h.5625v.793c.3985-.5742.8868-1.0039 1.5586-.8125l-.07.5274z" fill="#231f20"/><path d="m85.5616 67.8079a.3889.3889 0 0 1 .7773 0 .3888.3888 0 0 1 -.7773 0zm.668 1.1562v3.5938h-.5664v-3.5938z" fill="#231f20"/><path d="m89.2725 69.4134h-1.9609v-.4454h2.6523l.0391.3594-2.0781 2.7852h2.1445v.4453h-2.8476l-.0274-.3516z" fill="#231f20"/><path d="m93.9014 70.722c0 1.2031-.6054 1.914-1.6328 1.914-1.0234 0-1.6289-.6992-1.6289-1.8828 0-1.18.6172-1.875 1.6641-1.875 1.0039 0 1.5976.6836 1.5976 1.8438zm-.582.0312c0-.8984-.3828-1.418-1.043-1.418-.6679 0-1.0546.5118-1.0546 1.3985 0 .9218.3945 1.4531 1.0742 1.4531.6484 0 1.0234-.5234 1.0234-1.4336z" fill="#231f20"/><path d="m95.6124 69.4251a2.2267 2.2267 0 0 1 1.3437-.5313c.6875 0 1.0508.3907 1.0508 1.1914v2.4688h-.5664v-2.41c0-.4883-.207-.7461-.6523-.7461a2.0144 2.0144 0 0 0 -1.1563.5235v2.6406h-.5625v-3.594h.543z" fill="#231f20"/><path d="m101.3272 72.5266a2.3964 2.3964 0 0 1 -.7461.1211c-.75 0-1.0742-.3906-1.0742-1.1562v-2.0938h-.5508v-.43h.5508v-1.1832l.5664-.1407v1.3282h1.0352v.43h-1.0352v2.066c0 .4493.1641.7071.5938.7071a1.92 1.92 0 0 0 .5625-.0977l.0937.4492z" fill="#231f20"/><path d="m103.9757 72.554c-.0274-.125-.0508-.2422-.0782-.41a1.9445 1.9445 0 0 1 -1.1679.4961.9208.9208 0 0 1 -.9805-.9883c0-.8789.75-1.1992 2.1016-1.2148v-.383l-.0039-.0039a.617.617 0 0 0 -.6993-.7071 2.9555 2.9555 0 0 0 -1.0507.2383l-.125-.4179a3.5073 3.5073 0 0 1 1.246-.2657c.793 0 1.1954.3789 1.1954 1.1407v1.48a9.7467 9.7467 0 0 0 .0625 1.0352zm-.125-1.7031c-.9883.0039-1.52.1836-1.52.7382a.536.536 0 0 0 .5352.5938 1.6632 1.6632 0 0 0 .9844-.4883zm.0468 0h-.0075v.0039z" fill="#231f20"/><path d="m106.421 67.1438v5.4141h-.5664v-5.4141z" fill="#231f20"/><path d="m111.7374 69.4915a2.35 2.35 0 0 0 -.8047-.1719c-.43 0-.7109.1563-.7109.4883 0 .82 1.7968.5976 1.7968 1.8437 0 .7227-.6015.98-1.3086.98a3.135 3.135 0 0 1 -1.164-.2266l.1484-.4414a2.9351 2.9351 0 0 0 1.0234.2344c.4375 0 .7422-.1562.7422-.5234 0-.8711-1.7968-.6524-1.7968-1.84 0-.664.5664-.9453 1.2656-.9453a2.8571 2.8571 0 0 1 .9453.1641z" fill="#231f20"/><path d="m114.9093 72.5266a2.3969 2.3969 0 0 1 -.7461.1211c-.75 0-1.0743-.3906-1.0743-1.1562v-2.0938h-.5507v-.43h.5507v-1.1832l.5664-.1407v1.3282h1.0352v.43h-1.0352v2.066c0 .4493.1641.7071.5938.7071a1.9187 1.9187 0 0 0 .5625-.0977l.0937.4492z" fill="#231f20"/><path d="m118.12 72.3821a2.7126 2.7126 0 0 1 -1.1836.2734c-1.0586 0-1.6367-.6835-1.6367-1.91 0-1.18.57-1.8594 1.5742-1.8594.8477 0 1.3242.5586 1.3242 1.5274a2.479 2.479 0 0 1 -.0351.3671h-2.328c.0157.9141.3868 1.4258 1.1446 1.4258a2.5415 2.5415 0 0 0 1.0156-.2383zm-.4219-2.0156c-.0078-.6719-.3125-1.0313-.8359-1.0313-.5664 0-.9219.3555-1.0078 1.0313z" fill="#231f20"/><path d="m119.89 69.4407a2.2142 2.2142 0 0 1 1.336-.543.88.88 0 0 1 .9336.59 2.2744 2.2744 0 0 1 1.4062-.586c.6094 0 1.0156.3008 1.0156 1.2032v2.4491h-.57v-2.3789c0-.5078-.1758-.7774-.6367-.7774a1.8634 1.8634 0 0 0 -1.1289.5391c.0039.0547.0039.1094.0039.168v2.4531h-.57v-2.3789c0-.5078-.1836-.7813-.6445-.7813a1.9247 1.9247 0 0 0 -1.1172.5313v2.625h-.5664v-3.594h.5351z" fill="#231f20"/><g fill="#ef4136"><path d="m51.7681 80.3611a1.3315 1.3315 0 0 0 -.5195.7754c-.0161.168.0957.2158.0957.4077a.33.33 0 0 1 -.3516.336c-.2719 0-.3837-.2159-.3837-.4717a2.0084 2.0084 0 0 1 .8794-1.3833z"/><path d="m52.72 82.16a3.4228 3.4228 0 0 1 -.0879 1.0318l-.376 1.5591c-.0957.4155.0562.6074.3277.6074.6635 0 1.5434-1.1431 1.5434-2.2227a2.6869 2.6869 0 0 0 -.144-.9116l.5678-.1279a3.5846 3.5846 0 0 1 .1519 1.0234c0 1.3994-1.0957 2.7266-2.207 2.7266-.48 0-.9834-.2876-.7915-1.1353l.3759-1.6469a4.448 4.448 0 0 0 .104-.9039z"/><path d="m57.6236 85.4622a2.16 2.16 0 0 1 -1.1831.3838c-.7036 0-1.1035-.3677-1.1035-1.1992a2.4241 2.4241 0 0 1 1.9512-2.5668c.6 0 .8794.3354.8794.7431 0 .7119-.7676 1.1514-2.295 1.5835l-.0078.1836c0 .5757.208.8.68.8a1.7053 1.7053 0 0 0 .9194-.3359zm-1.6787-1.5112c1.1431-.3438 1.7031-.6158 1.7031-1.0635 0-.24-.1762-.3516-.416-.3516-.5039 0-1.0713.6157-1.2871 1.4151z"/><path d="m59.7125 83.24c.4477-.8.8076-1.1513 1.3511-1.1513a1.2192 1.2192 0 0 1 .3281.0478l-.0723.56a1.3623 1.3623 0 0 0 -.272-.0318c-.7114 0-1.3828 1.0552-1.6948 2.2789l-.168.8154h-.5595l.5517-2.63a3.8557 3.8557 0 0 0 .0957-.9678h.4956a3.3751 3.3751 0 0 1 -.0478 1.0318z"/><path d="m62.3844 84.471a2.69 2.69 0 0 0 -.0962.5674.3087.3087 0 0 0 .352.3359 1.3218 1.3218 0 0 0 .7031-.312l.168.4a1.7746 1.7746 0 0 1 -1.0474.3838c-.4633 0-.7592-.2237-.7592-.7036a2.777 2.777 0 0 1 .12-.6714l.4635-1.8711h-.5435l.0957-.44h.56l.2959-1.1831.6079-.0962-.3285 1.2793h.8794l-.0879.44h-.9034z"/><path d="m65.272 82.16c0 .0562.0079.1441.0079.2642a3.8909 3.8909 0 0 1 -.128.96l-.5434 2.3745h-.56l.5674-2.4785a4.4466 4.4466 0 0 0 .1279-1.12zm-.0561-.7753a.3745.3745 0 0 1 -.3916-.376.3919.3919 0 0 1 .7837 0 .3747.3747 0 0 1 -.3921.3759z"/><path d="m68.1514 85.4065a1.727 1.727 0 0 1 -1.0791.4317c-.5839 0-1.0556-.3282-1.0556-1.2154 0-1.0634.6719-2.5424 1.8393-2.5424a1.2334 1.2334 0 0 1 .8711.3354l-.2314.3838a.9228.9228 0 0 0 -.6157-.2476c-.8477 0-1.3033 1.295-1.3033 2.0469 0 .5117.2237.7593.5835.7593a1.3609 1.3609 0 0 0 .7915-.3438z"/><path d="m70.8316 85.7581a3.6943 3.6943 0 0 1 .0156-.7754 1.793 1.793 0 0 1 -1.311.8633c-.56 0-.8237-.4-.8237-.9834 0-1.2632.9433-2.7822 2.1191-2.7822a1.5807 1.5807 0 0 1 1.127.4394l-.5117 2.0947a5.52 5.52 0 0 0 -.1119 1.1436zm.1758-1.7832a8.9624 8.9624 0 0 0 .36-1.271.8329.8329 0 0 0 -.544-.168c-.7514 0-1.5591 1.1675-1.5591 2.231 0 .2636.08.5752.4077.5752.416 0 1.0156-.5835 1.3354-1.3672z"/><path d="m74.1837 80.3289a2.8234 2.8234 0 0 1 -.064.9995l-.5518 2.4546a7.286 7.286 0 0 0 -.24 1.3594 2.2923 2.2923 0 0 0 .08.5756l-.48.1358a1.7755 1.7755 0 0 1 -.1519-.7275 5.86 5.86 0 0 1 .2242-1.3589l.5835-2.503a2.93 2.93 0 0 0 .0878-.9033z"/><path d="m76.0474 80.3289a2.821 2.821 0 0 1 -.0639.9995l-.5518 2.4546a7.286 7.286 0 0 0 -.24 1.3594 2.2963 2.2963 0 0 0 .08.5756l-.48.1358a1.7738 1.7738 0 0 1 -.1519-.7275 5.8643 5.8643 0 0 1 .2241-1.3589l.5835-2.503a2.93 2.93 0 0 0 .0879-.9033z"/><path d="m79.3511 82.16a9.9433 9.9433 0 0 1 -3.4384 5.1412l-.2959-.4478a7.5118 7.5118 0 0 0 1.5032-1.4073l-.6233-3.2861h.6157l.3838 2.7745a8.7955 8.7955 0 0 0 1.2871-2.7745z"/><path d="m83.5909 82.76a1.8664 1.8664 0 0 0 -.7993-.232c-.376 0-.5039.2163-.5039.44 0 .6635 1.1113.9672 1.1113 1.9028 0 .4878-.3438.9438-1.1431.9438a2.2149 2.2149 0 0 1 -1.1274-.3281l.168-.4238a2.0522 2.0522 0 0 0 .9751.312c.3759 0 .5839-.208.5839-.5039 0-.68-1.12-1.0073-1.12-1.9028 0-.4639.312-.8716 1.04-.8716a2.1206 2.1206 0 0 1 .9756.248z"/><path d="m85.3433 82.16a3.7964 3.7964 0 0 1 -.0078.7437 1.6664 1.6664 0 0 1 1.3355-.8154c.9355 0 .8633.9033.6953 1.6792l-.4395 1.9907h-.56l.44-2.0469c.12-.5439.1919-1.1274-.3037-1.1274-.5117 0-1.1675.6079-1.4394 1.7031l-.3277 1.4712h-.56l.5835-2.63a4.3406 4.3406 0 0 0 .0879-.9678z"/><path d="m90.399 85.7581a3.7344 3.7344 0 0 1 .0161-.7754 1.793 1.793 0 0 1 -1.311.8633c-.56 0-.8238-.4-.8238-.9834 0-1.2632.9434-2.7822 2.1187-2.7822a1.5808 1.5808 0 0 1 1.1274.4394l-.5117 2.0947a5.52 5.52 0 0 0 -.1118 1.1436zm.1763-1.7832a8.946 8.946 0 0 0 .36-1.271.8334.8334 0 0 0 -.5439-.168c-.7515 0-1.5591 1.1675-1.5591 2.231 0 .2636.08.5752.4077.5752.4158 0 1.0154-.5835 1.3353-1.3672z"/><path d="m93.3756 82.16a3.4509 3.4509 0 0 1 -.0245.8716 1.9031 1.9031 0 0 1 1.4317-.9511c.5752 0 1.0713.4155.7832 1.7265-.2876 1.2954-1.1113 2.0391-2.0786 2.0391a1.7312 1.7312 0 0 1 -.7036-.1519l-.4161 1.9029h-.5595l.9834-4.4693a3.9039 3.9039 0 0 0 .0884-.9678zm-.4639 3.0064a.9236.9236 0 0 0 .6157.208c.6475 0 1.2471-.6235 1.4712-1.6392.2-.9516-.08-1.1591-.3838-1.1591-.5117 0-1.2554.7275-1.4555 1.583z"/><path d="m97.4156 82.16a3.4557 3.4557 0 0 1 -.0244.8716 1.9029 1.9029 0 0 1 1.4316-.9511c.5752 0 1.0713.4155.7832 1.7265-.2876 1.2954-1.1113 2.0391-2.0786 2.0391a1.7316 1.7316 0 0 1 -.7036-.1519l-.416 1.9029h-.56l.9834-4.4693a3.8991 3.8991 0 0 0 .0888-.9678zm-.4639 3.0064a.9237.9237 0 0 0 .6158.208c.6474 0 1.247-.6235 1.4711-1.6392.2-.9516-.08-1.1591-.3837-1.1591-.5118 0-1.2554.7275-1.4556 1.583z"/><path d="m101.4874 82.16c0 .0562.0078.1441.0078.2642a3.89 3.89 0 0 1 -.1279.96l-.5435 2.3745h-.56l.5674-2.4785a4.4466 4.4466 0 0 0 .1279-1.12zm-.0562-.7753a.3745.3745 0 0 1 -.3916-.376.3919.3919 0 0 1 .7837 0 .3747.3747 0 0 1 -.3921.3759z"/><path d="m103.4312 82.16a3.7964 3.7964 0 0 1 -.0078.7437 1.6664 1.6664 0 0 1 1.3355-.8154c.9355 0 .8632.9033.6953 1.6792l-.4395 1.9907h-.56l.44-2.0469c.12-.5439.1919-1.1274-.3037-1.1274-.5117 0-1.1675.6079-1.44 1.7031l-.3276 1.4712h-.56l.5835-2.63a4.3406 4.3406 0 0 0 .0879-.9678z"/><path d="m109.8619 81.9041a2.0746 2.0746 0 0 0 -.9194.5439.8355.8355 0 0 1 .1118.44 2.1727 2.1727 0 0 1 -1.5513 1.9189c-.12.128-.2075.2163-.2075.36.0078.352 1.271.7915 1.271 1.5351 0 .712-.9434.8716-1.6231.8716-.9033 0-1.5429-.2-1.5429-.8154 0-.6079.7436-.9277 1.5029-1.1436a.5215.5215 0 0 1 -.168-.36.6708.6708 0 0 1 .2881-.4717.7465.7465 0 0 1 -.48-.7915 1.9465 1.9465 0 0 1 1.6075-1.9114 1.1287 1.1287 0 0 1 .4716.0957 2.1843 2.1843 0 0 1 1.0552-.8zm-2.6148 3.9819c-.6074.1519-1.3032.44-1.3032.8394 0 .352.52.44.9834.44.44 0 1.0479-.1118 1.0479-.4639s-.3838-.5835-.7281-.8155zm-.2-1.9111c.0078.2558.1358.416.3677.416.4639 0 1.1113-.8716 1.12-1.4634a.3691.3691 0 0 0 -.4077-.4155c-.5279 0-1.0871.9033-1.0797 1.4629z"/><path d="m112.6392 82.8875a1.656 1.656 0 0 1 1.3111-.7993c.5835 0 .7993.3759.7993 1.0156a6.912 6.912 0 0 1 -.7915 2.7822l-.4956-.2a6.75 6.75 0 0 0 .7275-2.5107c0-.3677-.104-.5918-.4155-.5918-.48 0-1.12.5595-1.4155 1.6069l-.3355 1.5674h-.56l.9594-4.4536a3.0751 3.0751 0 0 0 .0884-.9434l.5195-.0322a2.7787 2.7787 0 0 1 -.0639 1.0474z"/><path d="m116.7193 82.16c0 .0562.0078.1441.0078.2642a3.89 3.89 0 0 1 -.1279.96l-.5435 2.3745h-.5595l.5674-2.4785a4.4466 4.4466 0 0 0 .1279-1.12zm-.0561-.7753a.3745.3745 0 0 1 -.3916-.376.3918.3918 0 0 1 .7836 0 .3746.3746 0 0 1 -.392.3759z"/><path d="m118.6627 82.16a3.7964 3.7964 0 0 1 -.0078.7437 1.6662 1.6662 0 0 1 1.3354-.8154c.9356 0 .8633.9033.6953 1.6792l-.4394 1.9907h-.56l.44-2.0469c.12-.5439.1918-1.1274-.3038-1.1274-.5117 0-1.1674.6079-1.4394 1.7031l-.3277 1.4712h-.5595l.5835-2.63a4.3466 4.3466 0 0 0 .0879-.9678z"/><path d="m122.5035 84.471a2.69 2.69 0 0 0 -.0962.5674.3087.3087 0 0 0 .3521.3359 1.3218 1.3218 0 0 0 .7031-.312l.1679.4a1.7744 1.7744 0 0 1 -1.0473.3838c-.4634 0-.7593-.2237-.7593-.7036a2.777 2.777 0 0 1 .12-.6714l.4639-1.8711h-.5435l.0957-.44h.56l.2959-1.1831.6079-.0962-.3281 1.2793h.8794l-.0879.44h-.9033z"/><path d="m124.5831 81.7361a1.3328 1.3328 0 0 0 .52-.7754c.0156-.1679-.0962-.2158-.0962-.4077a.3307.3307 0 0 1 .3521-.3359c.2714 0 .3837.2158.3837.4717a2.0093 2.0093 0 0 1 -.88 1.3833z"/><path d="m61.5362 89.9607a1.3337 1.3337 0 0 0 -.52.7754c-.0161.168.0957.2158.0957.4077a.3306.3306 0 0 1 -.3516.336c-.272 0-.3838-.2159-.3838-.4717a2.0087 2.0087 0 0 1 .8794-1.3833z"/><path d="m62.6646 92.4871a1.656 1.656 0 0 1 1.3111-.7993c.5835 0 .7993.376.7993 1.0156a6.912 6.912 0 0 1 -.7915 2.7822l-.4956-.2a6.75 6.75 0 0 0 .7275-2.5107c0-.3677-.104-.5918-.4155-.5918-.48 0-1.12.56-1.4155 1.6069l-.3355 1.5674h-.56l.96-4.4536a3.0751 3.0751 0 0 0 .0884-.9434l.5195-.0322a2.7787 2.7787 0 0 1 -.0639 1.0474z"/><path d="m68.5831 93.5828c-.2476 1.1592-.9033 1.8628-1.855 1.8628s-1.3911-.7036-1.1191-1.9507c.2475-1.1357.9111-1.8149 1.8549-1.8149.9834 0 1.375.7275 1.1192 1.9028zm-2.3985-.0322c-.208.9516.024 1.4311.6 1.4311.6 0 1.0312-.5273 1.2231-1.4389.2-.9039-.0156-1.4073-.6-1.4073-.5917 0-1.0233.5117-1.2231 1.4151z"/><path d="m70.4244 92.8391c.4477-.8.8076-1.1513 1.3511-1.1513a1.2192 1.2192 0 0 1 .3281.0478l-.0723.56a1.3617 1.3617 0 0 0 -.2719-.0317c-.7115 0-1.3829 1.0551-1.6949 2.2788l-.1679.8154h-.56l.5517-2.63a3.8553 3.8553 0 0 0 .0957-.9677h.496a3.3777 3.3777 0 0 1 -.0479 1.0317z"/><path d="m73.32 91.76c0 .0561.0078.144.0078.2641a3.8887 3.8887 0 0 1 -.1279.9595l-.5435 2.3745h-.56l.5674-2.4785a4.4511 4.4511 0 0 0 .128-1.12zm-.0562-.7754a.3745.3745 0 0 1 -.3916-.376.3919.3919 0 0 1 .7837 0 .3746.3746 0 0 1 -.3917.3756z"/><path d="m74.3448 94.846c.8477.0957 1.2554.6318 2.2388.4555v.4639c-1.3194.2158-1.5591-.4878-2.9263-.5278l-.0562-.3355 2.5189-2.6948h-1.815l.08-.4477h2.4068l.04.4z"/><path d="m80.023 93.5828c-.2475 1.1592-.9033 1.8628-1.855 1.8628s-1.3911-.7036-1.1191-1.9507c.2476-1.1357.9116-1.8149 1.855-1.8149.9834 0 1.375.7275 1.1191 1.9028zm-2.3984-.0322c-.208.9516.0239 1.4311.6 1.4311.6 0 1.0312-.5273 1.2231-1.4389.2-.9039-.0161-1.4073-.6-1.4073-.5918 0-1.0234.5117-1.2231 1.4151z"/><path d="m81.9205 91.76a3.833 3.833 0 0 1 -.0083.7436 1.6663 1.6663 0 0 1 1.3354-.8154c.9356 0 .8633.9033.6953 1.6792l-.4394 1.9907h-.56l.4395-2.0469c.12-.5439.1919-1.1274-.3037-1.1274-.5118 0-1.1675.6079-1.44 1.7031l-.3276 1.4712h-.56l.5835-2.63a4.34 4.34 0 0 0 .0879-.9677z"/><path d="m85.76 94.0706a2.6974 2.6974 0 0 0 -.0962.5674.3088.3088 0 0 0 .3521.3359 1.3218 1.3218 0 0 0 .7031-.312l.168.4a1.7746 1.7746 0 0 1 -1.0474.3838c-.4634 0-.7593-.2236-.7593-.7036a2.7782 2.7782 0 0 1 .12-.6714l.4638-1.8707h-.5434l.0957-.44h.56l.2959-1.1832.6077-.0968-.3284 1.28h.8794l-.0879.44h-.9031z"/><path d="m89.5113 95.3577a3.7344 3.7344 0 0 1 .0161-.7754 1.793 1.793 0 0 1 -1.311.8633c-.56 0-.8237-.4-.8237-.9834 0-1.2632.9433-2.7822 2.1186-2.7822a1.5808 1.5808 0 0 1 1.1274.4394l-.5117 2.0947a5.52 5.52 0 0 0 -.1118 1.1436zm.1763-1.7832a8.9424 8.9424 0 0 0 .36-1.271.8334.8334 0 0 0 -.5439-.168c-.7515 0-1.5591 1.1675-1.5591 2.231 0 .2637.08.5752.4077.5752.4158 0 1.0154-.5835 1.3353-1.3672z"/><path d="m92.8638 89.9285a2.821 2.821 0 0 1 -.0639.9995l-.5518 2.4546a7.286 7.286 0 0 0 -.24 1.3594 2.2936 2.2936 0 0 0 .08.5757l-.48.1357a1.7755 1.7755 0 0 1 -.1519-.7275 5.8643 5.8643 0 0 1 .2241-1.3589l.5835-2.503a2.93 2.93 0 0 0 .0879-.9033z"/><path d="m97.1593 92.3592a1.8664 1.8664 0 0 0 -.7994-.232c-.3759 0-.5039.2163-.5039.44 0 .6635 1.1114.9673 1.1114 1.9028 0 .4878-.3438.9438-1.1431.9438a2.2146 2.2146 0 0 1 -1.1274-.3281l.1679-.4238a2.0525 2.0525 0 0 0 .9751.312c.376 0 .584-.208.584-.5039 0-.68-1.12-1.0073-1.12-1.9028 0-.4639.312-.8716 1.04-.8716a2.1206 2.1206 0 0 1 .9756.248z"/><path d="m98.5924 94.0706a2.6907 2.6907 0 0 0 -.0962.5674.3087.3087 0 0 0 .352.3359 1.3218 1.3218 0 0 0 .7031-.312l.168.4a1.7746 1.7746 0 0 1 -1.0474.3838c-.4633 0-.7592-.2236-.7592-.7036a2.777 2.777 0 0 1 .12-.6714l.4635-1.8707h-.5435l.0957-.44h.56l.2959-1.1832.6079-.0961-.3285 1.2793h.8794l-.0879.44h-.9033z"/><path d="m102.4947 95.0618a2.16 2.16 0 0 1 -1.1831.3838c-.7036 0-1.1035-.3677-1.1035-1.1992a2.4241 2.4241 0 0 1 1.9512-2.5664c.6 0 .8793.3354.8793.7431 0 .7119-.7675 1.1514-2.2949 1.5835l-.0078.1836c0 .5757.208.8.68.8a1.7056 1.7056 0 0 0 .9194-.3359zm-1.6787-1.5112c1.1431-.3438 1.7031-.6158 1.7031-1.0635 0-.24-.1763-.3516-.416-.3516-.5039 0-1.0713.6158-1.2871 1.4151z"/><path d="m104.6392 91.76a3.5257 3.5257 0 0 1 -.0078.7758 1.6871 1.6871 0 0 1 1.2793-.8554c.5195 0 .7119.3994.7276.8711a1.7411 1.7411 0 0 1 1.3354-.8711.7521.7521 0 0 1 .7915.8554c0 .8233-.6074 1.8628-.56 2.8223h-.5439c-.0557-1.0234.52-1.9668.52-2.6865 0-.28-.12-.4956-.3681-.4956-.4878 0-1.1592.68-1.3912 1.7031l-.32 1.479h-.56l.4556-2.0708a2.88 2.88 0 0 0 .0879-.6235c0-.2642-.0718-.4878-.3354-.4878-.4722 0-1.1514.6635-1.3834 1.7109l-.3359 1.4712h-.56l.5835-2.63a3.9228 3.9228 0 0 0 .0879-.9677z"/><path d="m112.6392 92.4871a1.6575 1.6575 0 0 1 1.3116-.7993c.5835 0 .8.376.8 1.0156a6.914 6.914 0 0 1 -.792 2.7822l-.4956-.2a6.75 6.75 0 0 0 .7275-2.5107c0-.3677-.104-.5918-.4155-.5918-.48 0-1.12.56-1.4156 1.6069l-.3354 1.5674h-.56l.96-4.4536a3.0737 3.0737 0 0 0 .0879-.9434l.52-.0322a2.7807 2.7807 0 0 1 -.0639 1.0474z"/><path d="m116.7193 91.76c0 .0561.0078.144.0078.2641a3.8887 3.8887 0 0 1 -.1279.9595l-.5435 2.3745h-.5595l.5674-2.4785a4.4464 4.4464 0 0 0 .1279-1.12zm-.0561-.7754a.3745.3745 0 0 1 -.3916-.376.3918.3918 0 0 1 .7836 0 .3746.3746 0 0 1 -.392.3756z"/><path d="m118.6636 91.76a3.8172 3.8172 0 0 1 -.0083.7436 1.6665 1.6665 0 0 1 1.3355-.8154c.9355 0 .8633.9033.6953 1.6792l-.4394 1.9907h-.56l.4394-2.0469c.12-.5439.1919-1.1274-.3037-1.1274-.5117 0-1.1675.6079-1.4394 1.7031l-.3277 1.4712h-.5595l.5835-2.63a4.3462 4.3462 0 0 0 .0879-.9677z"/><path d="m122.5035 94.0706a2.6907 2.6907 0 0 0 -.0962.5674.3087.3087 0 0 0 .3521.3359 1.3218 1.3218 0 0 0 .7031-.312l.1679.4a1.7744 1.7744 0 0 1 -1.0473.3838c-.4634 0-.7593-.2236-.7593-.7036a2.777 2.777 0 0 1 .12-.6714l.4639-1.8711h-.5435l.0957-.44h.56l.2959-1.1832.6079-.0961-.3281 1.2793h.8794l-.0879.44h-.9033z"/><path d="m124.5836 91.3357a1.3293 1.3293 0 0 0 .5195-.7754c.0161-.1679-.0957-.2158-.0957-.4077a.3306.3306 0 0 1 .3516-.3359c.2719 0 .3837.2158.3837.4717a2.0086 2.0086 0 0 1 -.8793 1.3833z"/></g><path d="m6.4609 29.0278c12.6522 4.1759 19.1085-6.0488 31.2691-2.7878" fill="none" stroke="#ef4136" stroke-miterlimit="10" stroke-width="2"/><path d="m5.774 34.02-5.774-8.13 9.927-.937z" fill="#ef4136"/><path d="m34.427 30.472 9.877-1.371-6.125-7.869z" fill="#ef4136"/><path d="m120.6945 149.8823c2.4-9.4859-4.5851-14.8359-2.8816-23.945" fill="none" stroke="#ef4136" stroke-miterlimit="10" stroke-width="2"/><path d="m125.66 150.326-7.869 6.125-1.371-9.877z" fill="#ef4136"/><path d="m122.233 129.041-1.807-9.806-7.59 6.467z" fill="#ef4136"/><path d="m61.0681 13.393h-8.5051" fill="none" stroke="#fbb040" stroke-miterlimit="10"/><path d="m54.022 8.407-8.635 4.986 8.635 4.986z" fill="#fbb040"/><path d="m61.0681 26.2085h-8.5051" fill="none" stroke="#ef4136" stroke-miterlimit="10"/><path d="m54.022 21.222-8.635 4.986 8.635 4.987z" fill="#ef4136"/><path d="m117.9258 99.9002v11.1581" fill="none" stroke="#ef4136" stroke-miterlimit="10"/><path d="m112.939 109.599 4.987 8.636 4.986-8.636z" fill="#ef4136"/><path d="m127.221 70.84h6.319v40.218" fill="none" stroke="#fbb040" stroke-miterlimit="10"/><path d="m128.553 109.599 4.987 8.636 4.986-8.636z" fill="#fbb040"/></svg>