<svg clip-rule="evenodd" fill-rule="evenodd" stroke-linejoin="round" stroke-miterlimit="2" viewBox="0 0 500 500" xmlns="http://www.w3.org/2000/svg"><path d="m0 0h500v500h-500z" fill="#fff"/><path d="m351.935 176.223c-11.115-52.017-49.35-74.692-96.477-74.692-67.578 0-116.039 50.684-116.039 148.939 0 99.145 48.906 150.273 116.928 150.273 69.802 0 110.26-38.68 110.26-140.492h-95.588c-7.114 0-7.114-9.781 0-9.781h140.936c3.112 0 5.78 1.779 5.78 5.78 0 111.148-84.028 154.274-161.388 154.274-80.471 0-168.501-54.241-168.501-160.054s86.252-158.72 167.612-158.72c53.351 0 104.48 20.451 132.934 54.241 8.447 9.781 15.116 21.34 15.116 35.567 0 12.893-8.892 22.23-22.674 22.23-21.341 0-27.121-19.562-28.899-27.565" fill-rule="nonzero"/></svg>